<svg version="1.2" xmlns="http://www.w3.org/2000/svg" viewBox="0 0 268 266" width="500" height="500">
	<title>bear</title>
	<style>
		.s0 { fill: #5b2a15 } 
		.s1 { fill: #442115 } 
		.s2 { fill: #6b331f } 
		.s3 { fill: #723b1f } 
	</style>
	<g id="&lt;Group&gt;">
		<path id="&lt;Path&gt;" class="s0" d="m189.5 123.2l-1.8 9.5-0.9 9.6-2.5 7 0.6 10.2 2.2 13.5 0.9 8 2.5 2.8 5.8 2.8 2.5 2.4v3.4l-7.4 1.2-9.9-0.3-7-1.8-1.6-4.9-3.3-1.3-0.7-3.4-1.8-0.9-0.6-3.1c0 0-0.3-3-0.6-4-0.3-0.9-5.3-15-5.3-15l6.8-23.4 12.3-17.5z"/>
		<path id="&lt;Path&gt;" class="s1" d="m171.3 158.2l-4.1 8.5-1.7 6.3c-1.1-3.4-4.9-14.1-4.9-14.1l6.8-23.4 12-17q0.5-0.1 1.1-0.1l9 4.8-1.8 9.5-0.9 9.6-2.5 7 0.6 10.2 1.2 7.4c-1.4-2.6-2.8-5-2.8-5l-4.8-6.2z"/>
		<path id="&lt;Path&gt;" class="s1" d="m224.3 85.7l0.4-3.7-1-2.8-2.5-1.8-2.3-0.2-4.3 1.9 9.4 6.4z"/>
		<path id="&lt;Path&gt;" class="s1" d="m85.9 146l-4.6 13.2-4.9 8.9-4 7.7 0.6 5.2 5.8 3.7 4.3 2.8 1.6 3.4-4.3 1.5h-5.2-6.5l-8.3-2.8-2.5-9.2 4.3-18.1 11.7-20.3z"/>
		<path id="&lt;Path&gt;" class="s2" d="m248.6 111.8l-2.5-0.9-8.9-8.3-4.3-10.4-7.7-7.4-9.2-7.1-11.1-2.2-8.9 1-12.3-3.4-20-10.8-8.3 0.3-26.1 5.9-23.1 1.5-31-2.4-9 1.2-20 16-20.3 22.7-0.6 26.5 1.3 23.3 7 13.6 3.7 18.1 4.9 8 5.3 2.2h14.1c0.6-1.3 8-0.3 8-0.3l3.4-0.7-1.8-6.1-7.7-2.2-1.9-4.9 0.3-6.4 12-27.4 5.9-1.5 9.5 1.5 7.7-4.3 12 1.5 13.2 1.9 11.4-6.5v8.6l1.5 15.4 2.2 4-1 2.5 1.3 1.8 2.1 0.9 0.9 3.1 1.3 3.7-0.9 2.4 1.2 2.8 1.5 7.1 9.2 1.2 10.5 0.6 7.1-2.1v-4l-3.7-2.8-4.9-1.8-2.5-4.3 1.9-11.1 5.2-24.9 10.1-15.4 4-6.1 10.2 0.9 3 6.4 7.4-0.9 10.5-3.7 5.8-4.9 7.7-0.3 10.8 0.6 2.7-0.3 1.6-2.1 4-1.3 4.6-4.9z"/>
		<path id="&lt;Path&gt;" class="s0" d="m25.3 134l0.6-26.5 20.3-22.7 20-16 9-1.2 31 2.4 23.1-1.5 26.1-5.9 8.3-0.3 20 10.8 12.3 3.4 8.9-1 11.1 2.2 9.2 7.1 6.4 6.1-0.5 4.3-6.5 2.8-3.1 2.5-2.4-2.2 1.8-6.5v-4l-8.6-1.2-7.1 1.9-10.1-3.4-12.6-2.8-6.8-4.6-4.9 1.2-4.3 3.1-3.4-4-3.4-4.9-9.2-3.7-8.6 3.1c0 0-14.8 2.7-15.7 2.7-0.9 0-25.8 3.4-25.8 3.4l-9.3 11.1-7.7-1.2-13.8-4.3-9.5-1.9-12 8-8.3 13.2-1.9 13.9-0.3 11 4.3 11.4 0.3 10.2-4 9.8-1.5 7.7 3.1 12.6 1.8 6.5 1.9 5.8-0.6 4.9-0.7-0.3-4.9-8-3.7-18.1-7-13.6z"/>
		<path id="&lt;Path&gt;" class="s3" d="m42 89.6l4.2-4.8 20-16 9-1.2 31 2.4 23.1-1.5 26.1-5.9 8.3-0.3 20 10.8 12.3 3.4 8.9-1 11.1 2.2 9.2 7.1 5.6 5.4-2.5-0.2-6.8-6.8-6.4-4.3-7.1-1.2h-16l-8-0.9-4.9-3.7-16.3-7.4-8-0.6-20.3 4.3-11.4 1.8-24.3 0.4-18.1-1.3-13.9 1.3-8.6 5.5-13.2 10.7z"/>
		<path id="&lt;Path&gt;" class="s0" d="m174.1 131v-7.2l0.2-9.7v-6l5.3-2.3 9.9 4.4 5.8 5.6 5.5-4.4 7.2-4.6 6.2-3.7-3 4.8 3.2 6.9 6-1.1 5.8-2.3 5.8-6 3.2-7.6 2 4.8 1.1 1.1-7.5 13.4-4 5.9-1.6-0.1-7.7 0.3-5.8 4.9-10.5 3.7-7.4 0.9-3-6.4-10.2-0.9-4 6.1-3.2 4.9z"/>
		<path id="&lt;Path&gt;" class="s1" d="m231.7 97.8l0.1 1.1-0.9 0.5 0.5 1.7 0.3 0.7-0.8 0.3-3.7-2.6 1.2-0.6z"/>
		<path id="&lt;Path&gt;" class="s3" d="m218.7 123.2l2.5-5.2 3.7-2.8 5.2-4.6 3.7-5.8 2.2-5 1.2 2.8 8.9 8.3 2.5 0.9 0.3 3.1-4.6 4.9-4 1.3-1.6 2.1-2.7 0.3-10.8-0.6z"/>
		<path id="&lt;Path&gt;" class="s0" d="m221.8 89.7c0-0.5-0.6-3.2-0.6-3.2l-4-3.4-3.2 0.3-2.9 2.3-0.5 4.3 0.9 2.5 2.8-0.3 4-1.6z"/>
		<path id="&lt;Path&gt;" class="s1" d="m214.2 92.2l-2.7 0.3-0.9-2.5 0.5-4.3 2.9-2.3 3.2-0.3 4 3.4c0 0 0.6 2.7 0.6 3.2l-0.6 0.2-1.5-3.1-2.3-2.3h-3l-1.2 2.4 0.8 4.2z"/>
		<path id="&lt;Path&gt;" class="s0" d="m245.3 112.1l1.1-1.1 2.2 0.8 0.3 3.1-1.9 2-0.7-1.4 0.1-1.7-1.2-0.3z"/>
		<path id="&lt;Path&gt;" class="s0" d="m232.7 118.6l5 1.4 4.5 0.5-1.9 0.6-0.1 0.1-2.1-0.4-1.8-0.4-2.5-0.4-2.6-0.3-2.3 0.1-0.9-0.6 0.9-1.1z"/>
		<path id="&lt;Path&gt;" class="s0" d="m97 146.9l-7.7 4.3-9.5-1.5-5.9 1.5-7.6 17.4-0.8-2.6-0.3-11 0.7-10.2 3.3-14.1-1-12.2 2.3-1.4 4.7 4.2 17.7 7.1 15.2 3 13.2-2 7.8-5.3 10.4-8.6 3.2 1.2-0.4 5 3.2 8.6 5.3 4.8 7.4 4.6 4.1 8.3 1.9 9.9-2.9 13.9-1.9 11.1 2.5 4.3 4.9 1.8 3.7 2.8v4l-7.1 2.1-10.5-0.6-9.2-1.2-1.5-7.1-1.2-2.8 0.9-2.4-1.3-3.7-0.9-3.1-2.1-0.9-1.3-1.8 1-2.5-2.2-4-1.5-15.4v-8.6l-11.4 6.5-13.2-1.9z"/>
		<path id="&lt;Path&gt;" class="s0" d="m60.2 195.1l1.4 4.1h-1.4l-1-2.7-2.7-2.3c0.4-1.2 3.7 0.9 3.7 0.9z"/>
		<path id="&lt;Path&gt;" class="s0" d="m67.5 193.9l1.9 3-0.1 1.9c-0.4 0-1-0.1-1.6-0.1l-0.4-2.7-2.8-2.3-2-0.7c0.2-0.9 5 0.9 5 0.9z"/>
		<path id="&lt;Path&gt;" class="s1" d="m77.7 143.9l1.8-6 6.7 1.1 17.3 1.7 11.1 1.1 13.1-2.1 8.1-3.2 3 6.7-1.2 5.8 0.3 12.4 2.3 9.7 4.1 7.2-1.3 6.9-1.5 2.4-0.5-1.4 0.9-2.4-1.3-3.7-0.9-3.1-2.1-0.9-1.3-1.8 1-2.5-2.2-4-1.5-15.4v-8.6l-11.4 6.5-13.2-1.9-12-1.5-7.7 4.3-9.5-1.5-5.1 1.3c1-2.3 3-7.1 3-7.1z"/>
		<path id="&lt;Path&gt;" class="s1" d="m147.7 196.6l-4-0.5-1.1-5.2 3.1 1.7z"/>
		<path id="&lt;Path&gt;" class="s1" d="m161.9 197.8l-2.4-0.1-0.2-2.4-3.4-2.7-0.7-1.4 5.7 2.3z"/>
		<path id="&lt;Path&gt;" class="s1" d="m160.9 191.4c0.3-0.9 4.9 0.9 4.9 0.9l1.8 2.1 0.6 2.1-1.4 0.4-0.6-2.5-3.4-2.5z"/>
	</g>
</svg>