<svg version="1.2" xmlns="http://www.w3.org/2000/svg" viewBox="0 0 292 222" width="500" height="500">
	<title>eagle</title>
	<style>
		.s0 { fill: #a37e6d } 
		.s1 { fill: #493824 } 
		.s2 { fill: #6b563f } 
		.s3 { fill: #6d5f51 } 
		.s4 { opacity: .6;fill: #623c23 } 
		.s5 { opacity: .3;fill: #3c3020 } 
		.s6 { opacity: .4;fill: #3c3020 } 
		.s7 { fill: #3c3020 } 
		.s8 { opacity: .5;fill: #9e8a77 } 
		.s9 { fill: #b39382 } 
		.s10 { opacity: .6;fill: #4e3621 } 
		.s11 { opacity: .3;fill: #21140b } 
		.s12 { fill: #cca99a } 
		.s13 { fill: #1e140b } 
		.s14 { fill: #563d26 } 
		.s15 { fill: #473120 } 
		.s16 { fill: #614632 } 
		.s17 { fill: #473321 } 
		.s18 { fill: #422f21 } 
		.s19 { opacity: .4;fill: #7a5232 } 
		.s20 { fill: #b7aaa0 } 
		.s21 { fill: #6f645a } 
		.s22 { opacity: .6;fill: #261c11 } 
		.s23 { fill: #5d5545 } 
		.s24 { fill: #261c11 } 
		.s25 { fill: #a35b13 } 
		.s26 { fill: #0d0b14 } 
		.s27 { fill: #7e746a } 
		.s28 { fill: #c3c2c1 } 
		.s29 { fill: #392a1b } 
		.s30 { opacity: .6;fill: #6d5f51 } 
		.s31 { opacity: .1;fill: #b7aaa0 } 
		.s32 { opacity: .6;fill: #42291b } 
		.s33 { opacity: .2;fill: #b7aaa0 } 
		.s34 { opacity: .5;fill: #b7aaa0 } 
		.s35 { opacity: .8;fill: #3d2e23 } 
		.s36 { fill: #3d2e23 } 
		.s37 { opacity: .5;fill: #3d2e23 } 
		.s38 { fill: #21140b } 
		.s39 { fill: #dad3cd } 
		.s40 { fill: #c9beb5 } 
		.s41 { opacity: .8;fill: #eaeaea } 
		.s42 { opacity: .7;fill: #17506c } 
		.s43 { fill: #35251b } 
		.s44 { opacity: .3;fill: #261307 } 
		.s45 { opacity: .7;fill: #281c14 } 
		.s46 { opacity: .3;fill: #281c14 } 
		.s47 { fill: #6a6353 } 
		.s48 { fill: #38271c } 
		.s49 { fill: #89776e } 
		.s50 { opacity: .7;fill: #c9beb5 } 
		.s51 { fill: #6d6354 } 
		.s52 { fill: #918c84 } 
		.s53 { opacity: .5;fill: #c3c2c1 } 
		.s54 { opacity: .3;fill: #c3c2c1 } 
		.s55 { fill: #9e8a77 } 
		.s56 { fill: #2f2114 } 
		.s57 { opacity: .4;fill: #ffffff } 
	</style>
	<g id="&lt;Group&gt;">
		<path id="&lt;Path&gt;" class="s0" d="m165.4 118.3c1.6 0.6 4.3 2.4 4.4 4.3 0.1 2-4.2 4.2-5.2 2.2z"/>
		<path id="&lt;Compound Path&gt;" fill-rule="evenodd" class="s1" d="m228.4 87q-0.6 0.3-1.3 0.7c-1.7 1-4.2 1.1-5.7 2.2-0.7 0.5-1.4 1.3-2.2 2.1-0.7 0.6-1.4 1.3-2.3 1.5-2.7 0.7-3 2.6-5.3 3.9-1.9 1.1-3.2 0.8-5 2.6-2.1 2.2-3 2.2-5.7 3-2.6 0.7-2.2 4.6-4.1 6.3-1.7 1.5-2.9-0.5-4.4 1.6-0.6 0.7-2.2 2-3.1 2.4-1.1 0.6-1.7 2.6-2.7 3-1.2 0.6-1 1.5-1.9 2.3-1 0.8-2.7-2.7-3.8-2.3-2.1 0.7-2.4 4.8-4 5.5-1.1 0.5-2.4 0.2-3.5 0.3-1 0.1-1.9 0.8-2.9 1-2.6 0.7-0.2-8.9-8.9-5.5l-1.3 0.7q-0.2-0.1-0.4-0.1c-3.9 0.3-3-1.3-4.2-2.5-2.1-1.9-0.1 6.4-2.2 3.8-0.9-1.1-1.2-2.5-1.9-3.7q-0.1-0.2-0.4-0.4-1.1 0.4-1.5 0.5l-15.6-5.1c1.2-0.5 16.3 0.5 18.5 0 2.1-0.5 20.7-8.2 22.6-10.3 1.9-2.1 22.2-15.3 32.7-18.1 10.2-2.7 28.1-3.2 46.6-27.2 1.5-1.9 0.8-1.4 1.5-1.9 1.1-0.7 2.6-2.9 2.4-1.2q-0.8 1.8-1.4 3.6-0.2 0.7-0.4 1.4-0.9 1.5-1.9 2.8 0.5-0.5 0.8-0.6 0.2-0.1 0.4-0.1c-0.3 0.7-0.7 1.4-1.2 2.1-1 1.2-2.2 2.1-2.8 3.6-0.4 0.9-0.6 1.8-1.3 2.6-0.6 0.9-1.6 1.6-2.4 2.3-1.1 1.1-1.6 2.4-2.3 3.7-0.9 1.6-2.5 2.4-3.9 3.5-1.4 1-2.3 2.4-3.5 3.6-1.4 1.4-3.2 2.3-5 3.1-1.7 0.9-3.6 2-5.1 3.3zm19.9-20.4c0 0 0.3-0.3 0.7-0.7q-0.4 0.4-0.7 0.7z"/>
		<path id="&lt;Path&gt;" class="s0" d="m233.7 83.7c1.7-0.8 3.5-1.7 4.9-3.1 1.2-1.2 2.1-2.6 3.5-3.6 1.4-1.1 3-1.9 3.9-3.5 0.7-1.3 1.3-2.6 2.3-3.7 0.8-0.7 1.8-1.4 2.5-2.3 0.6-0.8 0.8-1.7 1.2-2.6 0.6-1.5 1.8-2.4 2.8-3.6 0.6-0.7 0.9-1.4 1.2-2.1q-0.2 0-0.4 0.1-0.3 0.1-0.8 0.6 1-1.3 1.9-2.8 0.2-0.7 0.4-1.4 0.4-1.2 0.9-2.3c-2.3 2.7-4.4 6-6.2 8.8-3 4.4-6.2 6.9-10.3 10.1-4.5 3.6-5.1 4.2-10.2 6.8-10.6 5.4-19.6 18.3-39.3 17.2l15.8 2.8c1.2-0.9 2.4-0.8 3.9-1.7 2.3-1.3 2.6-3.2 5.3-3.9 0.9-0.2 1.6-0.9 2.3-1.5 0.9-0.8 1.5-1.6 2.2-2.1 1.5-1.1 4-1.2 5.7-2.2q0.7-0.4 1.3-0.7c1.5-1.3 3.4-2.4 5.2-3.3z"/>
		<path id="&lt;Path&gt;" class="s2" d="m241.5 72.3c-2.8 2.2-4.1 3.3-5.9 4.4 5.7-0.8 10.6-4.8 14-9.1 1.8-2.4 3.6-5.1 5.1-7.6 0.8-1.2 1.6-3 1.4-4.3-1.5 2.2-3 4.5-4.3 6.5-3 4.4-6.2 6.9-10.3 10.1z"/>
		<path id="&lt;Path&gt;" class="s0" d="m230.2 85.7c-1.6 0.2-3.2 0.4-4.7 0.6-1.9 0.2-3.8 0.4-5.7 0.5-2.2 0.1-3.5 0.8-5.5 1.5-2.1 0.8-3.8 0.6-5.8 1.4-1.9 0.6-4.3 1.2-6.1 1.8-1.9 0.7-3.8 1.2-5.5 2.3-1.6 1-2.8 1.7-4.2 2.6-2.8 1.8-5.3 4.6-8.8 5.4-0.2 2.5-2.5 3.1-4.4 4.1-2.4 1.2-3.7 3.4-5.9 4.8-1.8 1.1-2.2 2.7-4 3.6-1 0.5-7.5 0.5-6.8 0.9l3.8 5.1c1.2 0.3 3 3.1 4 2.8 1-0.2 1.9-0.9 2.9-1 1.1-0.1 2.4 0.2 3.5-0.3 1.7-0.7 1.6-2.9 3.7-3.6 1.2-0.3 3.1 1.2 4.1 0.4 0.9-0.8 0.7-1.7 1.9-2.3 1-0.4 3.1-1.9 4.2-2.5 0.8-0.4 3-0.4 3.6-1.2 1.6-2 0.7-1.8 2.4-3.3 1.9-1.7 2.7-3.2 5.3-3.9 2.7-0.8 3.5-2.3 5.6-4.5 1.8-1.9 2-2.4 3.9-3.5 2.3-1.3 2.6-3.2 5.3-3.9 0.9-0.2 1.6-0.9 2.3-1.5 0.9-0.8 1.5-1.6 2.2-2.1 1.5-1.1 4-1.2 5.7-2.2q0.7-0.4 1.3-0.7 0.8-0.7 1.7-1.3z"/>
		<path id="&lt;Path&gt;" class="s3" d="m157.1 109.7c4-3.4 9.8-3.1 13.9-6-2.8 3.1-2.2 4.7-2.8 9.2-0.3-2.8-0.9-1.7 0.6-4.5-0.7 0-1.4 0-2.1 0 0.6-0.2 1-0.6 1.4-1.1-0.8-0.1-2 0-2.5 0q-0.7 0.8-1.3 1.6c-1 0.3-1.8 1-2.2 0.8 0.1-0.6 0-0.9 0.3-1.4-0.6 0.2-1.1 0.7-1.1 1.4-0.7 0.4-1.4 0.3-1.9-0.4-0.6 0.4-1 1-1.4 1.7-0.5-0.8-1.5-1.2-2.2-0.7z"/>
		<path id="&lt;Path&gt;" class="s3" d="m206.5 83.4c0-0.2 1.1-1.1 0.7-1.3-4.8 0.7-11 5.2-15.9 7.9-2.1 1.1-3.7 2.3-5.8 3.5-2.5 1.5-5 3.3-7.6 4.7-3.9 2.1-7.1 4.9-11.1 6.8-2.6 1.3-6.4 1.7-8.7 3.4-0.6 0.5-1 0.4-0.9 1.3 2.1 0.2 4.4-2 6.7-2.3 1.1-0.1 2.2 0.3 3.3 0.1 1.5-0.4 2.2-1.6 3.5-2.3 0.4 0.5 0.5 0.2 1.2 0.3 0.5-0.5 1.1-1.3 1.1-2.1 2.4 1 2-4.3 4-2.4 0.1-0.2 0-0.4 0-0.5 0.3-0.1 1.2 0 1.4 0-0.1 0.7 0 1.4 0.3 1.9 0.8-0.5 1-1.4 0.6-2.3 0.8 0.2 2.7-0.1 3.2-0.7-0.6-0.4-0.9-0.8-1.1-1.4 0.7 0.1 1.5 0 2.2-0.4-0.2 0.1-0.5 0.3-0.7 0.3 0-0.7 0.3-1.3 0.9-1.6 0.9 1.4 2.1 1.8 2.9-0.1-0.8 2.9 3.3 0.2 1-1.1 0.3 0.1 0.6-0.2 1-0.2-0.1-0.4 0.2-1 0.1-1.4 1.6 0 5.4-0.6 4.7-2.7 0.5 0.2 0.7 0.3 1.3 0.2 0-0.7 0.5-1.3 0.4-1.9 0.2 0 0.5 0 0.7 0 0-0.3 0-0.6 0.1-0.9 0.7 0.5 1.5 0.5 2.2 0 0 0.3-0.3 1.9-0.2 2 0.7 1 1.7-0.3 2.1-1.1-0.4 0-0.7-0.2-1.1-0.2-0.3-1.1 1-2.5 1.9-1.5 0.9-0.4 1.6-1.1 2.4-1.5q0 0.4 0 0.7c1.4 0.3 1.8-1.3 1.9-2.4 0.6 0.1 1.2-0.2 1.6-0.3 0-0.2 0-0.4-0.1-0.6 1-0.2 1.3-0.8 2.1 0-2.1 2.7 2.5 1.5 2.4 1.5 0.2-2.3 3.6-2.8 5.9-3 1.5-0.2 3.5-0.3 5-0.8 1-0.5 1.3-1.9 2.7-1 0.3-0.8 0.7-1.5 1.4-1.9 1.6 1.9 3.4-0.7 4-2 1.7 0.6 2.1-0.5 3.2-1.4 0.9-0.7 1.9-1.1 2.6-1.8-1.3 0.3-2.9 1.5-4.3 2-1.2 0.4-2.6 0.9-3.8 1.3-2.8 1.1-5.3 2.4-8.3 3.1-2.8 0.5-5.5 1.6-8.3 2.2-2.6 0.6-5.8 0.1-7.2 2.9z"/>
		<g id="&lt;Group&gt;">
			<path id="&lt;Path&gt;" class="s4" d="m173.3 110c0.4 0.4 2.5 6.2-2.2 12.4 0 0-3.7-4.6-4.1-8.1z"/>
			<path id="&lt;Path&gt;" class="s4" d="m209.9 87.9c1.3-0.3 8.7-3.3 16.9-1.3-16.9 4.3-16.8 4.4-25 4.9z"/>
			<path id="&lt;Path&gt;" class="s4" d="m237.5 81.5c-11.7 1.4-26 6-27.1 6.5l-8.8 5.3c8.3-2.2 30.8-9.9 35.6-11.5q0.1-0.1 0.3-0.3z"/>
			<path id="&lt;Path&gt;" class="s4" d="m221.8 83.6c1.3-0.8 10.1-7.2 20.2-6.6 0 0-10 3.5-26.6 9.8z"/>
			<path id="&lt;Path&gt;" class="s4" d="m208 89.5c1.2-0.1 7.6-3.2 12.9 0.4 0 0-15.6 3.9-21.9 3.2z"/>
			<path id="&lt;Path&gt;" class="s4" d="m201.6 91.8c1.1 0.1 11.7-2.2 14.8 2.3 0 0-14.9 1.7-20.2 0.2z"/>
			<path id="&lt;Path&gt;" class="s4" d="m199 92.6c1.1 0 9.7 0.3 12.7 4.8 0 0-12.9 0.7-18.2-0.8z"/>
			<path id="&lt;Path&gt;" class="s4" d="m197 95c1 0.2 9.4 0.8 10.8 5.9 0 0-12.7 0-17.1-2z"/>
			<path id="&lt;Path&gt;" class="s4" d="m193.5 97.4c0.9 0.2 8.1 2.7 8.7 8 0 0-11.5-2-15.3-4.3z"/>
			<path id="&lt;Path&gt;" class="s4" d="m189.5 99.8c1 0.2 7.4 3.6 8 8.9 0 0-11.5-2.3-15.4-4.5z"/>
			<path id="&lt;Path&gt;" class="s4" d="m184.9 102.3c0.8 0.3 7.1 5.8 6 11.5 0 0-9.4-5.3-12.2-8z"/>
			<path id="&lt;Path&gt;" class="s4" d="m181.1 104.8c0.6 0.3 6.3 7.8 3.7 13.8 0 0-7-6.2-8.8-9.4z"/>
			<path id="&lt;Path&gt;" class="s4" d="m178.4 107.6c0.4 0.4 3 7.5-1.6 13.8 0 0-4.2-6.1-4.6-9.6z"/>
			<path id="&lt;Path&gt;" class="s5" d="m199.6 92.5c0.4-0.7 4.1-2 5.4-2.6 1.3-0.6 2.8-1.1 4.2-1.7 2.7-1.1 4.9-1.6 7.6-2.4-0.8 1.4-4 2.5-5.9 3.7-2.2 1.4-2.3 2.4-3.2 3.8-1 1.6-3.6 2.8-4.8 4.4-0.6 0.7-0.5 1.3-1.4 2-1.1 0.9-3 1.7-4.3 2.5-3.1 1.9-2.1 4.7-6.3 6.1-1.7 0.6-2.9-0.1-4.1 1-1.1 0.9-1.2 4.4-2.4 5.1-1.3 0.9-3.3-0.1-4.9 0.5-1.8 0.8-1.9 2.9-3.3 3.7-1.5 0.9-2.9-0.1-4.8 2-1 1-2.2-1.2-3.9-1.2-1.2 0.1-2.8-0.8-2.6-1.5z"/>
			<path id="&lt;Path&gt;" class="s6" d="m197.9 93c3.7-2 7.7-2.4 7.1-1.6-0.5 0.8-1.6 1.3-2.5 2.1-1 0.8-0.4 1-0.5 1.7-0.2 1.2-4 2.4-4.6 3.7-0.4 0.8 0 0.8-1.8 1.7-1.1 0.5-2.2 1-3 1.7-0.7 0.6-0.7 1.2-1.7 1.8-1.2 0.7-2.2 0.8-3 1.8-0.9 1.1-1.2 1.7-3.6 2.6-1.2 0.5-2.4 0.9-3.2 1.6-0.7 0.6-0.8 1.1-1.8 1.6-0.8 0.4-2 0.7-2.9 1-1.2 0.5-1.7 0.9-2.5 1.5-1 0.8-0.7 3.6-2 4-1.3 0.5-1.2 0.5-2.3 1.1-1.5 0.9-5.4-0.7-4.8-2 1.3-3.1 7.8-5.7 10.9-8.6z"/>
			<path id="&lt;Path&gt;" class="s6" d="m201.6 92.1c0.1 0.7-0.6 1.2-1.5 2-0.7 0.6-0.6 1.1-1.2 1.7-0.7 0.6-2.2 1-3 1.6-0.7 0.6-0.7 1.1-1.6 1.7-1 0.6-1.7 0.7-2.5 1.5-0.8 0.8-1.2 0.7-2.3 1.4-1 0.6-0.7 1.1-1.5 1.6-1 0.6-2.3 0.7-3.1 1.4-0.5 0.5-0.6 0.8-1.3 1.3-0.7 0.5-1.5 0.9-2.1 1.5-0.7 0.6-0.8 0.7-2 1.3-1.2 0.6-1.1 0.8-1.7 1.5-0.5 0.7-1.4 0.9-2.1 1.6-0.3 0.2-0.4 0.5-0.7 0.8-0.4 0.3-0.9 0.6-1.3 0.8-0.9 0.7-1.3 1.2-2.9 1.5-1.4 0.2-2.1-0.4-0.5-1.1z"/>
		</g>
		<path id="&lt;Path&gt;" class="s7" d="m163.4 114.9q-0.1 0-0.2 0c1.2 1.9 3.1 2.4 4.8 0.8 0.8-0.8 1.2-1.8 2.2-2.3 0.9-0.3 1.5-0.3 2.2-1.1q1.4-1.4 3-2.6c1-0.7 1.6-1.2 2.7-1.9 0.6-0.4 1.4-1.3 2-1.6 0.9-0.3 1.1-1.1 1.9-1.7 0.7-0.6 1.4-0.7 2.1-1.4 0.5-0.5 1-0.7 1.6-1.2 1.1-0.6 1.6-1.2 2.8-1.4 0.8-0.2 1.5-0.5 2.1-1.1 0.5-0.4 0.8-1.1 1.3-1.5 0.3-0.2 0.6-0.2 0.9-0.3 0.7-0.4 1-1.2 1.7-1.6 0.3-0.2 0.7-0.2 1.1-0.4 0.5-0.3 0.7-0.8 1.3-1.1 0.3-0.1 0.7-0.1 1-0.2 1.4-0.4 2.5-1.5 3.8-2 2.8-1.1 5.3-3 8.3-3.7 1.2-0.3 2.5-0.8 3.6-1.2 1-0.3 2.1-0.2 3.1-0.8 1.1-0.7 2.2-1.2 3.4-1.8 0.6-0.2 1.8-0.6 2.1-1.1-0.5 0.1-1 0.1-1.4 0.3-0.6 0.2-0.9 0.6-1.4 0.9-0.7 0.5-1.4 0.8-2.2 0.9-1.9 0.2-3.8 1.1-5.7 1.7-0.8 0.2-1.6 0.2-2.4 0.5-0.9 0.3-1.7 0.9-2.6 1.3-1 0.4-2 0.6-2.9 1.2-1 0.6-1.9 1.2-3 1.6-4.4 1.5-8.4 4.2-12.3 6.7-0.9 0.6-1.7 1.5-2.7 1.9-1.2 0.4-2 0.9-3.1 1.7-0.5 0.4-0.9 1-1.5 1.4-0.4 0.2-0.8 0.3-1.2 0.6-0.8 0.6-1.6 1.3-2.4 1.9-0.5 0.5-0.8 1.1-1.3 1.5-0.6 0.4-1.2 0.5-1.7 0.8-0.8 0.6-1.4 1.3-2.1 1.9-1 0.8-2.3 1.4-3.2 2.3-0.1 0.1-0.4 0.6-0.6 0.6-0.3 0.1-0.5-0.3-0.8-0.2-0.5 0-0.7 0.6-1.2 0.8-0.6 0.2-1.3 0-1.9 0.3-0.3 0.2-0.6 0.8-1.2 0.3q0.1-0.1 0.2 0z"/>
		<path id="&lt;Path&gt;" class="s8" d="m180.3 97.8c-0.6 0.6-1.4 1-2.1 1.4 0.7 0.2 1.3 0.2 1.8 0 0.1-0.7-0.1-1.6 0.4-2.1 1.2 1.1 2.9 0 1.5-0.6-0.7-0.4-2.7 1.2-2.8 1.9-0.7 0.2-1.5 0.3-2.2 0.6z"/>
		<path id="&lt;Path&gt;" class="s8" d="m174.1 104.1c-0.5 0.2-1.8 1.5-2.1 1.8-0.4 0.6-0.8 0.9 0.3 1.5 1.9-1.7 4.5-0.3 4-3.8-1.4-0.8-1.2 2.6-2.9 2.5-0.1-0.7 0.4-1.1 0.6-1.6-0.8 0.3-1.3 1-1.5 1.8z"/>
		<path id="&lt;Path&gt;" class="s8" d="m173.1 101.2c-2 1.3-4 2.7-6.3 3.8-1.6 0.8-3.6 1.3-5.4 1.9q-0.1 0.3-0.1 0.6c1-0.3 2.3-0.9 3.3-1 1.1-0.1 2.7 0.9 2.8-0.9 0 0.3 0 0.6 0 1 0.1-0.6 0.2-1.2 0-1.7 0.8-0.2 1.7-0.1 2.4-0.6q0 0.1 0.1 0.2c0-1.2 1.1-0.7 1.7-1.2 0.7-0.4 1.1-1.3 1.5-2.1z"/>
		<path id="&lt;Path&gt;" class="s8" d="m183.1 98.7c-1-0.2-1.3 0.4-1.7 1.2z"/>
		<path id="&lt;Path&gt;" class="s8" d="m182.2 100c0.1-0.5 0.4-1 0.3-1.5-0.5 0.2-0.5 1-1 1.5-0.4 0.4-1.1 0.3-1.4 0.7-1.2 1.4 0.9 1.4 1.8 1.4 0 0.2 0 0.5 0 0.7 0-0.8 0.2-1.6 0.2-2.4-0.7 0.7-1.5 1.3-2.4 1.6q0.1-0.2 0.2-0.4z"/>
		<g id="&lt;Group&gt;">
			<path id="&lt;Path&gt;" class="s9" d="m131.4 121.8c-2.1 2.8-1.6 4.1-4.8 5.2-2.9 1.1-19.4 9.6-20.4 10.8-2.5 2.9 1.9 4 3.9 3.8-0.3 1.1-0.8 1.5-0.9 2.8 0 2 3.7 3.5 5.4 1.6 0 0-0.9 2 0.1 3.1 1 1.1 2.9 0.6 4.2 0.2 1.1-0.4 2.4-2.2 2.5-0.9 0.2 5.2 5.5 2.6 5.5 2.6 0 1.4 2.3 3 5.2 1.3 0.7 3.6 5.3 1.9 6.3 0.3 0.7 2.8 5.1 3.6 6-0.1 0.7 0.8 1.8 2.1 3.4 2 1.6 0 2.4-1.2 2.7-2.8 0.9 1.5 2.6 2 4.1 1.7 2.1-0.4 2.2-1.6 2-3.1 0.2 1.5 7 3.8 7-2.2 1.8 1.8 3.4 1.7 5.5 0.6 1.5-0.7 1.5-2.8 0.8-3.6 1.9 0.8 8 0 6-3.4 1.7 0.1 3.5-0.2 3.9-2.3-0.3-3.2-10.6-9.9-14-10.8-1.1-0.3-3.1 0.1-4.2 0-5-0.2-10.2-2-12.8-6.6z"/>
			<path id="&lt;Path&gt;" class="s10" d="m146.7 128.2c0.7 1.1 9.6 10.6 3.7 23.1 0 0-6.6-10-9.5-19.4z"/>
			<path id="&lt;Path&gt;" class="s11" d="m112.5 139.6c0.6 1.6 1.1 3.3 3 3.8 0.9 0.2 1.8 0.1 2.7 0.5 0.8 0.5 1.3 1.3 2 1.8 1.5 1.3 3.3 1 5 1.7 0.9 0.3 1.7 1 2.7 1.3 1.3 0.3 2.3-0.1 3.6-0.1 1.2-0.1 2.2 0.6 3.3 1 1.2 0.6 2.6 0.6 4 0.3 1.4-0.3 1.9-0.3 3.2 0 1.9 0.5 4 0.3 5.8-0.1 1.3-0.4 2.7-0.9 4-1.1 0.7-0.1 1.4 0 2.1 0 1.1 0 2.1-0.4 3.2-0.7 1.1-0.4 2.2-0.7 3.2-1.3 0.7-0.3 1.3-0.9 2-1.2 1.1-0.6 2.4-0.4 3.6-0.7 1.8-0.6 2.5-1.4 3.3-3 0.6-1 1.7-1 2.7-1.3 1.5-0.5 2.6-1.8 3.4-3 0.3-0.5 0.3-0.6 0.9-0.9q0.6-0.4 1.2-0.7c-3.4-3.2-9.2-6.6-11.6-7.3-1.1-0.3-3.1 0.1-4.2 0q-2.1-0.1-4.2-0.5c-3.9 0.3-7.8 0.5-11.6 1q-4.6 0.7-9.2 1.3c-2.6 0.4-3.3-5.8-5.8-6.4q-0.4-0.1-0.8-0.1c-0.8 1.4-1.2 2.3-3.4 3.1-2 0.8-10.5 5.1-15.9 8-1.5 2.6 1.4 3.6 1.8 4.6z"/>
			<path id="&lt;Path&gt;" class="s11" d="m175.9 134.6c-3.3-2.7-8-5.4-10.1-6-1.1-0.3-3.1 0.1-4.2 0-4.6-0.1-9.3-1.7-12-5.4-6.5-0.2-13 0.1-19.3 1.6q-0.5 0.1-0.9 0.2c-0.5 0.8-1.2 1.4-2.8 2-1.6 0.6-7.2 3.4-12.2 6 0.4 0.7 0.2 1.5 0.2 2.3-0.1 1 0.1 1.6 0.7 2.3 0.6 0.8 1.4 1.2 2.4 1.5 1.2 0.4 2.4 0.8 3.3 1.8 0.8 1 1.3 2.1 2.4 2.8 0.9 0.5 1.6 0.7 2.7 0.7 1.6-0.1 3 0.5 4.4 1.2 1.1 0.4 2.3 1.2 3.5 1 1.3-0.1 2.6-0.8 3.9-0.1 1.2 0.6 2.3 0.9 3.6 1 1.8 0.1 3.3-0.6 5-0.8 1.2-0.2 2.4-0.1 3.6 0 1.5 0.2 2.6-0.6 3.8-1.3 1.1-0.7 1.9-0.9 3.2-1 1.5-0.1 2.8-0.6 4-1.7 0.5-0.5 1-1.2 1.7-1.5 0.6-0.4 1.4-0.4 2.1-0.5 1.7-0.4 4.4-1 5.6-2.4 0.3-0.4 0.5-0.8 0.9-1.1 0.7-0.6 1.6-0.7 2.5-1.1q1.3-0.6 2-1.5z"/>
			<path id="&lt;Path&gt;" class="s11" d="m165.8 128.6c-1.1-0.3-3.1 0.1-4.2 0-4.6-0.1-9.3-1.7-12-5.4-6.5-0.2-13 0.1-19.3 1.6q-0.5 0.1-0.9 0.2c-0.5 0.8-1.2 1.4-2.8 2-0.6 0.3-1.8 0.8-3.3 1.5-0.2 0.8-0.6 1.5-0.6 2.4 0 0.5 0.2 1 0.4 1.4 0.3 0.6 0.6 0.8 1.1 1.2 0.8 0.7 0.6 1.9 1.1 2.8 0.6 0.9 1.5 1.6 2.1 2.4 0.4 0.5 0.9 0.7 1.4 0.9 0.6 0.3 0.7 0.5 1.1 0.9 0.5 0.6 1.1 0.7 1.8 0.9 0.8 0.2 1.3 0.8 2 1 0.7 0.3 1.5-0.1 2.2 0.2 0.3 0.2 0.5 0.7 0.9 0.9 0.6 0.3 1.2 0.2 1.8 0.2 1.1 0 1.6 0.3 2.6 0.7 1.1 0.4 2.3 0 3.5 0 0.7 0 1.3 0.1 2 0.2 1.1 0.2 1.9 0 2.9-0.4 1.1-0.5 2.2-1.1 3.4-1.3 1-0.2 1.9-0.2 2.9-0.5 0.8-0.2 1.6-0.6 2.4-0.9 0.9-0.2 1.7-0.4 2.5-0.8 0.7-0.4 1.1-0.9 1.7-1.4 0.5-0.4 1.1-0.8 1.6-1.3 0.6-0.5 1.2-0.9 1.7-1.3 0.5-0.4 0.8-1 1.2-1.4q0.9-1.2 1.8-2.4c0.4-0.5 1.4-1.3 1.6-2.1-1.9-1.1-3.5-1.9-4.6-2.2z"/>
			<g id="&lt;Group&gt;">
				<path id="&lt;Path&gt;" class="s12" d="m178.1 140c-1.1 1.2-1.3 1.8-3 1.2-0.2 0.6-0.2 1.1-0.6 1.7-0.5 0.6-1 0.9-1.8 1.2-1.1 0.6-2.2 1.1-3.5 0.7 0 0.6 0.1 1.3-0.2 1.8-0.4 0.8-1.5 1.4-2.3 1.7-1.3 0.5-2.9-0.2-4.1-0.8-0.2 1.2-1 2.8-2.3 3-0.7 0.1-1.5 0.1-2.2 0-0.5-0.1-0.8-0.1-1.2-0.4-0.1-0.1-0.5-0.5-0.7-0.5-0.4 0-0.6 0.9-0.9 1.2-0.3 0.4-0.7 0.7-1.3 0.9-1.1 0.4-3 0.1-3.9-0.5-0.4 0.3-0.6 0.8-1 1.1-0.6 0.4-1.2 0.6-1.9 0.6-1.1 0-2.1-0.3-3-0.9-1 1.1-1.9 1.7-3.5 1.5-0.9-0.2-1.9-1-2.4-1.8-1.3 0.7-5.6 2.1-6-0.3-1.1 0.3-1.7 0.5-2.8 0.3-1-0.2-2.2-0.4-2.5-1.5-0.9 0.4-2.9-0.1-3.8-0.5-0.8-0.3-1.3-0.8-1.8-1.3 0.2 5.2 5.5 2.6 5.5 2.6 0 1.4 2.3 3 5.2 1.3 0.7 3.6 5.3 1.9 6.3 0.3 0.7 2.8 5.1 3.6 6-0.1 0.7 0.8 1.8 2.1 3.4 2 1.6 0 2.4-1.2 2.7-2.8 0.9 1.5 2.6 2 4.1 1.7 2.1-0.4 2.2-1.6 2-3.1 0.2 1.5 7 3.8 7-2.2 1.8 1.8 3.4 1.7 5.5 0.6 1.5-0.7 1.5-2.8 0.8-3.6 1.9 0.8 8 0 6-3.4 1.7 0.1 3.5-0.2 3.9-2.3 0-0.6-0.5-1.5-1.3-2.4 0.1 1.1 0.5 2.2-0.4 3z"/>
				<path id="&lt;Path&gt;" class="s12" d="m114.6 146c0 0-0.9 2 0.1 3.1 1 1.1 2.9 0.6 4.2 0.2 0.7-0.3 1.5-1.1 2-1.3q-0.1-0.1-0.2-0.3c-0.9 0.5-2 0.5-3 0.4-0.7-0.1-1.8-0.4-2.4-1-0.5-0.4-0.3-0.7-0.4-1.3-0.9 0.5-2.4-0.2-3.1-0.8-0.8-0.9-0.9-2-1-3.1q-0.3 0-0.7-0.1c-0.3 0.9-0.8 1.4-0.8 2.6-0.1 2 3.6 3.5 5.3 1.6z"/>
				<path id="&lt;Path&gt;" class="s12" d="m106.2 137.8c-0.6 0.7-0.8 1.3-0.7 1.8q0 0.1 0.1 0.2 0 0.1 0 0.1 0 0.1 0.1 0.2 0 0 0 0 0.1 0.1 0.1 0.2 0.1 0 0.1 0 0.1 0.1 0.1 0.2 0.1 0 0.1 0 0.1 0.1 0.2 0.2 0 0 0 0 0.1 0.1 0.2 0.2 0.1 0 0.1 0 0.1 0 0.2 0.1 0 0 0.1 0 0.1 0.1 0.2 0.1 0.1 0.1 0.1 0.1 0.1 0 0.2 0.1 0.1 0 0.1 0 0.3 0.1 0.6 0.1 0.1 0.1 0.1 0.1 0.1 0 0.3 0 0 0 0 0 0.4 0.1 0.7 0.1 0 0 0 0 0.3 0 0.6 0c-0.8-0.3-1.5-1-1.8-1.6-0.3-0.6-0.7-1.2-0.8-1.9-0.1-0.4 0.1-0.8 0.1-1.1-0.6 0.3-0.9 0.6-1.1 0.7z"/>
			</g>
			<path id="&lt;Path&gt;" class="s10" d="m129.9 128.8c-1.4 0.3-12.3 2.6-19.8 12.8 0 0 13.2-3.1 20.7-7.2z"/>
			<path id="&lt;Path&gt;" class="s10" d="m131.9 129.5c-1.2 0.5-11.5 4.8-17.1 16.2 0 0 12.4-5.5 19.1-10.8z"/>
			<path id="&lt;Path&gt;" class="s10" d="m135.7 129.5c-1.2 0.7-10.7 6.5-14.5 18.6 0 0 11.4-7.3 17.2-13.6z"/>
			<path id="&lt;Path&gt;" class="s10" d="m138.1 130.3c-1.1 0.9-9.6 8-11.4 20.6 0 0 10.2-9 14.8-16.1z"/>
			<path id="&lt;Path&gt;" class="s10" d="m140.5 130c-0.9 1-8.3 9.4-8.3 22 0 0 8.7-10.3 12.4-18z"/>
			<path id="&lt;Path&gt;" class="s10" d="m139.7 130.9c-0.7 1.2-5 9.9-1.4 21.7 0 0 8-5.9 8.7-20.1z"/>
			<path id="&lt;Path&gt;" class="s10" d="m157.2 128.8c1.4 0.3 11.4 2.7 18.8 12.9 0 0-12.2-3.2-19.7-7.3z"/>
			<path id="&lt;Path&gt;" class="s10" d="m154.8 128.3c1.3 0.5 9.5 5.4 15.1 16.8 0 0-11.8-2.6-18.6-10.4z"/>
			<path id="&lt;Path&gt;" class="s10" d="m151.2 128.9c1.2 0.7 10.7 6.3 12.5 19.2 0 0-11.3-4.7-17.1-12.6z"/>
			<path id="&lt;Path&gt;" class="s10" d="m151.7 129.9c1 0.9 6 8.9 5 20.5 0 0-8-5.5-12.8-16.7z"/>
			<path id="&lt;Path&gt;" class="s10" d="m148.8 134.5c0.3 1.3 0 12.3-4.6 17.7 0 0-4.8-9.3-4.4-19.3z"/>
		</g>
		<g id="&lt;Group&gt;">
			<g id="&lt;Group&gt;">
				<path id="&lt;Path&gt;" class="s13" d="m137.1 146.3c-0.2 0.4-0.2 1-0.3 1.5-0.1 0.2-0.2 0.5-0.3 0.8 0.5-0.1 0.7-0.6 1.1-0.9 0.2-0.2 0.5-0.4 0.7-0.6 0.1-0.2 0.2-0.4 0.1-0.6-0.2-0.3-0.5-0.1-0.8-0.1z"/>
				<path id="&lt;Path&gt;" class="s14" d="m138.1 142.3c-0.2 0.8-0.7 2.2-1 3.2-0.4 1.5 0.3 2.1 1.5 1.1 1.3-1.1 1.9-3.2 1.7-4.9-0.2-1.4-2.5-0.9-2.2 0.6z"/>
				<path id="&lt;Path&gt;" class="s15" d="m138.2 141.5c-0.1 0.8-0.1 1.5-0.3 2.3-0.2 0.7-0.7 1.3-0.9 2.1-0.1 0.4-0.1 1.3 0.5 1.2 0.5 0 1.3-0.7 1.4-1.2-0.4 0.2-0.9 0.6-1.4 0.6-0.5-0.6 0.3-1.7 0.5-2.3q0.2-0.6 0.2-1.3c0.1-0.2-0.1-0.9 0-1z"/>
				<path id="&lt;Path&gt;" class="s16" d="m138.7 141.4c-0.2 0.3-0.1 0.3 0 0.6 0 0.1 0.1 0.2 0.1 0.3 0 0.1-0.2 0.1-0.2 0.2 0 0.1 0 0.2 0 0.3 0 0.2 0 0.2 0 0.4-0.1 0.1-0.1 0.1-0.1 0.2 0 0.2 0.1 0.3 0.1 0.4 0 0.2-0.2 0.4-0.2 0.6-0.1 0.1 0 0.2 0 0.3-0.1 0.1-0.2 0.2-0.2 0.3-0.2 0.8 1.1 0.2 0.9-0.1 0.3-0.1 0.4-0.3 0.4-0.5 0-0.1-0.2-0.1-0.2-0.3 0 0 0.3-0.1 0.3-0.2 0-0.1-0.1-0.1-0.1-0.2 0-0.1 0.1-0.2 0.1-0.3 0-0.1-0.2-0.2-0.1-0.3 0-0.1 0.2-0.2 0.2-0.3 0.1-0.3-0.1-0.4-0.2-0.5 0-0.2 0.3-0.2 0.3-0.4 0.1-0.2-0.1-0.1-0.1-0.2-0.1-0.2-0.1-0.5-0.2-0.6-0.2 0-0.7 0.1-0.8 0.3z"/>
			</g>
			<g id="&lt;Group&gt;">
				<path id="&lt;Path&gt;" class="s13" d="m134.2 145.3c-0.3 0.3-0.5 0.8-0.7 1.1-0.1 0.2-0.3 0.4-0.4 0.6 0.4 0.1 0.7-0.3 1.1-0.4 0.2-0.1 0.5-0.2 0.7-0.3 0.2-0.1 0.4-0.3 0.3-0.5-0.1-0.3-0.4-0.3-0.6-0.3z"/>
				<path id="&lt;Path&gt;" class="s14" d="m136.1 142.2c-0.4 0.5-1.2 1.6-1.7 2.4-0.8 1.2-0.4 1.8 0.9 1.3 1.5-0.5 2.5-2.1 2.8-3.6 0.2-1.3-1.9-1.5-2-0.1z"/>
				<path id="&lt;Path&gt;" class="s15" d="m136.4 141.5c-0.3 0.6-0.5 1.3-0.9 1.8-0.3 0.6-1 1-1.3 1.6-0.2 0.4-0.5 1.1 0.1 1.2 0.4 0.1 1.3-0.3 1.5-0.7-0.4 0.1-0.9 0.3-1.3 0.1-0.3-0.6 0.7-1.3 1-1.7q0.4-0.5 0.6-1.1c0-0.1 0.1-0.8 0.2-0.8z"/>
				<path id="&lt;Path&gt;" class="s16" d="m136.9 141.5c-0.3 0.2-0.2 0.3-0.2 0.5 0 0.1 0 0.2 0 0.3-0.1 0.1-0.2 0.1-0.2 0.2-0.1 0.1 0 0.2-0.1 0.3 0 0.1-0.1 0.1-0.1 0.2-0.1 0.1-0.1 0.1-0.2 0.2 0 0.1 0 0.3 0 0.4-0.1 0.1-0.3 0.3-0.3 0.4-0.1 0.1-0.1 0.2-0.1 0.3-0.1 0-0.2 0.1-0.3 0.2-0.3 0.6 0.9 0.4 0.8 0.2 0.3 0 0.5-0.2 0.5-0.4 0-0.1-0.1-0.2-0.1-0.3 0.1 0 0.3 0 0.4-0.1 0-0.1-0.1-0.1-0.1-0.2 0-0.1 0.1-0.2 0.2-0.2 0-0.1-0.1-0.2-0.1-0.3 0.1-0.1 0.3-0.1 0.4-0.2 0.1-0.2-0.1-0.3-0.1-0.5 0.1-0.1 0.3-0.1 0.4-0.2 0.1-0.2-0.1-0.1-0.1-0.3 0-0.1 0.1-0.3 0-0.5-0.1-0.1-0.6-0.1-0.7 0z"/>
			</g>
			<g id="&lt;Group&gt;">
				<path id="&lt;Path&gt;" class="s13" d="m131.7 144.5c-0.3 0.3-0.4 0.8-0.7 1.1-0.1 0.2-0.3 0.4-0.4 0.6 0.4 0.1 0.7-0.3 1.1-0.4 0.2-0.1 0.5-0.2 0.7-0.3 0.2-0.1 0.4-0.3 0.3-0.5-0.1-0.3-0.4-0.3-0.6-0.3z"/>
				<path id="&lt;Path&gt;" class="s14" d="m133.6 141.4c-0.4 0.5-1.2 1.6-1.7 2.4-0.8 1.2-0.4 1.8 0.9 1.3 1.5-0.5 2.5-2.1 2.8-3.6 0.2-1.3-1.9-1.5-2-0.1z"/>
				<path id="&lt;Path&gt;" class="s15" d="m133.9 140.7c-0.3 0.6-0.5 1.3-0.9 1.8-0.3 0.6-0.9 1-1.3 1.6-0.2 0.4-0.5 1.1 0.1 1.2 0.4 0.1 1.3-0.3 1.5-0.7-0.4 0.1-0.9 0.3-1.3 0.1-0.3-0.6 0.7-1.3 1-1.7q0.4-0.5 0.6-1.1c0-0.1 0.1-0.8 0.2-0.8z"/>
				<path id="&lt;Path&gt;" class="s16" d="m134.4 140.7c-0.3 0.2-0.2 0.3-0.2 0.5 0 0.1 0 0.2 0 0.3-0.1 0.1-0.2 0.1-0.2 0.2-0.1 0.1 0 0.2-0.1 0.3 0 0.1-0.1 0.1-0.1 0.2-0.1 0.1-0.1 0.1-0.2 0.2 0 0.1 0 0.3 0 0.4-0.1 0.1-0.3 0.3-0.3 0.4-0.1 0.1-0.1 0.2-0.1 0.3-0.1 0-0.2 0.1-0.3 0.2-0.3 0.6 0.9 0.4 0.8 0.2 0.3 0 0.5-0.2 0.5-0.4 0-0.1-0.1-0.2-0.1-0.3 0.1 0 0.3 0 0.4-0.1 0-0.1-0.1-0.1-0.1-0.2 0-0.1 0.2-0.2 0.2-0.2 0-0.1-0.1-0.2 0-0.3 0-0.1 0.2-0.1 0.3-0.2 0.1-0.2-0.1-0.3-0.1-0.5 0.1-0.1 0.3-0.1 0.4-0.2 0.1-0.2-0.1-0.1-0.1-0.3 0-0.1 0.1-0.3 0-0.5-0.1-0.1-0.6-0.1-0.7 0z"/>
			</g>
		</g>
		<g id="&lt;Group&gt;">
			<g id="&lt;Group&gt;">
				<path id="&lt;Path&gt;" class="s13" d="m150.6 146c0 0.5 0.3 1 0.3 1.4 0.1 0.3 0.1 0.6 0.1 0.9 0.4-0.3 0.4-0.9 0.6-1.3 0.1-0.2 0.3-0.5 0.4-0.8 0.1-0.2 0.1-0.4-0.1-0.6-0.3-0.2-0.6 0.1-0.8 0.2z"/>
				<path id="&lt;Path&gt;" class="s14" d="m149.8 142c0.1 0.7 0.3 2.2 0.5 3.3 0.2 1.5 1.1 1.7 1.8 0.3 0.7-1.5 0.4-3.6-0.6-5.1-0.7-1.3-2.6 0.2-1.7 1.5z"/>
				<path id="&lt;Path&gt;" class="s15" d="m149.6 141.2c0.2 0.7 0.5 1.4 0.7 2.2 0.1 0.7-0.1 1.5 0 2.2 0.1 0.5 0.5 1.3 1 1 0.5-0.3 0.8-1.2 0.7-1.8-0.2 0.4-0.5 1-0.9 1.2-0.8-0.3-0.4-1.6-0.5-2.3q-0.1-0.6-0.4-1.2c-0.1-0.2-0.5-0.8-0.4-1z"/>
				<path id="&lt;Path&gt;" class="s16" d="m150 140.9c-0.1 0.3 0 0.3 0.2 0.5 0.1 0.1 0.2 0.1 0.2 0.2 0.1 0.2 0 0.2 0 0.3 0 0.1 0.1 0.2 0.1 0.3 0.1 0.1 0.1 0.2 0.1 0.3 0 0.1 0 0.2 0.1 0.3 0 0.1 0.2 0.2 0.2 0.3 0.1 0.2 0 0.5 0.1 0.6 0 0.1 0.1 0.2 0.1 0.3 0 0.1-0.1 0.2-0.1 0.3 0.2 0.8 1.1-0.2 0.9-0.4 0.2-0.2 0.2-0.4 0-0.7 0-0.1-0.2 0-0.2-0.1 0-0.1 0.2-0.3 0.2-0.4-0.1-0.1-0.2 0-0.3-0.1 0-0.1 0.1-0.2 0-0.3 0-0.1-0.2-0.1-0.2-0.2 0-0.1 0.1-0.3 0.1-0.4 0-0.3-0.3-0.2-0.4-0.4-0.1-0.1 0.1-0.3 0.1-0.4 0-0.3-0.1-0.1-0.2-0.2-0.1-0.2-0.2-0.4-0.4-0.4-0.2 0-0.6 0.4-0.6 0.6z"/>
			</g>
			<g id="&lt;Group&gt;">
				<path id="&lt;Path&gt;" class="s13" d="m147.5 146.3c-0.1 0.4 0 0.9-0.1 1.3 0 0.3-0.1 0.5-0.1 0.8 0.3-0.1 0.5-0.7 0.8-0.9 0.2-0.2 0.4-0.4 0.5-0.6 0.2-0.2 0.2-0.4 0.1-0.6-0.2-0.2-0.5 0-0.7 0z"/>
				<path id="&lt;Path&gt;" class="s14" d="m148 142.7c-0.2 0.7-0.4 2-0.6 2.9-0.2 1.4 0.5 1.8 1.4 0.8 1.1-1.1 1.4-3 1-4.5-0.3-1.3-2.3-0.5-1.8 0.8z"/>
				<path id="&lt;Path&gt;" class="s15" d="m148 142c-0.1 0.6 0 1.3-0.1 2 0 0.6-0.4 1.2-0.5 1.9-0.1 0.5 0 1.2 0.6 1.1 0.4-0.1 1-0.8 1-1.3-0.2 0.3-0.7 0.6-1.1 0.7-0.5-0.4 0.1-1.5 0.2-2q0.1-0.6 0.1-1.2c-0.1-0.2-0.3-0.8-0.2-0.9z"/>
				<path id="&lt;Path&gt;" class="s16" d="m148.4 141.8c-0.2 0.2-0.1 0.3 0 0.5 0.1 0.1 0.1 0.2 0.1 0.3 0.1 0.1-0.1 0.1-0.1 0.2 0 0.1 0.1 0.2 0.1 0.3 0 0.1 0 0.1 0 0.3 0 0.1-0.1 0.1-0.1 0.2 0 0.1 0.1 0.2 0.2 0.3 0 0.2-0.2 0.4-0.2 0.6 0 0.1 0.1 0.2 0.1 0.3-0.1 0-0.2 0.1-0.2 0.2 0 0.7 1 0.1 0.9-0.1 0.2-0.1 0.3-0.3 0.2-0.6 0-0.1-0.2-0.1-0.2-0.2 0 0 0.3-0.1 0.3-0.2 0-0.1-0.2-0.1-0.2-0.2 0-0.1 0.1-0.2 0.1-0.3 0 0-0.2-0.1-0.1-0.2 0-0.1 0.1-0.2 0.2-0.3 0-0.3-0.2-0.3-0.3-0.4 0-0.1 0.2-0.2 0.2-0.4 0.1-0.2 0 0-0.1-0.2-0.1-0.1-0.1-0.4-0.3-0.4-0.1-0.1-0.6 0.1-0.6 0.3z"/>
			</g>
			<g id="&lt;Group&gt;">
				<path id="&lt;Path&gt;" class="s13" d="m144.9 146.6c-0.1 0.4 0 0.9-0.1 1.4 0 0.2-0.1 0.4-0.2 0.7 0.4-0.1 0.6-0.6 0.9-0.9 0.2-0.2 0.4-0.4 0.5-0.6 0.1-0.2 0.2-0.4 0.1-0.5-0.2-0.3-0.5-0.1-0.7-0.1z"/>
				<path id="&lt;Path&gt;" class="s14" d="m145.4 143c-0.2 0.7-0.4 2-0.6 2.9-0.2 1.4 0.5 1.8 1.4 0.8 1.1-1.1 1.4-3 1-4.5-0.3-1.3-2.3-0.5-1.8 0.8z"/>
				<path id="&lt;Path&gt;" class="s15" d="m145.4 142.3c-0.1 0.6 0 1.3-0.1 2 0 0.7-0.5 1.3-0.5 2-0.1 0.4 0 1.2 0.6 1 0.4-0.1 1-0.8 1-1.3-0.2 0.3-0.7 0.7-1.1 0.7-0.5-0.4 0.1-1.4 0.2-2q0.1-0.6 0.1-1.2c-0.1-0.2-0.3-0.8-0.2-0.9z"/>
				<path id="&lt;Path&gt;" class="s16" d="m145.8 142.1c-0.2 0.3-0.1 0.3 0 0.5 0.1 0.1 0.1 0.2 0.1 0.3 0 0.1-0.1 0.1-0.1 0.2 0 0.1 0.1 0.2 0.1 0.3 0 0.1 0 0.2 0 0.3 0 0.1-0.1 0.1-0.1 0.2 0 0.2 0.1 0.2 0.2 0.3 0 0.2-0.2 0.4-0.2 0.6 0 0.1 0.1 0.2 0.1 0.3-0.1 0.1-0.2 0.1-0.2 0.2 0 0.7 1 0.1 0.9-0.1 0.2-0.1 0.2-0.3 0.2-0.5 0-0.1-0.2-0.1-0.2-0.2 0-0.1 0.2-0.2 0.3-0.3 0-0.1-0.2-0.1-0.2-0.2 0-0.1 0.1-0.2 0.1-0.2 0-0.1-0.2-0.2-0.1-0.3 0 0 0.1-0.2 0.2-0.3 0-0.2-0.2-0.3-0.3-0.4 0-0.1 0.2-0.2 0.2-0.3 0.1-0.3 0-0.1-0.1-0.3-0.1-0.1-0.1-0.4-0.3-0.4-0.1-0.1-0.6 0.2-0.6 0.3z"/>
			</g>
		</g>
		<path id="&lt;Compound Path&gt;" fill-rule="evenodd" class="s9" d="m136.1 119.3l-9.1 6.5c-0.6 0.2-1.4 0.3-2.4 0.2q-0.2 0-0.4 0.1c-3.5 1.8-3.6 3.4-6.2 2.6-1-0.3-3.7-2.3-4.6-1.8-4.2 2.2-8.3-2.7-8.3-2.7-0.1 0-0.1 0-2.2 0-2.2-0.1-4.4-1.8-4.6-2.8-0.6 0.8-2.5 0.7-3.6-0.2-0.9-0.7-1.1-1-1.4-1.6-0.1-0.2-0.3-0.9-0.5-1-3.2 0.2-6.2-0.4-6.7-3.5 0-0.3-0.3-0.5-0.6-0.5-0.9 0-2-0.2-3.5-1.4-1.7-1.3-1.4-1.9-1.5-2.9-0.1-0.4-0.4-0.6-0.8-0.6-0.5 0-1.6-0.2-3-1.2-1.4-0.9-1.8-2.4-1.9-3.4 0-0.4-0.2-0.6-0.6-0.7-1-0.1-3-0.7-4.2-2.7-1-1.5-1.1-2.9-1-3.7 0-0.3-0.3-0.6-0.6-0.7-1-0.1-2.7-0.5-3.6-1.5-1.2-1.3-1.6-2.9-1.6-3.7-0.1-0.3-0.3-0.6-0.7-0.6-2.5-0.2-6.8-2.6-6.3-5.8q0-0.3 0.3-0.4c-3.5-1.4-6.7-3.1-6.3-4.5 0.3-1.4 2.1-1.4 3.8-1-2.7-1-6.3-2.7-9.2-5.3-4.4-4-3-6.5-1.7-5.7-6.4-6.2-5.6-9.2-4.6-9.5q0.9 0.7 2 1.6c2.1 2.2 5.3 5.8 5.3 5.8-0.7-0.9-2.3-2.5-4-4.7 7.5 6.4 17.4 17.4 28.5 20.3 4.7 1.2 8.3 0.7 13 1.5 3.7 0.6 6.3 3.6 8.8 6.1 1.9 1.9 5.6 3.6 7.5 5.6 2.6 2.9 6.7 3.7 9.4 6.3 2.7 2.5 4.7 5.7 7.8 7.5 3 1.7 5.8 3.3 8.7 4.9 2.4 1.3 4.9 3.9 7.4 1.6 2-1.8 0.6 1.2 3.2 0.4-0.1 1.5-0.1 2.5 0 3.1zm3.9-2.8q0 0 0.1 0zm-3.9 2.7l3.9-2.7c-0.4 0.4-3.3 5.5-3.9 2.7zm-91.9-49.3q-0.3-0.3-0.7-0.6 0 0 0 0c0.1 0 0.7 0.6 0.7 0.6z"/>
		<path id="&lt;Path&gt;" class="s4" d="m121.3 104.8c-0.2 1.3-0.4 9.2 6.4 19.9 0 0 2.2-6.4 1.1-14.8z"/>
		<path id="&lt;Path&gt;" class="s4" d="m78.6 81.7c-1.3 0.4-9.3-0.9-16.1 9.8 0 0 17.8-3 25-7.5z"/>
		<path id="&lt;Path&gt;" class="s4" d="m78.7 82.1c-1.7-0.1-11.1-4.3-22.5 3.4 0 0 22.6 3.8 32.8 2.1z"/>
		<path id="&lt;Path&gt;" class="s4" d="m74.9 81.6c-1.6-0.5-10.3-6-21.8-2.3 0 0 21.4 8.1 31.2 9.1z"/>
		<path id="&lt;Path&gt;" class="s4" d="m66 80.9c-1.6-0.8-11.1-9.3-22.2-11.5 0 0 11.5 12.1 29.3 14.1z"/>
		<path id="&lt;Path&gt;" class="s4" d="m81.6 83.7c-1.2 0.7-9.2 1.8-12.7 14 0 0 16.2-8 21.8-14.4z"/>
		<path id="&lt;Path&gt;" class="s4" d="m87.5 82.5c-1 0.9-11.3 9.4-12.3 22.1 0 0 14.4-10.9 18.6-18.3z"/>
		<path id="&lt;Path&gt;" class="s4" d="m90.5 84.4c-1 0.9-9.2 12.6-10.3 25.2 0 0 12.8-12.8 17.1-20.1z"/>
		<path id="&lt;Path&gt;" class="s4" d="m93.4 88.5c-0.9 1.1-7.5 13.8-6.8 26.4 0 0 11-14.4 14.2-22.3z"/>
		<path id="&lt;Path&gt;" class="s4" d="m97.6 91.2c-0.8 1.1-6.5 14.2-4.9 26.8 0 0 9.9-15.1 12.5-23.2z"/>
		<path id="&lt;Path&gt;" class="s4" d="m102.2 93.8c-0.8 1.1-5.5 15-3.9 27.6 0 0 9.9-15.2 12.5-23.2z"/>
		<path id="&lt;Path&gt;" class="s4" d="m107.5 96c-0.6 1.2-5.4 15.8-2.1 28 0 0 7.7-16.4 9.2-24.7z"/>
		<path id="&lt;Path&gt;" class="s4" d="m112 98.8c-0.4 1.3-3.4 16.4 1.4 28.1 0 0 4.7-13.2 5.1-21.7z"/>
		<path id="&lt;Path&gt;" class="s4" d="m115.6 103.2c-0.2 1.3-0.3 12.7 6.5 23.4 0 0 2-10.1 1-18.5z"/>
		<path id="&lt;Path&gt;" class="s5" d="m90 84.5c-0.6-1.1-4.1-1.9-5.5-2.2-1.5-0.4-3.1-0.5-4.5-0.7-3-0.4-5.7 0.4-8.6 0.7 1.3 2.5 4.7 2.6 6.9 4 2.7 1.6 3.2 3.8 4.5 6.3 1.6 2.8 4.5 3.7 6.3 6.3 0.8 1.2 0.9 2.7 2.1 3.7 1.3 1.2 3.3 1.5 4.9 2.4 3.3 1.9 3.1 6.1 7.3 6.8 1.7 0.4 3.6 0.5 5.2 1.5 1.4 0.9 2.2 2.4 3.6 3.2 1.5 0.9 2.7 0.6 4.4 0.9 2 0.3 3.3 1.6 4.9 2.5 1.7 0.9 3.6 0.2 5.2 0.9 1.5 0.6 2.1 2.4 3.7 1.3 1.2-0.8 2.3-4.1 1.8-5.4z"/>
		<path id="&lt;Path&gt;" class="s7" d="m141.2 110.8c-3.8 1-7.8-3.7-11.7-4.2-3.9-0.4-30.2-19.1-39.4-24.1-13-7.2-39.1-4-50.6-29.7q-0.1-0.2-0.2-0.3c-0.7-0.6-3.3-4.3-1.8 1.3 1.4 5.7 6.2 10.4 8 12.5-0.8-1-2.3-2.4-3.7-4.3 7.3 8.8 17.4 17.4 28.5 20.3 4.7 1.2 8.3 0.7 13 1.5 3.7 0.6 10.8 10.3 22.9 16 3.3 1.5 11.3 7.8 22.5 19.5 1.8 1.9 4.8-2.3 7.4-3.1-0.1 1.4-0.1 2.4 0 3 0.1-0.1 2.4-3.1 2.5-3.2 0.7 0.2 4.6-5.8 2.6-5.2z"/>
		<path id="&lt;Path&gt;" class="s7" d="m141.2 110.8c-3.8 1-7.8-3.7-11.7-4.2-3.9-0.4-30.2-19.1-39.4-24.1-13-7.2-39.1-4-50.6-29.7q-0.1-0.2-0.2-0.3c-0.7-0.6-3.3-4.3-1.8 1.3 1.4 5.7 6.2 10.4 8 12.5-0.8-1-2.3-2.4-3.7-4.3 7.3 8.8 17.4 17.4 28.5 20.3 4.7 1.2 8.3 0.7 13 1.5 3.7 0.6 10.8 10.3 22.9 16 3.3 1.5 11.3 7.8 22.5 19.5 1.8 1.9 4.8-2.3 7.4-3.1-0.1 1.4-0.1 2.4 0 3 0.1-0.1 2.4-3.1 2.5-3.2 0.7 0.2 4.6-5.8 2.6-5.2z"/>
		<path id="&lt;Path&gt;" class="s6" d="m91.8 84.6c-1.5-0.7-9.4-2.2-7.3 1.5 0.9 1.4 2.1 1.9 3.2 3 1.2 1.1 0.8 2.1 1.2 3.5 0.7 2.6 4.6 2.5 5.7 4.9 0.7 1.6 0.3 2 2.3 2.6 1.3 0.4 2.5 0.7 3.5 1.7 0.9 0.9 1.1 2.2 2.3 2.8 1.4 0.8 2.4 0.2 3.5 1.8 1.3 1.9 1.7 3 4.3 3.4 1.4 0.1 2.6 0.3 3.7 1.2 0.9 0.8 1.2 1.9 2.3 2.3 0.8 0.3 2.1 0 3 0.1 1.3 0.3 2 0.8 3 1.6 1.2 0.9 1.5 0.9 2.8 0.8 1.4 0 1.3 0.2 2.5 0.8 1.8 0.9 5.3 1.1 4.3-1.5-2.4-5.9-9.5-7-13.5-11.3z"/>
		<path id="&lt;Path&gt;" class="s6" d="m88 85.3c0.2 1.7 1 2.3 2.1 3.4 1 0.9 1.1 2.1 1.9 2.9 0.9 1 2.4 0.7 3.4 1.5 0.8 0.7 1 2.1 2.2 2.6 1.1 0.6 1.8 0.4 2.8 1.5 1.1 1.3 1.4 0.9 2.8 1.6 1.1 0.6 1 1.9 2 2.5 1.1 0.6 2.3-0.2 3.4 0.8 0.7 0.7 0.9 1.5 1.7 2.1 0.9 0.7 1.8 1 2.5 1.7 0.9 0.9 1.1 1.2 2.4 1.6 1.4 0.5 1.4 0.9 2.2 2.1 0.8 1.1 1.6 1.1 2.6 2 0.4 0.3 0.6 1 1 1.3 0.4 0.5 1 0.7 1.5 1.1 1.1 0.8 1.7 1.6 3.2 1.1 1.4-0.5 1.9-2.5 0-3z"/>
		<path id="&lt;Path&gt;" class="s7" d="m90.1 86.5c0.6 0.6 1.3 1.3 1.6 2 0.3 0.6 0.1 1.3 0.6 1.8 0.9 1 2.8 0.7 3.9 1.7 0.8 0.9 1.2 1.6 2.2 2.3 1.1 0.8 2 1.2 2.7 2.2 0.4 0.5 0.4 0.8 1 1.1 0.6 0.4 1.3 0.2 1.8 0.8 0.4 0.5 0.1 1.2 0.7 1.8 0.5 0.3 1.3 0.2 1.9 0.4 0.6 0.3 0.7 0.8 1.1 1.1 0.5 0.3 1.1 0.4 1.7 0.6 1.3 0.6 1.5 1.2 2.4 2.2 0.7 0.9 1.4 0.8 2.3 1.4 1.1 0.8 1.5 2.4 2.4 3.2 0.4 0.3 0.9 0.1 1.3 0.5 0.5 0.4 0.7 1 1.1 1.4 0.4 0.3 1.2 0.5 1.6 0.7 0.6 0.6 0.6 1.2 1.3 1.8 1.2 1.2 3.5 1 5 2.3 0.7 0.6 2.9 2.5 4 2.3 2.7-0.8-2.1-5-2.9-5.8-1.5-1.6-3.3-2.6-4.8-4.2-1.7-2-3.6-4.6-6.1-5.5z"/>
		<path id="&lt;Path&gt;" class="s17" d="m156.1 110.1c-3.7-0.9-8.9-0.3-12.6 0.2-4.3 0.6-7.1 1.5-10.6 4.5-4.8 4.3-6.6 16.1-2.5 21.8 3.8 5.5 14.1 7.1 20.1 5.4 9.3-2.5 17.5-10.3 15.3-20.6-0.3-1.9-1.7-3-2.9-4.3-2.6-2.9-4-3.5-8.1-4z"/>
		<path id="&lt;Path&gt;" class="s18" d="m166.2 124.3c-1.1 3.2-2.5 5.9-4.9 8.2-0.4 0.4-0.9 1-1.4 1.4-0.2 0.2-0.8-0.2-1 0-0.4 0.3-0.3 1-0.5 1.3-1.4 1.5-1.6 2.1-3.8 2.6-3.1 0.7-5.2 2.8-8.6 3.4-1.1 0.2-1.6-0.3-2.6-0.5-0.7-0.1-1.7-0.1-2.2-0.2-1.6-0.2-2.9-1.1-4.5-1.5-0.2-1.2-1.4-1-2.4-0.7 0.2-0.4 0.2-1.1 0.6-1.5-1.1-1.1-4.7-2.2-2.7-4-2.4 0-1.9-2.8-1.3-4.3-1.7 0.1-1.9-5.4-0.7-6.3l-0.2-2.7c-1.4 3.1-2.2 6-2.7 9.2-0.2 1.4-0.1 2.7 0.1 4.2 0.1 1.8 0.7 2.3 1.5 3.9 0.8 1.7 0.4 2.2 1.8 3.5 0.6 0.7 1.9 1.8 2.8 2.3 1.1 0.6 5.5 2.3 6.6 2.1q0.2 0.1 0.4 0.2 0.1 0 0.2 0.1c1.7 1.4 3.1 0.6 5.4 0.5 1.4-0.1 1.4 0.2 3-0.4 0.7-0.3 2.1-0.4 2.8-0.7q0.2-0.1 0.4-0.3c0.3 0 0.7 0 1-0.1q0.6-0.1 1.2-0.2c0.5-0.1 0.8-0.4 1.3-0.5 0.9-0.4 1.7-0.9 2.6-1.1 1-0.3 1.4-0.5 2.2-1.3 0.3-0.4 0.8-0.4 1-0.8 0.3-0.5 0.7-0.8 1.1-1.2 0.7-0.7 1-1.3 1.1-2.2 0.2-1 0.3-1.9 0.8-2.8 0.3-0.4 0.4-0.8 0.4-1.3 1-2.9 1.3-7 1.2-8.3z"/>
		<path id="&lt;Path&gt;" class="s19" d="m149.7 128.2c-1.3-0.2-2 3.3-1.9 4.5 0.4-0.3 0.7-0.8 1.2-1.1 0.3 0.8 0.1 1.8 0.1 2.7 0.4-0.2 0.7-0.7 1-0.9 0 0.7 0.5 1 1.1 0.4 0.2 0.7 0.3 2.1 1.3 1.8 0.2 0.3 0.5 0.4 0.6 0.7 0.1-0.6 0.3-1.2 0.6-1.7 0.1 0.5 0.1 1.1 0.3 1.7 0.1-0.1 0.2-0.2 0.4-0.3 0.1 0.3 0.3 0.9 0.5 1.3 0.7-1.1 0.9-2.3 1.7-3.2 0.3 0.7 0.5 1.6 1.3 1.6 0.3-0.9 0.8-1.8 1-2.8 0 0.1 0.4 0.6 0.4 0.7 0.2-0.6 0.4-1.2 0.8-1.7 0.6 1.1 1.3 0.3 1.4-0.6 0 0.3 0.2 0.6 0.2 0.8 0.1-0.6 0-1.2 0-1.8 0.2 0.2 0.4 0.4 0.5 0.6 0.1-1-0.7-2.2-1.6-2.4-0.5 1.2-2.6 1.8-3.2 0.5-0.5 0.4-1 0.4-1.6 0.6-0.7 0.1-0.9 0.3-1.5 0.5-1.7 0.7-2.9-2.1-4.7-2.7z"/>
		<path id="&lt;Path&gt;" class="s20" d="m163.6 115.5c-0.5-1.3-2.3-1.8-2.7-3-0.9-0.2-1.8-1-2.6-1.4-0.7-0.4-1.3-1.1-2-1.5 0 0 0 0.1 0 0.1-0.9 0.1-1.8-0.1-2.7-0.2-0.7-0.1-1.6 0.2-2.4 0.2q0-0.1-0.1-0.2c-0.7 0.3-1.7-0.1-2.5 0-0.2 0-0.3 0.1-0.5 0-0.2 0-0.3-0.1-0.4-0.1-0.7 0-1.4 0.5-2.2 0.6-1.1 0.1-2 0.3-3 0.7-0.4 0.1-0.7 0.5-1.1 0.6-0.2 0-0.4 0-0.6 0-0.6 0.2-1.2 0.7-1.8 1.1-1.2-0.8-2.4 1.4-3 2.2 0.1-0.1 0.3 0 0.4 0-0.1 0.7-1 1.4-1.4 2-0.6 0.6-1.2 1.3-1.7 2 0.5 0.3 0.7 0.6 1.4 0.7-0.5 1.4-2 2.3-2.4 3.8 0 0.4-0.3 2.3 0.7 1.6 0 0.6-0.6 2.4 0.4 2.3 0.1 0.7 0.3 1.6 0.9 0.8 0.6-0.8 0.9-3.1 2.2-3q0 0.1-0.1 0.3c0.6-0.7 1.3-1.2 2.1-1.7q-0.1 0.1-0.2 0.2c0.5-0.9 0.8-1.9 1.3-2.8q-0.1 0.3-0.2 0.5c-0.1-0.4 0.1-0.8 0.4-1.1-0.5 0.1-0.5-0.4-0.3-0.7 0.3-0.9 1.5-1.6 2.2-2.1 0.5-0.4 0.9-1 1.4-1.3 0.7-0.5 1.5-0.6 2.3-0.9 1.2-0.5 1.8-0.6 3-0.4 0.8 0 1.2-0.2 2-0.2 0.5-0.1 1.1-0.1 1.6 0 1 0.2 1.8 0.8 2.8 0.3z"/>
		<path id="&lt;Path&gt;" class="s21" d="m152.3 120.4q0-0.1-0.1-0.1c0.2 0.8 0 1.6-0.3 2.4 0-0.4 0.1-0.8 0.1-1.2 0 0.8-0.2 1.3-0.5 2 0.1-0.2 0.2-0.5 0.4-0.7-0.2 0.5-0.6 1-0.8 1.5 0.1-0.3 0.4-0.6 0.6-0.8-0.1 0.4-0.8 1.1-1.1 1.4 0.1-0.2 0.4-0.4 0.7-0.5-0.2 0.4-0.6 0.8-0.8 1.1q0.1-0.2 0.3-0.4c-0.7 0.5-1.3 1.2-2 1.7 0.1-0.2 0.3-0.4 0.5-0.6-0.5 0.2-1 0.7-1.3 1.1q0.1-0.1 0.2-0.3c-0.5 0.7-1.4 1.6-1.6 2.4 0.5-0.6 1.1-1.4 1.9-1.6-0.7 0.8-1.2 1.4-1.1 2.5 0.5-0.8 1-1.5 1.8-2-0.1 0.4-0.5 0.7-0.5 1.2-0.1 0.7 0.1 1.2 0.5 1.8 0-0.8 0.3-1.9 1.1-2.2 0.1 0.7-0.3 1.4-0.1 2 0.2-0.3 0.2-0.9 0.6-1.1 0.1 0.4 0 1 0.3 1.3 0.1-0.2 0.1-0.6 0.4-0.7 0 0.3 0 0.9 0.3 1.1 0.1-0.4 0.1-1.1 0.5-1.3 0.2 0.1 0.3 0.4 0.4 0.6 0.2-0.1 0.2-0.5 0.4-0.7 0.2 0.2 0.2 0.5 0.4 0.7 0.1-0.1 0.1-0.4 0.3-0.5q0.1 0.3 0.2 0.6c0.1-0.1 0.3-0.6 0.5-0.5 0.1 0 0.2 0.3 0.3 0.4 0.1-0.2 0.2-0.4 0.4-0.5 0 0.1 0.1 0.1 0.2 0.1 0.3-0.5 0.5-0.2 0.7 0.1 0.1-0.3 0.1-0.6 0.3-0.8 0.2 0.3 0.4 0.9 0.9 0.9 0-0.3 0-0.6 0.1-0.9 0.4 0.1 0.7 0.7 1.1 0.6 0.1-0.3-0.1-0.7 0.1-1 0.2 0.2 0.5 0.6 0.8 0.7 0-0.3 0-0.7 0.3-0.8 0.1 0 0.6 0.5 0.7 0.6q0-0.3 0.1-0.5c0.6 0.3 1 0.2 1.7 0.4q-0.2-0.3-0.2-0.7c0.2 0.4 0.6 0.7 1 0.9-0.1-0.4-0.1-0.9-0.2-1.4 0.5 0.3 0.5 0.8 0.8 1.2-0.1-0.3 0.4-0.7 0.3-1.1-0.4-0.6-0.9-1.1-1.3-1.6 0.4 0.3 0.9 0.5 1.3 0.7 0.4 0.3 0.1 0.7 0.5 0.9-0.6-1.5-1.7-1.4-2.5-2.7 0.1 0.3 0.6 0.5 0.9 0.5-0.8-0.4-1.6-0.5-2.4-0.9 0.1 0.1 0.3 0.1 0.5 0.1-0.3-0.2-0.8-0.4-1.2-0.4q0.1 0 0.2 0c-0.2-0.4-0.9-0.4-1.1-0.8q0.1 0 0.2 0.1-0.2-0.3-0.5-0.6 0.1 0.1 0.2 0.2c-0.4-0.2-0.7-0.9-0.7-1.3q0 0.1 0 0.2c-0.1-0.3-0.1-0.7-0.2-1-0.1 0.2-0.1 0.4-0.2 0.5-0.1-0.5-0.1-1-0.3-1.5 0 0.1-0.1 0.3 0 0.4-0.2-0.9-0.1-1.8-0.1-2.7q-0.1 0-0.2 0z"/>
		<path id="&lt;Path&gt;" class="s22" d="m154.2 121.3c-0.1 0.5-0.3 1-0.4 1.5 0-0.5 0.3-1 0.3-1.5-0.2 1-0.5 2-0.9 2.9 0-0.2 0.3-0.6 0.5-0.8-0.2 0.5-0.8 1-1.2 1.4 0.2-0.2 0.5-0.4 0.8-0.5-0.3 0.6-1.3 1.3-1.9 1.6 0.4-0.2 0.8-0.5 1.2-0.7-0.3 0.6-0.9 0.9-0.9 1.6 0-0.3 0.3-0.6 0.6-0.6 0 0.2-0.2 0.5-0.2 0.8 0.1-0.2 0.3-0.3 0.5-0.3 0 0.4-0.3 0.4 0.3 0.6-0.2 0-0.4 0-0.5 0 0.1 0.2 0.5 0.5 0.8 0.7 0.2 0.2 0.4 0.4 0.7 0.7-0.1-0.1-0.2-0.3-0.2-0.3-0.3 0.4 0.1 0.6 0.4 0.9 0.3 0.2 0.6 0.5 0.8 0.8 0-0.3-0.1-0.5-0.1-0.8 0.3 0.3 0.4 0.8 0.8 1 0.2-0.2 0.3-0.4 0.5-0.6-0.1 0.1-0.1 0.2-0.1 0.3 0.3-0.2 0.5-0.7 0.9-0.8 0 0.2-0.2 0.3-0.3 0.5 0.5-0.4 0.9-1 1.5-1.4q-0.2 0.1-0.3 0.2c0.3-0.6 0.7-1.1 1.3-1.4q-0.2 0.1-0.5 0.3c-0.1-0.5 0.3-0.9 0.4-1.2-0.3 0-0.7 0-0.6-0.5 0.1-0.2 0.3-0.3 0.5-0.4-0.4-0.3-0.4-0.8-0.6-1.2q0.1 0.3 0.2 0.4c0-0.3-0.3-0.7-0.5-0.9-0.1-0.2-0.2-0.4-0.4-0.6 0.1 0.3 0.4 0.2 0.6 0.4 0.3 0.2 0.4 0.7 0.6 1.1 0.1-0.9-1.2-1.6-1.6-2.3q0.1 0.2 0.2 0.4c-0.5-0.3-1-0.6-1.5-1 0 0 0.1 0 0.1 0 0-0.2-0.5-0.6-0.7-0.6-0.2 0.1-0.9 0.5-0.9 0.8z"/>
		<path id="&lt;Path&gt;" class="s23" d="m160.5 115c0.4 0 0.8-0.1 1.2-0.1q-0.2 0-0.4 0c0.5-0.2 1.1-0.2 1.7-0.2-0.4 0.1-0.8 0.3-1.2 0.2 0.7 0 1.4 0 2.1 0.3-0.4 0-0.8-0.1-1.1 0 0.3 0.5 1.1 0.6 1.5 1-0.3 0-0.7 0-1-0.1 0.6 0.1 1.1 0.4 1.5 0.7-0.2 0.1-0.4 0-0.6-0.1 0.1 0.5 0.7 0.8 1.1 1q0 0-0.1 0c0 0.4 0.3 0.8 0.4 1.2-0.1 0-0.2-0.1-0.3-0.1 0 0.4 0.5 0.9 0.7 1.1q0 0 0 0c-0.1 0.3 0.1 0.8 0.4 1-0.3-0.1-0.3 0.6-0.4 0.8 0 0-0.2-0.1-0.2-0.1-0.1 0.2 0.3 0.4 0.3 0.6-0.1 0.1-0.2 0.3-0.3 0.5 0-0.1 0-0.2 0-0.2-0.2 0.2-0.4 0.5-0.5 0.9 0-0.1 0-0.1-0.1-0.1-0.2 0.3-0.3 0.7-0.5 1 0 0 0-0.1 0-0.1 0 0.3-0.1 0.7-0.4 0.7 0 0.3-0.7 0.6-0.9 0.8 0-0.1 0-0.2 0-0.3-0.1 0.3-0.5 0.6-0.7 0.7q0 0 0-0.1c-0.1 0.3-0.4 0.2-0.6 0.4q0-0.1 0-0.1-0.1 0.3-0.2 0.5c-0.2-0.1-0.6-0.6-0.9-0.6-0.2 0.1-0.2 0.3-0.4 0.5 0-0.1-0.1-0.2-0.1-0.2 0 0.2 0 0.4-0.2 0.5-0.3-0.3-0.6-0.5-0.9-0.7q-0.1 0-0.1 0.1c0-0.1-0.2-0.2-0.3-0.3 0 0.2-0.1 0.4-0.1 0.5-0.2-0.3-0.5-0.6-0.7-1-0.1-0.3-0.2-0.6-0.4-0.8q0 0.1-0.1 0.2c-0.7-0.6-0.5-1.7-1-2.3q0 0.2 0 0.4c0-1.5-1.4-3.5-0.5-5z"/>
		<path id="&lt;Path&gt;" class="s23" d="m148.7 115.4c0-0.6-1.4-0.6-1.8-0.9 0.2 0.3 0.6 0.4 0.9 0.5-0.7-0.6-2.2-0.5-3.1-0.5q0.2 0 0.4 0c-0.5-0.1-1.1-0.1-1.6 0q0.2 0 0.3 0c-0.6 0.2-1.1 0.6-1.7 1 0.2-0.1 0.4-0.3 0.7-0.3-0.6 0.2-1 0.8-1.4 1.2q0.1-0.2 0.4-0.4c-0.5 0.3-1.2 1-1.4 1.5q0.1-0.2 0.3-0.4c-0.2 0.6-0.7 1.1-0.9 1.7 0.1-0.2 0.2-0.3 0.4-0.4 0 0.4-0.3 0.7-0.3 1-0.1 0.4-0.1 0.8-0.1 1.1 0-0.1 0-0.2 0.1-0.3 0.1 0.7-0.3 2.1 0.4 2.5 0-0.1 0.1-0.2 0.1-0.2 0.1 0.3 0.2 0.8 0.5 1.1q-0.1-0.1-0.1-0.2c0.1 0.4 0.1 1.2 0.4 1.4q0 0 0-0.1c0.6 0.3 0.6 1.4 1.2 1.6q0-0.2 0-0.3c0.2 0.3 0.4 0.9 0.8 0.9 0 0 0.1-0.1 0.1-0.2 0.1 0.3 0.3 0.7 0.7 0.7 0.1-0.5 0.6 0.2 0.8 0.3 0.5 0.3 0.3-0.5 0.8-0.5 0.4 0 0.2 0.3 0.6 0 0.4-0.3 0.4-0.2 0.6 0.1 0.2-0.4 0.8-1 0.9-0.3 0.1-0.1 0.2-0.3 0.4-0.4 0.1 0.2 0.1 0.2 0.3 0.1 0.2-0.1 0.2-0.3 0.4-0.4 0.1 0 0.2 0 0.3 0 0.6-0.2 0.9-0.9 1.4-1.2q0 0.1 0 0.1c0.2-0.1 0.2-0.3 0.4-0.4 0.1-0.1 0.3-0.2 0.3-0.2 0.2-0.2 0.5-1 0.8-0.7 0.4-0.5 0.8-0.8 1-1.3 0.3-0.7 0.8-1.2 0.9-1.9z"/>
		<path id="&lt;Path&gt;" class="s24" d="m151.6 123.1c-0.4 1.8-2.6 2.9-4.9 2.4-2.2-0.5-3.8-2.4-3.4-4.2 0.4-1.8 2.6-2.9 4.9-2.4 2.3 0.5 3.8 2.3 3.4 4.2z"/>
		<path id="&lt;Path&gt;" class="s25" d="m147.8 124.5q-0.5 0-0.9-0.1c-1.8-0.4-3-1.8-2.7-3.2 0.2-1.1 1.4-1.8 2.8-1.8q0.5 0 0.9 0.1c1.8 0.3 3 1.8 2.7 3.1-0.2 1.1-1.4 1.9-2.8 1.9z"/>
		<path id="&lt;Path&gt;" class="s24" d="m158 122.7c0.4 1.5 2 2.1 3.5 1.4 1.5-0.7 2.3-2.5 1.9-4-0.4-1.5-2-2.1-3.5-1.3-1.4 0.7-2.3 2.5-1.9 3.9z"/>
		<path id="&lt;Path&gt;" class="s25" d="m160.1 123.5c-0.7 0-1.3-0.5-1.5-1.2-0.4-1.1 0.3-2.5 1.5-3.1q0.5-0.2 0.9-0.2c0.8 0 1.4 0.5 1.6 1.2 0.3 1.1-0.4 2.5-1.6 3.1q-0.4 0.2-0.9 0.2z"/>
		<path id="&lt;Path&gt;" class="s26" d="m156 122.2c-0.3-0.4-0.7-0.7-1.2-0.5-0.5 0.3-0.5 0.9-0.7 1.4-0.2 1-1 1.9-1.2 2.9-0.1 0.4 0 0.7 0.2 1 0.3 0.6 0.6 1.2 1 1.7 0.3 0.4 0.7 0.7 1 1.2 0.1 0.3 0.2 0.8 0.4 1.1 0.1 0 0.1 0.1 0.1 0.1 0.4 0 0.9-0.7 1.2-1.1 0.4-0.5 0.8-1.1 1-1.7 0.3-0.8 0.4-1.8 0.3-2.7-0.1-0.8-0.4-1.3-0.9-2-0.3-0.5-0.7-1.5-1.3-1.7z"/>
		<path id="&lt;Path&gt;" class="s27" d="m148.3 115.3c0 1.2 0.1 2.1 0.5 3.2q-0.1-0.5-0.2-0.9c0.2 0.6 0.6 1.1 1 1.6 0 0-0.1-0.3-0.1-0.3 0 0.5 0.1 0.6 0.4 1.1 0-0.3 0-0.5-0.1-0.8 0 0.7 0.8 1.3 1.3 1.8-0.1-0.2-0.3-0.4-0.4-0.7 0.2 0.4 0.4 0.6 0.8 0.8q0-0.1-0.1 0c0.4 0.2 1.2 0.4 1.7 0.7 0 0-0.1-0.1-0.2-0.2 0.3 0.3 0.8 0.5 1.2 0.7 0.1 0 0.1-0.3 0.1-0.4 0.2 0 0.4 0.1 0.7 0.1-0.1 0-0.2-0.2-0.3-0.3 0.2 0.3 0.5 0.5 0.8 0.8 0-0.3 0.2-0.5 0.2-0.7 0.1 0 0.1 0.3 0.2 0.4 0.2-0.1 0.3-0.4 0.5-0.4 0.1 0.1 0 0.3 0.2 0.3 0.2-0.3 0.7-0.5 0.9-0.8 0 0.2 0 0.3 0 0.4 0.1-0.1 0.6-0.5 0.7-0.5 0.2-0.5 0.5-0.9 0.9-1.3q0 0.1 0 0.2c0.4-0.5 0.8-1.1 1.2-1.7-0.1 0.2 0 0.4 0 0.5 0.2-0.3 0.5-0.7 0.7-1 0-0.6 0-0.7 0.4-1.2q-0.2 0.3-0.4 0.6c0-0.1 0.2-0.6 0.1-0.5 0 0.2-0.1-0.1-0.1-0.1q0 0.1 0 0.2c0-0.5 0-0.9 0-1.4 0 0-0.1 0.2-0.1 0.2 0-0.3 0-0.6-0.1-0.9 0 0.1 0 0.3 0 0.4-0.1 0-0.3-0.2-0.3-0.2-0.5 0.4-1.8-0.2-2.2-0.7-0.1 0.1-0.3 0.2-0.4 0.3q-0.1-0.1-0.2-0.3c-1.3 0.2-2.9-0.7-4 0q0-0.1-0.1-0.3c-0.1 0.1-0.3 0.2-0.5 0.3-0.1-0.1-0.1-0.2-0.3-0.3-0.7 0.7-1.5 0.3-2.5 0.2 0 0.2-0.3-0.1-0.2 0.6 0.1-0.3-0.4-0.1-0.4-0.4-0.8 0-1.2 0.6-1.6 1.4z"/>
		<path id="&lt;Path&gt;" class="s26" d="m149.1 121.4c0 1.2-0.9 2.1-2 2.1-1 0-1.9-0.9-1.9-2.1 0-1.1 0.9-2 1.9-2 1.1 0 2 0.9 2 2z"/>
		<path id="&lt;Path&gt;" class="s26" d="m161.9 121.2c0 1-0.7 1.7-1.6 1.7-0.9 0-1.7-0.7-1.7-1.7 0-0.9 0.8-1.7 1.7-1.7 0.9 0 1.6 0.8 1.6 1.7z"/>
		<path id="&lt;Path&gt;" class="s28" d="m230.4 75.3c3.1-1 6-2.7 9-4.1-0.9 0.4-1.8 0.9-2.7 1.3 1.5-1.5 3.5-3.1 5.5-3.6-0.4 0.4-1 0.8-1.4 1.2 1.2-1 2.5-2.2 4.1-2.6-0.3 0.9-1.1 1.7-1.8 2.5 0.4-0.2 0.9-0.4 1.3-0.6-0.9 1.5-3.2 3.1-4.6 4.2-1.6 1.1-3.8 3-5.6 3.6-0.1-1.5 1.6-2.6 2.8-3-0.4 0.3-0.9 0.4-1.3 0.5 0.1-0.3 0-0.7 0.2-1.1-0.4 0.2-0.8 0.3-1.1 0.5q-0.1-0.1-0.1-0.3c-0.4 0.1-0.7 0.2-1.1 0.3q0-0.1 0.1-0.3c-0.9 0.6-2.2 0.8-2.4 1.9z"/>
		<path id="&lt;Path&gt;" class="s7" d="m131.2 120.4q-0.1 0.2-0.1 0.4 0.5-0.2 0.9-0.3 1.5-3 3.7-5.6c-1.8 1.7-3.4 3.5-4.5 5.5z"/>
		<path id="&lt;Path&gt;" class="s7" d="m43.6 69.3q0 0 0 0 0.3 0.3 0.7 0.6c0 0-0.7-0.6-0.7-0.6z"/>
		<path id="&lt;Path&gt;" class="s29" d="m134.3 116.5c-3.7-2-7.4-5.2-11.2-6.5 1.8 3.3 4.9 5.2 5.6 9.3 0.5 3.6-1.5 7.5 1 10.6 2.2-4.4 3.4-10.4 6.8-14z"/>
		<path id="&lt;Path&gt;" class="s4" d="m45.6 63.5c-0.4-0.7-2.4-1.7-3.4-1.9 0.9 3.7 3.2 6.6 6 9.3 3.2 3.2 7.7 3.3 11.6 5.1 0.1 0.3-0.1 0.3-0.2 0.6z"/>
		<g id="&lt;Group&gt;">
			<path id="&lt;Path&gt;" class="s7" d="m38.9 63.7q0 0 0 0.1 0-0.1 0-0.1z"/>
			<path id="&lt;Path&gt;" class="s7" d="m39.1 64.1q0.1 0.1 0.1 0.1 0 0-0.1-0.1z"/>
			<path id="&lt;Path&gt;" class="s7" d="m39.9 65.2q0 0 0 0.1 0-0.1 0-0.1z"/>
			<path id="&lt;Path&gt;" class="s7" d="m39.5 64.6q0 0.1 0 0.1 0 0 0-0.1z"/>
			<path id="&lt;Path&gt;" class="s7" d="m38.6 63.2q0.1 0.1 0.1 0.2 0-0.1-0.1-0.2z"/>
			<path id="&lt;Path&gt;" class="s7" d="m38.3 62.5q0 0 0 0.1 0-0.1 0-0.1z"/>
			<path id="&lt;Path&gt;" class="s7" d="m40.3 65.7q0 0.1 0.1 0.2-0.1-0.1-0.1-0.2z"/>
			<path id="&lt;Path&gt;" class="s7" d="m38.5 63q0-0.1-0.1-0.2 0.1 0.1 0.1 0.2z"/>
			<path id="&lt;Path&gt;" class="s7" d="m42.5 68.2q-0.1-0.1-0.2-0.2 0.1 0.1 0.2 0.2z"/>
			<path id="&lt;Path&gt;" class="s7" d="m40.7 66.2q0.1 0.1 0.2 0.2-0.1-0.1-0.2-0.2z"/>
			<path id="&lt;Path&gt;" class="s7" d="m38.9 59.4c-0.2-0.1-0.6-0.1-0.8 0.2q0.2-0.2 0.4-0.3 0.9 0.7 2 1.6 0.2 0.2 0.4 0.4c-0.9-0.9-1.7-1.7-2-1.9z"/>
			<path id="&lt;Path&gt;" class="s7" d="m37.8 60.6q0 0.1 0 0.1 0 0 0-0.1z"/>
			<path id="&lt;Path&gt;" class="s7" d="m41.8 62.2q-0.5-0.4-0.9-0.9 0.4 0.5 0.9 0.9z"/>
			<path id="&lt;Path&gt;" class="s7" d="m42.7 63.2c0.8 1 1.7 1.9 2.3 2.6-0.6-0.7-1.4-1.6-2.3-2.6z"/>
			<path id="&lt;Path&gt;" class="s7" d="m41.2 66.8q0.1 0.1 0.2 0.2-0.1-0.1-0.2-0.2z"/>
			<path id="&lt;Path&gt;" class="s7" d="m41.7 67.3q0.1 0.2 0.2 0.3-0.1-0.1-0.2-0.3z"/>
			<path id="&lt;Path&gt;" class="s7" d="m42.6 63.2q-0.4-0.5-0.8-1 0.4 0.5 0.8 1z"/>
			<path id="&lt;Path&gt;" class="s7" d="m37.9 60.1q0 0.1-0.1 0.1 0.1 0 0.1-0.1z"/>
			<path id="&lt;Path&gt;" class="s7" d="m45.6 66.5q0 0-0.1-0.1 0.1 0.1 0.1 0.1z"/>
			<path id="&lt;Path&gt;" class="s7" d="m45.8 66.7q0 0 0 0 0 0 0 0z"/>
			<path id="&lt;Path&gt;" class="s7" d="m45.8 66.7q-0.1 0-0.1-0.1 0 0.1 0.1 0.1z"/>
			<path id="&lt;Path&gt;" class="s7" d="m45.5 66.4q-0.2-0.3-0.5-0.6 0.3 0.3 0.5 0.6z"/>
			<path id="&lt;Path&gt;" class="s7" d="m37.8 60.9q0 0 0 0.1 0-0.1 0-0.1z"/>
			<path id="&lt;Path&gt;" class="s7" d="m135 120.1q0.5-0.3 1-0.7z"/>
			<path id="&lt;Path&gt;" class="s7" d="m45.8 66.7q-0.1-0.1-0.3-0.3 0.2 0.2 0.3 0.3z"/>
			<path id="&lt;Path&gt;" class="s7" d="m37.9 60q0 0 0 0 0 0 0 0z"/>
			<path id="&lt;Path&gt;" class="s7" d="m38 59.7q0 0 0 0.1 0-0.1 0-0.1z"/>
			<path id="&lt;Path&gt;" class="s7" d="m38 59.8q-0.1 0-0.1 0.1 0-0.1 0.1-0.1z"/>
			<path id="&lt;Path&gt;" class="s7" d="m37.8 60.4q0 0 0 0.1 0-0.1 0-0.1z"/>
			<path id="&lt;Path&gt;" class="s7" d="m37.9 61.1q0 0.1 0 0.1 0 0 0-0.1z"/>
			<path id="&lt;Path&gt;" class="s7" d="m37.9 61.4q0 0 0 0.1 0-0.1 0-0.1z"/>
			<path id="&lt;Path&gt;" class="s7" d="m38.1 59.6q0 0 0 0.1 0-0.1 0-0.1z"/>
			<path id="&lt;Path&gt;" class="s7" d="m38 61.7q0 0.1 0 0.1 0 0 0-0.1z"/>
		</g>
		<g id="&lt;Group&gt;">
			<path id="&lt;Path&gt;" class="s3" d="m119.3 105.8q-0.2 0.4-0.3 1.2c0.4-0.4 0.4-0.8 0.3-1.2z"/>
			<path id="&lt;Compound Path&gt;" fill-rule="evenodd" class="s30" d="m136.7 110.4q0.8 0.3 1.5 0.4c-0.5 0.6-1.1 0.2-1.9 0.4-1.8 0.4-1.1 0.8-2.2 2.2-0.1-0.2-0.4-0.4-0.5-0.6-0.4 0.5-0.4 1.2-0.3 1.9-0.2-0.1-0.5-0.1-0.6-0.1-0.1 0.9-0.2 2-0.2 3.1q0 0-0.1 0 0-0.1 0-0.2c-0.1 0.1-0.2 0.1-0.4 0.3-0.1-1.7-0.5-3.1-2.5-3 0.2-1.4-1.1-1.9-2.3-1.8-0.2-1.5-1.9-1.1-3-1.2-0.1-0.6 0-1.3-0.1-1.9-1.7 0.4-1-2.1-2.6-1.4 0-0.6 0-1.3-0.2-1.8-0.1 0-0.3 0.1-0.4 0.2-0.7-1.3-2-2.1-2.6-1.1-0.1-0.5-0.6-0.8-1.2-1-0.2 1.1-1.4 1.7-2.2 1.3q-0.1-0.1-0.2-0.2-0.2-0.3-0.3-0.6c-0.1-0.4 1.2-0.8 0.5-1.6-0.2-0.2-1.6 0-2-0.2 0.2-0.5 0.4-1.3 0.3-1.9-0.2 0-0.3 0-0.5 0 0.7 0 2.9 0.3 2.7-0.9-0.2-0.8-1.3-0.7-1.8-0.5q-0.3-0.8-0.3-1.6c-0.3 0.2-0.8 0.2-1.1 0.6 0-0.2 0.1-0.4 0.1-0.6-1.2 0.3-1.5 0.9-1.3 2.1-1.8 0.5-1.4-0.8-1.5-2.1-2.2 0.3-2.5 0.5-2.5-1.9-0.2 0.2-1.1 0.5-1.8 0.5 0.1-0.6 0.5-1.1 0.8-1.6-0.3-0.3-0.7-0.7-1-1.2-0.9 0.3-4-0.2-3.8-1.3-0.8 0.1-1.6 0.4-2.4 0.3-0.3-1.8 1.8-1.2 2.9-1.4-0.5 0.1-1 0-1.4 0.1 0-1.3-0.1-2-1.5-1.7-0.1-1.6-1.6-1-2.7-1 0.6-0.7 1.3-1 2-0.3l0.6-0.3c0-1.6-1.9-1.4-3-0.8 0.5 1.1-4.6 1.4-2.4-0.9 0.2 0 0.4 0 0.6 0 0.5-2.9-3-1.3-4.6-1.4 0.2-0.6 1-1.2 1.6-1.7-1-0.5-1.7-0.9-2.7-0.9-0.9 0.1-2.8 1.3-2.5-0.8-2.1 0-3.2-0.6-5.4-0.7 0.1-0.1 0.1-0.3 0.2-0.5q0.2 0 0.4 0 2 0.2 3.7 0.5 0.3 0.3 0.7 0.4c0.4 0.1 0.9 0 1.3-0.1q1.4 0.3 2.5 0.6 1.3 0.4 3 1.1c6.5 3.9 17.8 11.6 26.4 17 4.9 3.4 8.6 5.9 10 6 1.5 0.2 3 1 4.5 1.9 0.2 0.4 0.4 0.9 0.8 1.2 0.7 0.8 1.8 0.8 2.9 0.7zm-41-23.1q-0.3 0.1-0.6 0.2 0.3 0.2 0.5 0.3c0-0.1 0-0.3 0.1-0.5z"/>
		</g>
		<path id="&lt;Path&gt;" class="s31" d="m141.1 116.7c-0.8 0.5-1.8 1.7-2.3 2.6 0.5 0 1 0.4 1.5 0.4 0.2 0.9-2.2 4.5 0.4 4.2 0.3 0.5 1.2 0.7 1.4 1.4 0.2 0.8-1 0.8-0.6 1.7 0.4 0.9 3.6 1.1 4.5 1.5-0.7 1.8-2.1 1-3.4 1.1-1.7 0.3-2.9 2.2-1.5 3.7-1.1 0.5-2.5 0.9-3.6 1.7-1.3 0.9-0.6 1.1-1.3 2.1-0.8 1.3-2.5 1.5-2.6-0.4 1.5 0.5 3.1-2.5 1.1-2.4 0.3-0.8 1.8-1.1 2.6-1 0-1.2-0.2-2.3-0.3-3.5 0.3 0 0.6 0 0.8 0-0.4-0.3-1.5-0.7-1.5-1.3 0.1-0.7 1.2-0.8 1.7-0.6-1 0.4-2.8 0.2-3.3 1.4-0.3 0.8 0.3 1.6 0.3 2.3-2.3 0.1-4.6-1.3-2.7 1.9-0.3-1.1-2.3 0-2.5-0.9-0.1-0.8 2-1.5 2.4-2.2-1.5-0.6-2.5-1.7-0.4-2.6 0.5-0.1 0.7 0.8 1.5 0.2 0.7-0.6 0.5-2.5 0.9-3.3-0.8-0.3-1.6-0.6-2.3-0.7-0.4 1.3 0.2 2.8-1.5 2.8-0.1-0.8-0.3-2 0-2.8 0.2-0.8 1.2-1.1 1.1-2.1-0.2-0.1-0.3-0.1-0.5-0.1 0.2-0.6 0.9-0.8 1.2-1.3 0.2-0.6-0.1-0.8 0-1.4 0.3-1.4 0.6-1.8 1.9-2.3-1-2.1 3.9-2.8 5.1-3.6z"/>
		<path id="&lt;Path&gt;" class="s30" d="m117.9 102.6c-0.9 0.1-0.3 1.5 0.7 0.7q0 0.2 0 0.3c1.5 0.4 0.3-0.9 0.2-1.2 0.2 0 0.5-0.2 0.7-0.2-1.2 0-2.8 0.5-1.8-1.3-0.7 0.8-0.7 1.7-1.3 2.5 0.6 0.1 1-0.3 1.4-0.6 0.2 0.1 0.2 0.3 0.1 0.5z"/>
		<path id="&lt;Path&gt;" class="s30" d="m122.7 104.4c0 0.4 0-0.4 0-0.5q0 0.1 0 0.3c1.2 0 2.1 0.7 0.9 1.5 2 0.5 1.9 0.7 1.5 2.5 1.9 0.3 2 3 4.2 2.6 0-0.5 0.1-1.3 0.5-1.6-1.2-0.8-1.7-0.6-3-0.7q0-0.5 0-1c-1.5 0.8-0.9-0.2-1.1-0.9-0.3-1.1-0.9-0.9-1.4-0.3-0.4 0.4-1.1 1.8-1.9 1.3-0.6-0.5 0.1-1.6 0.4-2.1-0.1 0.1-0.2 0.1-0.3 0.1 0-0.9 0.1-1.2-0.5-1.7-0.1 0-0.5-0.1-0.6-0.2-0.3-0.1-0.5-0.5-0.8-0.7-0.1 0.3-0.4 0.4-0.5 0.6-0.4-0.7-0.3-1.4 0.6-1.2 1.2 0.4 0.7 1.2 0.6 2q0.1 0 0.3 0z"/>
		<path id="&lt;Path&gt;" class="s3" d="m135.8 113.3c-1 0.8-1.7 2.1-2.8 2.7-0.1-0.4 0.2-0.6 0.5-0.7-0.7 0.7-1.7 2.3-1.9 3.4q0-0.2 0-0.4c0.2 0.9-0.7 2-0.8 3q0-0.2 0-0.4c-0.1 0.2-0.2 0.5-0.3 0.7z"/>
		<path id="&lt;Path&gt;" class="s32" d="m53.8 76.6c-0.5-0.1 0 1.7 0.1 2.2 0.4 1 0.5 1.3 1.3 1.8 0.4 0.3 0.7 0.1 1 0.7 0.3 0.5 0.2 1.3 0.4 1.7 0.5 1 1.3 1.2 2.2 1.6 0.9 0.4 0.8 1 1.4 1.8 0.9 1.4 2.7 1.6 3.5 2.9 0.6 0.9 1 1 1.9 1.5 0.8 0.6 0.9 1.1 1.4 1.9 1.2 2.1 3.5 1.4 4.5 3.6 0.5 1.1 1 1.7 1.8 2.5 0.8 0.7 2.1 1 2.6 1.8 0.7 0.9 0.7 2 1.5 2.9 0.9 0.9 2.1 0.8 2.9 1.5 0.9 0.7 0.5 2.1 1.5 2.8 0.9 0.6 2.2 0.9 2.9 1.6 1 0.9 1.4 0.9 2.3 2.1 0.1 0.1 0.9 0 1.5 0.1 0.7 0.1 0.7 0.8 1.2 1.3 0.6 0.8 1.5 0.8 2.3 1.3 0.8 0.6 1.2 1.6 2 2 0.8 0.4 1.8 0.5 2.6 0.8 1.2 0.5 1.4 1 2.2 1.9 0.6 0.8 1.7 0.9 2.7 0.9 0.5 0 0.7-0.1 1.1 0.1 0.6 0.4 0.8 1 1.5 1.2 0.7 0.3 1.8-0.1 2.4 0.2 0.6 0.3 0.7 1.1 1.2 1.4 0.4 0.3 0.9 0.2 1.3 0.2 1.3 0 1.7-0.2 2.8 0.5 1.1 0.7 2.3 0.2 3.6 0.7 0.7 0.3 1.2 0.8 2 0.9 0.8 0.1 1.3-0.2 2-0.3 1.6-0.3 2.1 0.8 3.7-0.1 0.6-0.3 1.3-1.2 2-1.3 0.3-0.1 0.8 0.2 1.2 0.2 1-0.1 1.6-0.7 1.4-1.7-0.6-0.1-2.2 0.5-2.7 0.8-0.9 0.4-1.3 1.9-2.4 1.8-0.4 0-0.6-0.5-1.2-0.5-0.5 0.1-1.3 1-1.9 1.1-1.3 0.4-1.5-0.6-2.5-1-0.5-0.1-1 0-1.4-0.1-0.6 0-0.9-0.2-1.3-0.4-0.9-0.4-1.8-0.9-2.7-1.2-0.9-0.2-1.6-0.5-2.5-0.9-0.4-0.2-0.9-0.2-1.4-0.4-0.6-0.3-1-0.9-1.6-1.1-0.5-0.1-0.8 0-1.3 0.1-0.8 0-0.6-0.1-1.3-0.4-1-0.7-2-1.2-3.2-1.3-1.4 0-2.4 0.2-3.2-1.1-0.6-0.9-1.6-1.6-2.8-2.1-1.3-0.6-2.6-0.9-3.6-2.1-0.5-0.5-0.5-1-1.1-1.4-0.2-0.2-0.7-0.5-1-0.7-1.7-1.3-3.7-2.1-5.1-3.7-0.8-0.8-1.7-1.3-2.5-2-0.8-0.7-1.4-1.9-2.3-2.6-0.9-0.7-1.6-0.1-2.1-1.4-0.6-1.3-1.2-2-2.1-3-1.4-1.6-3.2-3.1-4.2-4.9-0.3-0.6-0.3-1.1-1-1.4-0.6-0.3-1.3 0.1-1.9-0.3-0.6-0.4-0.9-1.2-1.3-1.8-0.4-0.5-0.9-1-1.4-1.5-1.1-1-2-1.4-2.9-2.7-0.5-0.7-0.9-1.9-1.5-2.5-0.5-0.4-1-0.3-1.6-0.5-0.8-0.2-1.1-0.7-1.5-1.4-0.4-0.9-0.6-1-1.3-1.5-0.6-0.3-1.1-0.7-1.3-1.5-0.2-0.4-0.1-1.7-0.8-1.1z"/>
		<path id="&lt;Path&gt;" class="s32" d="m72.7 83.2c-0.3 0 0 1.1 0.1 1.5 0.2 0.6 0.3 0.8 0.8 1.1 0.3 0.2 0.5 0.1 0.7 0.5 0.2 0.3 0.1 0.8 0.3 1.1 0.3 0.7 0.8 0.8 1.4 1.1 0.5 0.2 0.5 0.6 0.9 1.1 0.6 0.9 1.8 1.1 2.3 2 0.4 0.5 0.7 0.6 1.2 0.9 0.6 0.4 0.6 0.8 0.9 1.3 0.9 1.3 2.4 0.9 3 2.3 0.3 0.7 0.6 1.1 1.2 1.6 0.5 0.5 1.3 0.7 1.7 1.2 0.4 0.6 0.5 1.4 1 1.9 0.6 0.6 1.4 0.6 1.9 1 0.6 0.5 0.3 1.4 1 1.9 0.5 0.4 1.4 0.6 1.9 1 0.6 0.6 0.9 0.6 1.5 1.4 0.1 0.1 0.6 0 1 0.1 0.4 0.1 0.4 0.5 0.7 0.8 0.5 0.6 1 0.5 1.6 0.9 0.5 0.3 0.7 1 1.3 1.3 0.5 0.2 1.1 0.3 1.6 0.5 0.8 0.3 1 0.7 1.5 1.3 0.4 0.4 1.2 0.6 1.8 0.6 0.3 0 0.4-0.1 0.7 0 0.4 0.2 0.5 0.7 1 0.8 0.5 0.2 1.2-0.1 1.6 0.1 0.3 0.2 0.4 0.8 0.7 1 0.3 0.1 0.6 0.1 0.9 0.1 0.8 0 1.1-0.1 1.8 0.3 0.8 0.5 1.6 0.1 2.4 0.4 0.5 0.2 0.8 0.6 1.3 0.6 0.5 0.1 0.9-0.1 1.3-0.2 1.1-0.1 1.4 0.6 2.5 0 0.4-0.2 0.8 0.8 1.3 0.7 0.2 0 2.2 1 2.4 1 0.6-0.1 2.2 0 2.1-0.6-0.4-0.1-3.3 0.1-4.6-0.9-0.5-0.4-0.9-0.3-1.5-0.3-0.4 0-0.5-0.4-0.8-0.3-0.4 0-0.9 0.6-1.3 0.7-0.8 0.2-1-0.5-1.7-0.7-0.3-0.1-0.6 0-0.9 0-0.3-0.1-0.5-0.2-0.8-0.3-0.6-0.3-1.2-0.6-1.8-0.8-0.6-0.2-1.1-0.3-1.6-0.6-0.3-0.1-0.6-0.2-0.9-0.3-0.4-0.2-0.7-0.6-1.1-0.7-0.3-0.1-0.5 0-0.8 0-0.6 0.1-0.5 0-0.9-0.2-0.6-0.4-1.3-0.8-2.1-0.8-0.9-0.1-1.5 0.1-2.1-0.7-0.4-0.7-1.1-1.1-1.8-1.4-0.9-0.4-1.7-0.6-2.4-1.4-0.3-0.3-0.3-0.7-0.7-1-0.2-0.1-0.5-0.3-0.7-0.4-1.1-0.8-2.4-1.4-3.3-2.4-0.5-0.5-1.1-0.9-1.7-1.3-0.5-0.5-0.9-1.3-1.4-1.7-0.7-0.5-1.1-0.1-1.5-1-0.3-0.8-0.7-1.3-1.3-2-0.9-1-2.1-2-2.8-3.2-0.2-0.3-0.2-0.6-0.6-0.8-0.5-0.2-0.9 0-1.3-0.3-0.4-0.2-0.5-0.8-0.8-1.1-0.3-0.4-0.6-0.7-0.9-1-0.7-0.7-1.4-1-2-1.8-0.3-0.5-0.5-1.2-0.9-1.6-0.4-0.3-0.7-0.2-1.1-0.3-0.5-0.2-0.7-0.5-1-1-0.2-0.6-0.3-0.6-0.8-0.9-0.4-0.3-0.7-0.5-0.9-1-0.1-0.3 0-1.1-0.5-0.7z"/>
		<g id="&lt;Group&gt;">
			<path id="&lt;Path&gt;" class="s32" d="m107.2 107.7c-0.8-0.3-1.7-0.5-2.4-1.3-0.3-0.3-0.4-0.6-0.8-0.9-0.1-0.1-0.4-0.3-0.6-0.4-1.2-0.8-2.5-1.3-3.5-2.3-0.5-0.5-1.1-0.8-1.7-1.3-0.6-0.4-0.9-1.2-1.5-1.6-0.7-0.4-1.1 0-1.5-0.9-0.4-0.8-0.8-1.3-1.4-1.9-1-1-2.2-1.9-2.9-3.1-0.2-0.4-0.3-0.7-0.7-0.8-0.4-0.2-0.8 0.1-1.3-0.2-0.3-0.2-0.5-0.8-0.8-1.1-0.3-0.4-0.6-0.7-1-1-0.7-0.7-1.4-0.9-2-1.7-0.3-0.5-0.6-1.2-1-1.6-0.4-0.3-0.7-0.2-1.1-0.3-0.5-0.1-0.7-0.4-1-0.9-0.3-0.5-0.4-0.6-0.9-0.9-0.4-0.2-0.7-0.5-0.9-0.9-0.1-0.3-0.1-1.2-0.6-0.7l0.1-0.4c-0.4 0 0 1.1 0.1 1.5 0.2 0.6 0.3 0.8 0.8 1.1 0.4 0.2 0.5 0.1 0.8 0.4 0.2 0.4 0.1 0.8 0.3 1.2 0.3 0.6 0.8 0.7 1.4 0.9 0.6 0.2 0.6 0.6 1 1.1 0.6 0.9 1.8 1 2.4 1.9 0.4 0.6 0.7 0.6 1.3 0.9 0.5 0.3 0.6 0.7 0.9 1.2 0.9 1.3 2.4 0.8 3.1 2.2 0.3 0.8 0.6 1.1 1.2 1.6 0.5 0.5 1.4 0.6 1.8 1.2 0.4 0.5 0.5 1.3 1 1.8 0.6 0.6 1.4 0.5 2 0.9 0.6 0.5 0.4 1.4 1 1.8 0.6 0.4 1.4 0.6 2 1 0.7 0.6 0.9 0.6 1.5 1.3 0.1 0.1 0.6 0 1 0.1 0.4 0 0.5 0.5 0.8 0.8 0.5 0.5 1 0.4 1.6 0.8 0.5 0.3 0.8 1 1.3 1.2 0.6 0.2 1.2 0.3 1.7 0.5q0.3 0.1 0.5 0.2-0.1 0-0.1-0.1c-0.4-0.6-1.1-1-1.9-1.3z"/>
			<path id="&lt;Path&gt;" class="s32" d="m121.2 112.9c-0.3-0.1-0.5-0.2-0.7-0.2-0.6-0.2-1.2-0.5-1.8-0.7-0.6-0.2-1.1-0.3-1.6-0.5-0.3-0.2-0.6-0.2-1-0.3-0.4-0.2-0.6-0.6-1.1-0.7-0.3 0-0.5 0.1-0.8 0.1-0.5 0.1-0.4 0-0.8-0.2-0.7-0.4-1.4-0.7-2.2-0.7-0.6-0.1-1.1 0-1.5-0.2q0.2 0.3 0.5 0.6c0.5 0.4 1.2 0.5 1.8 0.5 0.3 0 0.5-0.1 0.8 0 0.4 0.2 0.5 0.6 1 0.8 0.4 0.2 1.1-0.1 1.6 0 0.3 0.2 0.4 0.8 0.8 0.9 0.2 0.2 0.5 0.1 0.9 0.1 0.8 0 1.1-0.2 1.7 0.3 0.8 0.4 1.6 0 2.4 0.3q0 0 0.1 0-0.1 0-0.1-0.1z"/>
			<path id="&lt;Path&gt;" class="s32" d="m109.2 109.1q0.2 0.3 0.5 0.4c-0.1-0.1-0.3-0.3-0.5-0.4z"/>
		</g>
		<path id="&lt;Path&gt;" class="s32" d="m56.6 73.2c-0.5 0 0 1.8 0.1 2.2 0.4 1.1 0.5 1.4 1.3 1.8 0.4 0.3 0.7 0.2 1 0.7 0.3 0.5 0.2 1.3 0.4 1.8 0.5 1 1.3 1.1 2.2 1.5 0.9 0.4 0.8 1 1.4 1.8 0.9 1.4 2.7 1.6 3.6 3 0.5 0.8 0.9 0.9 1.8 1.5 0.8 0.5 0.9 1.1 1.4 1.9 1.2 2 3.6 1.3 4.5 3.5 0.5 1.1 1 1.7 1.8 2.5 0.8 0.7 2.1 1 2.6 1.8 0.7 0.9 0.7 2 1.5 2.9 0.9 0.9 2.1 0.8 2.9 1.6 0.9 0.7 0.5 2 1.5 2.7 0.9 0.7 2.2 0.9 2.9 1.6 1 0.9 0.9 1.8 2.3 2.1 0.5 0.1 1.1 0 1.5 0.2 0.6 0.2 0.7 0.8 1.2 1.3 0.6 0.8 1.5 0.7 2.3 1.3 0.8 0.5 1.2 1.5 2 1.9 0.8 0.4 1.8 0.6 2.6 0.9 1.2 0.4 1.4 1 2.2 1.9 0.6 0.7 1.7 0.9 2.7 0.9 0.5 0 0.7-0.2 1.1 0.1 0.6 0.3 0.8 0.9 1.5 1.2 0.7 0.3 1.8-0.1 2.4 0.2 0.6 0.2 0.7 1.1 1.2 1.4 0.4 0.2 0.9 0.2 1.3 0.2 1.3 0 1.7-0.3 2.8 0.4 1.1 0.8 2.3 0.2 3.6 0.7 0.7 0.3 1.2 0.8 2 0.9 0.8 0.1 1.3-0.2 2-0.3 1.6-0.2 2.1 0.9 3.7 0 0.6-0.4 1.3-1.3 2-1.4 0.3 0 0.8 0.3 1.2 0.2 1-0.1 1.6-0.7 1.4-1.6-0.6-0.1-2.2 0.4-2.7 0.7-0.9 0.4-1.3 1.9-2.4 1.8-0.4 0-0.6-0.5-1.1-0.4-0.6 0-1.3 0.9-2 1.1-1.3 0.3-1.5-0.7-2.5-1-0.5-0.2-1-0.1-1.4-0.1-0.6-0.1-0.9-0.3-1.3-0.5-0.9-0.3-1.8-0.8-2.7-1.1-0.9-0.3-1.6-0.5-2.5-0.9-0.4-0.2-0.9-0.3-1.4-0.5-0.6-0.3-1-0.9-1.6-1-0.5-0.2-0.8 0-1.3 0-0.8 0-0.6 0-1.2-0.4-1.1-0.6-2.1-1.1-3.3-1.2-1.4-0.1-2.4 0.1-3.2-1.1-0.6-1-1.6-1.7-2.8-2.2-1.3-0.5-2.6-0.8-3.6-2-0.5-0.6-0.5-1.1-1.1-1.5-0.2-0.2-0.7-0.5-1-0.7-1.7-1.2-3.7-2.1-5.1-3.6-0.8-0.8-1.7-1.4-2.5-2.1-0.8-0.7-1.4-1.9-2.3-2.6-0.9-0.7-1.6-0.1-2.1-1.4-0.6-1.2-1.2-2-2.1-3-1.4-1.6-3.2-3.1-4.2-4.9-0.3-0.6-0.3-1-1-1.3-0.6-0.3-1.3 0.1-1.9-0.4-0.6-0.3-0.9-1.2-1.3-1.7-0.4-0.6-0.9-1.1-1.4-1.5-1.1-1.1-2-1.5-2.9-2.8-0.5-0.7-0.9-1.9-1.5-2.4-0.5-0.5-1-0.3-1.6-0.5-0.8-0.3-1.1-0.8-1.5-1.5-0.4-0.8-0.6-0.9-1.3-1.4-0.6-0.4-1.1-0.8-1.3-1.5-0.2-0.5-0.1-1.7-0.8-1.1z"/>
		<g id="&lt;Group&gt;">
			<path id="&lt;Path&gt;" class="s32" d="m191 112.1c-0.6 0.4-0.4 0.4-1.4 0.6-0.5 0.1-1 0.1-1.4 0.4-0.7 0.3-1.1 0.8-1.7 1.2-0.5 0.3-1.1 0.5-1.6 0.7-0.9 0.6-1.7 1-2.6 1.4-1 0.5-2 1.1-2.9 1.6-0.5 0.3-0.9 0.5-1.5 0.7-0.5 0.2-1.1 0.3-1.6 0.5-0.7 0.3-1 0.7-1.4 1.1 0.3-0.1 0.7-0.1 1.1-0.3 0.9-0.3 1.4-0.8 2.2-1.2 1.3-0.7 2.9-0.7 4-1.6 1.1-0.8 1.7-0.8 3.1-1.1 0.5-0.2 1.1-0.3 1.5-0.6 0.6-0.4 0.5-1 1.1-1.3 0.7-0.4 2-0.5 2.8-0.9 0.7-0.4 0.8-0.9 1.5-1.3 0.5-0.3 0.7-0.2 1.3-0.4 0.7-0.2 1.5-0.4 2.1-0.8 0.2-0.4 0.4-0.6 0.9-1.2-0.5 0.2-1.2 0.4-1.9 0.6-1.4 0.5-2.5 1.1-3.6 1.9z"/>
			<path id="&lt;Path&gt;" class="s32" d="m173.6 120.7c0.6-0.1 1-0.2 1.3-0.4-0.4 0-0.8 0-1.2 0.1q-0.6 0.1-1 0.2 0.5 0.1 0.9 0.1z"/>
			<path id="&lt;Path&gt;" class="s32" d="m222.1 88.4c0.9-0.8 1.3-1.3 1.7-2.3 0.7-1.8 3.4-2 4.5-3.8 0.1-0.1 0.7-1.8 0.7-1.9-1.2 0.5-2.3 1.9-3.5 2.4-0.1 0-0.9 0.9-0.9 0.9-0.9 1.6-2.6 3.2-3.9 4.7-0.9 0.9-1.5 1.7-1.9 2.7-0.4 1.1-1.3 0.9-2.2 1.6-0.6 0.5-1 1.1-1.4 1.6 0.5-0.3 1-0.6 1.8-0.8 0.5-0.1 0.9-0.4 1.4-0.7 0.6-0.8 0.5-1.6 1-2.3 0.6-0.7 2-1.3 2.7-2.1z"/>
			<path id="&lt;Path&gt;" class="s32" d="m205.6 102.3c-0.5 0.5-0.5 0.8-0.9 1.3-0.6 0.7-1.3 1.2-2.1 1.7q0.3-0.2 0.6-0.3 0.1-0.1 0.2-0.1c0.4-0.4 0.9-0.6 1.4-0.8 0.5-0.4 0.9-0.9 1.3-1.4 0.2-0.2 0.3-0.4 0.6-0.6q0.5-0.6 1.1-1.2 0.4-0.4 0.7-0.7-1 0.6-1.8 1.3c-0.3 0.3-0.8 0.6-1.1 0.8z"/>
			<path id="&lt;Path&gt;" class="s32" d="m213.3 96.1q-0.4 0.4-0.8 0.8 0.4-0.4 0.8-0.8z"/>
			<path id="&lt;Path&gt;" class="s32" d="m172.7 120.6c-0.5 0-1.1-0.2-1.5-0.1-0.6 0.1-0.8 0.5-1.3 0.7-1 0.3-1.7-0.3-2.5-0.5q0.3 0.2 0.6 0.5c0.4 0.1 0.9 0.3 1.4 0.3 1.6 0.1 2.2-0.5 3.3-0.9z"/>
			<path id="&lt;Path&gt;" class="s32" d="m176 112.5c0.4 0 0.7-0.1 0.9-0.2q-0.4 0-0.8 0.1-0.4 0-0.6 0.1 0.3 0.1 0.5 0z"/>
			<path id="&lt;Path&gt;" class="s32" d="m179.1 111.3c0.8-0.5 1.8-0.5 2.6-1 0.7-0.6 1.1-0.5 2-0.8 0.4-0.1 0.7-0.1 1-0.3 0.4-0.3 0.4-0.7 0.7-0.9 0.5-0.3 1.3-0.3 1.9-0.6 0.5-0.2 0.5-0.6 0.9-0.8 0.3-0.2 0.5-0.2 0.9-0.3 0.7-0.2 1.5-0.5 1.9-0.9q0.3-0.4 0.5-0.6c-0.5 0.3-1 0.4-1.7 0.6-0.9 0.3-1.6 0.7-2.3 1.2-0.5 0.3-0.3 0.3-0.9 0.4-0.4 0.1-0.7 0.1-1 0.2-0.5 0.3-0.7 0.6-1.1 0.9-0.3 0.1-0.7 0.3-1 0.4-0.6 0.4-1.2 0.6-1.8 0.9-0.6 0.4-1.3 0.8-1.9 1.1-0.3 0.2-0.5 0.3-0.9 0.5-0.4 0.1-0.7 0.1-1.1 0.3-0.4 0.2-0.6 0.5-0.9 0.7q0.3-0.1 0.7-0.2c0.6-0.2 1-0.5 1.5-0.8z"/>
			<path id="&lt;Path&gt;" class="s32" d="m192 104.6c-0.2 0.2-0.4 0.3-0.5 0.5q0.3-0.2 0.5-0.5z"/>
			<path id="&lt;Path&gt;" class="s32" d="m194.3 103.5c0.6-0.4 0.7-0.9 1.3-1.3 0.5-0.5 1.2-0.6 1.6-1.1 0.2-0.3 0.2-0.6 0.7-0.8 0.5-0.2 1-0.3 1.1-0.4 0.6-0.7 0.8-0.8 1.5-1.4 0.5-0.5 1.4-0.8 2-1.3 0.7-0.5 0.2-1.1 0.8-1.6 0.6-0.4 1.5-0.7 2-1.2 0.5-0.6 0.4-1.1 0.8-1.7 0.3-0.4 1.3-0.8 1.8-1.3 0.5-0.5 0.8-0.9 1-1.5q-0.5 0.2-1 0.4 0 0 0 0-0.5 0.5-1 1c-0.5 0.7-0.9 1.2-1.2 1.9-0.3 0.7-0.9 0.5-1.5 1-0.6 0.5-0.8 1.2-1.4 1.7-0.5 0.4-1.1 0.9-1.6 1.4-0.9 1-2.3 1.8-3.5 2.7-0.2 0.1-0.5 0.3-0.7 0.5-0.3 0.3-0.3 0.5-0.6 0.9-0.6 0.7-1.6 1.1-2.5 1.6-0.8 0.5-1.5 1-1.8 1.5q-0.1 0.1-0.1 0.1 0.2-0.1 0.5-0.2c0.5-0.3 1.2-0.6 1.8-0.9z"/>
			<path id="&lt;Path&gt;" class="s32" d="m171.9 113.9c0.5 0 0.8-0.9 1.4-0.8 1 0.1 1.4-0.3 2.2-0.6-0.4 0-0.8-0.1-1.1-0.1-0.3 0.1-0.4 0.4-0.8 0.5-0.8 0.2-1.3 0.3-1.7 0.7-1.3 1.1-4.7 1.8-5.2 2 0 0.5 1.8-0.1 2.5-0.2 0.3-0.1 2.4-1.4 2.7-1.5z"/>
			<path id="&lt;Path&gt;" class="s32" d="m184.9 105.3c0.6-0.3 0.8-0.9 1.4-1.3 0.6-0.4 1.3-0.5 1.7-1 0.3-0.3 0.2-0.6 0.7-0.8 0.5-0.1 1.1-0.2 1.2-0.3 0.6-0.7 0.8-0.8 1.5-1.4 0.6-0.5 1.5-0.8 2.1-1.3 0.7-0.5 0.3-1 0.9-1.5 0.6-0.5 1.5-0.7 2-1.3 0.6-0.5 0.5-1.1 0.9-1.6 0.4-0.5 1.3-0.8 1.8-1.3 0.4-0.4 0.7-0.6 0.9-1q-0.2 0.1-0.4 0.2-0.5 0.1-0.9 0.3-0.3 0.2-0.5 0.4c-0.6 0.7-1 1.1-1.3 1.8-0.3 0.7-0.9 0.6-1.5 1.1-0.7 0.4-0.9 1.1-1.5 1.6-0.6 0.4-1.2 0.9-1.7 1.4-1 0.9-2.4 1.7-3.6 2.6-0.2 0.1-0.5 0.3-0.7 0.5-0.4 0.3-0.4 0.5-0.7 0.9-0.6 0.7-1.6 1.1-2.6 1.6-0.8 0.4-1.5 0.9-1.9 1.5q0 0-0.1 0 0.2-0.1 0.5-0.2c0.6-0.3 1.3-0.6 1.8-0.9z"/>
			<path id="&lt;Path&gt;" class="s32" d="m175.2 110.8c0.3-0.2 0.3-0.6 0.7-0.8 0.5-0.3 1.3-0.3 1.8-0.6 0.6-0.2 0.6-0.5 1.1-0.8 0.3-0.2 0.4-0.2 0.8-0.2 0.7-0.2 1.5-0.5 2-0.9q0.3-0.4 0.5-0.6c-0.5 0.3-1.1 0.4-1.7 0.5-0.9 0.3-1.7 0.7-2.4 1.2-0.4 0.3-0.3 0.3-0.9 0.4-0.4 0.1-0.7 0.1-1 0.2-0.4 0.2-0.7 0.6-1.1 0.8-0.3 0.2-0.7 0.3-1 0.4q-0.2 0.2-0.4 0.3-0.7 0.4-1.1 0.9c0.5-0.2 0.9-0.3 1.6-0.5 0.4 0 0.8-0.1 1.1-0.3z"/>
			<path id="&lt;Path&gt;" class="s32" d="m182.6 106.4c-0.2 0.2-0.4 0.3-0.5 0.5q0.3-0.2 0.5-0.5z"/>
			<path id="&lt;Path&gt;" class="s32" d="m253.9 61.7c0.3-0.9 1.5-1.6 1.9-2.5q-0.1 0-0.2 0.1-0.3 0.1-0.8 0.6 1-1.3 1.9-2.8 0.1-0.3 0.2-0.6-0.2 0-0.4 0.1-0.1 0.2-0.5 0.5c-0.3 0.3-0.7 0.4-1 0.7-0.3 0.5-0.3 1.1-0.5 1.6-0.4 0.9-1 1.4-1.5 2.2-0.3 0.4-0.5 0.8-0.7 1.1-0.2 0.4-0.2 0.8-0.5 1.2-0.3 0.4-0.9 0.5-1.3 0.8-0.4 0.4-0.3 0.6-0.4 0.9-0.3 1.2-1.2 2.4-1.9 3.5-0.4 0.7-0.7 1.2-0.8 1.9q0.4-0.6 0.9-1.2 0.1-0.1 0.2-0.1c0.3-0.3 0.5-0.5 0.6-0.7 0.5-0.6 0.7-1.1 0.8-1.7 0.2-1.1 1.5-1.6 2.2-2.5q0.1-0.3 0.2-0.6c0.2-0.5 0.1-0.7 0.6-1.2 0.5-0.6 0.8-0.8 1-1.3z"/>
			<path id="&lt;Path&gt;" class="s32" d="m246.1 72.5c-0.5 0.6-0.6 1.3-1 1.9q-0.4 0.5-0.8 1 0.6-0.5 1.1-1.1 0-0.1 0.1-0.2 0.2-0.2 0.3-0.4 0.1-0.1 0.2-0.2 0.4-0.8 0.9-1.6c-0.3 0.1-0.5 0.3-0.8 0.6z"/>
			<path id="&lt;Path&gt;" class="s32" d="m232 84.4c0.2-0.4 0.1-0.7 0.6-1 0.4-0.2 0.9-0.4 1-0.5 0.5-0.8 0.7-1 1.3-1.7 0.4-0.6 1.2-1.1 1.7-1.7 0.6-0.6 0.1-1.1 0.6-1.7 0.5-0.5 1.3-0.9 1.8-1.6q0.1-0.2 0.2-0.5-0.9 0.8-1.9 1.5c-0.2 0.3-0.3 0.6-0.6 0.9-0.4 0.6-0.9 1.1-1.4 1.7-0.7 1.2-2 2.2-2.9 3.3-0.2 0.2-0.5 0.5-0.6 0.7-0.3 0.3-0.3 0.6-0.5 1q-0.2 0.2-0.4 0.4 0.4-0.2 0.7-0.4 0.2-0.2 0.4-0.4z"/>
			<path id="&lt;Path&gt;" class="s32" d="m193.2 107.9q0.5-0.3 0.9-0.8c-0.4 0.3-0.6 0.5-0.9 0.8z"/>
			<path id="&lt;Path&gt;" class="s32" d="m187.2 110.6c-0.7 0.4-0.5 0.4-1.4 0.6-0.6 0.1-1 0.1-1.5 0.4-0.7 0.3-1.1 0.8-1.7 1.2-0.5 0.3-1 0.5-1.5 0.7-0.9 0.6-1.7 1-2.7 1.4-1 0.5-2 1.1-2.9 1.6-0.5 0.3-0.8 0.5-1.4 0.7-0.5 0.2-1.1 0.3-1.6 0.5-0.7 0.3-1 0.7-1.5 1 0.4 0 0.8-0.1 1.2-0.2 0.9-0.3 1.4-0.8 2.2-1.2 1.3-0.8 2.8-0.7 4-1.6 1.1-0.8 1.6-0.8 3.1-1.2 0.5-0.1 1.1-0.2 1.5-0.5 0.5-0.4 0.5-1 1.1-1.3 0.7-0.4 2-0.5 2.7-0.9 0.8-0.4 0.9-0.9 1.5-1.3 0.5-0.3 0.7-0.2 1.3-0.4 1.1-0.3 2.3-0.7 2.9-1.4 0.3-0.3 0.5-0.6 0.7-0.8-0.6 0.3-1.5 0.5-2.5 0.8-1.4 0.5-2.5 1.1-3.5 1.9z"/>
			<path id="&lt;Path&gt;" class="s32" d="m167.3 119c-0.5 0.1-0.7 0.5-1.2 0.6l0.3 0.4c1-0.1 1.6-0.6 2.5-0.9-0.6-0.1-1.2-0.2-1.6-0.1z"/>
			<path id="&lt;Path&gt;" class="s32" d="m212.7 91.2c-0.9 0.8-1.3 1.8-2.1 2.5-0.9 0.8-1.8 1.4-2.5 2.2-1.4 1.5-3.5 2.7-5.3 4.1-0.3 0.2-0.8 0.6-1 0.8-0.6 0.5-0.6 0.8-1 1.3-0.9 1.2-2.4 1.8-3.8 2.6-1.2 0.7-2.3 1.4-2.8 2.3q-0.1 0.1-0.1 0.1 0.3-0.2 0.7-0.4c0.8-0.4 1.9-0.9 2.7-1.4 0.9-0.5 1.2-1.3 2-1.9 0.9-0.7 1.9-0.9 2.5-1.7 0.4-0.4 0.4-0.9 1.1-1.2 0.4-0.2 1.2-0.4 1.7-0.6 1.6-0.6 1.2-1.2 2.2-2.1 0.8-0.7 2.2-1.3 3.1-2 1-0.8 0.4-1.6 1.2-2.4 0.9-0.7 2.3-1.1 3.1-2 0.7-0.8 0.6-1.6 1.2-2.4 0.5-0.7 1.8-1.3 2.5-2-0.7 0.2-1.3 0.4-1.9 0.6-0.6 0.7-1 1.3-1.2 2-0.5 1.1-1.3 0.9-2.3 1.6z"/>
			<path id="&lt;Path&gt;" class="s32" d="m168.9 119.1q0.4 0.1 0.8 0.1c0.7-0.1 1-0.2 1.3-0.5-0.4 0.1-0.7 0.1-1.2 0.2q-0.5 0.1-0.9 0.2z"/>
		</g>
		<path id="&lt;Path&gt;" class="s33" d="m142.6 110.7c-6.7 0.8-12 6.6-12.7 13.2-0.3 2.9-0.3 5.2 1.1 7.6 1.1 1.9 2.6 3.8 4.9 4-1.3-1.6-0.3-2.9 1.1-3.8 1.6-1 2.5-1.8 2.8-3.9 0.8-0.1 1.7-0.4 2.2-1.1-1.5-0.4-1.3-1.4-2-2.5-0.7-1.2-2-1.4-0.6-2.9-0.2-0.1-0.3-0.4-0.5-0.5 0.4-0.8 1.3-1.3 2.1-1.8-2.9-1.2-0.2-3.9 1.2-5 1.2-0.8 1.6-1.5-0.2-1.9-2-0.4-4.8 1.6-6.6 2.6z"/>
		<path id="&lt;Path&gt;" class="s34" d="m137.2 114.2c-2.5 1.2-4.3 4-5.4 6.2-0.5 1.1-0.2 2.7 0.2 3.8 0.4 1.3 1.1 0.7 0.7 2.5-0.3 1-0.9 1.3-0.7 2.4 0.2 1.6 3.5 3.4 1 4.7 0.8-1 3-2.5 3.3-3.6 0.3-0.8-0.8-1.4 0-2.4 0.8-0.9 2.5-0.4 2.9-1.4 0.4-0.9-0.5-2.5 0.2-3.7-0.8-0.1-0.8-0.2-1-0.8-0.8 0.7-3.8 5.9-5.2 4.3-0.6-0.8-0.4-3.8-0.2-4.6 0.4-1.1 1.1-1.5 1.9-2.2 1.4-1.1 2.5-2 2.4-4.1-0.3 0.1-0.7-0.1-1.1 0.1-0.2-0.7 0-1.3 0.6-1.6z"/>
		<path id="&lt;Path&gt;" class="s34" d="m137.9 112.6c-0.4 0.2-0.6 0.6-0.9 0.9-0.5 0.4-1 0.7-1.4 1.1-0.6 0.6-1 1-1.3 1.7-0.5 1.2-0.8 2.4-1.3 3.6-0.3 0.9-0.5 2.9 0.5 3.6 1 0.7 1.9-0.9 2.3-1.7 0.8-1.4 1.4-3 2.3-4.4q0.9-1.2 1.8-2.4z"/>
		<path id="&lt;Path&gt;" class="s19" d="m146.1 130.1c-0.8 1.4-1.5 3.3-1 4.8 0.2-1.9 1.3-4.3 3-5.3 0.2 1.9-0.5 3.8-0.1 5.7 0-0.6 0.2-1.3 0.1-1.9 0.3 1.2 0.4 2.6 1.3 3.6 0-0.6 0.3-1.1 0.3-1.6 1.2 1.1 1.4 3.3 2.6 4.3 0-0.8 0.1-1.7 0.3-2.4 0.5 0.8 0.9 1.7 1.3 2.5 0.1-0.6 0.7-1 0.9-1.2-0.1 0.4 0.1 0.9 0 1.3 0.3-0.3 0.9-0.6 1.1-0.9-0.1 0.4 0.1 0.9 0.1 1.3 1.4-1.1 3-3.8 2.8-5.7 0 0.2 0 0.5 0 0.8 0.6-0.9 1.2-1.6 1.8-2.4-0.2 0.6-0.3 1.3-0.5 1.9 0.5-0.7 1.3-2.2 0.9-3.1-0.6-1.6-1.5 0-1.3 1.1-0.3-0.8-0.7-1.6-1.3-2.2 0 0.6-0.4 1.2-0.5 1.8-0.3-0.2-0.6-0.1-0.9-0.4-0.9 0.6-1.7 1.6-2.6 2.2 0-0.6-0.3-1.1-0.3-1.7 0.1 0-0.6 0.3-0.6 0.3-0.2-0.1-0.3-0.5-0.5-0.6-1.3 1.1-1.6-0.8-2.8 0.2-0.1-0.4-0.3-0.6-0.3-1.1-0.2 0.1-0.7 0.3-0.9 0.4-0.2-1-1-1.6-1.4-2.6-0.7 0.3-1.3 0.8-1.7 1.5-0.1-0.3-0.2-0.4-0.3-0.8-0.7-0.1-0.8 0.4-1.1 1.1z"/>
		<path id="&lt;Path&gt;" class="s35" d="m138.3 112.1c0.3 0.5 0.6 0.2 1 0.4 0.4 0.1 0.7 0.4 1.2 0.5 0.9 0.3 2-0.2 2.7 0.5-0.5-0.4-2.1 0.2-2-0.8-0.3 0-0.7-0.1-1 0-0.2-1.7-1.6-0.3-2.4-0.3q0 0.1 0 0.3z"/>
		<path id="&lt;Path&gt;" class="s35" d="m136.2 114.3c-0.1 0.1-0.2 0.3-0.3 0.4 1 0 1.8-0.3 2.8-0.2 0.3 0 1.1 0.1 1.3 0.3 0.4 0.2 0.6 0.7 1 0.7 0.6-1.2-2.4-0.9-2.6-1.7-1.2 0.5-2.6-0.4-3.4 1.1 0.7 0.1 1.4-0.1 1.8-0.6-0.4 0.1-0.9 0.5-1.2 0.8z"/>
		<path id="&lt;Path&gt;" class="s36" d="m133.7 116.6c-0.2 0.2-0.3 0.4-0.3 0.7 0.2 0 0.4 0.1 0.6 0.1 0.4 0.8 1.6-0.3 2.1-0.4 0.6 0 2.4 0.2 2.8 0.7-0.4-0.4-1.5 0.2-1.6-0.6-0.8-0.1-1.5-0.1-2.2-0.2-0.3 0-1.8-0.9-1.7 0.2z"/>
		<path id="&lt;Path&gt;" class="s36" d="m132.7 119.4c-0.1 0.4-0.1 0.7-0.1 1 0.2-0.4 1-0.7 1.4-0.7 0.7-0.1 1 0.3 1.5 0.4 0.7 0 1-0.4 1.6-0.6 0.4 0 1 0.2 1.5 0.1-0.8-0.1-1.7-0.3-2.4-0.4-0.3 0-0.5 0.1-0.8 0.1-0.3 0-0.6-0.1-1-0.1-1.1 0.1-2.1 0.9-3 1.5 0.5-0.3 1.2-0.6 1.9-0.7-0.2 0.3-0.5 0.7-0.8 0.8z"/>
		<path id="&lt;Path&gt;" class="s36" d="m131.5 123.9c0.3-1.6 1.2-1.8 2.6-2.3 1.1-0.4 2.7-0.8 3.9-0.8-0.5 0-1.8 0.3-2.2 0.6-0.3 0.2-0.3 0.8-0.6 1-0.3 0.2-0.6 0-1 0.1-0.5 0.2-1 0.5-1.5 0.6-0.7 0.3-2.2 0.1-1.9 1.3z"/>
		<path id="&lt;Path&gt;" class="s36" d="m130.9 127.2c0-1.4 2.4-0.2 2.2-2.2 0.5-0.1 1.5-0.3 1.6-0.9 1 0 1.3-0.4 2.1-0.9 0.6-0.3 1-0.2 1.7-0.5-1.1-0.1-2.4 1.5-2.9 2.1q-0.9 1.2-2 2.2c-0.1 0-0.5 0.2-0.7 0.3-0.4 0.3-0.4 0.7-1 0.8-0.8 0.2-1.4-0.4-2.1-0.1z"/>
		<path id="&lt;Path&gt;" class="s37" d="m146.1 111.5c0.8 0 1.2 1.3 1.9 1.8-0.3-2.1-2.2-2-3.6-2.6 1.1 0.6 2.5 1.4 3.1 2.5-0.1-0.1-0.3 0-0.5-0.1z"/>
		<path id="&lt;Path&gt;" class="s37" d="m142.7 111.7c1 0.2 1.6 1.1 2.5 1.4-0.4-0.4-1-1.6-1.5-1.9-0.4-0.2-1.7-0.2-1.6 0.5z"/>
		<path id="&lt;Path&gt;" class="s37" d="m147.8 111.2c-0.5-2.1 2.9 1.2 3.3 1.8-0.4-0.6-1.7-2.3-2.5-2.4q0.1 0.2 0.2 0.4z"/>
		<path id="&lt;Path&gt;" class="s37" d="m151.6 111c0.5 0.7 0.5 1.6 0.7 2.3 1-0.6 0.3-2.3-0.7-2.4 0.7 0.6 1.3 1.1 1.2 2.3 0-1-0.6-2.5-1.8-2.3z"/>
		<path id="&lt;Path&gt;" class="s37" d="m153.9 111c0.2 0.7 0.9 1.6 1 2.1 0.1-0.8-0.5-1.4-0.9-2.1-0.4-0.8-0.5-0.5-0.2-1.5-1.1 0.4 0.4 1.1 0.7 1.4 0.5 0.5 0.6 1.3 0.3 2.1q0.3-0.4 0.5-0.7z"/>
		<path id="&lt;Path&gt;" class="s37" d="m155.6 110.3c0 0.2 0.3 0.7 0.4 1.1 0.1 0.5 0 1.2 0 1.8 0.4-0.6 0.5-1.5 0-2.1 1.6-0.1 1.4 1.6 0.5 2.3 0.2-0.2 0.5-0.4 0.8-0.5z"/>
		<path id="&lt;Path&gt;" class="s37" d="m158.5 112.8c-0.1-0.3-0.1-0.5-0.1-0.8 0.2 0.6 0.1 1.4 0.1 2 0.4 0 0.8-0.2 1-0.5-1 0.5-0.9-0.5-0.9-1.2z"/>
		<path id="&lt;Path&gt;" class="s38" d="m160.1 114.4c0.2 0 0.5-0.3 0.7-0.7-0.2 0.2-0.3 0.4-0.4 0.6q0.2 0 0.2-0.1z"/>
		<path id="&lt;Path&gt;" class="s37" d="m160.9 113.4c-0.2 0.3-0.3 0.7-0.2 1 0.3-0.3 0.7-1 0.8-0.8z"/>
		<path id="&lt;Path&gt;" class="s39" d="m148.3 113.8c0 1.4 0.5 1.2 1.5 2.1 0.7 0.7 0.8 1.8 1.5 2.6-0.1-0.5-0.4-1-0.5-1.5-0.1-0.5 0.1-1.2-0.2-1.7-0.1-0.3-0.6-0.4-0.8-0.7-0.1-0.3-0.1-0.8-0.1-1.2 0.4 0 0.7 0.4 1 0.7 0.1-0.3 0.3-0.4 0.4-0.7 1.3 1 0.6 4.1 2.4 4.5-0.3-1.2-1.2-2.9-0.6-4 0.2 0.5 0.3 1.2 0.7 1.7 0.3 0.5 0.8 0.7 0.9 1.2 0-1-0.1-1.9-0.1-2.8 0.7 0 0.6 1.4 0.8 2.1 0.1-0.1 0.3-0.1 0.4-0.1 0.3 0.9-0.2 2 0.3 2.9 0.7-1.4 1.2-3.1 0.6-4.6 1 0.6 1.2 2 0.5 3 0.3-0.5 0.8-1.1 1.3-1.4 0 0.4-0.4 2.1 0 2.3 0.5 0.2 1.1-1.9 1.2-2.3 0 0.5 0 1.4 0 2 0.5-1 1-2.8 0.8-3.9-0.4 0.1-0.8 0.5-1.3 0.6-0.8 0.1-0.6 0-1.2-0.4-0.7-0.5 0-0.5-1-0.5-0.6 0.1-0.9 0.1-1.3 0.6 0-0.4 0.1-0.8 0.2-1.1-0.1 0.3-0.4 0.5-0.6 0.6 0-1-1.4-0.3-1.9-1.1-0.3 0.5-0.5 1-1 1.3-0.4-1-2-0.7-2.8-1-0.6-0.2-0.4-0.9-1.1 0.1-0.4 0.5-0.6 1.4-0.9 2z"/>
		<path id="&lt;Path&gt;" class="s40" d="m148.8 114c-1.3-0.8-1.6-0.8-3.1-0.6 0.5 0.7 1.4 1 2 1.7-0.2 0-0.5 0.1-0.7 0 0.9 0.3 1.9 0.5 2.1 1.6-0.1-0.3-0.2-0.7-0.3-0.9 0 1.2 0.3 1.8 1.4 2.5-0.6-0.1-0.6-0.8-0.6-1.3-0.1 0.7 0.4 1.6 1 1.8-0.5-0.6-1.3-1.5-1.1-2.4 1.1-0.1 0 2.7 1.3 2.1 0 0.6-0.3 1.2-0.2 1.8 0.8 0.1 0.6-0.7 0.4-1.2 0.4 0.2 0.7 0.5 1.1 0.8-0.3-0.8-1-1.3-1.4-1.9 1 0.2 0.9 0.9 1.3 1.7 0.4 0.9 0 0.4 1 0.7 1 0.3 1.7 1.3 2.9 1.2-1.3 0.2-2.1-1.5-3-2-0.6-0.4-0.6-0.3-0.9-0.8-0.2-0.4-0.2-0.9-0.5-1.2-0.4-0.2-0.9 0-1.2-0.2-0.5-0.3-0.3-0.8-0.6-1.2-0.2-0.4-0.5-0.4-0.8-0.8-0.3-0.5-0.2-1-0.8-1.4z"/>
		<path id="&lt;Path&gt;" class="s40" d="m162.2 114.5c-0.8 0.4-0.6 1.6-1 2.2-0.3 0.5-0.8 0.8-1.1 1.2 0-0.6 0.4-1.1 0.4-1.6 0.1-0.4-0.2-0.8-0.1-1.2 0.3-0.5 1.4-0.8 1.9-0.8-0.4 0.9-1.7 1.8-1.9 2.7z"/>
		<path id="&lt;Path&gt;" class="s41" d="m146 121c0 0.4-0.3 0.7-0.7 0.7-0.3 0-0.7-0.3-0.7-0.7 0-0.4 0.4-0.7 0.7-0.7 0.4 0 0.7 0.3 0.7 0.7z"/>
		<path id="&lt;Path&gt;" class="s41" d="m161.7 120.4c0 0.4-0.3 0.7-0.7 0.7-0.3 0-0.7-0.3-0.7-0.7 0-0.4 0.4-0.7 0.7-0.7 0.4 0 0.7 0.3 0.7 0.7z"/>
		<path id="&lt;Path&gt;" class="s41" d="m147.7 120.4c0 0.3-0.2 0.5-0.4 0.5-0.3 0-0.5-0.2-0.5-0.5 0-0.2 0.2-0.4 0.5-0.4 0.2 0 0.4 0.2 0.4 0.4z"/>
		<path id="&lt;Path&gt;" class="s42" d="m157.1 124.7c-0.2-0.6-1.1-2.1-1.7-2-0.2 0.8 0.1 1.7 0.4 2.5 0.3 0.7 0.2 1.5 0.2 2.4 0.2 0.2 0.5 1 1 1 0.5-1.7 0.5-2.6 0.1-3.9z"/>
		<path id="&lt;Path&gt;" class="s43" d="m127.5 126.8c0-0.4-0.2-0.8-0.5-1.1-0.1 2.1-0.8 4.3-0.7 6.3 0.1 0 0.4-0.1 0.5-0.2 0 0.4 0.1 0.9 0 1.3q0.2-0.1 0.4-0.1c-0.1 1 0.4 1.8 0.8 2.3-0.5 0.5-0.7 2.6-0.3 3.4 0.5 0.9 1.3 1.1 2.1 1.5 1.4 0.7 1.8 2.3 3.1 3.1 0.1-0.1 0.3-0.3 0.4-0.4 0.5 1.8 1.1 1.2 2.6 1.2 0.2 1.4 1.3 1.1 2.4 1.4 0.3 0.1 0.9 0.4 1.1 0.4 0.8 0.1 1.2-0.4 1.9-0.5q0.1 0.8-0.2 1.4c0.7-0.1 1.6-0.2 1.9-0.9-0.2 0.5-0.3 1-0.4 1.5 0.7-0.5 2.4-1.2 2.5-2 0.5 0.2 1 1 1.5 0.9 0.7-0.1 0.9-1.3 1.8-1.4 0.1 0.6 0.8 0.8 1.4 0.7 1.2 0 1.4-0.6 1.8-1.7 0.4 1.2 1.8 0.3 2.2-0.5 1.4 1.1 1.1-0.9 1.3-1.2 0.8-1 2.7-0.7 3.5-1.6-0.6 0.1-0.8 0.6-0.7 1.2-0.9-0.1-1.6 0.8-2.5 1.1 0 0.2-0.1 0.4-0.1 0.5 0.2 0 0.5 0 0.6 0-0.1 0.1-0.2 0.3-0.2 0.5 1-1.2 2.7-1.7 3.5-3.1-0.1 0.5 0.1 1.1 0.6 1.3 0.7 0.2 2.3-2.5 2.8-3.1 0.6-0.6 0.8 0 1.1-1.3 0.2-0.9 0-1.9 0-2.8-0.2 1.7-1 1-2.1 1.8-1 0.7-1.3 2.2-2 3.1-0.3-0.1-0.6 0-0.9-0.1-0.2 1.5-1.9 1.9-3.1 1.2-0.1 0.1-0.1 0.2-0.2 0.3-1.5-0.6-1.2-0.2-2.1 0.6-0.4 0.5-1.1 0.7-1.1 1.4-1.6-0.7-3.4 0.5-5.1 0.6-0.1 0-0.6-0.1-0.7-0.1-0.2 0.1-0.4 0.4-0.6 0.5-0.8 0.2-1 0.6-1.7-0.1-0.7 0.6-0.6-0.2-1.2-0.6-0.5-0.3-0.9-0.2-1.3-0.6-0.7 1.8-1.5-0.8-2-1.1-1.4-0.8-0.8 0.8-1.7 1.4-0.5-1.8-3.5-0.2-3.3-2.2-0.3 0.5-2-0.7-2.6-1 0.9-0.2-1.3-0.9-1.4-1.1-0.4-0.7 0.4-1.4 0.9-1.9-2.6-0.3-1.8-1.7-2.4-3.6-0.6-1.6-2.1-1.8-1.5-3.7-1.6-0.5 0.7-2.1 0.9-2.8 0.2-0.7 0-2.6 0-3.4 0-0.1-0.3 0-0.4 0 0-0.2 0-0.5 0-0.6-0.1 1.2-0.3 2.7-1 3.5-0.2 0.2-0.7-0.1-1 0.2-0.2 0.4 0.2 1.4 0.3 1.6z"/>
		<path id="&lt;Path&gt;" class="s44" d="m151.3 124.3q1-0.8 1.6-2c-0.9-1.7-2.6-1.9-3.7-3.5-1.1-1.7-1-3.7-3.4-4.1 0.3 0.6 0.9 1 1.3 1.6 0.4 0.8 0.1 1.7 0.4 2.4 0.5 1 2.7 1.5 3.4 2.8 1.8 3.3-3.8 5.4-6.3 5.4 1 0.5 1.9 0.3 2.9-0.1 0.8-0.4 1.8-0.6 2.6-1 0.9-0.4 2.1-3 2.9-2.6z"/>
		<path id="&lt;Path&gt;" class="s44" d="m162.7 115.2c-1.6-0.2-2.2 3.2-3 4.2-0.9 1.1-2.2 1.4-2.4 2.8-0.6 3.3 3.1 3.3 5 4.4-0.8-1.4-2.6-1.1-3.5-2.4-1-1.5-0.8-2.2 0.5-3.3 1.1-1 1.6-1.9 2.1-3.3 0.4-1.3 0.7-2.8 2.4-2.6z"/>
		<path id="&lt;Path&gt;" class="s45" d="m141.8 142.2c0.6-0.8 1.1-2.1 2.1-2.4-0.3-0.3-0.8-0.6-1-1 0.5-0.5 1.4-0.7 1.8-1.3-0.7 0-1.5-1.5-1.4-2.2 0.1-0.8 1.9-1.7 0.1-2.4-0.2 0.9-1.3 1.7-1.7 2.6-0.7-0.1-1.2 1-2.4 0.5-0.1-0.7-1.2-0.8-1.8-0.5 0.6-0.9 2.9-1.6 3.3-2.5 0.3-0.7-0.7-1.2-0.1-2-1.1 0.2-1-1.4-0.5-2-0.6 1.3-0.1 2.7-1.2 3.9-0.6 0.7-1.6 1-2.2 0.2q-0.1 0.1-0.1 0.3c-0.6-0.6-1.4-0.5-2-0.8 2-1 1.6-1.3 1.6-3.1 0.1-1 1.1-2.3-0.1-3-0.1 0.8-0.6 1.3-0.9 2-0.1 0.3 0 1.4-0.1 1.6-0.4 0.9-2.2 0.7-3.2 1.3 0.2 0.7-0.7 0.7-0.8 1.3-0.2 0.5 0.3 0.9 0.2 1.5-0.2 0.9-2.8 2.8-1.3 3.9 0.4-0.8 2.6-6.3 4.5-4.8 0.4 0.6 1.1 1.3 1.8 1-0.5 0.5-1 1-1.3 1.6 0.1 0 0.2 0 0.3 0.1-1.1 1-1.8 0.6-2 2.2-0.2 1 0 1.9-0.4 2.8-0.2-1 0.5-1.7 1.3-2.1 0.4-0.2 1.2-0.3 1.5-0.5 0.2-0.3 0-0.5 0.2-0.8 0.4-0.6-0.2-0.8 0.8-1.2 0.4-0.1 1.1 0.1 1.6 0.2-0.1 0.3 0.2 0.6 0.2 1 0.9 0 2.2 0.2 2.8-0.8 1 0.7-0.2 1.4-1 1.5 1 1-0.8 1.4-1.5 1.8-1.1 0.6-1.2 1.6-1.4 2.6 0-0.9 1.8-1.2 2.5-1.8-0.3 0.1-0.7-0.1-0.9 0-0.3-1.1 2.7-3.2 3.5-3.3-0.6 1.1-1.4 2.1-2.2 3 0.4-0.1 0.9-0.3 1.3-0.5-0.1 0.4-0.2 0.8-0.5 1.2 0.9-0.3 2.9-1.1 3.5-1.9 0.6-0.8 0-1.9 1.1-1.7 0.6 0.1 0.8 1.1 1.6 0.8 0.6-0.2 1.2-1.5 1.3-2.1-0.5 0.1-0.9 0.4-1.3 0.5-0.3-0.4-0.3-1.1-0.3-1.7-1 0.4-1.1 2.5-1.6 3.4-0.5 1-1.2 1.7-1.5 2.7 1.3-0.2 0.8-1.7 0.9-2.6 0.7-0.2 1.5-0.5 2.2-0.6-0.5 0.7-0.9 1.5-1 2.4 0.7-0.5 3-2.2 2.9-3.4-0.9 1-1.3 2-0.9 3.2-0.1 0.1-0.3 0.2-0.4 0.2 0.7-0.5 2.3-2.9 0.2-2.4z"/>
		<path id="&lt;Path&gt;" class="s46" d="m157.9 130.6c-1.4-0.1-2.4 1.1-3.5 1.3-0.7 0.1-1.2-0.1-1.9-0.2-0.7-0.2-1.2-0.3-1.8-0.3-0.7-0.1-1.7 0.2-2.5 0.1 0-0.3-0.2-0.6-0.2-0.9-0.7 0.2-1-0.2-0.9-0.9-1.4 0.3-1.3-0.5-2.4-1-1.6-0.6-2.8 0.6-2.3-1.9-0.1 0.1-0.5 0.1-0.7 0.3-1.1-1.6-1.9-1.2-3.3 0.2 0.1-0.3 0.2-0.7 0.3-1-1.7 1.3 1.6 2.6-0.8 3.7 0.7 0.9 0.2 1.9-0.8 2.3 1.3 1.3-1 1.4-1.5 1.9-0.7 0.7-0.5 1.8-2.1 2.1 0.7 1.4-1 0.8-1.7 0.4-0.9-0.6-1-1.7-1.8-2.3-0.3 0.3-0.6 0.7-0.7 1.1 0.6 0.2 1.9-0.2 2.2 0.3 0.6 0.8-0.9 2.6-1.2 3.2 1.8 0 1.4 2.7 3 3.3 1.2 0.5 2.6 0.5 3.5 1.4 0.5 0.4 0.7 1.2 1.3 1.3 0.6 0.1 1.3-0.5 1.9-0.5 1.1-0.1 2.7 0.1 4 0.1 0.4 0 1-0.2 1.4-0.2 0.9 0 1 0.4 1.7 0.6 1.1 0.1 1.5-0.8 2.4-1 0.6-0.1 1 0.3 1.6 0.2 0.6-0.1 0.9-0.6 1.4-0.8 0.5-0.2 1 0 1.5-0.2 0.6-0.2 1.3-0.7 1.8-1 0.9-0.5 1.7-1.1 2.6-1.7 1.1 0.9 1.1-0.7 1.5-1.2 0.4-0.6 1.5-0.8 2-1.4 0.8-1.3 0.3-3 0.6-4.1 0.4-1.5 1.6-2.7 2-4.1 0.4-1.2 0.7-2.1 0.1-3.3-0.5-1.3-0.7-0.9 0.5-2.2-0.8-0.3-2 1.3-2.2 2-0.1 0.7 0.6 1.5 0.1 2.3-0.2 0.3-0.6-0.2-0.7 0-0.2 0.1-0.3 0.6-0.5 0.6-0.6 0.3-1.7 0.3-2.1 0.6-0.4 0.3-0.4 1.2-1 1.3-0.6 0-0.6-0.9-1.5-0.8-0.9 0.2-1.7 1.3-2.5 1.7z"/>
		<path id="&lt;Path&gt;" class="s8" d="m210.1 83.8c-0.5-0.5-1.1-0.9-1.7-1 0.3 2 2.4 2.2 3.2 3.7-0.5-0.8-1.5-2-1.7-2.6z"/>
		<path id="&lt;Path&gt;" class="s8" d="m212 83.9c-0.3 0.7 1.3 1.8 1.9 2.1 0.7-1.1-1.6-2.1-1.8-2.9-0.1 0.2 0 0.2 0.1 0.3z"/>
		<path id="&lt;Path&gt;" class="s8" d="m214.7 82.8c0.4 0.2 0.8 0.6 1.1 1-0.1-0.6-1-3.4-1.7-1.6z"/>
		<path id="&lt;Path&gt;" class="s8" d="m216.4 80.2c1.6 0.5 1 1.7 2.9 1.4 0 0.2 0.2 0.4 0.2 0.6 0.8-1.5 0.5-1.1-0.1-2.4-0.6 0.5-1.2 1.1-1.8 1.5 0.2-0.3 0.2-0.6 0.4-0.9-0.6 0.4-1.3 0.5-1.7 1.3 0.5-0.1 1-0.3 1.5-0.5z"/>
		<path id="&lt;Path&gt;" class="s8" d="m222.6 79.2c0 0.8 0.3 1.5 0.3 2.3-0.5 0.1-1.1-0.3-0.7-0.8 0.3-0.3 1.2 0.1 1.6-0.1 0.7-0.3 1.1-1.1 1.2-1.9-0.6 0-1.8 0.6-2.1 1.1-0.7 0.1-1.1-0.6-1.5-0.6-0.9 0.1-1 1-1.6 1.7 1.3-0.4 2.4-1.8 3.8-1.2z"/>
		<path id="&lt;Path&gt;" class="s8" d="m199.2 86.2c0-0.2 0-0.3 0-0.5 0.9 0.4 1.4 1.4 2.3 1.8 0.1-0.9-1-1.2-0.7-2.1-0.5 0-0.8 0.4-0.7 0.9z"/>
		<path id="&lt;Path&gt;" class="s8" d="m202.9 86c0.5 0 1.1 2.4 1.8 1.5 0.6-0.8-1.2-2.2-1.8-1.5z"/>
		<path id="&lt;Path&gt;" class="s8" d="m186.3 96.2c0-0.4 0-0.7-0.1-1-0.1 0.6 0.9 2.9 1.8 2.9 0.2-0.1 1-0.9 0.9-1.2-0.1-0.6-0.9-0.6-1.2-1.1z"/>
		<path id="&lt;Path&gt;" class="s8" d="m187.8 94.7c-0.1-0.3-0.2-0.6-0.2-1 0.1 0.4 0.4 1.5 0.8 1.6 0.7 0.1 0.8-1.8 0.5-1.3z"/>
		<path id="&lt;Path&gt;" class="s8" d="m191.3 91.2c-0.9-0.6-1.7 1-1.7 1.8 0.6-0.2 1.7-0.8 2.1-1.4 0.3-0.5 0.1-1.1 0.5-1.6-1.2 0-1.9 1.7-2.5 2.4z"/>
		<path id="&lt;Path&gt;" class="s8" d="m184.1 94.6c0.8 0 1.5 0 2.1-0.1 0-0.6 0.3-1.1 0.8-1.3-1.1 0.8-2.1 1.7-3 2.7z"/>
		<path id="&lt;Path&gt;" class="s8" d="m196.7 89.5c-0.7 0.3-1.4 0.6-1.9 1.4 0.2-0.4 0.5-0.8 0.8-1.1 0.7 0.8 0 2.1 0.2 3.1 0.5-0.3 0.7-0.9 0.8-1.4-0.7-0.3-2.2-0.4-2.4 0.5 0-0.1 0.3 0 0.3 0 0-0.6-0.8-0.6-0.7-1.1 0-0.5 1.4-0.9 1.9-1.1-0.1-0.1-0.2-0.2-0.3-0.3 0.7-0.3 1.4-0.6 2-0.9 0 0.5 0 1 0.3 1.3-0.2 0.9-0.9 1.9-1.4 2.6z"/>
		<path id="&lt;Path&gt;" class="s7" d="m129.6 116.5c-0.8 0.7-1.6 1.7-1.8 2.7 0.4-0.2 0.7-0.5 1-0.8-0.4 0.4-1 1-1.3 1.5q0.1 0 0.2-0.1c-0.2 0.8-0.9 1.5-1.1 2.3 0.1-0.3 0.4-0.5 0.7-0.7-0.1 0.6-0.6 1.3-0.8 1.9q0-0.1 0.1-0.1c0 0.9-0.3 1.7-0.2 2.5 0.1-0.1 0.3-0.2 0.4-0.4 0 0.8-0.4 1.5-0.3 2.3 0.3-0.1 0.5-0.4 0.7-0.5 0.1 0.3 0 0.6 0.1 1 0.4-0.9 1.1-2.2 1.2-3.2q-0.1 0.3-0.2 0.7c0-0.4 0.3-0.6 0.3-0.9 0-0.5-0.4-0.9-0.1-1.4 0 0 0.1 0.1 0.2 0.2 0.6-1.6 0.7-2.4 0.7-4.1q0 0.1 0 0.3c0-0.6 0.1-1.2 0-1.9-0.5 0-0.4-0.9-0.4-1.3z"/>
		<path id="&lt;Path&gt;" class="s47" d="m148.2 115.7c-0.4-0.5-1.1-0.7-1.7-1 0.1 0.2 0.2 0.4 0.4 0.4-0.7-0.4-1.2-0.8-1.9-1-0.1 0 0 0 0 0-0.4 0-0.8 0.1-1.1 0.1 0.2 0 0.4-0.1 0.5-0.2-0.7 0-1.4 0.6-2.1 0.7q0.1 0 0.2 0c-0.3 0.6-1.2 1.2-1.8 1.6 0.2-0.2 0.4-0.4 0.6-0.5-0.5 0.5-1 1-1.4 1.6q0.1-0.1 0.2-0.2c-0.3 0.5-0.8 0.9-1.1 1.4q0.1-0.1 0.3-0.2c0 0.6-0.5 1.1-0.4 1.7 0.2-0.1 0.2-0.4 0.4-0.5-0.1 0.6-0.5 1.1-0.3 1.7 0.1 0 0.2-0.2 0.3-0.2 0.1 0.7-0.1 1.5 0.1 2.2 0.1 0.7 0.3 0.3 0.6 0 0.2 0.4 0 1.1 0.4 1.4 0.1-0.1 0.2-0.3 0.3-0.3 0.1 0.2 0.2 1.1 0.6 0.8 0 0.2 0 0.7 0.2 0.8 0.1 0.1 0.2-0.2 0.4-0.1 0.2 0.1 0.2 0.7 0.4 0.9 0.2 0.1 0.3 0 0.4 0.1 0.3 0 0.3 0 0.4 0.2 0.2 0.1 0.3 0.3 0.5 0.2 0.2-0.1 0.3-0.8 0.7-0.6 0.1 0.2-0.1 0.6 0.1 0.7 0.3-0.2 0.3-0.7 0.5-1 0 1.1-1.1-0.6-1.2-0.7-0.4-0.4-0.8-0.5-1.3-0.9-0.4-0.2-0.2-0.7-0.4-1-0.1-0.1-0.2-0.2-0.3-0.2-0.1-0.2-0.1-0.5-0.1-0.7 0-0.2 0.1-0.5 0-0.7-0.2-0.4-0.6-0.5-0.7-1 0-0.5 0.3-0.7 0.4-1.1-0.5 0-0.5-0.7-0.3-1.1 0.2-0.4 0.5-0.7 0.7-1.1 0.1-0.1 0.1-0.3 0.2-0.5 0.2-0.4 1-0.6 1.2-1.1 0.2-0.2 0-0.5 0.5-0.6 0.3-0.1 0.7 0 1 0 0.3 0 0.3 0 0.4-0.2 0-0.2-0.1-0.4 0.1-0.5 0.1-0.1 0.5-0.1 0.6-0.1 0.3 0 0.4 1 0.6 0.9 0.3 0 0.1-0.1 0.3-0.2 0.4-0.2 0.7 0.2 1.1 0.1 0.1-0.9 0.8 1.4 1 0.9z"/>
		<path id="&lt;Path&gt;" class="s48" d="m165.8 122c0 0.7 1.2 0.8 1.1 1.5 0 0.4-0.5 0.6-0.5 1 0 0.3 0.3 0.4 0.3 0.8-0.2 0.8-0.4 1-0.2 1.8 0.1 0.4 0.2 0.6 0.3 0.9 0 0.2 0.1 0.6 0.1 0.8-0.1 0.7-0.7 0.8-0.5 1.6 0 0.3 0.3 0.6 0.3 0.9 0.1 0.5-0.4 0.9-0.5 1.5 0 0.7 0.2 0.9-0.3 1.6-0.2 0.4-0.2 0.6-0.3 0.9-0.2 0.5-0.4 0.6-0.7 0.9-0.3 0.4-0.3 1-0.6 1.3-0.3 0.3-0.9 0.5-1.3 0.6 0.3-0.8 0.7-1.3 0.6-2.2 0-0.1-0.2-0.2-0.2-0.4 0.1-0.3 0.6-0.4 0.7-0.8-0.3-0.1-0.9-0.1-1-0.5-0.2-0.5 0.7-0.9 1-1.1 0.5-0.4 1-1.2 0.8-1.8-0.2-0.5-0.5-0.3-0.4-0.9 0.1-0.3 0.3-0.5 0.3-0.9 0.1-0.4 0.1-0.6 0.3-1 0.3-0.4 0.8-0.7 0.8-1.2-0.9-0.4-0.2-1.2 0-1.8 0-0.4 0-0.3 0-0.7-0.1-0.5-0.3-0.4-0.5-0.8-0.2-0.5 0.1-0.6 0.2-1.1 0.1-0.3 0-0.8 0.1-1.1z"/>
		<path id="&lt;Path&gt;" class="s49" d="m163.2 120.8c0.1 0.6-0.3 1.5-0.7 2q-0.3 0.4-0.7 0.7c-0.2 0.2-0.7 0.3-1.1 0.4 0.3 0 0.9-0.1 1.3-0.3 0.3-0.2 0.4-0.3 0.6-0.6 0.5-0.6 0.7-1.3 0.6-2.2z"/>
		<path id="&lt;Path&gt;" class="s23" d="m147.2 119.1c0.1 0-1.7-0.2-2.7 0.7-0.9 0.9-1.1 1.8-1.1 2.1 0 0-0.1-1.3 1.1-2.3 1.3-1 2.7-0.5 2.7-0.5z"/>
		<path id="&lt;Path&gt;" class="s23" d="m151 121.6c0 0 0.3 1.1-0.3 1.9-0.7 0.7-1.9 1.4-4 1.1 0 0 2.2 0.8 3.5-0.1 1.2-1 1-2.6 0.8-2.9z"/>
		<path id="&lt;Path&gt;" class="s24" d="m154.5 121.9c-0.1 0.1-0.1 0.5-0.2 0.4z"/>
		<path id="&lt;Path&gt;" class="s50" d="m155.8 121c0-0.3-0.1-0.7 0.1-1 1.1 0.4 0.5-0.5 1-0.9 0.2-0.2 0.5 0 0.8-0.2q0.4-0.3 0.3-0.8c0 0.4-0.3 0.7-0.3 1.1 0.9-0.1 1.7-0.8 2.5-1.3 0.4 0.9-1.5 1.6-2 2.1-0.3 0.5-0.9 1.3-1.4 1.3 0.2-0.4 0.8-0.8 0.9-1.3-0.5 0.2-1.1 1-1.6 0.9-0.1-0.1 0-0.1 0-0.1z"/>
		<path id="&lt;Path&gt;" class="s51" d="m162.4 116.3q0-0.1 0.1-0.1c0.1 0.5-0.4 1.1-0.7 1.6 0.5 0 0.9-0.4 1.3-0.6-0.1 0.2-0.2 0.4-0.3 0.5 0.3 0 0.6 0 0.9 0-0.2 0.3-0.5 0.6-0.7 0.9 0.5 0 1.1-0.1 0.9 0.6 0.4 0 0.8 0 1.1 0.1-0.1 0.4-0.8 0.2-1 0.6-0.3 0.5 0.3 0.7 0.7 0.8-0.3 0.1-0.6 0.3-0.8 0.5 0.2 0.1 0.3 0.3 0.4 0.4q-0.3 0.1-0.6 0.3c0 0.3 0.2 0.5 0.3 0.7-0.5 0-0.5 0.5-0.4 0.9-0.4 0.1-0.8 0.3-0.7 0.7-0.5 0.1-1 0-1.5 0 0 0.3 0.2 0.4 0.5 0.5-0.4 0.1-0.7 0-1.1 0 0.3 0.3 1.5 1.3 1.9 1.2 0-0.3-0.1-0.6-0.3-0.8 0.1 0.2 0.2 0.2 0.3 0.3 0-0.2 0-0.4-0.1-0.5 0.6-0.1 1.1-0.3 1.6-0.2 0-0.3-0.3-0.6-0.5-0.8 0.2 0.1 0.4 0.1 0.7 0.1q-0.1-0.3-0.4-0.5c0.4-0.1 1.1 0 1.1-0.5-0.7 0-0.2-0.6-0.1-0.8 0-0.2-0.2-0.3-0.1-0.5 0.1-0.2 0.5-0.2 0.6-0.5-0.2 0-0.5 0-0.6-0.1 0.3-0.2 0.6-0.3 0.8-0.5-0.2-0.1-0.6-0.1-0.5-0.5-0.1 0-0.2-0.1-0.3-0.1 0.6-0.4 0.4-0.6 0.4-1.2-0.6-0.3-1.4-0.2-1.1-1.1 0 0-0.2 0-0.3 0 0.1-0.2 0.1-0.4 0.2-0.7-0.3-0.1-0.6 0-1 0 0-0.2 0.2-0.4 0.4-0.5-0.1 0-0.3 0-0.4 0-0.1-0.9-0.2-0.7-0.9-0.3z"/>
		<path id="&lt;Path&gt;" class="s51" d="m146.2 118c-0.1-0.6-1.1-1-1.6-1.4-0.5-0.3-1-0.9-1.5-1.2 0.2 1 1.5 1.5 1.8 2.5-0.3-0.5-0.9-1.2-1.4-1.4 0.2 0.3 0.6 0.6 0.8 0.8-0.6 0.1-1.1-0.4-1.7-0.4 0.1 0.1 0.2 0.3 0.2 0.4-0.7 0.2-1.6 0.1-2.2 0.5 0.6 0.1 1.6 0.2 2 0.7-0.7 0.3-1.7 0.2-2.5 0.2 0.2 0.5 1.3 0.6 1.7 0.7-0.4 0.3-1 0.4-1.5 0.6 0.4 0 2.5-0.3 2.7 0.2 0.2 0.5-1.1 0.7-1.3 0.8q0.5 0.1 0.9 0.1c-0.5 0.4-2.1 0.9-2.3 1.8 0.6-0.3 1.2-0.8 1.9-0.7-0.3 0.7-1.2 1.1-1.4 1.8 0.5-0.2 1-0.7 1.6-0.8-0.2 0.6-0.7 1.1-1 1.6 0.4-0.1 0.8-0.5 1.2-0.5-0.2 0.6-0.7 0.9-0.8 1.5 0.4-0.3 0.8-0.8 1.3-0.8 0.1 0.6-0.5 1.1-0.4 1.7 0.7 0 1.3-0.8 2.1-0.7-0.1 0.4-0.4 0.6-0.7 0.9 0.3-0.1 1.4-0.8 1.5-1 0.1-0.7-1-0.4-1.4-0.4 0.1-0.4-0.5-0.4-0.8-0.4 0.2-0.4 0.6-0.7 0.7-1-0.3-0.1-0.6 0.3-1 0.3-0.1 0-0.1-0.3-0.4-0.3 0-0.2-0.1-0.3 0-0.5q-0.1 0-0.2 0c-0.1-0.5 0.3-0.8 0.3-1.1 0-0.2-0.4-0.5-0.5-0.7 0 0 0.2-0.1 0.2-0.1-0.1 0-0.2-0.1-0.3-0.1 0.3-0.2 0.9-0.4 1-0.8-1.4-0.1 0-0.8 0.3-1.3-0.4-0.3-0.9-0.6-1.3-0.7q0.4 0 0.7 0c0-0.3-0.2-0.4-0.3-0.7 0.2 0.2 0.5 0.2 0.7 0.2 0-0.2 0-0.4-0.1-0.6 0.5 0.1 1.1 0.3 1.6 0.3q0-0.1-0.1-0.2c0.1 0.2 0.3 0.4 0.5 0.5q0-0.4 0-0.8c0.2 0.2 0.4 0.4 0.6 0.5q0.1-0.4-0.1-0.7c0.1 0.2 0.3 0.4 0.6 0.4 0-0.2 0.1-0.3 0.1-0.4 0.1 0.1 0.3 0.2 0.4 0.4-0.1-0.6-0.3-1.4-1-1.4z"/>
		<path id="&lt;Path&gt;" class="s52" d="m151.3 120.7c0-0.1 0-0.2 0-0.4 0.2 0.5 0.3 1.2 0.7 1.7 0-0.3-0.1-0.5-0.2-0.8 0.4 0.7 0.3 1.8-0.2 2.5 0-0.2 0.1-0.3 0.2-0.5 0 0.5-0.3 0.8-0.5 1.1q0.1 0 0.2-0.1c-0.6 0.5-1.4 1.1-1.5 2q0.3-0.3 0.5-0.6c-0.4 0.3-0.7 0.7-0.8 1.1 0.8-0.5 1.2-1.4 2-2q-0.2 0.4-0.4 0.7c0.4-0.5 0.9-1 1.2-1.5q-0.2 0.2-0.3 0.4c0.2-0.2 0.4-0.8 0.7-0.9 0.2-0.3 0.3-0.5 0.5-0.8-0.1 0.1-0.2 0.3-0.2 0.4-0.1-1-0.5-1.6-1.4-2.3 0.1 0.3 0.2 0.3 0.4 0.5-0.3-0.4-0.7-0.7-0.8-1.3 0 0.2 0 0.3 0.1 0.5q-0.4-0.3-0.6-0.6z"/>
		<path id="&lt;Path&gt;" class="s53" d="m52.4 69.8c-1-1.6-3.2-3.3-4.5-4.4-2-1.5-2.3-2.3-3.4-4.4 0.2 0.8 0 1.7 0.3 2.5-0.1-0.9-1-2-1.9-2.2 0.3 1 3 2.3 1.6 2.5 0.9-0.2-0.5 0 0.4 0.1-0.3 0.6 1.2 0.6 0.6 0.8 1.1 0.1 0.2 0.4 1.4 1-0.4 0.8 0.9 0.3 0.8 1.3 0.8 0.2-0.6 0.6-0.1 1.3q0.1-0.1 0.1-0.2c0.4 0.6 1.6 1.7 2.2 1.7 0.4 0.8 2.7 1.1 2.6 1.9 0.6 0-1.1 0.5-0.5 0.6 1.1 2.1 3.3 2.2 5.3 3-1.1-0.8-2-1.7-2.8-2.7q0.8 0.3 1.5 0.4c0-0.5-0.3-1-0.7-1.4 2.6 1.6 6.5 7.4 5.8 2.7-1.7-0.1-4-2.5-5.5-3.3-1.1-0.6-1.6-1.4-2.6-2-0.1 0.1-0.2 0.2-0.3 0.4-0.9-0.9-1.8-1.8-3.1-1.2z"/>
		<path id="&lt;Path&gt;" class="s54" d="m83.1 80.3c-1.3-2-6.8-2.5-9-2.5-1.5 0-3.5-0.1-5-0.5-1.5-0.3-3.3-1.9-4.8-2-2.2 5.4 14 8.4 16.9 8.2-1.3-0.9-3.2-0.6-4.8-0.6-1.8-0.1-5.9-2.3-7.5-2.9-0.4-1.7 6.3 0.3 7.5 0.1 2.1-0.2 4.2-0.5 6.3-0.6z"/>
		<path id="&lt;Path&gt;" class="s8" d="m100.6 89.6c-0.2 0-0.2-0.2-0.5-0.1 0.6 1.3 0.6 2.4-0.5 3.3 1.2 0.9 2.5 0.7 2.1-1 0.1 0.2 0.2 0.5 0.3 0.6 0.6-1.1-1.3-1.1-1.3-2.2 0.2-0.1 0.3-0.2 0.4-0.2-1 0.8-1.9 0-1.4-1.1-0.3-0.1-0.5 0.1-0.8 0.3z"/>
		<path id="&lt;Path&gt;" class="s8" d="m97.5 89.8c-0.6 0.1-1 0.7-0.9 1.4 0.5 0.2 1 0 1.3-0.4-0.7-0.4-1.6-0.5-1.5-1.5z"/>
		<path id="&lt;Path&gt;" class="s8" d="m93.8 86.9c-0.1-0.9-0.8-1.7-1.8-1.9-0.2 1.2-1.5 1-1.7 2.5 1.1-0.1 3-0.3 2.5-1.9-0.1 0.1-0.3 0.2-0.5 0.3z"/>
		<path id="&lt;Path&gt;" class="s8" d="m105.6 93.2c0.5-0.9 2.7 3.1 3.5 3.4 0.2-0.2 0.5-0.7 0.6-1-0.7-0.2-1.3-0.6-2-0.8 0-1.1-1-1.4-1.9-1.7-0.2-0.1-0.3-0.4-0.7-0.6-0.7-0.2-0.8 0.7-1.4 0.1-0.2 0.2-0.5 0.6-0.6 0.9 1 0 2.8-0.4 3.3 0.6 0.6-0.1 0.8 0.2 1.3 0.4z"/>
		<path id="&lt;Path&gt;" class="s8" d="m105.4 95.6c-0.7 0.1-0.9 0.8-0.8 1.4 0.8 0.1 1.6-0.5 2.4-0.7-0.9 0.1-1.7 0.6-2.5 0.4-0.1-0.3-0.2-0.8-0.1-1.1z"/>
		<path id="&lt;Path&gt;" class="s8" d="m103.3 94.3c-0.5 0.3-0.7 0.9-0.6 1.6 0.1-0.4 0.3-0.8 0.4-1.3-0.3 0.4-1.6 1.6-2.4 2.1 0.2-1.2 1.5-2.1 0.8-3.3z"/>
		<path id="&lt;Path&gt;" class="s8" d="m97 92.2c0.6 0.4 1.2-0.1 1.3-0.9-1-0.5-1.7 0.9-2.1 1.7z"/>
		<path id="&lt;Path&gt;" class="s8" d="m111.8 99.6c0.3-0.1 0.4-0.1 0.7-0.1-0.1 0.5 0.1 1.1 0 1.6 0.6 0 0.9-0.5 0.9-1.1-0.3 0-0.7-0.1-1.1 0z"/>
		<path id="&lt;Path&gt;" class="s8" d="m117 104c0.2-0.2-0.2 0.4-0.3 0.6 0.6-0.2 1.1-0.8 1.7-0.7-0.1 0.1-0.3 0-0.4 0.1z"/>
		<path id="&lt;Path&gt;" class="s8" d="m117 104q0.6-0.7 1.4-1.2c0.2 0.2 0.6 0.5 0.7 0.9z"/>
		<path id="&lt;Path&gt;" class="s8" d="m121.2 105.3c0 0.5 0.1 1 0.3 1.4z"/>
		<path id="&lt;Path&gt;" class="s8" d="m122.3 107.5c-0.4 0.2-0.7 0.7-0.8 1.2z"/>
		<path id="&lt;Path&gt;" class="s8" d="m120.7 105.8c0.1-0.8 0.3-1.7 0-2.3 1 1.4 3.5 1 1.9 3.6 0.8 0.3 1.7-0.5 2.6-0.5-0.9 2.7-3.1-0.4-4.4-1.1-0.2 0.3-0.5 0.6-0.5 0.9-0.1-0.8 0.2-1.8-0.6-2.1-0.6-0.2-1.5 0.6-1.9 1 0.6-0.7 1.7-0.7 2.6-0.9q-1.3-0.2-2.4-0.7z"/>
		<path id="&lt;Path&gt;" class="s8" d="m114.9 100.4c0 0.8 0.5 1.5 0.8 2.1 0.3 0.1 0.4 0.1 0.6 0.2-0.6 0.7-1.1 1.4 0 1.8-1 0.1-2.8-1-3.3-0.5 1.2 0.1 2.7-1.1 3.5-2-0.1 0-0.4 0.2-0.4 0.2 0-0.9-0.9-0.8-1.3-1.4 0.4 0 0.9-0.3 1.4-0.3-0.7-0.1-1.3 0-1.9-0.1z"/>
		<path id="&lt;Path&gt;" class="s8" d="m130.4 109c0.2 0.1 0.4-0.2 0.3 0.2-0.6 0.6-1.1 1.9-1.8 2.3-0.7 0.5-1.9 0.4-2.8 0.7 1.1 0.3 1.7 1.1 1.6 2.3 1.7 0.5 1.7-1.2 0.8-2.1 0.6-0.4 1.4-0.1 1.9-0.5 0.9-0.8 0.6-1.7 0.3-2.7-0.9 0.3-1.9 0.6-2.7 1.1z"/>
		<path id="&lt;Path&gt;" class="s8" d="m123.8 108.7c-0.1 0.7-0.6 1.1-1.3 1.3 0.4 0.7 1 1.3 1.7 1.4-0.1-0.2-0.2-0.4-0.5-0.6 0.5 0 1.5-0.3 1.7-0.9 0.5-1.6-2.6-0.9-3.6-0.9z"/>
		<path id="&lt;Path&gt;" class="s55" d="m85.1 84.2q-0.1-0.1-0.2-0.2z"/>
		<path id="&lt;Path&gt;" class="s56" d="m85.1 84.2c0 0.5 2.1 2.5 3 3.1 1.3 0.7 2.7 0.8 3.9 1.5 2.3 1.2 4.4 3.1 6.3 4.9 1 0.9 1.8 2 2.7 2.8 1.1 0.8 2.4 1 3.3 1.7 1.1 0.8 1.8 2 3 2.8 1.6 0.9 2.7 1.5 4 2.7 1 0.8 1.4 0.8 2.8 1.2 2.2 0.7 1.3 1.3 1.9 3 0.4 1.1 1.3 1.4 2.3 1.9 1.2 0.6 1.6 1.1 2.6 2.1 0.8 0.7 2.2 1 2.8 1.8 0.8 1 0.3 1.9 1.5 2.7 1.6 1 4.4 1.4 2.8 4 0.3-1.7-1.7-2-2.6-2.9-0.9-0.9-1.6-2.1-2.5-3-1.6-1.8-3.9-3.5-6.1-4.9-1.1-0.7-1.7-1.3-2.4-2.4-1-1.4-1.7-1.2-3-2.2-2.4-1.6-4.3-3.4-6.8-4.7-2-1.1-3.7-3-5.2-4.7-1.6-1.7-3.5-3.1-5.3-4.5-3-2.6-8.5-3.1-9.7-7.4z"/>
		<path id="&lt;Path&gt;" class="s57" d="m157.9 111.8c-0.3-0.6-1-1.1-1.6-1.1 0 0.1 0.1 0.1 0.1 0.2-0.6-0.1-0.8-0.9-1.3-1.2 0 0.1 0 0.2 0 0.4-0.6 0.1-1.1-0.3-1.7-0.4 0 0.5-0.5 1.1-0.9 0.5-0.3 0.5-1.2 0.2-1.8 0.2-0.1 0.4-0.3 0.8-0.2 1.1-0.2-0.1-0.6-0.1-0.7-0.2-0.1 1-4-0.6-4.7-0.5-0.1 0.3 0 0.7 0 1.1-0.3-0.4-0.5-1-1-1.2 0 0.4 0 0.8 0 1.3-0.6 0-1.5-0.7-1.3 0.5-0.7-0.2-1 0.1-1.6 0.3-0.4 0.1-1 0.1-1.5 0.2 0.1 0.1 0.2 0.4 0.4 0.5-0.4 0.7-1.8 0.8-2.5 1.4q0.3-0.1 0.5-0.2c-0.6 0.7-1.3 0.8-2.1 1.2 0.1 0.1 0.2 0.2 0.2 0.3-0.4 0.4-0.9 0.9-1.3 1.4 0.3 0.2 0.8 0.2 1.2 0.1 0.1 0.7-0.7 1.1-1.2 1.4 2.2 0.3 0.4 1.4-0.7 2.2 0.5 0.1 0.9-0.1 1.4 0 0.1 0.7-0.7 1.4-1.1 2 0.4 0 0.8-0.2 1.3-0.1-0.1 0.5-0.7 0.9-0.7 1.5 0.8 0 1.4-0.6 2.2-0.5 0.1 0.6-0.6 0.9-0.7 1.5 0.2-0.1 0.5-0.2 0.7-0.3-0.7-0.5-1.1-1.8-1-2.7 0-0.5-0.1-1.1 0-1.5 0-0.2 0.5-0.3 0.5-0.6 0.1-0.3-0.4-0.8-0.4-1.1 0-0.8 0.9-1 1.4-1.7-2.4-0.7 1.5-2.1 1.7-2.7 0.7 0.6 1.1-0.9 1.4-1.3 0.6-1.1 0.5-0.7 1.5-0.6 0.3 0.1 0.6 0 0.9 0 0.7 0 1.2 0.4 1.6-0.4 0.6 0.5 2.3 0.7 2.7-0.1 0.4 0.3 1.6 0.9 1.3-0.1 0.7 0.8 1.8 0.9 2.4-0.1 0.4 0.8 1.5-0.1 2-0.3 1-0.5 0.7-0.3 1.4 0 0.9 0.5 0.4 0.2 1.4 0 0.5-0.2 1.6 0.1 2.2 0.4 0.7 0.4 1.2 1.8 2 1.6 0-0.2 0.1-0.5 0.1-0.7q0 0.2 0 0.4c-0.3-0.5-0.4-1.1-0.7-1.6 0 0 0 0.3 0 0.4-0.5 0.1-0.7-0.2-0.6-0.6-0.4 0.9-0.8 0.1-1.4 0.1 0-0.1 0-0.3 0-0.5-0.1 0.2-0.4 0.3-0.6 0.4z"/>
	</g>
</svg>