<svg version="1.2" xmlns="http://www.w3.org/2000/svg" viewBox="0 0 417 347" width="500" height="500">
	<title>elephant</title>
	<style>
		.s0 { fill: #aa8877 } 
		.s1 { fill: #7c665d } 
		.s2 { fill: #705d55 } 
		.s3 { fill: #564741 } 
		.s4 { fill: #f9d9b9 } 
		.s5 { fill: #c19870 } 
	</style>
	<g id="&lt;Group&gt;">
		<path id="&lt;Path&gt;" class="s0" d="m140.2 166l-1.8 20.8-2.8 25.8-2.1 21-5.2 10.8 0.4 6.5 10.2 1.3 17.7-0.5 1.5-7.8-9.5-62.1 4.6-23.9z"/>
		<path id="&lt;Path&gt;" class="s1" d="m291.3 203.2l-5.6 7.2-4.1 16.2-0.2 9.3 3.9 13.7-0.5 3.4-24 0.9-9.3-1.5-2-5 2.2-5 2.6-8.6 2.4-22.1 1.9-28.6 16.9-0.2z"/>
		<path id="&lt;Path&gt;" class="s1" d="m104.7 73.6l1.6-4.2 4.2-4.1 5-3.9 29.8-7.3 7.4-1.6 12.4 5.5 14.3 9.1 24.3 9.1 12.4 0.4 35.4-4.3 25.3-0.6 24.4 12.6 18.8 16 15.6 19.8 2.6 31.2 1.3 35.7v7.8l-2.3 0.3-1.6-16.9-3.2-39.9-1 2.9-6.2 21.4-1 13 2.3 23.4-3.6 9.8-2.9 5.2 1 13.9 2.9 18.9 3.9 7.4-1 4.6-9.4 2.6-21.7 0.6-4.6-0.6-1.3-4.6 5.5-5.5 3-7.1-1.3-16.9-7.8-21.5-10.8-12-7.4-6.8-8.5 1.6-32.1 3.3-25-5.6-29.6-11.6-2.6 10-0.3 9.1-2.3 18.9 1.6 26.9 3.3 9.4 0.6 11-25.1 2.6-10.6-1.3-1.1-8.3 2.3-6.1 1.9-1 2.4-4 1.6-7.5-2.9-36-6.8-39.3-3.9-19.2-4.2-14.3-3.9 1.6-8.5 7.2-4.5 0.9-8.1-1.3-3.3 10.4-1.3 12.1-0.3 13 5.2 7.1 4.9-0.6 1.9-8.8-2.6-1.3-2.6 4.5 0.7 2.3-1.7 0.7-4.5-7.2-0.3-6.2h5.2l7.1-0.6 5.9 7.8 0.9 10.7-5.2 9.7-14.6 3.3-11-13.6-3.6-16.9 2.6-23.4 4.5-22.1 4.9-14.6 1.6-14 2.6-8.1z"/>
		<path id="&lt;Path&gt;" class="s1" d="m340.3 193.9l-4.4 0.5-1.3 10.8 2.2 9.5-1.1 5.6-1.9 2.4 5.4-3.7 3-6.9 0.7-11.9z"/>
		<path id="&lt;Path&gt;" class="s2" d="m129.7 125.6l-3.9 1.6-8.5 7.2-4.5 0.9-5.3-0.8-0.6-6.9 2.3-1.3 2.6 0.9 1.6 4.2 2.6-0.9 8.8-5.9 5.8-5.5 7.8-2.6 2.3 4.2-6.2 3.3 2.6 7.8 3 15.9 2.2 18.5-2.5 4.4-2-11.5-3.9-19.2z"/>
		<path id="&lt;Path&gt;" class="s2" d="m178.4 72.3l4.2 6.2 2.9 10.1-1.3 6.5-8.7 14.9-3 10.1 3 7.5 22.7 12.9 29.2 10.8 19.5 0.6 38.7-19.5h7.5 11l5.2-13.6-4.9-20.5-7.9-16.4 4.7 2.4 18.8 16 15.6 19.8 2.6 31.2 1.3 35.7v7.8l-2.3 0.3-1.6-16.9-3.2-39.9-1 2.9-6.2 21.4-1 13 2.3 23.4-3.6 9.8-2.9 5.2 1 13.9 2.9 18.9 3.9 7.4-1 4.6-9.4 2.6-21.7 0.6-4.6-0.6-1.3-4.6 5.5-5.5 3-7.1-1.3-16.9-7.8-21.5-10.8-12-7.4-6.8-8.5 1.6-32.1 3.3-25-5.6-29.6-11.6-2.6 10-0.3 9.1-2.3 18.9 1.6 26.9 3.3 9.4 0.6 11-22.1 2.3 0.7-8.4 4.9-6.5 2.2-7.5-1.9-16.2-3.9-21.8 4.5-18.2-2.6-15.5-2.9-8.5-5.2-16.6-6.8-5.5-0.7-9.1 19.8-45.1z"/>
		<path id="&lt;Path&gt;" class="s3" d="m313.6 261.5l-1.7-3.7 1.6-7.5-6.2-1.6-0.9-2.9 0.6-9.4 1.3-15 0.3-11.3 4.9-7.2 0.3-14.3c0 0 2.6-20.4 2.6-21.4 0-1 5.6-19.8 5.6-19.8l6.1-14 3.9-10.4 0.7 11.4-0.4 3.9-0.9 2.9-6.2 21.4-1 13 2.3 23.4-3.6 9.8-2.9 5.2 1 13.9 2.9 18.9 3.9 7.4-1 4.6-9.4 2.6z"/>
		<path id="&lt;Path&gt;" class="s3" d="m175.8 174.7l-0.6 2.4 0.9-6.7 3.3-13 2.9-0.9 0.6 4.2 1 5.2 5.5 2.9 19.2 5.5 28.6 3.9 18.5-4.8 9.4-5.6 8.5-5.5 5.5-7.1 6.2-7.5 2.2 1-5.8 10-4.9 15.6-2.9 7.5v7.9l-2.9-2.7-8.5 1.6-32.1 3.3-25-5.6z"/>
		<path id="&lt;Path&gt;" class="s2" d="m96.6 154.5l2.4-15.4 5-6.9 4.8-0.9 0.3 3.5-4.4-0.8-3.3 10.4-1.3 12.1-0.3 13 5.2 7.1 4.9-0.6 1.9-8.8-2.6-1.3-2.6 4.5 0.7 2.3-1.7 0.7-4.5-7.2-0.3-6.2h5.2l4.6-0.4 0.3 2.9 2.6 2.2-0.2 5v7.6l-3.7 3.6h-5.6l-3.7-3.9-2.8-8z"/>
		<path id="&lt;Path&gt;" class="s3" d="m105.1 169.2l1.5-3.4-3.5-3.5-0.2 2.6z"/>
		<path id="&lt;Path&gt;" class="s0" d="m187.8 80.2l-17.7-12.1-0.4-7.1 9.7 6.1 24.3 9.1 12.4 0.4 35.4-4.3 25.3-0.6 9.2 4.7-8.5-0.5-19.1 2.6-25.1 7.8-24.3-1.3z"/>
		<path id="&lt;Path&gt;" class="s0" d="m92.6 114.9l4.9-14.6 1.6-14 2.6-8.1 3-4.6 1.6-4.2 4.2-4.1 5-3.9 29.8-7.3 7.4-1.6 0.7 0.3-9.3 3.8-14.3 4.6-15.6 4.7-4.3 4.4-3.5 5.2-4.3 7.8-2.2 9.9v8.3l-5.2 14.2-2.2 8.3-2.6 4.1z"/>
		<path id="&lt;Path&gt;" class="s1" d="m104.7 89.8l1.7-4.8 2.8-2.2 6.9 0.7 5 6-0.2 5c0 0-5.4 3.9-5.6 4.6-0.2 0.6-5.2 1.3-5.9 1.3-0.6 0-4.7-2.4-4.7-2.4z"/>
		<path id="&lt;Path&gt;" class="s3" d="m115.3 89.3l1.1 3.5-3.9 0.9-4.6 0.6v-2.8l1.7-3z"/>
		<path id="&lt;Path&gt;" class="s0" d="m106.2 88.9l-0.6-1.6 0.8-2.3 2.8-2.2 6.9 0.7 5 6-0.2 5q0 0-0.2 0.1l-0.5-0.9-3.6-2.2-6.5-1.1z"/>
		<path id="&lt;Path&gt;" class="s2" d="m104.7 98l2.8 0.4 6-0.6 3.7-0.5c-1 0.8-1.9 1.5-1.9 1.8-0.2 0.6-5.2 1.3-5.9 1.3-0.6 0-4.1-2.1-4.7-2.4z"/>
		<path id="&lt;Path&gt;" class="s2" d="m141.4 261.4l0.7-7.3 1.3-2.1 1.3 1.5-0.4 4.1v4.2z"/>
		<path id="&lt;Path&gt;" class="s0" d="m151 262.6l-4.6-0.6-0.4-6.1 2.4-2 2.4 0.7 2.5 7.7z"/>
		<path id="&lt;Path&gt;" class="s1" d="m298 255l2.3 6.9-4.6 0.1-3.1-0.4-0.2-2.7 2.8-3.9z"/>
		<path id="&lt;Path&gt;" class="s1" d="m302.2 261.8l0.2-4.6 2.1-2 3.3 2.4 0.3 4.1z"/>
		<path id="&lt;Path&gt;" class="s2" d="m258.2 245.2l1.7 5.7v2.9l-8.1-1.4-0.3-3.7 3.4-4.7z"/>
		<path id="&lt;Path&gt;" class="s1" d="m144.1 56.6l5.8-1.9 6.1-4.8 4.1-4.5 7.6 4.7 9.7 12.2 4.1 21-2.6 6.7-16.6 26-9.6 14.3-1.5 3.9-6.3 0.6-5.2-7.8-4.7-14.1 3.4-14.7 0.3-10.2-3.5-6.5-3.5-0.4 4.1-11 4.6-6.3z"/>
		<path id="&lt;Path&gt;" class="s0" d="m135.8 70.1l4.6-6.3 3.7-7.2 5.8-1.9 1.9-1.5 3.2 1.6 8.5 7.1 8.1 14.3-10.7 29.3-8.8 10-7.2 1-4.2-5.8-3.8-5.9 1.5-6.6 0.3-10.2-3.5-6.5-3.5-0.4z"/>
		<path id="&lt;Path&gt;" class="s4" d="m108.6 127.9l1.6 1.3 1.6 3.5-1.3 2.3-4.5 2.6-11.1 4.2-17.2 2.6-11.4-0.6-3.2-2.3v-2.3l4.2 1.3 12.3-1.6 13.4-3.2 10-3.9z"/>
		<path id="&lt;Path&gt;" class="s5" d="m63.1 141.5v-0.2l2.7 0.7h13l14.5-2.3 14.1-6 3.3-3.5 1.1 2.5-1.3 2.3-4.5 2.6-11.1 4.2-17.2 2.6-11.4-0.6z"/>
	</g>
</svg>