<svg version="1.2" xmlns="http://www.w3.org/2000/svg" viewBox="0 0 173 149" width="500" height="500">
	<title>redfox</title>
	<style>
		.s0 { fill: #d8650f } 
		.s1 { fill: #d6c9c3 } 
		.s2 { mix-blend-mode: multiply;fill: #d6c9c3 } 
		.s3 { fill: #66524a } 
		.s4 { fill: #44352e } 
		.s5 { fill: #ff7e27 } 
	</style>
	<g id="&lt;Group&gt;">
		<path id="&lt;Path&gt;" class="s0" d="m57.5 53.8l-8.3 5.3-3.2 3.5-0.7 1.1-3.4 2.3-1.1 1.1-1.7 1.5c0 0-6.1 5.8-6.3 6.4-0.2 0.5 0.3 0.9 0.3 0.9 0 0-2.4 2.2-3 2.8-0.5 0.6-4.4 5.6-4.4 5.6l-4.7 6.6-2.8 7.1-0.8 8.8 0.8 2c0 0 4.3-0.5 4.8-0.9 0.6-0.4 8.5-1.7 8.5-1.7l6.1-4.9c0 0 7.5-8 7.7-8.6 0.2-0.5 3.2-3.3 3.4-3.9 0.2-0.6 2-1.7 2-2.4 0-0.8 0.4-6.8 0.4-6.8l1.7-5.9c0 0 2.6-4.5 2.6-5.3 0-0.7 2.1-14.6 2.1-14.6z"/>
		<path id="&lt;Path&gt;" class="s1" d="m30.7 103.8l1.1-1.7-3.7-0.8-2.3-4.1-2.9 0.2-2.7 1.3-1.5-2-0.5 1.3-0.8 8.8 0.8 2c0 0 4.3-0.5 4.8-0.9 0.6-0.4 8.5-1.7 8.5-1.7l1.6-1.3z"/>
		<path id="&lt;Path&gt;" class="s2" d="m55.8 65.5l-3.8 1.2-3.1 11.6-4.2 6.8-6.5 7.8-5.6 5.8-4.5 2.6-4.3 2.7-6.2 0.6-0.2 2.2 0.8 2c0 0 4.3-0.5 4.8-0.9 0.6-0.4 8.5-1.7 8.5-1.7l6.1-4.9c0 0 7.5-8 7.7-8.6 0.2-0.5 3.2-3.3 3.4-3.9 0.2-0.6 2-1.7 2-2.4 0-0.8 0.4-6.8 0.4-6.8l1.7-5.9c0 0 2.6-4.5 2.6-5.3 0-0.2 0.1-1.3 0.4-2.9z"/>
		<path id="&lt;Path&gt;" class="s3" d="m134.1 22.1c0.2-0.4 2.9-5.3 2.9-5.3l2.1-0.7 0.4 1.5 0.1 2.7 0.2 3.7z"/>
		<path id="&lt;Path&gt;" class="s0" d="m82.1 76.5l0.4 8-2.2 5.8-3.6 3.9-3.2 2.7-0.5 2 0.5 3.7 2.5 5.3 0.7 0.7 2.1 0.6 1.8 2.2-0.3 1.5h-4.9l-3.2-0.2-0.3-2.6-1-1.1-0.2-1.9-2-3.9-3-5.4 0.7-2.6 3.2-1.7 2.1-7.1 1.8-13.5z"/>
		<path id="&lt;Path&gt;" class="s4" d="m76.7 108.6l-0.7-0.7-2.5-5.3-0.5-3.7 0.3-1.3-1.3-0.6-1.6 1.2-2.7-0.6-1.8-0.4-0.2 0.6 3 5.4 2 3.9 0.2 1.9 1 1.1 0.3 2.7 3.2 0.1h4.9l0.3-1.5-1.8-2.2z"/>
		<path id="&lt;Path&gt;" class="s0" d="m125 75l-1 11.6-0.7 8.6-0.2 4.6 1.3 4.9 2.4 0.9 1.7 2.1-0.2 1.9-4.8-0.2-2.4-2.4-2.3-8.7v-21.5z"/>
		<path id="&lt;Path&gt;" class="s3" d="m128.5 107.7l-1.7-2.1-2.4-0.9-1.3-4.9 0.2-4.6 0.7-8.6 0.3-3.3-3.1-0.9-2.4 1.7v14.2l2.3 8.7 2.4 2.4 4.8 0.2z"/>
		<path id="&lt;Path&gt;" class="s0" d="m156.4 36.8l-1.1 3.4-3 2.2-6-0.5h-4.7l-3.5 2.8-4 12.3-2.8 10.5-3.7 6.2-4.3 5.2-2.4 1.7-0.8 14-0.4 9-0.3 2.4 1.3 4.3 2.4 0.6 1.7 3.2-0.9 0.7-7.3-0.7-1.9-7.1-0.3-4.4-0.5-4.2-1.3-3.8-1.8-14.6-2.5-1.9-5.6 1.4-10.1-0.2-12.9-1.9-3.5 5.2-2.1 5.5-4.9 4.3-8.4 4.3-2.2 2 1.3 11.6 2.2 0.8 2.1 1.7 0.6 3.3-1.9 0.2h-4.7l-3-2.6-1.3-1.1-0.4-7.1-2.8-10 4.5-5.6 0.6-5-2.6-9-2.3-8.6c0 0 1.3-6.7 1.5-7.3 0.2-0.6 4.9-7.1 4.9-7.1l10.1-4.3 17.6-1.5 14.9-1.5 3.8-2.1 5.6-0.5 3-1.3 4.8-7.3 7.5-9.6 6.6-3.5 6.7 0.5 7.3 5.5 1.7 3.2 2.8 2.4z"/>
		<path id="&lt;Path&gt;" class="s4" d="m123.1 110.9l-2.4-0.6-1.3-4.3 0.3-2.4 0.4-9 0.7-12.1-2.6-0.6-0.7-1.7-4.3-1.5-2.3 2.5 1.7 13.4 1.3 3.8 0.5 4.2 0.3 4.4 1.9 7.1 7.3 0.7 0.9-0.7z"/>
		<path id="&lt;Path&gt;" class="s4" d="m69.2 92.4l1.2-1h-1.7l-8.6 1.5-3.8-0.7-1-2.7-0.1 0.4-4.5 5.6 2.8 10 0.4 7.1 1.3 1.1 3 2.6h4.7l1.9-0.2-0.6-3.3-2.1-1.7-2.2-0.8-1.3-11.6 2.2-2z"/>
		<path id="&lt;Path&gt;" class="s1" d="m111.3 76.7l-0.9-1.7-9.2 0.9h-10.8l-8.3-0.6-2.9-0.1 0.5 2.2 12.9 1.9 10.1 0.2 5.6-1.4 1.8 1.4z"/>
		<path id="&lt;Path&gt;" class="s1" d="m151.4 38.1l-4.3-2-3.4-1.5-5.1 0.7-6.3 2.6-4.1 1.3-1 2.3 1.1 5 1 9.8-1 6.9-4.3 8.8-1.8 4.8-0.3 3.1 1.4-1 4.3-5.2 3.7-6.2 2.8-10.5 4-12.3 3.5-2.8h4.7l6 0.5 3-2.2 0.4-1.2z"/>
		<path id="&lt;Path&gt;" class="s2" d="m117.5 112.2l-1.3-6.2-0.2-7.1-1.5-5.6v-15.7l0.8-4.3-3.4-2.3-12.5 2.7-13.1-0.8-9.4-3.5-2.4 1.1 1.3 4.3-5.1 10.5-7.4 6.7-6.2 6.3 1.3 8.5 1.2 1-1-9.1 2.2-2 8.4-4.3 4.9-4.3 2.1-5.5 3.5-5.2 12.9 1.9 10.1 0.2 5.6-1.4 2.5 1.9 1.8 14.6 1.3 3.8 0.5 4.2 0.3 4.4 1.9 7.1 1.3 0.1z"/>
		<path id="&lt;Path&gt;" class="s5" d="m133.4 23.2l3.4-0.6c0 0 0.3-0.3 0.8-0.8l-6.4-0.5-6.6 3.5-7.5 9.6-4.8 7.3-3 1.3-5.6 0.5-3.8 2.1-14.9 1.5-17.6 1.5-7.5 3.2 4.3-0.4 16.1-2.4 14.8-0.8 6.7 1 7.1-1 4.5-2 3-5.3c0 0 6.9-9.5 7.1-10.1 0.2-0.5 4.5-5.8 4.5-5.8z"/>
		<path id="&lt;Path&gt;" class="s3" d="m142.7 29.8l3 1.6 2 1.1-1.2-1.3-2.6-1.6z"/>
		<path id="&lt;Path&gt;" class="s5" d="m131.3 14.1l-2.1 1-3.5 9 0.7 1.7 4.4 2.8 0.8-1.8 1.6-1.7 1.4-0.2-0.2-3.9z"/>
		<path id="&lt;Path&gt;" class="s0" d="m130.6 16l1.1-1.2-0.4-0.7-2.1 1-3.5 9 0.7 1.7 4.4 2.8 0.4-1-0.6-3.4v-4.7z"/>
		<path id="&lt;Path&gt;" class="s2" d="m133.4 22.1l-0.1-2.4-1.7-2.9-0.1 2.1 0.1 3.9 0.5 3.5 1.1-1.2 0.4-0.1 0.1-0.2z"/>
		<path id="&lt;Path&gt;" class="s4" d="m131.3 14.1l-2.1 1-2 5.3 1.9-0.8 1.5 0.6v-0.7-3.5l1.1-1.2z"/>
		<path id="&lt;Path&gt;" class="s3" d="m154 41.2l-1.6-0.2-2.5-0.4-4-1.1-3.6 0.3v0.4l1.9-0.1 1.9-0.1 2.9 0.8 2.5 0.6 1.7 0.3z"/>
		<path id="&lt;Path&gt;" class="s3" d="m155 38.1l0.6 1.1 0.8-2.4-0.8-0.4-1.1 0.2v0.8l0.9 0.2v0.5z"/>
		<path id="&lt;Path&gt;" class="s4" d="m144.3 28.8l-0.1 0.5 0.1 0.7 0.4 0.5-1.5-0.2-1.4-0.1 1-0.8z"/>
	</g>
</svg>