<svg version="1.2" xmlns="http://www.w3.org/2000/svg" viewBox="0 0 385 380" width="500" height="500">
	<title>lion</title>
	<style>
		.s0 { fill: #c16844 } 
		.s1 { fill: #f2b279 } 
		.s2 { fill: #7a4b21 } 
		.s3 { fill: #dd965b } 
		.s4 { fill: #fcc292 } 
		.s5 { fill: #fcc695 } 
		.s6 { fill: #d35e4a } 
		.s7 { fill: #9e4233 } 
	</style>
	<g id="&lt;Group&gt;">
		<path id="&lt;Path&gt;" class="s0" d="m145.3 211.2l1.2 14.1 1.3 13.2 5.3 13.4 1.3 11.4 0.4 6.2-0.4 4.5-0.3 2.9 1.9 3.7 1.3 3.9 0.8 12.8v22.8l0.4 2.6-2.5 3.6-1.8 5.1-0.9 6.2 1.1 1.1h6.2l5.7-10.6 1.7-14.4-2.7-49.6-2.9-51.8z"/>
		<path id="&lt;Path&gt;" class="s1" d="m154 332.8l-0.7 4.8 1.1 1.1h6.2l2.4-4.5z"/>
		<path id="&lt;Path&gt;" class="s2" d="m133.3 35.8l5.8 6.6 3.2 10.5 8.7 25.3 6.2 21.5 7.5 21.6 5.3 8.4 4.9 4.1 3.8 5.2-6.4-1.2-9.3-6.9c0 0-10.5-23-10.5-24.8 0-1.7-16-54.1-16-54.1z"/>
		<path id="&lt;Path&gt;" class="s1" d="m249.5 194.3l2.1 5.6 2.3 10.7 0.4 18.6-1.5 15.5-1.6 15.3 0.6 9.9 1 3.7-1.2 1.5-2.5-10.4 0.2-11.1 1.5-13.9 1.2-11.7-2-15.9z"/>
		<path id="&lt;Path&gt;" class="s0" d="m254.3 271.3l-3.1-0.8-1.4 2.9 1.2 6.8 1.9 7.5 2.6 8.4 0.2 10.5-1.2 5.2 3.1-4.1 1.9-13-0.9-9.1-2.6-9.7z"/>
		<path id="&lt;Path&gt;" class="s0" d="m208.9 244.1l2.7 19 5.7 15.5 2.7 8.6-1.4 6.6-6.2 26.3-2.1 10.3-2.1 2.7-2.8 6 2.2 1.6h6.8l3.3-1v-4.2l1.5-3 1.2-1.7-1.6-4.7 1-8.9 5.6-15.9 5.2-11.4 3.9-13.4-7.9-34.1z"/>
		<path id="&lt;Path&gt;" class="s3" d="m115.5 31.2l0.2-6.8v-3.5l-1.8-1.3 0.8-1.4 7.2-0.2 0.2 1.6-1.6 0.7 0.4 10.1z"/>
		<path id="&lt;Path&gt;" class="s1" d="m84.4 52l1.5 4.4 0.9 2.9 2.6-0.3 10.7-1.4 5.3 0.5h7.8l3.5-1.1 5.5 5.2 4.4 21.8 1.8 25.1 6.1 21.8 6.7 23.8 0.2 23.6-2 14.5 3.2 16 7 9 3.2 16 4.6 13.4 2.7 12.2 0.5 12.3-2 4.6v3.5l3.5 3.2 0.9 9.3 1.4 33.8-3.8 6.6-2.9 6.1-0.5 4.1 5.8 1.5 7.5-1.2 2.9-1.2v-2.3l-1.4-4.9 3.2-1.8 2-3.5-2.6-7.8-2-23-0.9-14.8 2.3-3.2-1.1-7.9 2.9-23.8 3.5-10.5 7.8 5.8 19.8 4.7 6.7-2.1 8.4-1.1 3.5 19.5 3.8 15.7 2.3 3.2 0.9 6.1 2.9 7.2-1.2 16-2 17.5-1.2 3.8-3.2 4.9-1.7 6.4 6.1 0.9 7.6 0.9 1.7-2.9-1.4-6.4 2.9-2.1v-7.8l-0.3-11.7 1.1-15.7 2.6-11.6-3.1-9 0.2-22.7 6.2-22.1 2.3-24.2-1.8-17.4-11-8.5-10.8-3.2-13.9-7.2-17.8-11.7-6.7-4-4.6-9.1-3.8-11.9-11.1-4.9-6.4-6.1-10.4-28-9.1-31.1-6.1-19.2-5.2-13.6-5.8-4.1-0.4-2.4 3.3-6.4 1.5 0.1 1.4-1.7-3.5-3.1-4.4 0.2-0.2 1.4 0.9 1.5-2.3 4.3-2.1 3.3-5.3 1.5-4.6-0.2-2.5 2-3.1 4.8-4.9 2-7 3.8-7.2 5.5z"/>
		<path id="&lt;Path&gt;" class="s1" d="m128.1 36.4l2.9-1.1 5.2-3.7 4.1-1.8 1.5 1-0.9 5.4-6.2 4.9-5.9-1.2z"/>
		<path id="&lt;Path&gt;" class="s4" d="m112.4 38.2h3.4l1.8-1-1.8-1.7-4 0.9z"/>
		<path id="&lt;Path&gt;" class="s2" d="m112 38.9l2.8 2.2 3.2-0.5v-1.9l0.3-1-2.5-0.8-2.8 0.5z"/>
		<path id="&lt;Path&gt;" class="s4" d="m87.2 52.4l1.1-3.1 2.6-1.3 1.7 0.7z"/>
		<path id="&lt;Path&gt;" class="s2" d="m88.4 52.7l0.6-2.9 2.3-0.4 1.8 1.4z"/>
		<path id="&lt;Path&gt;" class="s3" d="m153.7 216.4l-2.4-12.2v-13.1l3.5-11.4 1.5-15.1-8.7-17.1-5.6-22.2-9.3-38.9-7.5-25.3-0.6-6.4-0.9-1.5-6.7 2-7.6 1.5-6.9-0.6-2.3 1.5 5.2 0.5h7.8l3.5-1.1 5.5 5.2 4.4 21.8 1.8 25.1 6.1 21.8 6.7 23.8 0.2 23.6-2 14.5 3.2 16 7 9 3.2 16 0.6-9.9z"/>
		<path id="&lt;Path&gt;" class="s3" d="m249.7 235.9l2.3-24.2-1-10-2.8 8.9-3.8 14.2-6.4 8.5-7.5 1.4-4.7-1.4c0 0 0.9-4.4 1.2-5.6 0.3-1.1 2.6-11 2.6-11l-0.3-3.2-1.2 0.6-2.6 8.7-2.3 9-3.5 2.9-11.4-2c0 0-10.7-3.8-11.3-4.7-0.6-0.8-11.9-11-11.9-11l-6.1-11.4-1.8 2.1 1.8 9.3-1.8 11.9-5.8 24.4-2 13.7 0.3 8.7v5.6l0.5 22.6 1.8 18.7 2.9 5.8-3.2 4 1.6 1.7 1.9-1.1 2-3.5-2.6-7.8-2-23-0.9-14.8 2.3-3.2-1.1-7.9 2.9-23.8 3.5-10.5 7.8 5.8 19.8 4.7 6.7-2.1 8.4-1.1 3.5 19.5 3.8 15.7 2.3 3.2 0.9 6.1 2.9 7.2-1.2 16-2 17.5-1.2 3.8-3.2 4.9-1.7 6.4 6.1 0.9 7.6 0.9 1.7-2.9-1.4-6.4 2.9-2.1v-7.8l-0.3-11.7 1.1-15.7 2.6-11.6-3.1-9 0.2-22.7z"/>
		<path id="&lt;Path&gt;" class="s2" d="m121.9 18l-7.2 0.2-0.8 1.4 1.8 1.3v0.8l4.8-0.6v-0.8l1.6-0.7z"/>
		<path id="&lt;Path&gt;" class="s2" d="m128.1 21.6l2 1.7 0.3-0.4 1.5 0.1 1.4-1.7-3.5-3.1-4.4 0.2-0.2 1.4 0.9 1.5-0.1 0.2z"/>
		<path id="&lt;Path&gt;" class="s3" d="m139.9 34.7v-2.3l-3.7 3.4-4.4 2-3.4 0.2 0.4 1.9 2.6 0.5 1.9-0.5 3.1-1.7z"/>
		<path id="&lt;Path&gt;" class="s4" d="m232.2 331l-1.2 3.8-3.2 4.9-1.7 6.4 6.1 0.9 7.6 0.9 1.7-2.9-1.4-6.4 2.9-2.1v-7.8l-0.3-11.7 1.1-15.7 0.2-0.7-5.2-4.7-3.1-6.6-4.3-16.7-5.8-27.1-1.9-8.9-9.3 1.1-8.6-3.5-20.5-6.6-2 5.1-2.7 6.8 6.5 4.8 19.8 4.7 6.7-2.1 8.4-1.1 3.5 19.5 3.8 15.7 2.3 3.2 0.9 6.1 2.9 7.2-1.2 16z"/>
		<path id="&lt;Path&gt;" class="s5" d="m173.4 342v-2.3l-1.4-4.9 3.2-1.8 2-3.5-2.6-7.8-2-23-0.9-14.8 2.3-3.2-0.2-1.3-4-0.2-11.2-2v2.6l3.5 3.2 0.9 9.3 1.4 33.8-3.8 6.6-2.9 6.1-0.5 4.1 5.8 1.5 7.5-1.2z"/>
		<path id="&lt;Path&gt;" class="s4" d="m172 322.6l2.9 5.8-3.2 4 1.6 1.7 1.9-1.1 2-3.5-2.6-7.8-2-23-0.9-14.8 2.3-3.2-0.2-1.3-4-0.2h-0.1v2.1l0.5 22.6z"/>
		<path id="&lt;Path&gt;" class="s1" d="m159 336.2l-1.3 2.6-0.5 4.1 5.8 1.5 7.5-1.2 2.9-1.2v-2.3l-0.3-1-5.5 0.2z"/>
		<path id="&lt;Path&gt;" class="s1" d="m214.7 337.2l-7.6-1.7-1.7 3.6 2.2 1.6h6.8l3.3-1v-2.6z"/>
		<path id="&lt;Path&gt;" class="s1" d="m227.8 339.9l-1.7 6.2 6.1 0.9 7.6 0.9 1.7-2.9-0.2-0.9-5.6-1.3z"/>
		<path id="&lt;Path&gt;" class="s6" d="m130.8 55.5l-1.3 1.8-0.7 9.3 4.8 0.3 2.3-0.2 0.6-3.2 0.7-2.2 1.3-1.7-0.4-2.6z"/>
		<path id="&lt;Path&gt;" class="s6" d="m133.7 73.1l-5.3 1.3-0.5 1.1c0 0-0.3 1.8 0.2 2 0.4 0.1 5.9 2.3 5.9 2.3l1.8-1.6z"/>
		<path id="&lt;Path&gt;" class="s6" d="m139.1 96.8l-0.1 1.6 4.3 5.6 3.2 3.3 1.5-0.1-1.3-4.7-0.3-5.2-2.3-1.9z"/>
		<path id="&lt;Path&gt;" class="s6" d="m153.7 108.2l-3.8 2.3c0 0-1.9 5.7-1.9 6.1 0 0.5 0.4 4.8 0.4 4.8l4.8 1.9 1.8-5.1 0.7-7.4z"/>
		<path id="&lt;Path&gt;" class="s6" d="m163.8 130.4l-5.8 1.6-2.2 2.4 0.8 6.1 2.9 2.7 7.7-0.1v-8.6z"/>
		<path id="&lt;Path&gt;" class="s6" d="m144.5 126.5l-2.3 1.2-4.4 6.2 3.8 8.3 1.9-0.3 4.8-9.3z"/>
		<path id="&lt;Path&gt;" class="s6" d="m171.1 144.4l-4.5 1.2-1 6.2 4.8 6.3 3.9 1.6 3.9-7.3-2.4-4.5z"/>
		<path id="&lt;Path&gt;" class="s6" d="m157.7 151.4l-0.8-0.2-7.2 2.9 0.2 3.4 3.5 8.4 3.9-0.6 5.7-6.5-0.5-2.5z"/>
		<path id="&lt;Path&gt;" class="s6" d="m166.6 166.2h-3.6l-6 4.7 1.2 3.2 3.3 7.1 7.4 0.7 5-9-1.3-2.6z"/>
		<path id="&lt;Path&gt;" class="s6" d="m151.6 175.7l-5.9 6.1 0.5 2.6 4.8 2.8 3.8-4.1-0.4-4.5z"/>
		<path id="&lt;Path&gt;" class="s6" d="m181.7 161l-1.4 1.3-0.9 11h1.2l7.7-1.1 3.2-5.7-0.9-4.4z"/>
		<path id="&lt;Path&gt;" class="s6" d="m177.2 177.3l-1.6 1.3-1.3 9 1.2 1.6 10.3 2.3 3.9-5.9 0.9-6-2.3-3.5z"/>
		<path id="&lt;Path&gt;" class="s6" d="m163.1 189.9l-4.1 1.6 1.6 4.4 2.7 2.6 4.3-3.2 0.8-2.8z"/>
		<path id="&lt;Path&gt;" class="s6" d="m156.7 198.9l-2.2 2.5 0.2 2.9 2 0.3 2.6-2.9z"/>
		<path id="&lt;Path&gt;" class="s6" d="m170.2 200.8l-3 1.2-1 3.8 2.7 2.9c0 0 2.8 0.3 2.8-0.2 0-0.4 2.2-5.1 2.2-5.1z"/>
		<path id="&lt;Path&gt;" class="s6" d="m166.6 220.6l-4.4 3.8-0.8 4.4 2 1.4 5.1-1.2 1.7-7.4z"/>
		<path id="&lt;Path&gt;" class="s6" d="m190.3 197.5l-2 2-1.8 9.3 6.3 3.5 3.9-3.8 2.3-1.7-2-5.7-3.5-2.9z"/>
		<path id="&lt;Path&gt;" class="s6" d="m199.3 179l-1.7 2.5-1.5 9.9 1.2 1.1 8.6-3.5 4.9-3.2-1.6-2.6-5.2-2z"/>
		<path id="&lt;Path&gt;" class="s6" d="m204.4 193.1l-1.6 2.6c0 0 0.7 1.5 1.2 1.5 0.4 0 2.6-0.2 3-0.9 0.5-0.7 1.6-3.9 1.6-3.9z"/>
		<path id="&lt;Path&gt;" class="s6" d="m216.5 195.4l-3.4 0.8-5.9 12.3 3.6 4.1 4.8 2.5 4.1-2.9 3.9-5-1.4-6.2-3.8-4z"/>
		<path id="&lt;Path&gt;" class="s6" d="m233.8 194l-2.8 1.9 1.2 4.5 2.9 2.2 2-1 0.6-4.1z"/>
		<path id="&lt;Path&gt;" class="s6" d="m210.4 220.5l-0.5 3.4 5.7 6 2.6 0.9 2.2-3.5 1-8.2-3.6-1.4-5.5 2z"/>
		<path id="&lt;Path&gt;" class="s6" d="m198.2 213.6l-3.2 2.6v5.7l2 2.8 2 1.4 8.2-5.1-3.1-5.9-2.4-0.7z"/>
		<path id="&lt;Path&gt;" class="s6" d="m147.3 77.7l-2.7-9.1-0.1-0.3-2.5 0.2-1.9 2.5-1 5.2 1 2.5c0 0 3.4 0.5 3.8 0.5 0.3 0 2.4-1 3.4-1.5z"/>
		<path id="&lt;Path&gt;" class="s6" d="m150.5 88.9l-1.6-5.7-5 1.9-0.3 3.2 6.3 0.8z"/>
		<path id="&lt;Path&gt;" class="s6" d="m134.9 97.4l3.1-5.2-0.2-4.4-3.8-3.8-3 2.4-1.5 2.1h-2.6l0.9 12.7z"/>
		<path id="&lt;Path&gt;" class="s6" d="m143.8 112.1l-2.4-1.9-3.9-2.9-2.5-1.2-3.3 2.5-2.9 2 2.7 9.6 12.3-6.5z"/>
		<path id="&lt;Path&gt;" class="s7" d="m135.2 96.9l-2.5-10.5-0.3-1.1-1.4 1.1-1.5 2.1h-2.6l0.6 8.4 0.3 4.3 7.1-3.8z"/>
		<path id="&lt;Path&gt;" class="s7" d="m137.8 107.5l-0.3-0.2-2.5-1.2-3.3 2.5-2.9 2 2.7 9.6 8.3-4.4z"/>
		<path id="&lt;Path&gt;" class="s7" d="m129.1 74.3l-0.7 0.1-0.5 1.1c0 0-0.3 1.8 0.2 2 0.1 0.1 1.1 0.4 2.2 0.9z"/>
		<path id="&lt;Path&gt;" class="s7" d="m145.3 138.4l-2.7-10.9-0.4 0.2-4.4 6.2 3.8 8.3 1.9-0.3z"/>
		<path id="&lt;Path&gt;" class="s7" d="m156.3 164.6l-5.6-10.9-1 0.4 0.2 3.4 3.5 8.4 2.8-0.4z"/>
		<path id="&lt;Path&gt;" class="s7" d="m154.4 178.6l-2.8-2.9-5.9 6.1 0.5 2.6 4.8 2.8 2.3-2.5 1.3-4.2z"/>
		<path id="&lt;Path&gt;" class="s3" d="m86.4 58.2l9.4-2.4v-1.1l-9.6 2.6z"/>
	</g>
</svg>