<svg version="1.2" xmlns="http://www.w3.org/2000/svg" viewBox="0 0 216 170" width="500" height="500">
	<title>2112</title>
	<style>
		.s0 { fill: #9b9e9c } 
		.s1 { fill: #423633 } 
		.s2 { fill: #382c2a } 
		.s3 { fill: #c5c9c7 } 
		.s4 { fill: #cdd3d0 } 
		.s5 { fill: #b2b7b4 } 
		.s6 { fill: #60504d } 
		.s7 { fill: #4f413f } 
		.s8 { fill: #ffffff } 
	</style>
	<g id="Layer 1">
		<g id="&lt;Group&gt;">
			<path id="&lt;Path&gt;" class="s0" d="m130.5 119.5c0 0-5.6 4.1-6.3 6.8-0.8 2.7 1.8 1.6 1.8 1.6 0 0 0.4 1.8 1.8 2.1 1.3 0.3 3.3-1.8 3.3-1.8 0 0-0.5 0.9 1.4 0.9 2 0 3.2-2.2 3.7-2.8 0.4-0.6-0.4-1.5 6.6-2.8 6.9-1.4 13.1-2.4 11.6-6.9-1.5-4.6-16.5-0.8-23.9 2.9z"/>
			<g id="&lt;Group&gt;">
				<path id="&lt;Path&gt;" class="s0" d="m93.4 125c-0.4 0.2-4.3 1.9-7.9 6-3.5 4.1 0.8 3.7 0.8 3.7 0 0 0 1.1 1.7 1.7 1.7 0.6 2.8-1 2.8-1 0 0 0 2.5 2.6 1.1 2.6-1.4 3.1-4.4 3.1-4.4 0 0 8.6-1.7 11.8-5.7 3.2-4-4.8-5.9-5.1-6.2-0.4-0.3-3.9 1.9-9.8 4.8z"/>
				<path id="&lt;Path&gt;" class="s0" d="m72.6 116.4c-0.4 0.2-4.3 1.9-7.8 6-3.6 4.2 0.7 3.7 0.7 3.7 0 0 0.1 1.1 1.8 1.7 1.7 0.6 2.8-1 2.8-1 0 0-0.1 2.5 2.5 1.1 2.7-1.3 3.1-4.4 3.1-4.4 0 0 8.7-1.7 11.9-5.7 3.2-4-4.8-5.9-5.2-6.2-0.3-0.3-3.8 2-9.8 4.8z"/>
				<path id="&lt;Path&gt;" class="s1" d="m65.3 86.6c0 0-5-2.8-5.7-5.3-0.6-2.6-1.1-6.9-1.1-6.9l4.1 3.2c0 0-1.5-3.8-0.7-6.9 0.7-3.2 3.4-7.2 3.4-7.2l2.7 6.2c0 0 1.9-5.7 3.8-8.9 1.9-3.1 5.7-5.3 5.7-5.3 0 0-0.5 5.4 0 5.3 1.1-2.5 2.4-5.1 6.6-7.4 4.1-2.4 8.2-2.9 8.2-2.9l-3.4 5.6c0 0 4.5-4.3 9.2-6.2 5.9-2.4 11.1-2 11.1-2l-4.5 4.1c0 0 4.5-1.9 8.2-2.7 6.6-1.4 10.6 0.1 10.6 0.1l-6.5 4.6c0 0 5.1-2 7.7-2.4 2.7-0.5 6.9 0.5 6.9 0.5l-3.3 3.9c0 0 3.5-1.2 6.3-1.2 2.8 0 8 2.5 8 2.5l-4.6 4.2c0 0 5.3-1.4 8.4-1 3.8 0.5 6.1 3.3 6.1 3.3l-3.8 1.9c0 0 2.6 0.7 6.2 2.2 1.7 0.7 5 4.5 5 4.5l-4.4 2.7c0 0 4.3-0.4 6.6 1 4 2.4 5 5.5 5 5.5l-4 1.5c0 0 1.2 0.8 4 2.7 2.8 1.8 4.7 4.9 4.7 4.9l-5.7 2.1 5 1.5c0 0-0.3 4.4-1.8 6.4-1.5 2-3.2 3.8-3.2 3.8 0 0 4.5-3 4.7-2.6 0.1 0.3 4.7 6.8-6.2 11.3-10.9 4.6-12.7 8.4-38 3.6-25.3-4.9-61.3-30.2-61.3-30.2z"/>
				<path id="&lt;Path&gt;" class="s2" d="m155.9 105q1.8-2.2 3.4-4.6c-3.9-1.4-10-2.3-13.6-1 0.9-2.4 2.4-4.3 3.9-6.3-4.8-0.8-11.8-1.1-16.5-0.9 0.6-1.7 1.4-3 2.5-4.2-5.1-0.8-13.3-2.1-16.4-0.7 1-2.1 2.3-3.9 3.8-5.7-4.8-0.8-12.6-1-15.4 0.2 1.5-2.1 3.4-3.9 5.3-5.6-5.8-1.2-14.6-1.6-18.9 1.7 1-2.4 2.1-4.4 3.6-6.2-5.7 0.4-13.9 1.3-16.9 5.4 0.3-2.2 0.8-4.2 1.7-6.1-2.8 1.4-7.1 2.9-8.6 5.2-0.3-1.1-0.5-2.3-0.6-3.5-3.6 3.8-6.4 9.4-6.6 14.8 6.4 4.4 37.5 24.9 60 29.3 25.3 4.8 27.1 1 38-3.6 3.9-1.6 5.8-3.5 6.7-5.3-4.9 1.4-13.6-0.6-15.4-2.9z"/>
				<path id="&lt;Compound Path&gt;" class="s3" d="m141.4 110.2c0.3-1.2 1-2.8 0.5-5.2-1.4 0.9-9.7 0.1-12.1-0.9 0 0 1.8-4.6 1.8-4.6-2.8-0.8-7.6 1.2-10.8 3.6-0.4-2.4-1.4-5.9-3.2-8-2.2 1.8-8 5.2-11.2 5.2 0-3 1.1-5.4 0-8.3-2.8 4.7-7.8 5.3-12.1 4.3 4.3-2.2 2.3-5.8 2.6-8.7-2.9 2.1-8.2 1.7-9.8 2.4-0.3-1.9-1.3-5.8-1.5-8.7-2.3 0.7-4.1 3.1-5.9 4.6-0.4-1.3-2.3-1.8-3.2-4.6-1.5 0.8-2.6 1.6-3.5 2.7-2.3-2.9-7-1.7-7.6 2.2-0.6-0.2-3.7-0.3-5 0.2 0.6 2.4 3.1 4.7 4.9 6-2.3 3-6.9 5.9-10.5 5.8 1.7 2.2 3.6 3.6 6.1 4.3-1.6 2.1-4.3 5.4-7.2 5 1.4 1.6 3 2.4 4.7 2.6-3.1 2.8-6.6 5-10.6 6.4-1 0.4-1.2 1.6-0.3 2.2 9.5 6 22.2 7.8 33 4 2.2 2.1 4.7 4 7.1 5.9 0.8-0.8 0.5-3.1 0.6-3.5 3.9 3 10.3 5.7 15.4 5.1 0.1-1.4-0.9-4.7-0.9-4.7 4.3 1.3 12.1 3.6 16.3 2.4 0-1-0.8-2.4-0.6-3.9 5.1 0.9 13 1.5 18.1 0.3-0.1-2 0.5-4.1 0.2-5.4 7.1-0.1 14.5-2 20-6.7-5 0.7-10.3-0.5-15.3-2z"/>
				<path id="&lt;Path&gt;" class="s4" d="m58.5 116.7c7-2.1 14.8-7.4 19.1-13.2 1.1-1.5 3.1-3.9 3.2-5.7 0.6-5.4-5.5-9-9.7-4.8-2 2.1-3.6 5.4-5.3 7.8-2 2.7-6.3 8.8-7.4 9.3-2.6 2-7.5 5.3-10.6 6.4-0.8 0.3-1.1 1.2-0.7 1.8 3.8-0.2 7.8-0.6 11.4-1.6z"/>
				<path id="&lt;Path&gt;" class="s5" d="m136.7 118.9c7.1-0.1 14.5-2 20-6.7-5 0.7-10.3-0.5-15.3-2 0.1-0.5 0.3-1 0.4-1.6-4.6 3.1-15.6 5.2-21.1 5.2 1.9 2.3 3.4 2.7 5.3 5.4-2.2 0.7-7.8-0.3-10.4-1.3 0.2 0.2 1.7 1.9 1.4 3.3-4.4-0.1-9.5-0.2-13.4-2.5 0.3 0.6 0.7 2.4 0.4 4-3.6-0.1-6.4-1.1-9.4-2.8 0 1 0.5 3.8-0.3 5.2-2.3-1.6-8.8-5.8-10.9-7.6-6 1.5-16.7 2.1-22.5 1.8-3.7-0.2-9.6-0.3-13.7-2.3-0.4 0.5-0.4 1.3 0.3 1.7 9.5 6 22.2 7.8 33 4 2.2 2.1 4.7 4 7.1 5.9 0.8-0.8 0.5-3.1 0.6-3.5 3.9 3 10.3 5.7 15.4 5.1 0.1-1.4-0.9-4.7-0.9-4.7 4.3 1.3 12.1 3.6 16.3 2.4 0-1-0.8-2.4-0.6-3.9 5.1 0.9 13 1.5 18.1 0.3-0.1-2 0.5-4.1 0.2-5.4z"/>
				<path id="&lt;Path&gt;" class="s1" d="m51.8 114.8c0 0-5.8 1-6.6 2.4-0.7 1.3 0.9 2.9 4 4.1 3 1.2 5.5 0.9 5.5 0.9 0 0 1.2-5.6-2.9-7.4z"/>
				<path id="&lt;Path&gt;" class="s1" d="m74.2 109.6c0 0 1.3-1.2 3-3.9 1.7-2.7 7.8-0.3 6.8 2-1.8 4.3-6 1.9-6 1.9z"/>
				<path id="&lt;Path&gt;" class="s1" d="m62.9 104.5l4.8-6.7c0 0-1.4-1.9-3.8 0-1.3 1.1-1.6 3.6-0.5 4.3 0 1.3-0.5 2.4-0.5 2.4z"/>
				<path id="&lt;Path&gt;" class="s6" d="m81.7 60.9c-0.2-0.1-2.7 2-3.5 3.8-0.9 1.7-0.7 4.1-0.7 4.1 0 0 1.8-2 2.7-4.2 1-2.2 1.5-3.7 1.5-3.7z"/>
				<path id="&lt;Path&gt;" class="s6" d="m85.2 65.3c0 0 1.1-2.5 3.6-3.9 2.5-1.4 5.5-1.6 5.5-1.6 0 0-3 1.8-4.6 2.7-1.6 0.9-4.5 2.8-4.5 2.8z"/>
				<path id="&lt;Path&gt;" class="s6" d="m85.6 68c0 0 2.8-2.5 5.9-2.6 3-0.1 6.1 0.1 5.9 0.1-0.1 0-2.6 1.1-5.5 1.7-2.9 0.5-4.3 0.8-6.3 0.8z"/>
				<path id="&lt;Path&gt;" class="s6" d="m102.4 56.9c0-0.2 1.2-1.4 4.2-1.6 3-0.3 5.6-0.6 5.4-0.4-0.3 0.1-2.1 1.8-4.8 2-2.8 0.2-4.8 0-4.8 0z"/>
				<path id="&lt;Path&gt;" class="s6" d="m103.9 59.4c0 0 2.7-0.4 4.1 0.6 1.5 1 2.5 2.4 2.5 2.4 0 0-2.5-0.2-4.4-1.2-1.9-1-2.2-1.8-2.2-1.8z"/>
				<path id="&lt;Path&gt;" class="s6" d="m112.2 68.5c0 0 2.5-1.3 4.1-0.8 1.7 0.4 3.2 1.5 3.2 1.5 0 0-2.5 0.6-4.6 0.3-2.1-0.4-2.7-1-2.7-1z"/>
				<path id="&lt;Path&gt;" class="s6" d="m114.9 71.6c0 0 2.4-0.8 5.2 0.2 2.9 1 4.1 1.7 3.9 1.8-0.2 0.1-2.3 0.1-4.7-0.3-1.9-0.3-4.4-1.7-4.4-1.7z"/>
				<path id="&lt;Path&gt;" class="s6" d="m122.1 62c0 0 2.7-1.5 5.2-1.6 2.4-0.1 3.9 0 4.9 0.3-0.4-0.1-3.9 1-5.8 1.3-1.9 0.2-4.3 0-4.3 0z"/>
				<path id="&lt;Path&gt;" class="s6" d="m143.6 77.1c0 0 1.2 0.9 3.5 2 2.3 1.1 5.2 1 5.2 1 0 0-2.4-1.5-4.3-2.3-1.9-0.8-4.4-0.7-4.4-0.7z"/>
				<path id="&lt;Path&gt;" class="s6" d="m149.1 75.6c0 0 3.3 1.2 5.8 2.3 2.5 1 4.2 1.4 4.2 1.4 0 0-3.4 0.6-5.7-0.7-2.3-1.2-4.3-3-4.3-3z"/>
				<path id="&lt;Path&gt;" class="s6" d="m131 80.4c0 0 0.7 1.8 2 3.2 1.4 1.4 3.9 2.9 3.9 2.9 0 0-1.2-2.8-2.7-4.3-1.4-1.5-3.2-1.8-3.2-1.8z"/>
				<path id="&lt;Path&gt;" class="s6" d="m128.1 67.8c0 0 1.9 0.4 3.8 0 1.9-0.4 4.5-1.7 4.5-1.7 0 0-3-0.5-5-0.1-2.1 0.4-3.3 1.8-3.3 1.8z"/>
				<path id="&lt;Path&gt;" class="s6" d="m151.4 87.6c0.1 0 1.7 1.2 3.9 1.9 2.2 0.7 5.1 0.4 5.1 0.4 0 0-1.9-1.3-4.1-2.1-2.2-0.7-4.9-0.2-4.9-0.2z"/>
			</g>
			<path id="&lt;Path&gt;" class="s7" d="m81.7 107.5c0 1-0.8 1.7-1.7 1.7-1 0-1.8-0.7-1.8-1.7 0-1 0.8-1.8 1.8-1.8 0.9 0 1.7 0.8 1.7 1.8z"/>
			<path id="&lt;Path&gt;" class="s8" d="m81.2 106.4c0 0.5-0.4 0.8-0.9 0.8-0.4 0-0.8-0.3-0.8-0.8 0-0.5 0.4-0.8 0.8-0.8 0.5 0 0.9 0.3 0.9 0.8z"/>
			<path id="&lt;Path&gt;" class="s7" d="m65.8 99.6c-0.4 0.8-1.2 1.3-1.7 1-0.5-0.2-0.6-1.2-0.1-2 0.4-0.9 1.2-1.3 1.7-1.1 0.5 0.3 0.6 1.2 0.1 2.1z"/>
			<path id="&lt;Path&gt;" class="s8" d="m66.1 98.5c-0.3 0.4-0.6 0.6-0.9 0.5-0.2-0.2-0.3-0.6 0-1 0.2-0.4 0.6-0.6 0.8-0.5 0.2 0.1 0.3 0.6 0.1 1z"/>
		</g>
	</g>
</svg>