<svg version="1.2" xmlns="http://www.w3.org/2000/svg" viewBox="0 0 177 173" width="500" height="500">
	<title>jaguar</title>
	<style>
		.s0 { fill: #dd8910 } 
		.s1 { fill: #bf8555 } 
		.s2 { fill: #e8a838 } 
		.s3 { fill: #e5c07f } 
		.s4 { fill: #563823 } 
		.s5 { fill: #514339 } 
		.s6 { fill: #d36a1c } 
		.s7 { fill: #635042 } 
	</style>
	<g id="&lt;Group&gt;">
		<path id="&lt;Path&gt;" class="s0" d="m139.7 19.5l0.7-2.9 2.1-2.6 0.7 0.8 0.4 5.3z"/>
		<path id="&lt;Path&gt;" class="s1" d="m120.2 84.6l2.1 7.5 0.5 14.6v7.4l-0.3 1.6 2.7 1.9v1.9l0.5 2 3.6 0.5 6.7-0.1-3-16.7-5-22.7z"/>
		<path id="&lt;Path&gt;" class="s1" d="m53.5 99.9l1.3 2.6 2.6 2.2 3.3 7.4 0.6 4.4 1.3 2v1.7l2.8 1.5 6.3 0.3 1.9-1.3 1.3-0.1-0.6-3.4-2.4-1.2-3-0.9-3.7-9.2 0.7-2.8 3.7-4.6 4.3-6.7 1.3-9.4-8.9 0.9z"/>
		<path id="&lt;Path&gt;" class="s2" d="m162 36.1l1-1.3-0.5-1.9-5.9-4.2-2.2-1.7-0.8-1.6-4.6-1.9-4.9-3.3-4.6-0.5-6.4 4.2-5.2 7.8-6.4 13-4.1 2.2-10 1.1-7.4 2.1-15 0.5-15.6 0.4-10.2-0.8-8.6 0.9-6.7 3.2-4.1 10.9-3 12.8-3.2 10.7-2.7 4.3-5.7 2.2-4.9-1.2-3.6-3.1-0.3-4.9-0.1-1.9-1.9-0.5-1.6 1.3 0.3 4.7 1.8 5.7 4.5 3 6.3 0.9 7.4-1.4 3.6-4.7 2.4-4.8 2.3-8.4 0.9-1.6 1.9 7.1 0.2 7.2-0.5 6-3.7 4.6 0.5 3.4 3.3 4 3.1 9.7 3 1.4 1 3 7.7 1.7 3.1-0.9 0.1-1 1.3-0.2-0.7-3.1-2.1-2.1-5.3-0.9-2.1-4.3-2-6.5 2.2-4 7.1-4.4 6.7-6.8 4-5.1 4.2-1.8 4.4 0.5 13.3 3.8h13.9l11.5-2.1 4.3-0.8 2.3 3.7 2.5 7.9 0.7 13.3-0.4 6.6 1.9 2.1 0.4 2.8 2.1 2 6.1 0.4 0.9-1 2.7 0.2 2.2-0.8-0.3-2.7-2-1.3-3.5-1.9-1.7-6.4 0.1-15.5 2.4-10 4.4-12.4 1.3-10.3-0.4-3.8 1.4-8.3 3.2-8.9 2.5-0.2 4.2 2.1 2.5-0.3 1.9-1.8 0.2-2.1z"/>
		<path id="&lt;Path&gt;" class="s2" d="m141.2 21.4l1.3-2.6 3.3-2.7 0.8 0.5-1.5 8.6-1.7-0.6z"/>
		<path id="&lt;Path&gt;" class="s3" d="m48 95.3l3.3-11.9 0.9-8.9-5.9-3.8-2.6-2.6-1.7 3.3-3.7 12.8-3.4 8.5-4 2.8-4.5 0.7-4.9-0.2-5.7-2.8-1.6-4.1v-3.5l0.3-3h-0.1l-1.6 1.3 0.3 4.7 1.8 5.7 4.5 3 6.3 0.9 7.4-1.4 3.6-4.7 2.4-4.8 2.3-8.4 0.9-1.6 1.9 7.1 0.2 7.2-0.5 6-3.7 4.6 0.5 3.4 1.1 1.4 0.2-3.4 3.1-4z"/>
		<path id="&lt;Path&gt;" class="s0" d="m133.8 109.5l-1.8-13.5-0.2-11.1-1.3-5.9-0.4-9.7-1.4-5.5-1-1.9-2.3 5.7-2.6 5.2-13.1 3.8-13.9 1.7-16.4-1.5-2.8-1.9 2.1-3.3 4.5-2.1 1.7-2.6-5-2.8-10.8 0.7-5.7 3.7-6.2 13.1-1.4 9.7-5 7.5-2.8 6.4 1.9 5.7 3.6 2.9-0.4-0.9-2-6.5 2.2-4 7.1-4.4 6.7-6.8 4-5.1 4.2-1.8 4.4 0.5 13.3 3.8h13.9l11.5-2.1 4.3-0.8 2.3 3.7 2.5 7.9 0.7 13.3-0.4 6.6 1.9 2.1 0.4 2.8 2.1 2 6.1 0.4v-3.4l-4.4-3.4z"/>
		<path id="&lt;Path&gt;" class="s3" d="m158.2 43l1.9-1.8 0.1-1.8-2.4 0.1-1.9-2.9-3.4-4.2-3.2 1.1-6.5 4.5v5.2l-1.8 15.4-3.3 13.8-1.2 7.8 0.5 6.3 1.2 2.5 0.9-3.9 4.4-12.4 1.3-10.3-0.4-3.8 1.4-8.3 3.2-8.9 2.5-0.2 4.2 2.1z"/>
		<path id="&lt;Path&gt;" class="s3" d="m129.5 119.1l0.4-5.4 0.4-5.4-0.5-10.7-1.9-7.1-4-7-0.5-3.1-1.1-2.6-3.1 2.1-10.6 2.1-16.6 0.3-11.6-1-5.2-3-2.4 0.7-3.7 4.9-5.5 6.6-7.1 6.9-5.4 3.3-1.5 5.4 2.9 9.8 2.6 1.8 0.1-0.5-2.1-4.3-2-6.5 2.2-4 7.1-4.4 6.7-6.8 4-5.1 4.2-1.8 4.4 0.5 13.3 3.8h13.9l11.5-2.1 4.3-0.8 2.3 3.7 2.5 7.9 0.7 13.3-0.4 6.6z"/>
		<path id="&lt;Path&gt;" class="s0" d="m140.5 120.1l-2.2-0.7 1.2 1.2 1.2 2.2v0.8l1.2 0.1h0.1l-0.5-2.1z"/>
		<path id="&lt;Path&gt;" class="s0" d="m62 122.2l-2.9-1.8 0.2 0.9 1.4 1.4 0.6 1.9 0.6-0.1 0.1-1h0.3z"/>
		<path id="&lt;Path&gt;" class="s3" d="m71.9 117.8l-1.7-0.1v0.6l1.9 0.9 0.6 2.1 0.9-0.6-0.3-2.2z"/>
		<path id="&lt;Path&gt;" class="s3" d="m151 27.4l0.2 0.9 1 0.3h1.3l0.8 0.2v-0.6l-1.5-0.8z"/>
		<path id="&lt;Path&gt;" class="s4" d="m152.6 26.8l-2 0.1 0.2 0.8 1.3 0.4 0.9-0.4 1.3 0.5z"/>
		<path id="&lt;Path&gt;" class="s0" d="m152.6 26.9l-0.1-1-0.6-0.3-1 0.6v0.7z"/>
		<path id="&lt;Path&gt;" class="s4" d="m163 33.8l-0.1-0.5h-1.4l-1.1-0.6-0.4 0.5 1 0.9 0.7 0.7 0.1 0.6 0.2-0.3z"/>
		<path id="&lt;Path&gt;" class="s5" d="m158.6 39.8l1.6-0.1 0.1-0.6-1.1 0.2-1.6 0.1-2-0.2-1.7-0.4-0.9 0.4-0.1 0.5h1.6l2-0.1z"/>
		<path id="&lt;Path&gt;" class="s0" d="m146.5 17l-0.8 1-1.2 2.8 0.4 2.7 0.3 0.8z"/>
		<path id="&lt;Path&gt;" class="s6" d="m93 67.1l-1.5 0.5-0.9 1.5 0.1 1.9 1.3 1.1 1.8-0.1 0.8-2.4v-1.5z"/>
		<path id="&lt;Path&gt;" class="s5" d="m92.2 66.1l0.3 1.6-1.1 1.5-0.8 0.7-1-0.7 0.1-1.8 1.3-1.1z"/>
		<path id="&lt;Path&gt;" class="s5" d="m94.2 67l-0.8 0.7 0.2 1.2 0.6 0.5 1 0.2 0.2-1.4-0.5-1.1z"/>
		<path id="&lt;Path&gt;" class="s5" d="m91.4 70.6h-1.1l-0.9 0.7-0.1 1.1 1.4-0.1 0.8-0.5z"/>
		<path id="&lt;Path&gt;" class="s5" d="m93.9 71l-0.9 0.7-0.2 1.3 1.1 0.2c0 0 1.1-0.2 1.1-0.3 0-0.2-0.4-1.6-0.4-1.6z"/>
		<path id="&lt;Path&gt;" class="s6" d="m98.8 62.3l-1.6 0.7-0.5 2.2 0.9 1.6 2.2-0.8v-2.6z"/>
		<path id="&lt;Path&gt;" class="s5" d="m98.1 61.1c0 0.2-0.1 1.3-0.1 1.3l1.1 0.9 0.8-0.7-0.8-1.4z"/>
		<path id="&lt;Path&gt;" class="s5" d="m96.6 62.8l1 1-0.1 1.4 0.1 1.6-1.1 0.1-0.8-1.1-0.5-2.2z"/>
		<path id="&lt;Path&gt;" class="s5" d="m100.5 64.8c0 0-1.1 0-1.1 0.3 0 0.2-0.2 1.2-0.2 1.4 0 0.2 0 1 0 1l0.9-0.2c0 0 0.7-1 0.7-1.3 0-0.4-0.3-1.2-0.3-1.2z"/>
		<path id="&lt;Path&gt;" class="s6" d="m87.3 59.3l-1.2 1-0.3 1.8 0.8 1.7 1.7 0.5 1.6-0.7-0.2-2.6-0.6-1.3z"/>
		<path id="&lt;Path&gt;" class="s5" d="m86.1 58.7l1 1.4-0.5 1.8-0.5 0.9-1.2-0.3-0.5-1.7 0.8-1.5z"/>
		<path id="&lt;Path&gt;" class="s5" d="m88.4 58.8l-0.5 1 0.6 1 0.8 0.2 0.9-0.2-0.2-1.3-1-0.9z"/>
		<path id="&lt;Path&gt;" class="s5" d="m87.1 63.2l-1 0.4-0.6 1 0.3 1 1.3-0.6 0.5-0.8z"/>
		<path id="&lt;Path&gt;" class="s5" d="m89.6 62.6l-0.6 1 0.3 1.3 1.1-0.3c0 0 1-0.5 0.9-0.7-0.1-0.2-1-1.3-1-1.3z"/>
		<path id="&lt;Path&gt;" class="s6" d="m94.9 57.7l-1.5 0.1-1.1 1.7 0.3 1.7 2.1-0.1 0.8-2.1z"/>
		<path id="&lt;Path&gt;" class="s5" d="m94.8 56.5c-0.1 0.1-0.6 1.1-0.6 1.1l0.7 1.1 0.9-0.4-0.2-1.4z"/>
		<path id="&lt;Path&gt;" class="s5" d="m92.9 57.5l0.6 1.1-0.5 1.2-0.4 1.4-1-0.3-0.3-1.1 0.3-2.1z"/>
		<path id="&lt;Path&gt;" class="s5" d="m95.7 60.4c0 0-1-0.3-1-0.1-0.1 0.2-0.6 1-0.6 1.1-0.1 0.2-0.4 0.9-0.4 0.9l0.8 0.1c0 0 0.9-0.7 1-0.9 0.1-0.3 0.2-1.1 0.2-1.1z"/>
		<path id="&lt;Path&gt;" class="s6" d="m102 56.3l-1.2-0.7-1.6 0.2-1.3 1.3v1.5l1.2 1.2 2.1-0.9 1-0.9z"/>
		<path id="&lt;Path&gt;" class="s5" d="m102.2 55.1l-0.9 1.3h-1.8l-0.9-0.1v-1.1l1.3-1 1.5 0.3z"/>
		<path id="&lt;Path&gt;" class="s5" d="m102.8 57.1l-1-0.1-0.7 0.8v0.7l0.5 0.8 1-0.6 0.5-1.1z"/>
		<path id="&lt;Path&gt;" class="s5" d="m98.6 57.3l-0.7-0.8-1-0.2-0.8 0.5 0.9 1 0.9 0.2z"/>
		<path id="&lt;Path&gt;" class="s5" d="m99.8 59.2l-1-0.2-1 0.7 0.5 0.9c0 0 0.7 0.6 0.9 0.5 0.1-0.1 0.8-1.2 0.8-1.2z"/>
		<path id="&lt;Path&gt;" class="s6" d="m105.7 50.7l-1.4 0.6-0.5 2 0.9 1.4 1.9-0.7v-2.3z"/>
		<path id="&lt;Path&gt;" class="s5" d="m105.1 49.5c0 0.2-0.1 1.3-0.1 1.3l1 0.8 0.7-0.7-0.7-1.2z"/>
		<path id="&lt;Path&gt;" class="s5" d="m103.7 51.1l0.9 0.9v1.3l0.1 1.4-1.1 0.1-0.7-0.9-0.4-2.1z"/>
		<path id="&lt;Path&gt;" class="s5" d="m107.3 53c0 0-1 0-1 0.2 0 0.2-0.2 1.1-0.2 1.3 0 0.2 0 0.9 0 0.9l0.8-0.2c0 0 0.6-0.9 0.6-1.2 0-0.3-0.2-1-0.2-1z"/>
		<path id="&lt;Path&gt;" class="s6" d="m121.2 49.9l-1.5 0.6-0.5 2 0.9 1.5 2-0.8v-2.3z"/>
		<path id="&lt;Path&gt;" class="s5" d="m120.6 48.8c0 0.2-0.2 1.2-0.2 1.2l1.1 0.8 0.7-0.7-0.7-1.2z"/>
		<path id="&lt;Path&gt;" class="s5" d="m119.2 50.4l0.9 0.9-0.1 1.2 0.1 1.5-1 0.1-0.7-1-0.5-2.1z"/>
		<path id="&lt;Path&gt;" class="s5" d="m122.8 52.2c0 0-1 0-1 0.2 0 0.3-0.2 1.2-0.2 1.3 0 0.2-0.1 0.9-0.1 0.9l0.9-0.1c0 0 0.6-1 0.6-1.3 0-0.2-0.2-1-0.2-1z"/>
		<path id="&lt;Path&gt;" class="s6" d="m110.7 47.1l-1.1 1-0.3 1.6 0.8 1.5 1.5 0.6 1.4-0.8-0.1-2.3-0.5-1.2z"/>
		<path id="&lt;Path&gt;" class="s5" d="m111.7 46.7l-0.5 0.9 0.6 0.9 0.7 0.2 0.9-0.2-0.3-1.2-0.8-0.8z"/>
		<path id="&lt;Path&gt;" class="s5" d="m110.6 50.7l-1 0.4-0.5 0.9 0.2 0.9 1.2-0.5 0.5-0.8z"/>
		<path id="&lt;Path&gt;" class="s5" d="m112.8 50.2l-0.6 0.9 0.4 1.2 1-0.3c0 0 0.8-0.5 0.7-0.6 0-0.2-0.9-1.2-0.9-1.2z"/>
		<path id="&lt;Path&gt;" class="s6" d="m106.2 66l-1.4 0.4-0.9 1.4 0.2 1.8 1.2 1 1.6-0.1 0.8-2.2-0.1-1.4z"/>
		<path id="&lt;Path&gt;" class="s5" d="m105.4 65.1l0.3 1.5-1 1.3-0.8 0.7-0.8-0.7 0.1-1.7 1.2-0.9z"/>
		<path id="&lt;Path&gt;" class="s5" d="m107.3 65.9l-0.8 0.7 0.2 1.1 0.6 0.4 0.9 0.2 0.2-1.3-0.5-1z"/>
		<path id="&lt;Path&gt;" class="s5" d="m104.7 69.2h-1l-0.8 0.6-0.1 1 1.3-0.1 0.7-0.5z"/>
		<path id="&lt;Path&gt;" class="s5" d="m107 69.6l-0.9 0.6-0.1 1.2 1 0.2c0 0 1-0.2 1-0.3 0-0.2-0.4-1.5-0.4-1.5z"/>
		<path id="&lt;Path&gt;" class="s6" d="m107.2 57.9l-1.1 0.9-0.3 1.7 0.8 1.5 1.5 0.5 1.4-0.7-0.1-2.3-0.5-1.2z"/>
		<path id="&lt;Path&gt;" class="s5" d="m106.1 57.4l0.9 1.3-0.5 1.6-0.4 0.9-1.1-0.4-0.5-1.5 0.8-1.3z"/>
		<path id="&lt;Path&gt;" class="s5" d="m108.2 57.5l-0.5 0.9 0.6 0.9 0.7 0.2 0.9-0.2-0.3-1.2-0.8-0.8z"/>
		<path id="&lt;Path&gt;" class="s5" d="m107 61.5l-0.9 0.4-0.6 0.8 0.3 1 1.2-0.5 0.5-0.8z"/>
		<path id="&lt;Path&gt;" class="s5" d="m109.3 61l-0.6 0.9 0.4 1.1 1-0.2c0 0 0.8-0.5 0.7-0.6 0-0.2-0.9-1.3-0.9-1.3z"/>
		<path id="&lt;Path&gt;" class="s6" d="m115 55.4l-1.4 0.1-1 1.5 0.3 1.6h1.9l0.7-2z"/>
		<path id="&lt;Path&gt;" class="s5" d="m114.9 54.3c-0.1 0.1-0.6 1-0.6 1l0.7 1 0.8-0.4-0.2-1.2z"/>
		<path id="&lt;Path&gt;" class="s5" d="m113.2 55.2l0.5 1.1-0.5 1-0.3 1.3-1-0.3-0.3-1 0.3-1.9z"/>
		<path id="&lt;Path&gt;" class="s5" d="m115.7 57.9c0 0-0.9-0.3-1-0.1 0 0.2-0.5 0.9-0.5 1-0.1 0.2-0.3 0.8-0.3 0.8l0.7 0.1c0 0 0.8-0.6 0.9-0.9 0.1-0.2 0.2-0.9 0.2-0.9z"/>
		<path id="&lt;Path&gt;" class="s6" d="m99.5 74.4l-1.6 0.5-1 1.6 0.2 1.9 1.3 1.1 1.9-0.1 0.8-2.4-0.1-1.5z"/>
		<path id="&lt;Path&gt;" class="s5" d="m98.6 73.4l0.4 1.7-1.2 1.5-0.9 0.7-0.9-0.8 0.1-1.8 1.3-1.1z"/>
		<path id="&lt;Path&gt;" class="s5" d="m100.7 74.3l-0.9 0.8 0.2 1.2 0.7 0.5 1 0.2 0.2-1.4-0.6-1.2z"/>
		<path id="&lt;Path&gt;" class="s5" d="m97.8 78h-1.1l-1 0.7-0.1 1.1 1.5-0.1 0.8-0.5z"/>
		<path id="&lt;Path&gt;" class="s5" d="m100.3 78.4l-0.9 0.7-0.1 1.4 1.1 0.2c0 0 1.1-0.2 1.1-0.4 0-0.2-0.5-1.6-0.5-1.6z"/>
		<path id="&lt;Path&gt;" class="s6" d="m116.7 64.7h-1.4l-1.1 1.6 0.4 1.5h1.9l0.7-2z"/>
		<path id="&lt;Path&gt;" class="s5" d="m116.5 63.5c0 0.2-0.5 1-0.5 1l0.7 1 0.8-0.3-0.2-1.3z"/>
		<path id="&lt;Path&gt;" class="s5" d="m114.9 64.4l0.4 1.1-0.4 1-0.3 1.3-1-0.2-0.3-1.1 0.3-1.9z"/>
		<path id="&lt;Path&gt;" class="s5" d="m117.3 67.1c0 0-0.8-0.3-0.9-0.1-0.1 0.2-0.5 0.9-0.5 1.1-0.1 0.1-0.4 0.7-0.4 0.7l0.8 0.1c0 0 0.8-0.6 0.9-0.8 0.1-0.3 0.1-1 0.1-1z"/>
		<path id="&lt;Path&gt;" class="s6" d="m81.3 56.5l-1.4 0.6-0.6 2 1 1.5 1.9-0.8v-2.3z"/>
		<path id="&lt;Path&gt;" class="s5" d="m80.7 55.4c0 0.2-0.2 1.2-0.2 1.2l1.1 0.8 0.7-0.7-0.7-1.2z"/>
		<path id="&lt;Path&gt;" class="s5" d="m79.3 57l0.9 0.9-0.1 1.2 0.2 1.5-1.1 0.1-0.7-1-0.4-2.1z"/>
		<path id="&lt;Path&gt;" class="s5" d="m82.9 58.8c0 0-1 0-1 0.2 0 0.3-0.2 1.2-0.2 1.3 0 0.2 0 0.9 0 0.9l0.8-0.1c0 0 0.6-1 0.6-1.3 0-0.2-0.2-1-0.2-1z"/>
		<path id="&lt;Path&gt;" class="s6" d="m88.2 51.5l-1.1 1-0.3 1.6 0.8 1.6 1.5 0.5 1.5-0.7-0.2-2.4-0.5-1.2z"/>
		<path id="&lt;Path&gt;" class="s5" d="m87.2 51l0.8 1.3-0.5 1.6-0.4 0.9-1-0.3-0.5-1.6 0.7-1.3z"/>
		<path id="&lt;Path&gt;" class="s5" d="m89.2 51.1l-0.4 0.9 0.5 0.9 0.7 0.2 0.9-0.1-0.2-1.3-0.9-0.8z"/>
		<path id="&lt;Path&gt;" class="s5" d="m88.1 55.1l-1 0.4-0.5 0.9 0.2 0.9 1.2-0.5 0.5-0.8z"/>
		<path id="&lt;Path&gt;" class="s5" d="m90.3 54.6l-0.6 0.9 0.4 1.2 1-0.2c0 0 0.8-0.5 0.8-0.7-0.1-0.2-0.9-1.2-0.9-1.2z"/>
		<path id="&lt;Path&gt;" class="s6" d="m75.8 52.6l-1.3 0.5-0.4 1.8 0.8 1.3 1.7-0.7v-2z"/>
		<path id="&lt;Path&gt;" class="s5" d="m75.3 51.6c0 0.1-0.2 1.1-0.2 1.1l1 0.7 0.6-0.6-0.6-1.1z"/>
		<path id="&lt;Path&gt;" class="s5" d="m74 53l0.8 0.8v1.1l0.1 1.3-1 0.1-0.6-0.9-0.4-1.8z"/>
		<path id="&lt;Path&gt;" class="s5" d="m77.2 54.6c0 0-0.9 0-0.9 0.2 0 0.2-0.1 1-0.1 1.2 0 0.1-0.1 0.8-0.1 0.8l0.8-0.2c0 0 0.5-0.8 0.5-1.1 0-0.2-0.2-0.9-0.2-0.9z"/>
		<path id="&lt;Path&gt;" class="s6" d="m66.5 50.1l-1 0.8-0.3 1.5 0.8 1.3 1.3 0.5 1.3-0.6-0.1-2.1-0.5-1.1z"/>
		<path id="&lt;Path&gt;" class="s5" d="m66.4 53.3l-0.9 0.3-0.5 0.8 0.3 0.8 1-0.5 0.4-0.6z"/>
		<path id="&lt;Path&gt;" class="s5" d="m68.3 52.8l-0.5 0.8 0.3 1 0.9-0.1c0 0 0.8-0.5 0.7-0.6 0-0.2-0.8-1.1-0.8-1.1z"/>
		<path id="&lt;Path&gt;" class="s6" d="m70.3 57.5h-1.2l-1 1.4 0.3 1.3h1.7l0.6-1.7z"/>
		<path id="&lt;Path&gt;" class="s5" d="m70.2 56.5c-0.1 0.1-0.5 0.8-0.5 0.8l0.6 0.9 0.7-0.3-0.2-1.1z"/>
		<path id="&lt;Path&gt;" class="s5" d="m68.7 57.3l0.4 0.9-0.4 0.9-0.3 1.1-0.8-0.2-0.3-0.9 0.3-1.7z"/>
		<path id="&lt;Path&gt;" class="s5" d="m70.9 59.7c0 0-0.8-0.3-0.8-0.2-0.1 0.2-0.5 0.8-0.5 1-0.1 0.1-0.3 0.6-0.3 0.6l0.7 0.1c0 0 0.7-0.5 0.8-0.7 0.1-0.2 0.1-0.8 0.1-0.8z"/>
		<path id="&lt;Path&gt;" class="s6" d="m74.5 61.5l-1.4 0.6-0.5 2 0.9 1.4 2-0.7v-2.3z"/>
		<path id="&lt;Path&gt;" class="s5" d="m74 60.4c0 0.1-0.2 1.2-0.2 1.2l1.1 0.8 0.6-0.7-0.6-1.2z"/>
		<path id="&lt;Path&gt;" class="s5" d="m72.5 61.9l0.9 0.9v1.3l0.1 1.4-1.1 0.1-0.6-0.9-0.5-2.1z"/>
		<path id="&lt;Path&gt;" class="s5" d="m76.1 63.8c0 0-1 0-1 0.2 0 0.2-0.1 1.1-0.1 1.3 0 0.2-0.1 0.9-0.1 0.9l0.9-0.2c0 0 0.6-0.9 0.6-1.2 0-0.3-0.3-1-0.3-1z"/>
		<path id="&lt;Path&gt;" class="s6" d="m68.4 67l-1.4 0.1-1.1 1.5 0.3 1.5h1.9l0.8-1.9z"/>
		<path id="&lt;Path&gt;" class="s5" d="m68.2 65.9c0 0.1-0.5 1-0.5 1l0.7 1 0.7-0.4-0.1-1.3z"/>
		<path id="&lt;Path&gt;" class="s5" d="m66.5 66.8l0.5 1-0.4 1-0.4 1.3-0.9-0.2-0.3-1 0.3-1.9z"/>
		<path id="&lt;Path&gt;" class="s5" d="m69 69.5c0 0-0.8-0.3-0.9-0.2-0.1 0.2-0.5 1-0.6 1.1 0 0.1-0.3 0.7-0.3 0.7l0.8 0.2c0 0 0.8-0.7 0.9-0.9 0.1-0.2 0.1-0.9 0.1-0.9z"/>
		<path id="&lt;Path&gt;" class="s6" d="m78.8 69l-1.2 0.5-0.4 1.7 0.7 1.2 1.7-0.6v-1.9z"/>
		<path id="&lt;Path&gt;" class="s5" d="m78.3 68.1c0 0.1-0.1 1-0.1 1l0.9 0.7 0.6-0.6-0.6-1z"/>
		<path id="&lt;Path&gt;" class="s5" d="m77.1 69.4l0.8 0.8-0.1 1 0.1 1.2-0.9 0.1-0.5-0.8-0.4-1.7z"/>
		<path id="&lt;Path&gt;" class="s5" d="m80.2 71c0 0-0.9 0-0.9 0.2 0 0.2-0.1 0.9-0.1 1.1 0 0.1-0.1 0.7-0.1 0.7l0.7-0.1c0 0 0.6-0.8 0.6-1.1 0-0.2-0.2-0.8-0.2-0.8z"/>
		<path id="&lt;Path&gt;" class="s6" d="m82.7 75.3l-1.2 0.5-0.4 1.6 0.7 1.3 1.7-0.6v-2z"/>
		<path id="&lt;Path&gt;" class="s5" d="m82.2 74.3c0 0.2-0.1 1.1-0.1 1.1l0.9 0.6 0.6-0.5-0.6-1.1z"/>
		<path id="&lt;Path&gt;" class="s5" d="m81 75.6l0.8 0.8-0.1 1 0.1 1.3-0.9 0.1-0.5-0.8-0.4-1.8z"/>
		<path id="&lt;Path&gt;" class="s5" d="m84.1 77.2c0 0-0.9 0-0.9 0.2 0 0.2-0.1 0.9-0.1 1.1 0 0.1-0.1 0.8-0.1 0.8l0.7-0.2c0 0 0.6-0.8 0.6-1 0-0.3-0.2-0.9-0.2-0.9z"/>
		<path id="&lt;Path&gt;" class="s6" d="m60 54.3l-1.1-0.7-1.4 0.2-1 1.1v1.3l1 1 1.8-0.7 0.8-0.8z"/>
		<path id="&lt;Path&gt;" class="s5" d="m60.1 53.3l-0.8 1-1.4 0.1-0.8-0.2-0.1-0.9 1.1-0.8 1.3 0.2z"/>
		<path id="&lt;Path&gt;" class="s5" d="m60.6 54.9l-0.9-0.1-0.5 0.7v0.6l0.4 0.7 0.9-0.5 0.4-1z"/>
		<path id="&lt;Path&gt;" class="s5" d="m57.1 55.1l-0.6-0.6-0.8-0.2-0.7 0.4 0.7 0.8 0.7 0.2z"/>
		<path id="&lt;Path&gt;" class="s5" d="m58.1 56.7l-0.9-0.2-0.8 0.6 0.4 0.8c0 0 0.6 0.5 0.7 0.4 0.2-0.1 0.8-1 0.8-1z"/>
		<g id="&lt;Group&gt;">
			<path id="&lt;Path&gt;" class="s7" d="m50.6 52.8c0 0.2-0.2 1.3-0.2 1.3l1.1 0.7 0.6-0.6-0.6-1.3z"/>
			<path id="&lt;Path&gt;" class="s7" d="m49.2 54.4l0.9 0.9-0.1 1.2 0.1 1.5-1 0.1-0.7-0.9-0.5-2.1z"/>
			<path id="&lt;Path&gt;" class="s7" d="m52.8 56.3c0 0-1 0-1 0.2 0 0.2-0.2 1.1-0.2 1.3 0 0.1-0.1 0.9-0.1 0.9l0.9-0.2c0 0 0.6-1 0.6-1.2 0-0.3-0.2-1-0.2-1z"/>
		</g>
		<g id="&lt;Group&gt;">
			<path id="&lt;Path&gt;" class="s7" d="m64.5 59.9c-0.1 0.1-1.1 0.6-1.1 0.6l-0.1 1.3 1 0.2 0.6-1.3z"/>
			<path id="&lt;Path&gt;" class="s7" d="m62.4 59.6l-0.2 1.3-1.1 0.6-1.1 1-0.7-0.9 0.4-1.1 1.4-1.5z"/>
			<path id="&lt;Path&gt;" class="s7" d="m62.9 63.6c0 0-0.6-0.8-0.7-0.7-0.2 0.2-1.1 0.5-1.2 0.6-0.1 0.1-0.8 0.5-0.8 0.5l0.6 0.6c0 0 1.2 0 1.4-0.2 0.2-0.2 0.7-0.8 0.7-0.8z"/>
		</g>
		<path id="&lt;Path&gt;" class="s7" d="m55.8 59.8c-0.1 0.2-0.8 1.1-0.8 1.1l0.6 1.3 1-0.3v-1.5z"/>
		<path id="&lt;Path&gt;" class="s7" d="m53.6 60.5l0.4 1.4-0.7 1.1-0.7 1.5-1-0.5-0.2-1.3 0.7-2.2z"/>
		<path id="&lt;Path&gt;" class="s7" d="m56.1 64.2c0 0-1-0.5-1.1-0.3-0.1 0.2-0.8 1-0.9 1.1-0.1 0.2-0.5 0.9-0.5 0.9l0.9 0.2c0 0 1.1-0.5 1.2-0.8 0.2-0.3 0.4-1.1 0.4-1.1z"/>
		<path id="&lt;Path&gt;" class="s7" d="m47.5 59.8l-1.3 0.4-0.9 1.2 1 0.8 1.6 0.2 0.2-1.9z"/>
		<path id="&lt;Path&gt;" class="s7" d="m48.7 66.3l-0.4 0.7 0.9 1.1c0 0 0.6-0.7 0.7-0.9 0-0.2-0.1-1.2-0.1-1.2z"/>
		<path id="&lt;Path&gt;" class="s7" d="m56.8 72.5l-0.9 1.4c0 0 0.9 0.9 1.1 0.9 0.2 0 0.9-0.8 0.9-1 0-0.2 0.1-1.1 0.1-1.1z"/>
		<path id="&lt;Path&gt;" class="s7" d="m49.4 71.7l-0.8 1 1 1.2c0 0 1.3-0.6 1.3-0.8 0-0.2 0-1.3 0-1.3z"/>
		<path id="&lt;Path&gt;" class="s7" d="m44.5 68.6l-2.3 1.4-0.5-1.1 0.1-2.1 1.6-0.5 0.9 0.7z"/>
		<path id="&lt;Path&gt;" class="s7" d="m47 69.4l-0.2 0.9c0 0 1.6 0.6 1.7 0.4 0.1-0.2 0-1.4 0-1.4l-0.8-0.4z"/>
		<path id="&lt;Path&gt;" class="s7" d="m43.6 72.2l-1.3 0.8 0.8 0.9 1.1-0.5 0.2-0.9z"/>
		<path id="&lt;Path&gt;" class="s7" d="m39.4 74.2c0 0-0.6 0.8-0.3 1.1 0.3 0.2 1.4 0.6 1.4 0.6 0 0 0.4-1.4 0.4-1.6 0-0.2-0.2-0.7-0.2-0.7z"/>
		<path id="&lt;Path&gt;" class="s7" d="m55.5 80.7l0.1 1.4 1.3 0.4 0.9-1.2-0.6-0.9z"/>
		<path id="&lt;Path&gt;" class="s7" d="m64.2 77.9c0 0-1.3 1.5-1.2 1.7 0.1 0.2 1.4 1.4 1.4 1.4l0.9-0.8 0.4-1.4-0.8-0.8z"/>
		<path id="&lt;Path&gt;" class="s7" d="m60.7 83.3l-1.3-0.5-0.6 1.2 1 1.4c0 0 1.4-0.1 1.4-0.2 0-0.2 0.1-1.7 0.1-1.7z"/>
		<path id="&lt;Path&gt;" class="s7" d="m60.5 81.7l0.2 0.7c0 0 1.2 0.4 1.3 0.1 0-0.3 0.6-1.4 0.6-1.4l-0.9-0.9z"/>
		<path id="&lt;Path&gt;" class="s7" d="m58.7 79l0.8 0.8c0 0 0.8-0.5 0.8-0.7 0-0.2 0.1-1.3 0.1-1.3l-1.1-0.1z"/>
		<path id="&lt;Path&gt;" class="s7" d="m66.1 84.7l-1.1 0.8 1.1 0.8c0 0 1.8 0.3 1.8 0.1 0-0.2-0.7-1.9-0.7-1.9z"/>
		<path id="&lt;Path&gt;" class="s7" d="m60.5 88.2l-0.5 1.2 0.6 0.8c0 0 1.4-0.4 1.4-0.6 0-0.3-0.5-1.5-0.5-1.5z"/>
		<path id="&lt;Path&gt;" class="s7" d="m70.5 75l-0.4 1.5 1.3 0.9 0.6-0.8 0.2-1.3z"/>
		<path id="&lt;Path&gt;" class="s7" d="m58.4 68.1l0.2 1.2c0 0 1.2 0.1 1.3-0.1 0.2-0.2 0.3-1 0.3-1l-0.5-1-0.9 0.2z"/>
		<path id="&lt;Path&gt;" class="s7" d="m48 81.7l-1.2 1.4c0 0 0.5 0.8 0.7 0.9 0.2 0.1 2.2 0.7 2.3 0.3 0.1-0.4 0.5-2.3 0.5-2.3z"/>
		<path id="&lt;Path&gt;" class="s7" d="m50 78.9l0.3 1.1c0 0 0.8-0.3 0.9-0.5 0-0.2 0.3-1.2 0.3-1.2l-1-0.6z"/>
		<path id="&lt;Path&gt;" class="s7" d="m45.8 77.5c0 0-0.7 0.9-0.5 0.9 0.2 0 1.7-0.1 1.7-0.1l0.2-1.1-0.6-0.3z"/>
		<path id="&lt;Path&gt;" class="s7" d="m121.5 59l-1.2 1.1 0.9 1.2 1.3-0.6-0.1-1.6z"/>
		<path id="&lt;Path&gt;" class="s7" d="m125 55l-0.8 2 1.5 0.9c0 0 1.1-1.4 1.1-1.6 0-0.3-0.3-2.4-0.3-2.4z"/>
		<path id="&lt;Path&gt;" class="s7" d="m125.7 62.7l-2.1 1.5 0.5 2 2.8 1c0 0 1-1.2 1-1.5 0-0.3-0.2-2.3-0.2-2.3z"/>
		<path id="&lt;Path&gt;" class="s7" d="m129.1 60.7v1.5l1.3 0.1c0 0 0.8-0.6 0.8-0.9 0-0.2-0.8-1.8-0.8-1.8z"/>
		<path id="&lt;Path&gt;" class="s7" d="m125.5 59.5l-0.1 1.3 1.6 0.1 0.1-1.3-0.5-0.6z"/>
		<path id="&lt;Path&gt;" class="s7" d="m120.8 67.9v1.4l1.6 0.7c0 0 0.6-0.8 0.6-1.2 0-0.4-0.6-1.7-0.6-1.7z"/>
		<path id="&lt;Path&gt;" class="s7" d="m131.7 72.3l-0.8 2.3 1 0.4c0 0 1 0.1 1-0.2 0-0.4 0.1-2.4 0.1-2.4z"/>
		<path id="&lt;Path&gt;" class="s7" d="m127.8 71.2c0 0-0.4 0.8-0.1 1.1 0.2 0.2 1.6 1.1 1.7 0.7 0.1-0.5 0.3-1.5 0.3-1.5l-0.6-1.3z"/>
		<path id="&lt;Path&gt;" class="s7" d="m132.1 69.2c0 0-0.6 1-0.3 1.1 0.4 0.1 1.7 0.4 1.7 0.4l0.4-1.5-0.8-1.3z"/>
		<path id="&lt;Path&gt;" class="s7" d="m130.2 66.2l-1 1.1 0.9 0.8c0 0 1.3 0 1.3-0.5 0-0.5 0.2-1.8 0.2-1.8z"/>
		<path id="&lt;Path&gt;" class="s7" d="m137.5 64.3l-0.6 1.7 1.2 0.5 0.8-0.7-0.1-1.3z"/>
		<path id="&lt;Path&gt;" class="s7" d="m139.6 71.1c-0.3 0-2.4 0.7-2.4 0.7l-0.1 1.7c0 0 0.9 0.6 1.2 0.6 0.4 0 1.9-0.3 1.9-0.7 0-0.4 0-1.5 0-1.5z"/>
		<path id="&lt;Path&gt;" class="s7" d="m135.8 75.8l0.7 0.9c0 0 1.2 0.3 1.2-0.1 0-0.4 0-1.5 0-1.5l-1.3-0.7z"/>
		<path id="&lt;Path&gt;" class="s7" d="m127.9 80.8c-0.3 0.2-1.2 2.2-1 2.3 0.3 0.1 1 0.6 1 0.6l1.3-0.3 0.2-2.2z"/>
		<path id="&lt;Path&gt;" class="s7" d="m133 82c0 0-0.6 1.3-0.5 1.5 0.2 0.3 1.4 1.2 1.4 1.2 0 0 0.6-0.3 0.7-0.6 0.1-0.4 0-2 0-2z"/>
		<path id="&lt;Path&gt;" class="s7" d="m109.8 73.7l0.3 1.7 2.2 0.6 0.4-1.7-0.9-1.3z"/>
		<path id="&lt;Path&gt;" class="s7" d="m115.5 72.4l-0.5 1.1 0.9 0.2 0.6-1.1-0.2-0.7z"/>
		<path id="&lt;Path&gt;" class="s7" d="m118 73.9c0 0 0 0.8 0.3 1.1 0.2 0.2 1.8 1.3 1.9 0.8 0-0.5 0.4-2 0.2-2.2-0.2-0.3-1.7-1.6-2-1.4-0.2 0.2-0.4 1.7-0.4 1.7z"/>
		<path id="&lt;Path&gt;" class="s7" d="m122.2 73.4l-0.3 1c0 0 0.9 0.3 1.2 0.2 0.3-0.1 1.4-0.9 1.3-1.1-0.1-0.3-0.5-0.8-0.5-0.8z"/>
		<path id="&lt;Path&gt;" class="s7" d="m114.1 77l-0.1 1.1c0 0 0.6 0.3 1 0.1 0.3-0.3 1.3-1.2 1.3-1.2l-0.5-0.7z"/>
		<path id="&lt;Path&gt;" class="s7" d="m108 78.3c0 0-0.3 1 0 1 0.4 0 1.8 0.8 1.9 0.2 0.2-0.5 0.5-1.4 0.5-1.4l-1.3-0.9z"/>
		<path id="&lt;Path&gt;" class="s7" d="m36.5 80c0 0 0.4 1.9 0.7 1.6 0.2-0.2 0.8-1.3 0.8-1.3l-0.6-1.3z"/>
		<path id="&lt;Path&gt;" class="s7" d="m38.5 82.1l-1.1 1.1 0.8 0.9c0 0 0.8 0.1 0.8-0.1 0-0.3 0.3-1.3 0.3-1.3z"/>
		<path id="&lt;Path&gt;" class="s7" d="m37.4 87.1c0 0-1.4 0.3-1.4 0.6 0 0.2 0.4 1 0.4 1 0 0 0.5 0.4 0.9 0.2 0.3-0.2 0.6-1.1 0.6-1.1z"/>
		<path id="&lt;Path&gt;" class="s7" d="m33.6 89.6c0 0-0.3 0.8 0.1 1.1 0.5 0.4 1.5 0.6 1.6 0.2 0.1-0.4 0.2-1.6 0.2-1.6l-0.6-0.8z"/>
		<path id="&lt;Path&gt;" class="s7" d="m29.5 93.3l-0.1 1.3 1 0.4 0.9-1.6c0 0-0.3-0.8-0.5-0.8-0.3 0-1.3 0.7-1.3 0.7z"/>
		<path id="&lt;Path&gt;" class="s7" d="m21.9 94.5c0 0-1.3 1.3-0.5 1.7 0.9 0.3 2.5 1.1 2.5 0.8 0-0.4 0.3-2 0.3-2l-0.8-0.7z"/>
		<path id="&lt;Path&gt;" class="s7" d="m14 84.8c0 0 0.2 1.3 0.5 1.3 0.3 0 0.9-0.1 0.9-0.1l0.5-0.8v-1.8c0 0-0.9 0-1.1 0-0.3 0.1-0.6 0.4-0.6 0.7 0 0.4-0.2 0.7-0.2 0.7z"/>
		<path id="&lt;Path&gt;" class="s7" d="m51.6 90.2c0 0-0.2 1.6 0.1 1.7 0.2 0.1 0.9 0.2 0.9 0.2l0.7-1.2-0.9-1.2z"/>
		<path id="&lt;Path&gt;" class="s7" d="m46.6 89.9c0 0-1.2 1.9-0.5 2.1 0.7 0.3 1 0.5 1.7 0.5 0.6 0 1.7-0.5 1.7-0.8 0-0.4-0.1-2-0.4-2-0.2 0-2.5 0.2-2.5 0.2z"/>
		<path id="&lt;Path&gt;" class="s7" d="m50.4 87.3c0 0 0.3 1.5 0.6 1.4 0.4-0.1 1.2-0.2 1.3-0.5 0-0.3 0.8-1.1 0.4-1.3-0.4-0.2-0.8-0.8-1.3-0.7-0.5 0.1-1 1.1-1 1.1z"/>
		<path id="&lt;Path&gt;" class="s7" d="m47.9 98c0 0 0.8 1 1.1 0.9 0.2 0 0.5-0.5 0.5-0.8 0-0.4-0.1-1.3-0.4-1.3-0.2 0-0.7 0-0.7 0z"/>
		<path id="&lt;Path&gt;" class="s7" d="m53.7 94.2c0 0-0.2 1.4 0 1.4 0.3 0 0.8-0.1 0.8-0.1l0.7-0.6-0.4-1z"/>
		<path id="&lt;Path&gt;" class="s7" d="m59.7 93.1c0 0-0.2 1.3 0.1 1.4 0.3 0.1 0.7 0.5 0.9 0.4 0.3-0.1 0.8-1 0.8-1l-0.3-1.4z"/>
		<path id="&lt;Path&gt;" class="s7" d="m88.5 81.5l-0.5 1.9 1.8 0.7c0 0 1.3-0.9 1.3-1.3 0-0.5-1.3-2-1.3-2z"/>
		<path id="&lt;Path&gt;" class="s7" d="m84.6 81.1c0 0-0.8 0.7-0.3 0.9 0.5 0.1 1.6 0.4 1.6 0.4l-0.1-1.4-0.5-0.5z"/>
		<path id="&lt;Path&gt;" class="s7" d="m85.5 70.9c0 0-0.8 0.9-0.2 1.1 0.6 0.2 1.8 0.3 1.8 0.3l0.3-1.9-1.2-0.6z"/>
		<path id="&lt;Path&gt;" class="s7" d="m95.1 84.7c0 0-0.3 1.3 0.7 1.1 1.1-0.2 2-0.6 1.8-1-0.1-0.3-0.1-1.4-0.7-1.4-0.6 0-1.8 1.3-1.8 1.3z"/>
		<path id="&lt;Path&gt;" class="s7" d="m88.5 74.4c0 0 0.2 1.6 0.6 1.7 0.3 0.1 1.8 0.4 1.8 0.2 0-0.3-0.3-2.2-0.3-2.2l-0.3-0.4z"/>
		<path id="&lt;Path&gt;" class="s7" d="m133.3 57.5c0 0-0.6 1.8-0.1 1.9 0.6 0.1 1.5 0.6 1.9 0.3 0.3-0.2 0.4-1.2 0.4-1.5 0-0.2-0.4-1.2-0.7-1.1-0.4 0.1-1.5 0.4-1.5 0.4z"/>
		<path id="&lt;Path&gt;" class="s7" d="m154.2 32.2l-0.4 0.8c0 0 0.6 0.7 0.8 0.5 0.3-0.3 0.5-0.6 0.5-0.6l-0.2-0.7z"/>
		<path id="&lt;Path&gt;" class="s7" d="m149.7 34.1l-0.8 0.8c0 0 0.8 0.4 1 0.3 0.3-0.1 0.9-0.6 0.9-0.6l0.1-1z"/>
		<path id="&lt;Path&gt;" class="s7" d="m151.9 36.1c0 0-0.9 0.1-0.8 0.4 0.1 0.3 0.1 0.4 0.6 0.4 0.4 0 0.7-0.4 0.7-0.4z"/>
		<path id="&lt;Path&gt;" class="s7" d="m148.1 37.8l0.3 0.6 0.6-0.2v-1z"/>
		<path id="&lt;Path&gt;" class="s7" d="m143.3 41c0 0-0.1 1.5 0.3 1.4 0.5-0.1 1.2-0.7 1.2-1 0.1-0.2 0.2-1.1 0.2-1.1z"/>
		<path id="&lt;Path&gt;" class="s7" d="m144.5 44c0 0 0.3 0.7 0.7 0.8 0.4 0.1 0.7-0.7 0.7-0.7l-0.4-1.4z"/>
		<path id="&lt;Path&gt;" class="s7" d="m143.1 37l0.4 1 0.9-0.5-0.3-1.2z"/>
		<path id="&lt;Path&gt;" class="s7" d="m138.9 34.3l-1.3 1.7 1 1.3c0 0 1-0.6 1-1 0.1-0.3 0.1-1.9 0.1-1.9z"/>
		<path id="&lt;Path&gt;" class="s7" d="m136.1 39.4c0 0-0.7 1.3 0 1.3 0.7 0 1.5-0.1 1.5-0.5 0-0.3-0.2-1.7-0.2-1.7z"/>
		<path id="&lt;Path&gt;" class="s7" d="m132.5 35.5c0 0-0.7 1.2-0.1 1.2 0.5 0 1.1-0.3 1.1-0.3l0.3-1.1-0.5-0.4z"/>
		<path id="&lt;Path&gt;" class="s7" d="m138.9 52.4c0 0 0.1 1.5 0.5 1.5 0.3 0 1.4-0.3 1.5-0.7 0-0.3 0.5-1.4 0.1-1.5-0.3-0.2-1.1-0.5-1.1-0.5z"/>
		<path id="&lt;Path&gt;" class="s7" d="m137.1 47.1c0.1 0.3 1.1 0.6 1.1 0.6l0.4-1-0.5-1.3c0 0-1-0.6-1.1-0.1-0.2 0.6 0.1 1.8 0.1 1.8z"/>
		<path id="&lt;Path&gt;" class="s7" d="m140.8 40.6c0 0-1.1 0.6-1.2 0.9 0 0.4 0.8 1.2 0.8 1.2 0 0 0.5 0 0.7-0.2 0.3-0.3 0.7-1.4 0.7-1.4z"/>
		<path id="&lt;Path&gt;" class="s7" d="m132.8 78.1c0 0-0.2 1.3 0.1 1.3 0.2 0 0.8-0.2 0.8-0.2l0.7-0.9-0.6-0.9z"/>
		<path id="&lt;Path&gt;" class="s7" d="m126.3 76.8l0.7 1c0 0 0.8-0.2 0.9-0.5 0-0.3-0.2-1.8-0.2-1.8 0 0-0.7-0.3-1-0.2-0.2 0.1-0.4 1.5-0.4 1.5z"/>
		<path id="&lt;Path&gt;" class="s7" d="m132.2 87.6l-1 1.1c0 0 1.1 1.4 1.5 1.3 0.4-0.1 0.9-0.4 0.9-0.8 0-0.3-0.2-1.5-0.2-1.5z"/>
		<path id="&lt;Path&gt;" class="s7" d="m127.1 87.4c0 0-0.6 0.8-0.4 1.2 0.1 0.3 0.7 0.6 0.9 0.3 0.2-0.3 0-1.4 0-1.4z"/>
		<path id="&lt;Path&gt;" class="s7" d="m107.2 84.1c0 0-0.8 1.6-0.3 1.6 0.5 0 1 0.1 1.3-0.2 0.3-0.2 0.6-1.1 0.5-1.4-0.1-0.2-0.3-0.7-0.3-0.7z"/>
		<path id="&lt;Path&gt;" class="s7" d="m105.3 74.6c0 0-0.9 1.3-0.6 1.6 0.2 0.2 2.2 0.4 2.2 0.4l0.5-1.6-0.5-1.2z"/>
		<path id="&lt;Path&gt;" class="s7" d="m135.1 88.1c0 0 0.1 1.7 0.5 1.5 0.3-0.2 0.8-0.5 0.8-0.8 0-0.2-0.7-1.5-0.7-1.5z"/>
		<path id="&lt;Path&gt;" class="s7" d="m134.7 92.9c0 0 0.6 1.1 0.8 0.7 0.2-0.5 0.5-1 0.5-1l-0.6-0.9z"/>
		<path id="&lt;Path&gt;" class="s7" d="m130.1 95.7c0 0-1.4 0.5-1.4 0.8 0 0.4 0.1 1.2 0.6 1.2 0.4 0 1.1-0.5 1.1-0.5z"/>
		<path id="&lt;Path&gt;" class="s7" d="m128.6 92.4c0 0-0.2 1 0.1 1 0.4 0 0.6 0.3 0.8 0 0.2-0.3 0.4-0.9 0.4-0.9l-0.5-0.7z"/>
		<path id="&lt;Path&gt;" class="s7" d="m133.8 102.8l-0.9 1.3 1 0.4 0.6-0.7-0.1-1z"/>
		<path id="&lt;Path&gt;" class="s7" d="m133.1 99.3l0.3 0.9 0.6-0.2 0.4-1.1-0.7-0.6z"/>
		<path id="&lt;Path&gt;" class="s7" d="m130.2 108.9c0 0-1.1 0.9-1.1 1.1 0 0.3 0.2 0.8 0.9 0.7 0.7-0.1 1.7-0.4 1.7-0.7 0-0.2-0.7-1.2-0.7-1.2z"/>
		<path id="&lt;Path&gt;" class="s7" d="m129.9 53.7c0 0-1.9 2-1.4 2.1 0.4 0.1 1.2 0.7 1.5 0.6 0.4-0.1 1.8-1.6 1.8-1.6l-0.8-1.4z"/>
		<path id="&lt;Path&gt;" class="s7" d="m117.3 60.8c0 0 0.2 2.1 0.6 1.9 0.4-0.1 0.9-0.2 1-0.6 0-0.5 0.7-1.7 0.1-1.8-0.6-0.1-1.7 0.5-1.7 0.5z"/>
		<path id="&lt;Path&gt;" class="s7" d="m125 49c0 0 0.1 1.8 0.4 1.7 0.4-0.1 1.4-0.5 1.4-0.5 0 0 0.5-1.4 0.2-1.5-0.3-0.1-1.3-0.8-1.3-0.8z"/>
		<path id="&lt;Path&gt;" class="s7" d="m131.8 50c0 0-0.2 1.1 0 1.2 0.3 0.1 1.4 0.2 1.4 0.2l0.3-1.6-0.7-0.8z"/>
		<path id="&lt;Path&gt;" class="s7" d="m129.9 47.6l0.1 0.8 0.9-0.3 0.2-1-0.6-0.5z"/>
		<path id="&lt;Path&gt;" class="s7" d="m133.4 45.3l0.8 1.3c0 0 1.1 0 1.1-0.4 0-0.3-0.2-1.8-0.2-1.8l-1.1-0.6z"/>
		<path id="&lt;Path&gt;" class="s7" d="m125.2 44.4l0.6 0.9c0 0 0.8-0.1 0.8-0.4 0-0.3-0.5-1.9-0.5-1.9l-1.1-0.2z"/>
		<path id="&lt;Path&gt;" class="s7" d="m128.6 42.6c0 0-0.5 1.1-0.1 1.1 0.3 0 1.3 0.2 1.3 0.2l0.1-0.7-0.1-1z"/>
		<path id="&lt;Path&gt;" class="s7" d="m122.2 45.6c0 0 0 0.8 0.2 1 0.2 0.3 0.5 1.2 1 0.6 0.4-0.5 0.7-1.4 0.7-1.7 0.1-0.2-0.8-1.5-0.8-1.5z"/>
		<path id="&lt;Path&gt;" class="s7" d="m140.1 59.4l0.8 0.8c0 0 1.5-0.4 1.3-0.8-0.3-0.5-1.9-2-1.9-2z"/>
		<path id="&lt;Path&gt;" class="s7" d="m143.2 54.5l-0.1 0.7 1 0.1 0.1-0.9-0.2-0.4z"/>
		<path id="&lt;Path&gt;" class="s7" d="m143.5 49.2c0 0-0.6 0.7-0.2 0.8 0.3 0.1 0.8 0.1 0.8 0.1l0.3-1.5-0.2-0.2z"/>
		<path id="&lt;Path&gt;" class="s7" d="m128.3 36.9l0.3 1.3 0.6-0.4 0.2-1.3z"/>
		<path id="&lt;Path&gt;" class="s7" d="m131.3 38.9l-0.6 1 1.1 0.5 0.5-1-0.2-1.1z"/>
		<path id="&lt;Path&gt;" class="s7" d="m125.7 38.7c0 0-1 0.8-0.3 1 0.6 0.2 1.7 0.6 1.8 0.3 0.1-0.4 0.1-1.6 0.1-1.6z"/>
		<path id="&lt;Path&gt;" class="s7" d="m132.9 30.8c0 0-0.3 1 0 1.1 0.2 0.1 1.4 0.5 1.5 0 0.2-0.5 0.7-1.5 0.5-1.7-0.2-0.3-1.8-1.1-1.8-1.1z"/>
		<path id="&lt;Path&gt;" class="s7" d="m148.3 25.1l0.8 0.7c0 0 0.6-0.6 0.5-0.9-0.1-0.3-1-0.9-1-0.9z"/>
		<path id="&lt;Path&gt;" class="s7" d="m146.2 24.9c0 0 0.1 0.6 0.4 0.6 0.2 0 0.6-0.3 0.6-0.3l-0.1-0.6z"/>
		<path id="&lt;Path&gt;" class="s7" d="m147.3 28.4c0 0 0.7 1 0.9 0.7 0.2-0.2 0.4-1 0.4-1 0 0-0.2-0.5-0.5-0.5-0.2 0-0.8 0.8-0.8 0.8z"/>
		<path id="&lt;Path&gt;" class="s7" d="m141.5 28.1c0 0-0.4 1.3 0 1.2 0.3-0.1 0.7-0.6 0.7-0.6 0 0 0.6-1.2 0.3-1.2-0.3 0-1 0.6-1 0.6z"/>
		<path id="&lt;Path&gt;" class="s7" d="m138.9 27.5c0 0-1 0.6-0.3 0.8 0.7 0.2 1.6 0.5 1.6 0.2 0.1-0.2 0.3-1.2 0.3-1.2z"/>
		<path id="&lt;Path&gt;" class="s7" d="m139 30.1l0.1 1.1 1 0.1 0.3-1.6z"/>
		<path id="&lt;Path&gt;" class="s7" d="m143.5 32.7v0.9c0 0 0.9 0 0.9-0.3 0-0.3 0-1.3 0-1.3z"/>
		<path id="&lt;Path&gt;" class="s7" d="m135.4 24c0 0 0 1.3 0.3 1.3 0.4 0 1.2 0 1.2-0.5 0-0.5-0.2-2.1-0.5-2.1-0.2 0-1.3 0.1-1.3 0.6 0 0.4 0.3 0.7 0.3 0.7z"/>
		<path id="&lt;Path&gt;" class="s7" d="m132.7 26.5c0 0-0.9 0-0.9 0.3 0 0.3 0.6 0.9 0.6 0.9l0.7-0.4 0.2-0.8z"/>
		<path id="&lt;Path&gt;" class="s7" d="m129.8 30.8c0 0-1.5 0.8-1.5 1 0 0.3 0.5 1.1 0.9 1.2 0.5 0 1.5 0 1.5 0l0.3-1.6z"/>
		<path id="&lt;Path&gt;" class="s7" d="m39.3 86.2l-0.6 0.5c0 0 0 0.8 0.1 1l0.3-0.4z"/>
		<path id="&lt;Path&gt;" class="s7" d="m40.2 79.8c0 0-0.8 1-0.3 1.5 0.2 0.2 0.4 0.6 0.6 0.8l0.7-2.4z"/>
		<path id="&lt;Path&gt;" class="s7" d="m34.5 87.4c0 0 0.5-0.5 0.8-0.6 0.2-0.1 0-1.2 0-1.2l-0.8-0.8-0.8 2.5c0.3 0.2 0.8 0.1 0.8 0.1z"/>
		<path id="&lt;Path&gt;" class="s7" d="m20.9 93.2l-0.6-0.2-1.8-1.6q-0.3 0.1-0.4 0.2c-0.2 0.2-0.6 0.9-0.6 1.2 0 0.3 1.7 1 2 1.2 0.3 0.2 1.1-0.5 1.4-0.8z"/>
		<path id="&lt;Path&gt;" class="s7" d="m16.7 89.9v-0.4c-0.2 0.1-0.4 0.3-0.4 0.4 0.1 0.5 0.5 0.8 0.5 0.8h0.8z"/>
		<path id="&lt;Path&gt;" class="s7" d="m26.5 93.9l-0.2-0.1-1.1 0.4h-0.2l-0.2 0.3c0 0-0.3 0.8 0.1 0.9 0.3 0.1 0.9 0 0.9 0z"/>
		<path id="&lt;Path&gt;" class="s6" d="m73.1 49.9l-2.4 0.1-0.2 0.3 0.3 1.3h1.7z"/>
		<path id="&lt;Path&gt;" class="s5" d="m69.8 50l-0.1 0.5 0.3 0.9 0.8 0.2 0.3-1.1 0.2-0.5z"/>
		<path id="&lt;Path&gt;" class="s5" d="m68.1 51.5l0.8-0.2-0.2-1-0.4-0.4h-1l-0.3 0.6 0.5 0.8z"/>
		<path id="&lt;Path&gt;" class="s5" d="m73.3 51c0 0-0.8-0.2-0.9-0.1 0 0.2-0.4 0.8-0.4 1-0.1 0.1-0.3 0.6-0.3 0.6l0.7 0.1c0 0 0.7-0.5 0.8-0.7 0-0.2 0.1-0.9 0.1-0.9z"/>
		<path id="&lt;Path&gt;" class="s5" d="m64.8 50.1l-0.7 1.2 0.5 1.4 0.9 0.3 0.4-0.8 0.4-1.5-0.7-1h-0.2z"/>
		<path id="&lt;Path&gt;" class="s6" d="m81 53.5l1.6-0.1 0.7-2.2v-1.3l-0.3-0.2h-2.7l-0.7 1.1 0.2 1.7z"/>
		<path id="&lt;Path&gt;" class="s5" d="m82.4 50.6l0.5 0.4 0.9 0.2 0.3-1.2-0.2-0.3h-1.7z"/>
		<path id="&lt;Path&gt;" class="s5" d="m81.3 49.7l-2.5 0.1v1l0.8 0.7 0.8-0.6z"/>
		<path id="&lt;Path&gt;" class="s5" d="m80.4 52.2h-1l-0.8 0.6-0.2 0.9h1.3l0.8-0.5z"/>
		<path id="&lt;Path&gt;" class="s5" d="m82.7 52.5l-0.9 0.6-0.1 1.3 1 0.1c0 0 1-0.1 1-0.3 0-0.2-0.4-1.5-0.4-1.5z"/>
		<path id="&lt;Path&gt;" class="s6" d="m96.1 52.5l1.5-0.7-0.2-2.3-0.1-0.3-3.3 0.1-0.2 1.1 0.8 1.6z"/>
		<path id="&lt;Path&gt;" class="s5" d="m96.3 49.3l0.7 0.2 0.9-0.2v-0.1h-1.6z"/>
		<path id="&lt;Path&gt;" class="s5" d="m94.8 49.3l-2.2 0.1 0.5 1.4 1 0.3 0.5-0.8z"/>
		<path id="&lt;Path&gt;" class="s5" d="m95.1 51.5l-1 0.3-0.5 0.9 0.2 1 1.2-0.6 0.5-0.7z"/>
		<path id="&lt;Path&gt;" class="s5" d="m97.3 50.9l-0.6 0.9 0.4 1.2 1-0.2c0 0 0.8-0.5 0.8-0.7-0.1-0.1-0.9-1.2-0.9-1.2z"/>
		<path id="&lt;Path&gt;" class="s6" d="m100 49.1l0.1 0.5h1.9l0.4-1.2z"/>
		<path id="&lt;Path&gt;" class="s5" d="m100 49.1h-0.9v0.3l1 0.2 0.1-0.6z"/>
		<path id="&lt;Path&gt;" class="s5" d="m102.9 48.9c0 0-0.9-0.3-1-0.1 0 0.2-0.5 0.9-0.5 1.1-0.1 0.1-0.3 0.7-0.3 0.7l0.7 0.1c0 0 0.9-0.6 0.9-0.8 0.1-0.3 0.2-1 0.2-1z"/>
		<path id="&lt;Path&gt;" class="s5" d="m109.6 50.4l0.4-0.9 0.5-1.6-0.8-1.1h-0.4l-0.5 0.4-0.8 1.3 0.5 1.6z"/>
		<path id="&lt;Path&gt;" class="s6" d="m116.1 46l-0.9 1.3 0.3 1.6 2-0.1 0.7-1.9-0.5-1.2h-0.1l-0.2 0.2z"/>
		<path id="&lt;Path&gt;" class="s5" d="m117.2 45.9l0.5 0.7 0.8-0.4-0.2-0.8-0.9 0.5z"/>
		<path id="&lt;Path&gt;" class="s5" d="m115.5 48.9l0.4-1.3 0.4-1.1-0.2-0.5-1.6 0.2-0.2 1.4 0.3 1z"/>
		<path id="&lt;Path&gt;" class="s5" d="m118.3 48.2c0 0-0.8-0.3-0.9-0.1-0.1 0.2-0.5 0.9-0.5 1-0.1 0.2-0.4 0.8-0.4 0.8l0.8 0.1c0 0 0.8-0.6 0.9-0.9 0.1-0.2 0.1-0.9 0.1-0.9z"/>
	</g>
</svg>