<svg version="1.2" xmlns="http://www.w3.org/2000/svg" viewBox="0 0 450 450" width="500" height="500">
	<title>kangaroo</title>
	<style>
		.s0 { fill: #762806 } 
		.s1 { fill: #4d2300 } 
		.s2 { fill: #93480f } 
		.s3 { fill: #b87623 } 
		.s4 { fill: #9e5913 } 
		.s5 { fill: #e69a39 } 
		.s6 { fill: #000000 } 
		.s7 { fill: #83380a } 
	</style>
	<g id="&lt;Group&gt;">
		<path id="&lt;Path&gt;" class="s0" d="m449.1 374.1c-0.5-5.8-56.9-1.3-101.4-10.6-35.4-7.4-57.2-13.2-72.3-25.1 0 0-3.6 5.9-5.7 7.7 0 0-7.5 7.9-11.6 14 21.4 12.8 46.8 16 77.5 17 39.3 1.2 114 2.8 113.5-3z"/>
		<path id="&lt;Path&gt;" class="s1" d="m74.3 369.3c5.7-8.8 17.8-11 36.9-11.8 19.1-0.9 42.3-0.5 50.2-1.4 5.3 10 9.7 13.2 0 16.2-9.8 3-77.8 6.3-87.1-3z"/>
		<path id="&lt;Path&gt;" class="s2" d="m166.7 365.9c-0.8-2.3-3-5.4-5.3-9.8-7.9 0.9-31.1 0.5-50.2 1.4q-1.4 0-2.7 0.1c0 0 0.7 10.1 20.7 15.2 3.7 1 7.3 1.6 10.7 1.9 8.3-0.4 15.2-1.1 19.1-1.9 3.9-1.5 6.6-3.9 7.7-6.9z"/>
		<path id="&lt;Path&gt;" class="s2" d="m190.8 312.4c-2 8.8 1.7 26.7 4.9 41.6-21.5 14.3-25-24.3-21.1-35.3 4-10.9 16.2-6.3 16.2-6.3z"/>
		<path id="&lt;Path&gt;" class="s0" d="m195.7 354c-0.6-3.1-1.3-6.2-1.9-9.4-2.6 4.1-6.7 6.5-10.9 7.4 0 0-4.5 6.2-5.5 11.8 1.8 3.5 4.2 5.6 7.4 5.5 13.4-0.3 14.2-0.4 10.9-15.3z"/>
		<path id="&lt;Path&gt;" class="s3" d="m138 278.9c3.2 17.7 8.7 28.3 15.3 48.3 6.3 19.1 9.7 34.7 9.5 38.6q0 0.3-0.1 0.5c0 0 15.6 6.9 16.2 0 0.7-6.9-16.6-58.4 8.4-62.4 25.1-4.1 56-7.1 47.2-39.7-8.8-32.5-18.1-52.4-48.6-71.8-30.4-19.4-76.7-37.5-90.3-51.3-13.6-13.8-24.1-8.1-32.2 6.8-8 14.8 11.2 60.4 26 77.2 14.8 16.9 41.4 42.2 41.4 42.2z"/>
		<path id="&lt;Path&gt;" class="s4" d="m278.5 340.7c-5.2-3.6-9.7-7.9-13.6-12.9-15.1-19.7-22.9-59.9-39.2-101.4-16.4-41.5-85-62.3-96.6-67.3-11.5-4.9-17.7-13-24.3-19.8-5.4-5.5-5.5-12.4-6.3-22-26.2-5-40.8 2.2-40.8 2.2 0.3 3.5 0.8 7.3 1.6 11.6 2.8 13.6-3.2 16.5-6.2 26.8-3 10.2-1 26.9 5.9 52.5 7 25.6 9.5 37.6 11.3 54.4q0.4 3.7 0.8 6.5c6.8 3.3 9.4 1.1 9.4 1.1-1.1-3.3-1.5-7-1.3-10 0.5-6.1-0.5-29.3-1.3-45.7 0 0-14.4-67.2-7-71.7 7.5-4.4 18.7-5.4 24.6 3.3 5.9 8.7 6.5 15.4 8.5 25l-1.2 73.7c12.5 13.2 25.6 25 35.2 31.9-3.2-17.7-6.8-39.1 10.6-49.8 13.2-8.1 29.4-6.2 29.4-6.2 0 0-3.4-7-17.3-6.5-13.8 0.6-22.6 7.5-27.3 16.4-4.7 8.8-5.9 13.8-6.3 18.6-0.5 4.9-1.9 5.7-5.6 2.2-3.7-3.5-1.3-4.6 1.8-14.2 3.1-9.7 6.8-22.5 4.5-41.3-2.2-18.9-10.2-24.1-10.7-34.6 13.2 6.8 64.7 28.5 83.3 45.8 18.6 17.2 23.3 36.5 25.8 48.8 2.5 12.3 2 34.7-20.6 34.1-22.7-0.7-37.3 9.2-39.3 27.5-2 18.4 8.3 47.6 8.3 47.6l9.6-5.6c-2-17.1-6.6-35.9-1.3-44.7 5.3-8.9 22.4-2.6 22.4-2.6 0 0 11.3 8.8 36 32.7 0 0 21 15.4 29.9 11.2 9-4.1 7.3-17.6 7.3-17.6z"/>
		<path id="&lt;Path&gt;" class="s5" d="m72.9 254.9c-1.9-19 1.1-25.4-4.7-38.5-5.9-13.1-9.8-17.3-15.5-35.2 1.1 8.1 3.2 17.8 6.3 29.2 7 25.6 9.5 37.6 11.3 54.4 0.6 6.1 1.4 10.3 2.4 13.3l4.6-1.4c0 0-2.5-2.7-4.4-21.8z"/>
		<path id="&lt;Path&gt;" class="s1" d="m79.7 287.9c4.6 3.9 9.9 5.2 13.2 1.9-1.4-5.4-2.3-7.2-7.2-10-2.5-1.4-4.3-4.5-5.4-7.9 0 0-4.5 0.9-9.4-1.9 1.9 12.2 4.7 14.3 8.8 17.9z"/>
		<path id="&lt;Path&gt;" class="s2" d="m113.9 244.6c1.8-6.9 6.5-19 7.4-37.7 1-18.7-8.6-30.6-16.5-38.7l-0.9 11-1.1 67.8c3.9 4.1 7.9 8.1 11.8 11.9-2.9-5.1-2.6-7.5-0.7-14.3z"/>
		<path id="&lt;Path&gt;" class="s5" d="m88.4 230.6c-15.9-19.4-29.8-42.5-30-60 0.2-11.4 6.9-26.7 16.6-26.4 9.7 0.4 14.2 9.3 11.2 25.8-2.4 12.7 7.2 49.8 2.2 60.6 0 0.1-0.1-0.1 0 0z"/>
		<path id="&lt;Path&gt;" class="s3" d="m57.9 99.6c-0.3 5.9-0.8 12.3-0.1 20.3 5.2 8.2 8.3 9.1 14.4 9.2 2.8 6.3 9.2 6.1 12.3 0 7.8-0.3 11.2-4 14-11.5-0.2-2.2-0.4-4.6-0.7-7.1-1.7-13.2 0.5-12.7 6.8-18.6 6.3-6 11.2-13 13.6-21 2.4-8 5.9-16.7-5-14.8-11 2-20.9 7.8-25.3 12.9-4.4 5.1-10.5 14-10.5 14 0 0-3.2-4.2-6.8-10.4-3.7-6.3-15-11.4-24.1-13.8-9.1-2.4-12.9 0.1-6.7 15.7 6.2 15.5 18.5 16.7 18.1 25.1z"/>
		<path id="&lt;Path&gt;" class="s4" d="m67.4 97.9c-4.8-1.8-9.3 1.3-8.5 7.2 0.7 6 5 17.3 13.6 18.1 8.7 0.7 7.2 0.2 11.6-0.9 4.5-1.1 12.7-8.2 11.4-19-1.4-10.7-16.3-4.5-19.6 0-3.7-3.7-8.5-5.4-8.5-5.4z"/>
		<path id="&lt;Path&gt;" class="s5" d="m72.5 123.2c-0.7-3.5-0.6-21-0.6-21 0 0-8.3-6.3-5.8-9.5 2.4-3.1 10.6 3.3 10.6 3.3 0 0 8.8-6 11.7-2.9 3 3.1-5 9-5 9 0 0 0.8 15.6 0.7 20.2-4.6 2.1-11.6 0.9-11.6 0.9z"/>
		<path id="&lt;Path&gt;" class="s2" d="m72.2 129.1c-0.2-2.3 0.3-6.3 0.3-6.3 0 0 8.6 1.5 11.6-0.5 0.7 1.8 0.6 5.4 0.4 6.8-0.2 1.5-2.9 4.6-5.8 4.9-2.9 0.2-6.5-4.9-6.5-4.9z"/>
		<path id="&lt;Path&gt;" class="s6" d="m69.1 104.1c0 2-1.6 3.5-3.5 3.5-2 0-3.6-1.5-3.6-3.5 0-1.9 1.6-3.5 3.6-3.5 1.9 0 3.5 1.6 3.5 3.5z"/>
		<path id="&lt;Path&gt;" class="s6" d="m93.5 104.1c0 2-1.5 3.5-3.5 3.5-1.9 0-3.5-1.5-3.5-3.5 0-1.9 1.6-3.5 3.5-3.5 2 0 3.5 1.6 3.5 3.5z"/>
		<path id="&lt;Path&gt;" class="s6" d="m79.4 132v-6c3.7-0.5 5.8-3.1 4.3-4.7-1.7-1.7-5.4 1.2-5.4 1.2 0 0-3.9-2.7-5.5-0.7-1.3 1.7 1.5 3.9 4.4 4.3v6c-3.1-0.4-5-3-5-3 0 0 0.3 7.5 6.1 7.3 5.8-0.1 6.2-7.3 6.2-7.3 0 0-1.9 2.4-5.1 2.9z"/>
		<path id="&lt;Path&gt;" class="s1" d="m93.5 94.2c0 0-5.6-15.5 0.9-22.8 6.4-7.3 19.2-13.6 22-10.4 2.7 3.1-4.5 27.1-22.9 33.2z"/>
		<path id="&lt;Path&gt;" class="s1" d="m63.8 93.3c0 0 2.9-15.5-3.2-23.2-6-7.6-16.9-9.8-19.6-7.2-2.6 2.5 4.8 25.5 22.8 30.4z"/>
		<path id="&lt;Path&gt;" class="s4" d="m88.4 230.6q3.6 4.4 7.4 8.8c0.9-8.4 2.6-31.2-1.7-46.6-5.3-19.1-5.2-25.9-5.2-25.9-7.7 7.9-8.5 17.2-4.9 35.1 3.3 15.8 4.5 19.6 2.4 26.1q1 1.3 2 2.5z"/>
		<g id="&lt;Group&gt;">
			<path id="&lt;Path&gt;" class="s6" d="m92.6 288.6q-0.3-0.9-0.5-1.7c-4.5-0.5-8.5-4.4-8.5-4.4 3.6 5.7 9 6.1 9 6.1z"/>
			<path id="&lt;Path&gt;" class="s6" d="m82.7 285.1c2.5 5.6 5.4 6.6 5.6 6.6q1.2 0 2.3-0.4c-4.6-1.9-7.9-6.2-7.9-6.2z"/>
		</g>
		<path id="&lt;Path&gt;" class="s4" d="m87.9 69c-4.4 5.1-10.5 14-10.5 14 0 0-3.2-4.2-6.8-10.4-1.7-2.8-4.8-5.3-8.6-7.5 4.7 4.8 7.5 11.2 7.1 18.4-0.4 7.3 3.9 4.8 8.8 4.9 4.9 0.1 8.7 0.7 8.6-5.3-0.1-5.9 1.3-13.2 5.7-18-1.7 1.3-3.2 2.6-4.3 3.9z"/>
		<path id="&lt;Path&gt;" class="s5" d="m135 180c3.5-3.8 21.5 9.1 38.5 17.2 17 8.1 41.9 31.5 38.7 48.5-3.2 17-18.1 9.8-30.2 25.6-12.1 15.7-14.7 25.3-21.5 25.7-6.8 0.4-11.4-16.8-13.8-36.8-2.5-20 14.1-25.5 28.3-27 14.1-1.5 20-5.6 9.2-14.7-10.7-9-20.9-12.1-35.1-11.1-14.1 0.9-19.2-21.7-14.1-27.4z"/>
		<path id="&lt;Path&gt;" class="s2" d="m248.8 313.6c-6.4-10.9-14.9-31.5-14.9-31.5 0 0 3.7 11.1 0 22.3-3.8 11.1-17.2 13-28.6 10 0 0 11.3 8.8 36 32.7 5.7 5.6 11.7 10.1 18.1 13.8 7.8-2.4 17.3-6.8 12-12.7-8.3-9.5-16.2-23.6-22.6-34.6z"/>
		<path id="&lt;Path&gt;" class="s1" d="m401.8 369.5c-12.9 1.8-33.1 3.1-62.1 1.1-56.8-4-86.2-17.4-100.8-25.7q1.2 1.1 2.4 2.2c24.6 23.9 55.1 28.7 94.3 30 39.3 1.2 114 2.8 113.5-3-0.3-3.5-21.1-3.3-47.3-4.6z"/>
		<path id="&lt;Path&gt;" class="s6" d="m88 368.3c4.7-5.2 13.2-5.3 19.4-5.8-7.5 1.4-14.7 2.6-16.2 5.9-1.9 2.6-3.2-0.1-3.2-0.1z"/>
		<path id="&lt;Path&gt;" class="s3" d="m99.7 266.3c0.6-4.2 2.8-9 4.8-17.5 3.2-13.7 12.3-29.1 11.1-50.6-1.1-21.5-13.6-38.1-22.2-35.1 0 0-6.5 1.8-7.1 12.7-0.6 11 3.5 24.5 6.6 37.6 3.1 13.2 0 25.9-1.6 36.4-0.8 5.8-1.9 10.9-2.3 15.3 0 0 2.2 1.9 4.9 2.2 2.8 0.2 5.8-1 5.8-1z"/>
		<path id="&lt;Path&gt;" class="s4" d="m98.7 163.5c6.6 5.3 10.1 17.7 9.1 33.8-1 16.1-5.3 28.1-7.8 41.8-4.8 14.5-6.4 24.9-6 29.7 0.2 2.8 3.3 2.7 5.8 2.1-1.2-5.5 1.9-10.3 4.7-22.1 3.2-13.7 12.3-29.1 11.1-50.6-0.9-17.3-9.2-31.5-16.9-34.7z"/>
		<path id="&lt;Path&gt;" class="s1" d="m100.1 290.9c5 1.8 3.4-3.1 3.4-3.1 0 0 4.5-0.3 2.9-6.3 1.9-2.1-1.5-7.8-5.8-8.1-1.2-2.8-1.3-5.3-0.7-8.2-2.4 1.1-7.4 1.3-10.8-1-0.5 3.9-0.5 7.2 0.4 9.9 1.9 5.6-0.3 10.2 2.5 13.9 2.9 3.7 5.9 5.6 8.1 2.9z"/>
		<g id="&lt;Group&gt;">
			<path id="&lt;Path&gt;" class="s6" d="m104 278.6c0 0-1.7-2.1-1.8-4.8q-0.8-0.3-1.6-0.4-0.1-0.1-0.1-0.2c1.1 3 2 5.4 3.5 5.4z"/>
			<path id="&lt;Path&gt;" class="s6" d="m105.4 280.9c-0.9 1.1-4.9 0-4.9 0 1.7 1 4.4 1.9 5.9 0.6 1-1.1 0.6-3-0.6-4.8 0.6 1.9 0.4 3-0.4 4.2z"/>
			<path id="&lt;Path&gt;" class="s6" d="m103.5 285.8c-2.2-0.4-5.7-3.3-5.7-3.3 1 1.9 4.3 5.1 5.7 5.3 0 0 2.8-0.2 3.2-3.3 0 0-1 1.6-3.2 1.3z"/>
			<path id="&lt;Path&gt;" class="s6" d="m100.1 289.7c-2.3-1.4-4.6-4.6-4.6-4.6 0.9 2.7 2.6 4.8 4.6 5.8 3 1.1 3.6-0.3 3.6-1.6-0.6 0.5-1.4 1.7-3.6 0.4z"/>
		</g>
		<path id="&lt;Path&gt;" class="s5" d="m95.9 192.8c-3.9-15.4-4.4-25.5-0.7-30q-0.9 0-1.8 0.3c0 0-6.5 1.8-7.1 12.7-0.6 11 3.5 24.5 6.6 37.6 3.1 13.2 0 25.9-1.6 36.4 6.6-22 10.4-33.7 4.6-57z"/>
		<path id="&lt;Path&gt;" class="s7" d="m125.4 381.6c11.5-0.3 23.6-0.7 33.9-1.2 25.1-1.3 26.9-1.6 24.9-18.7l-0.9-6.3c-4.9 6.7-14.7 10.8-20.5 10.4q0 0.3-0.1 0.5c-0.5 2.8-6 3.4-16.6 3.4-9.5 0-37.9-1.1-54.9-1.3 0 0 0.2 8.1 34.2 13.2z"/>
		<path id="&lt;Path&gt;" class="s0" d="m131.9 381.4c-19.6-1.7-35.5-8.6-38-13-2.9 0-5.5-0.1-7.8-0.1-15.6 0-19.8 3.1-26.2 12.1 5.3 4 13.4 2.8 25.8 2.3 8.4-0.4 27.1-0.7 46.2-1.3z"/>
		<path id="&lt;Path&gt;" class="s6" d="m97.8 371.8c-22.2 1.2-23.4 5.6-27 11.5q2.6 0 5.6-0.1c1.7-7.6 9.2-9.2 22-11q-0.3-0.2-0.6-0.4z"/>
	</g>
</svg>