<svg version="1.2" xmlns="http://www.w3.org/2000/svg" viewBox="0 0 265 334" width="500" height="500">
	<title>koala</title>
	<style>
		.s0 { fill: #9d8483 } 
		.s1 { fill: #806563 } 
		.s2 { fill: #c6bfc3 } 
		.s3 { fill: #dfd3dc } 
		.s4 { fill: #674949 } 
		.s5 { fill: #603d3d } 
		.s6 { fill: #dfe1e9 } 
		.s7 { fill: #603c3d } 
		.s8 { fill: #aeb5c2 } 
		.s9 { fill: #5b607d } 
		.s10 { fill: #3b455c } 
		.s11 { fill: #beb1ba } 
		.s12 { fill: #ce6a7e } 
		.s13 { fill: #dde1e9 } 
		.s14 { fill: #3b465d } 
		.s15 { fill: #000000 } 
		.s16 { fill: #cacfd9 } 
		.s17 { fill: #dee3ea } 
		.s18 { fill: #513335 } 
		.s19 { fill: #d3ccd0 } 
	</style>
	<g id="&lt;Group&gt;">
		<path id="&lt;Path&gt;" class="s0" d="m127 149.3c-7 9.7-21.3 22.3-18.3 58.8 20.7-6 32.5-49.2 18.3-58.8z"/>
		<path id="&lt;Path&gt;" class="s1" d="m128.1 154.5c-2.1 9.3-12.1 27-15.1 43.1 11-3.5 18.6-26.2 18.6-26.2 0 0 1.4-13.5-3.5-16.9z"/>
		<path id="&lt;Path&gt;" class="s2" d="m119.5 101.3c-0.5 10.2 1.1 26.3 5.2 39.7 4.1 13.4 6.8 24.4 0 39.4 10.2 0.5 23.3-6.7 36.1-24 12.7-17.3 14.4-32.3 10.8-40.6-3.6-8.3-40.7-19.2-52.1-14.5z"/>
		<path id="&lt;Path&gt;" class="s3" d="m132.3 119.7c-4.7-3.6-6.4-3.9-12.8-11.3 0.3 9.7 1.9 22 5.2 32.6 3.1 10.1 5.3 18.8 3.4 28.8 4.9-8 9-18.3 9.1-26.8 0.1-8.5-0.3-19.6-4.9-23.3z"/>
		<path id="&lt;Path&gt;" class="s4" d="m114.2 255c-7.8 0.2-18.8-1.7-22.5 3-6.1 2.2-7.7 3.7-7.4 4.5 0.3 0.8 4.9-0.2 6.9-0.7-3.2 1.6-2.7 2.5 5.6 2.1 8.3-0.4 26.7-1.8 26.7-1.8z"/>
		<path id="&lt;Path&gt;" class="s5" d="m109.4 240.7c0.9 6.9 3.9 14.9 10.1 21.6 6.1 6.6 6.8 0.2 10-2.3 3.1-2.5-15.5-22.5-20.1-19.3z"/>
		<path id="&lt;Path&gt;" class="s0" d="m141 150c-1.9 7.5-2.9 13.2-11.2 23.8-11.1 14.2-19.7 28.2-20.4 39.3-0.7 11.1-1.1 19.4-1.4 25.9 2.7 3.7 7.1 7.1 8.4 6.1 1.2-0.9-2.8-6.2-3.4-10.1 0 0-1.8-15.9 11.7-26.9 13.5-11 21.7-37 16.3-58.1z"/>
		<path id="&lt;Path&gt;" class="s6" d="m142.2 156q-0.4-3.1-1.2-6c-1.9 7.5-2.9 13.2-11.2 23.8-11.1 14.2-21.1 27.4-21.8 38.5-0.7 11.1-2.7 22.9 0 26.7 0.9 1.2 1.9 2.3 3 3.3-3.6-5.6-2.4-10.9-1.9-20.4 0.5-9.5 1.9-16.1 8.8-26.5 6.8-10.3 16-17.4 21.7-34.8 0 0 1.4-2.1 2.6-4.6z"/>
		<path id="&lt;Path&gt;" class="s4" d="m226.2 182.9c3.6 19.2 4.1 37.9 0.1 57.4-5.6 27.7-27.8 28.9-54.7 30.5-10.4 0.7-18 0.7-24.4 0.6 0 0-13.7-1.2-20.6-11-6.8-5.7-8.7-9-11-15.1-3.7-8.3-4.2-13-3.2-18.3 5.7-14.6 12.9-20.8 24.8-22.3 11.9-1.4 89-21.8 89-21.8z"/>
		<path id="&lt;Path&gt;" class="s5" d="m147.2 271.4c6.4 0.1 14 0.1 24.4-0.6 26.9-1.6 49.1-2.8 54.7-30.5q0.8-3.9 1.4-7.8c-0.1 0.7-3.5 17.7-16.7 25.5-13.5 8-55.4 9.5-73.8 9.4 0 0-0.5 1.1-0.8 2.6 4.9 0.8 10.8 1.4 10.8 1.4z"/>
		<path id="&lt;Path&gt;" class="s1" d="m126.6 260.4c-2.8 0.2-10.9 0.8-15 0.3-4.1-0.5-7.6-0.4-11.8 1.4-4.3 1.7-3.7 3.5-3.7 3.5 0 0-4.8 2-4.4 3.3 0.5 1.4 6.9 0 6.9 0 0 0-1.8 0.6-1.5 1.7 0.2 1.1 3.3 1 21.4 0.2 11.2-0.4 18.5 0.3 28.7 0.6-5.3-0.9-16-6.7-20.6-11z"/>
		<g id="&lt;Group&gt;">
			<path id="&lt;Path&gt;" class="s5" d="m107.8 263.3c-5.7 0-11.7 2.3-11.7 2.3 0 0-4.8 2-4.4 3.3 0.1 0.3 0.4 0.4 0.8 0.5 0 0 1.1-3.1 15.3-6.1z"/>
			<path id="&lt;Path&gt;" class="s5" d="m108.7 266.5c-7.7 0.9-10.1 2.4-10.1 2.4 0 0-1.8 0.6-1.5 1.7 0.1 0.3 0.4 0.6 1.4 0.7 0.4-1.5 6-3.8 10.2-4.8z"/>
			<path id="&lt;Path&gt;" class="s5" d="m98.6 268.9c0 0-0.3 0.1-0.6 0.1 0.3 0 0.6-0.1 0.6-0.1z"/>
		</g>
		<path id="&lt;Path&gt;" class="s1" d="m226.4 184.5c-0.9-8.2-3.3-17.9-6.1-26.2-9.5-28.2-27.3-45.2-34.3-51l-17.4 13.3c-7.8 3.5-20.4 8.6-25 21.1-0.8 2.1-1.4 4-1.9 5.8-2.8 10.4-2 21.7-4.5 31.7-2.6 9.9-13.8 22.6-17.4 31.2 12.2-7.5 19.1-4.5 19.1-4.5-7.9 3.3-15 9.6-13.7 23.5 1.2 13.9 9.1 26.5 34.5 29.5 25.4 3 49.8-4.6 58.5-19.9 8.6-15.2 10.6-33.9 8.2-54.5z"/>
		<path id="&lt;Path&gt;" class="s4" d="m181.7 117.9c0 0-2.5-1.4-6.8-2.1l-6.3 4.8c-7.8 3.5-20.4 8.6-25 21.1-0.8 2.1-1.4 4-1.9 5.8-2.8 10.4-2 21.7-4.5 31.7 2.4-5 4.5-10.5 7-16.4 4.7-11.2 5.9-16.3 12.4-25.9 6.4-9.5 15.7-10.4 25.1-19z"/>
		<path id="&lt;Path&gt;" class="s7" d="m181.2 118.2c5.7-3.9 7.3-8.8 7.3-8.8q-1.4-1.2-2.5-2.1l-17.4 13.3c-4.2 1.9-9.9 4.3-14.9 8 8.2-3.6 19.3-4.7 27.5-10.4z"/>
		<path id="&lt;Path&gt;" class="s4" d="m174.4 155c2.7-0.4 3.7 2.5 3.9 7.7 0.1 5.2-0.9 18.8-3.9 30.3-3 11.6 2.1 26.8-3.5 28.1-3.6-7.2-14-14-14.9-18-0.9-4 18.4-48.1 18.4-48.1z"/>
		<path id="&lt;Path&gt;" class="s5" d="m138.9 205.9c4.8-1.7 20.8-0.3 32 15.2 0.1-6.4-4.1-11.2-8.1-14.9-4.1-3.8-4.6-3.9 1.5-11.3 6.1-7.4 11.4-16.3 10.3-29.9-15.9 23.6-28.9 36.9-35.7 40.9z"/>
		<path id="&lt;Path&gt;" class="s0" d="m163.5 168.4c-2.7 1.6-7 1.1-5.5-6.8 1.6-7.9 2.8-18.9 9.1-24.3 6.3-5.3 9.7-9.3 14.6-13.8 4.8-4.5 10.3-7.1 16.6 0.9 6.3 8 17.7 31.5 21.2 62.8 3.5 31.3-9.9 59.1-37.8 63.2-28 4.1-47.8-5.4-48.4-20-0.6-14.7 12.5-16.9 19.6-14.8 7.2 2.1 11.8 10 15.7 15.2 3.9 5.1 10.8 7.2 15.8-9.2 5-16.4 7.1-36.2 5.9-53.2-1.3-17-16.5-23.7-22.3-10-4.5 10.5-4.5 10-4.5 10z"/>
		<path id="&lt;Path&gt;" class="s0" d="m141.4 51.9c0 0-6-14.7-23.3-11.2q-2 0.4-3.7 1.3c-8 14.6-4.6 24.3 0.5 39.9-1.4 16.8 11 32.8 29.9 38.2 18.9 5.4 34.3 0.6 45-18.8 20-11.2 18.2-28.9 13.2-39.2-4.7-1.6-10.6-1.3-18 2.2-11.4-9.8-17.4-7.9-22.5-9.3-5.2-1.4-5.7-4.7-21.1-3.1z"/>
		<path id="&lt;Path&gt;" class="s8" d="m217.2 86.8c0.4-7.2-3.7-21.8-15.3-25-3.8 0.2-5.7 0.3-10.9 5.4 4.9 15.9 0.4 26.5 0.4 26.5 0 0 0.2 4.6-1.6 7.6 14.8 7.4 26.7-4.5 27.4-14.5z"/>
		<path id="&lt;Path&gt;" class="s9" d="m195.3 70c7.7 0 8.5 2.7 6.8 4.2 4.3 0.9 2.6 3.8-1.3 4.1 5.3-0.3 4.3 2.2 1.6 3.2 0.3 5.2-1.7 8.4-7.1 11.4-1.9-4-1.7-6.4-2-12.1-0.2-5.8-7.3-9.7 2-10.8z"/>
		<path id="&lt;Path&gt;" class="s10" d="m189.8 80.4c1.5 4.4 1.6 13.3 1.6 13.3 0 0 1.5 0.2 4-0.9 0.1-3.1-0.5-6.1-0.5-6.1 3.1-0.1 4.5-2.9 2-3.2 3.2-0.8 2.9-3.5 0.2-3.5 4.1-1.3 2.5-4.3 0.2-4 3.6-1.6 3-5.8-4.9-4.3-2.6 1.2-2.6 8.7-2.6 8.7z"/>
		<path id="&lt;Path&gt;" class="s11" d="m132.3 101.3c-4.7-2.7-11.4-8.9-10-15.9 1.7-9 4.6-9.6 9.5-15.4 8.6-10.2 16.3-14.7 27.4-12.4 11.1 2.3 16.7 9.2 18 16.8 1.3 7.7 6.9 11.4 6.3 20.4-0.7 9.1-7.3 14.6-16.4 15.7-9 1.1-34.8-9.2-34.8-9.2z"/>
		<path id="&lt;Path&gt;" class="s2" d="m145.3 86c-5.1 1-9.6 4.7-11.9 9.9-2.3 5.1-1.4 12.4 4.8 16.2 6.3 3.8 21.1 7.1 26.8 1.5 5.7-5.6 2.9-18-2.3-23.4-5.2-5.3-17.4-4.2-17.4-4.2z"/>
		<path id="&lt;Path&gt;" class="s12" d="m143.1 95.9c-0.6 4.6-2.3 11.3 4.3 12.8 6.6 1.5 10-4.2 10.9-7.9 1.2-4.7-9.6-6.3-15.2-4.9z"/>
		<path id="&lt;Path&gt;" class="s13" d="m146.6 76.4c0 3.9-3.2 7-7.1 7-3.9 0-7.1-3.1-7.1-7 0-4 3.2-7.1 7.1-7.1 3.9 0 7.1 3.1 7.1 7.1z"/>
		<path id="&lt;Path&gt;" class="s13" d="m179.8 87.8c0 4-3.2 7.1-7.1 7.1-3.9 0-7.1-3.1-7.1-7.1 0-3.9 3.2-7 7.1-7 3.9 0 7.1 3.1 7.1 7z"/>
		<path id="&lt;Path&gt;" class="s8" d="m128.2 44.1c-4.3-2-8.7-2.8-12.7-2.6-14 5.5-20.3 30.9-0.6 40.4 2.7-6.3 6.9-10.6 6.9-10.6 0 0 8.2-21.4 6.4-27.2z"/>
		<path id="&lt;Path&gt;" class="s9" d="m118.1 69.3c-2.1-1.7-3.3-4.3-3.3-8.4-2.8-1.6-3.3-3.3-1.8-3.3-2.2-2.2-0.8-4.3 1.5-3.5-2.5-2-0.1-4.6 3.1-3.3-1.8-3 3-3.8 8.8 0.9 1.8 0.7 3 1.2 2 3.3-0.9 2-4.6 13.7-10.3 14.3z"/>
		<path id="&lt;Path&gt;" class="s12" d="m143.6 76.4c0 2.2-1.9 4-4.1 4-2.3 0-4.1-1.8-4.1-4 0-2.3 1.8-4.1 4.1-4.1 2.2 0 4.1 1.8 4.1 4.1z"/>
		<path id="&lt;Path&gt;" class="s12" d="m176.8 87.8c0 2.3-1.9 4.1-4.1 4.1-2.3 0-4.1-1.8-4.1-4.1 0-2.2 1.8-4 4.1-4 2.2 0 4.1 1.8 4.1 4z"/>
		<path id="&lt;Path&gt;" class="s9" d="m158.6 75.2c5.6 1.5 5.6 10.1 3.7 16.7-2 6.6-2.7 10.8-7.3 9.6-3.3-1.3-3.9-4.3-3.9-4.3 0 0-2.5 2.7-6 1.2-3.4-1.6-2.2-6 0-12.1 2.3-6 7.5-12.7 13.5-11.1z"/>
		<path id="&lt;Path&gt;" class="s14" d="m152.1 93.6c-1.1-4.2-5.5-4.9-8.3-3.3-1.2 4-1.3 6.8 1.3 8.1 3.5 1.5 6-1.2 6-1.2 0 0 0.6 3 3.9 4.3 3.3 0.8 4.6-1 5.8-4.5-1.4-4.5-5.2-5.2-8.7-3.4z"/>
		<path id="&lt;Path&gt;" class="s15" d="m175.5 87.8c0 1.6-1.2 2.9-2.8 2.9-1.6 0-2.9-1.3-2.9-2.9 0-1.5 1.3-2.8 2.9-2.8 1.6 0 2.8 1.3 2.8 2.8z"/>
		<path id="&lt;Path&gt;" class="s15" d="m142.3 76.4c0 1.5-1.3 2.8-2.8 2.8-1.6 0-2.9-1.3-2.9-2.8 0-1.6 1.3-2.9 2.9-2.9 1.5 0 2.8 1.3 2.8 2.9z"/>
		<path id="&lt;Path&gt;" class="s15" d="m151.4 96.2c0 0 1.6-1.8 3.8-1.9 2.2-0.1 3.3 2.3 0.8 3.3-2.5 1-4.9-0.4-4.9-0.4 0 0-2.8 0.1-4-2.9-1.2-2.9 0.8-3.1 2.3-1.7 1.3 1 2.2 2.6 2 3.6z"/>
		<path id="&lt;Path&gt;" class="s10" d="m121.8 71.3c0 0 1.5-4.6 3.3-6.5 0 0 2.2-4 4.7-7.4-0.6-2-1.4-3.5-1.4-3.5-2.3-1.8-4.5-2.3-5.7-1.9-1 0.3-1.4 1.3-0.7 2.5-3.5-0.8-4.3 1.5-2.2 3.5-2.9-0.7-3.3 2.6 1 5.2-1 1.9-2 4.2-2.7 6.1 1 0.9 2.2 1.5 3.7 2z"/>
		<path id="&lt;Path&gt;" class="s1" d="m128.4 53.9c-3.4-2.1-5.6-0.5 0 4.6-4.3-3.5-7.6-1.5-2.4 2.3-3-1.9-5.2 0.5-0.9 4 0 0 2.1 1.8 4.7-1 2.6-2.7 7.7-5.8 7.5-8.9-0.2-3.1-4.9-8.1-8.6-10.5-3.7-2.3-8.8 0.7-0.3 9.5z"/>
		<path id="&lt;Path&gt;" class="s16" d="m112.2 43.2c-11.6 7.9-15.4 30 2.7 38.7 0.7-1.6 1.9-3.8 3-5.5-13.2-8.6-10.4-25.7-5.7-33.2z"/>
		<path id="&lt;Path&gt;" class="s1" d="m191 80.3c5-0.4 5.4-2.6 0.8-2.8 4.5-0.6 4.6-2.7-0.3-2.6 4.5-0.6 5.2-3.4 0.9-3.2 3.7-0.5 3.7-2.8 0.5-2.7 3.9-0.7 3-3.9-1.2-3.6-4.2 0.3-8.7 0.2-7.3 4.7 1.3 4.5 1.9 5.7 2.1 7.8 0.3 2 0.8 2.8 4.5 2.4z"/>
		<path id="&lt;Path&gt;" class="s16" d="m204.1 62.6c3.1 2.5 4.6 10.2 4.1 18.2-0.5 8-7.1 14.9-17 15.6-0.1 1.5-0.5 3.4-1.4 4.9 14.8 7.4 26.7-4.5 27.4-14.5 0.4-6.7-3.2-19.9-13.1-24.2z"/>
		<path id="&lt;Path&gt;" class="s17" d="m217.2 86.8c0.2-3.7-0.8-9.4-3.4-14.5 0.9 5 0.3 12.7-3.2 18.1-3.5 5.3-11 9.6-19.9 8.7-0.2 0.8-0.5 1.5-0.9 2.2 14.8 7.4 26.7-4.5 27.4-14.5z"/>
		<path id="&lt;Path&gt;" class="s17" d="m115.8 80c-13.7-8-12.2-24.7-9.3-30.9-6.5 9.9-6.2 25.7 8.4 32.8 0.3-0.6 0.6-1.3 0.9-1.9z"/>
		<path id="&lt;Path&gt;" class="s2" d="m113 235c2.1 4.9 5 6.3 5.9 5.5 0.8-0.9-2.4-4.6-2.7-12.9-0.3-8.2 7.2-17.8 16.8-20.1 9.7-2.3 19.7-6.2 30.7-19.7 10.9-13.5 11.9-21 10.7-32.8-3.8-1.9-6.1 2.2-7.8 6.4-1.6 3.9-5.9 14.6-14.8 25.1-12.7 14.9-24 15.3-30.8 22.5-8.6 9.2-11.3 17.6-8 26z"/>
		<path id="&lt;Path&gt;" class="s11" d="m163.3 177.6c-7.1 14.1-18.8 23.7-32.2 30.5q0.9-0.3 1.9-0.6c9.7-2.3 19.7-6.2 30.7-19.7 10.9-13.5 11.9-21 10.7-32.8-5 0.5-4.1 8.6-11.1 22.6z"/>
		<g id="&lt;Group&gt;">
			<path id="&lt;Path&gt;" class="s18" d="m99 257.7c-4.5-0.5-7.3 0.3-7.3 0.3-6.1 2.2-7.7 3.7-7.4 4.5 0.1 0.2 0.6 0.3 1.2 0.3 1.8-3.3 8.5-4.9 13.5-5.1z"/>
			<path id="&lt;Path&gt;" class="s18" d="m97.1 260.9c-1.8-0.1-4.2 0.3-5.9 0.9-2.2 1.1-2.7 1.9 0 2.1-1-1.2 2.5-2.6 5.9-3z"/>
		</g>
		<path id="&lt;Path&gt;" class="s19" d="m132.3 119.7c-2.8-2.1-4.5-3.1-6.7-5 4.1 8.7 12.3 27.7 8 44 2.1-5.3 3.5-10.8 3.6-15.7 0.1-8.5-0.3-19.6-4.9-23.3z"/>
	</g>
</svg>