<svg version="1.2" xmlns="http://www.w3.org/2000/svg" viewBox="0 0 229 188" width="500" height="500">
	<title>16601-ai (1)</title>
	<style>
		.s0 { fill: #352f2d } 
		.s1 { fill: #a54c25 } 
		.s2 { fill: #d1783d } 
		.s3 { fill: #c46733 } 
		.s4 { fill: #efa775 } 
		.s5 { fill: #7c3200 } 
		.s6 { fill: #934007 } 
		.s7 { fill: #562d11 } 
		.s8 { fill: #e8b980 } 
	</style>
	<g id="_Artboards_">
	</g>
	<g id="Layer 1">
		<g id="&lt;Group&gt;">
		</g>
		<g id="&lt;Group&gt;">
		</g>
		<g id="&lt;Group&gt;">
		</g>
		<g id="&lt;Group&gt;">
		</g>
		<g id="&lt;Group&gt;">
		</g>
		<g id="&lt;Group&gt;">
		</g>
		<g id="&lt;Group&gt;">
			<g id="&lt;Group&gt;">
			</g>
		</g>
		<g id="&lt;Group&gt;">
		</g>
		<g id="&lt;Group&gt;">
			<g id="&lt;Group&gt;">
			</g>
		</g>
		<g id="&lt;Group&gt;">
		</g>
		<g id="&lt;Group&gt;">
		</g>
		<g id="&lt;Group&gt;">
		</g>
		<g id="&lt;Group&gt;">
		</g>
		<g id="&lt;Group&gt;">
		</g>
		<g id="&lt;Group&gt;">
			<g id="&lt;Group&gt;">
			</g>
		</g>
		<g id="&lt;Group&gt;">
		</g>
		<g id="&lt;Group&gt;">
			<path id="&lt;Path&gt;" class="s0" d="m13.4 595.5l0.4 1.5 0.5-0.9 1 0.1 1.3-0.9-0.3-1.7-1-0.7-0.9 0.1z"/>
		</g>
		<g id="&lt;Group&gt;">
		</g>
		<g id="&lt;Group&gt;">
		</g>
		<g id="&lt;Group&gt;">
		</g>
		<g id="&lt;Group&gt;">
			<g id="&lt;Group&gt;">
			</g>
			<g id="&lt;Group&gt;">
			</g>
		</g>
		<g id="&lt;Group&gt;">
		</g>
		<g id="&lt;Group&gt;">
			<path id="&lt;Path&gt;" class="s1" d="m150.8 132.6l-6.3 0.1-2.7-1.7-0.6-4.3-1.9-1.6-0.3-4.3 1.2-2.9 0.1-10.5-2.3-8.4 9-0.1 7.8 23.2z"/>
			<path id="&lt;Path&gt;" class="s1" d="m54.6 73.8l-0.7 8.1v8l-5.3 16.3-4.6 7.9-1.4 2.9 0.6 2.8 4 3.4 3.4 10.5 4.4 2.2 7.4 0.1 4.6-0.9-0.8-2.8-1.6-2.2-2.3-0.5h-2.5l-2.4-0.7-3.8-7.4 1.9-5.9 6.5-9 1.9-21.3-5.2-15z"/>
			<path id="&lt;Path&gt;" class="s2" d="m198.2 45.7l0.2 1-1.5 2-1.3 2.2-1.8 1.2-0.3 0.9-1.5 2.9-1.6-0.1-5.8-2.6-2.7 3.4 0.1 3.2-0.4 9.5 0.5 2.2-1.2 0.7-2-0.8-1.7 3.6-0.4 2.7-1.6 0.9-1.5 0.7 0.8 1.7 0.1 2.2-0.6-0.7h-1.1l-0.1 2.4-0.8 2.1-0.8-0.5-1.6 0.1-1 3.1-4.4 7.3-2.4 2.1-2.3 4.1-0.4 9.8-0.2 11.8 1.3 2.7 3.6 2.2 3.6 3.9-0.1 1.5-2.7 0.2-0.5 0.9-10 0.1-3.8-1.1-0.4-4.6-1.4-2.6-1.9-3.2-0.8-1.9 1.8-3.7-0.5-6.7-1.3-7.4-2.6-4.1-10.9 0.1-7.1 1.2-3.9-0.5-1.7-2.5-4-0.5-8.4-2.3-8.9-3.8-7.2-2.4-7.1 1.7-2.8 2.3-3.4 9.2-2.6 8.5-6.3 8.4-0.1 2.5 8.8 8.4 2.7 0.1 1.6-0.5 2.2 1.4 1.3 0.5 2 2.6 0.6 1.4-5.9 1.1-4.8 0.2-6.5-1.7-6.9-7.2-7.4-8.2 1.9-5.2 1.1-17.4-3.2-14-1.3-9.9-4.8 13.9-5.4 14.7-8.3 8.2-6.7 5.4-0.8-1.9 12.2-11.3 6.3-14.3 5.7-18.7 7.8-10.8 6.2-5.2 10-5 4.1-0.4 12.2 1.3 12.7 0.3 22.1-1.1 3.3-1.7 2.9-3.4 3.2-2.1 5.1-5.2 8.1-7.3 7.7-8.3 4.9-2.2 7.6 1 12.2 3.7 1.4 2.5 0.9 3.1-1.6 2.1 2.3 2.4 3.2 3 0.8 1.3z"/>
			<path id="&lt;Path&gt;" class="s3" d="m69.6 108.1l2.5-10.4-0.3-9.6-1.7-7.4-0.1-9.3 4.2-3 6.2 1.7 3.9 5.2 1.9 4.5 8.7 3.5 14.7 4.4 11.6 0.1 17-1.8 14.6-5h0.2l19-7.5 9.6-4.1 0.5 2.1-1.2 0.7-2-0.8-1.7 3.6-0.4 2.7-1.6 0.9-1.5 0.7 0.8 1.7 0.1 2.2-0.6-0.7h-1.1l-0.1 2.4-0.8 2.1-0.8-0.5-1.6 0.1-1 3.1-4.4 7.3-2.4 2.1-2.2 4-4.2-5.8 0.1 9.1-2.1 12.1-1 6.6 1.5 5.9 3.9 1.1 3.4 2.1 0.3 2.1h-7.4l-3.8-1.1-0.4-4.6-1.4-2.6-1.9-3.2-0.8-1.9 1.8-3.7-0.5-6.7-1.3-7.4-2.6-4.1-10.9 0.1-7.1 1.2-3.9-0.5-1.7-2.5-4-0.5-8.4-2.3-8.9-3.8-7.2-2.4-7.1 1.7-2.8 2.3-3.4 9.2-2.6 8.5-6.3 8.4-0.1 2.5 7.7 7.3-1.4 0.5-1.1-0.6-1.5-0.8-5.7-3.6-2.4-3.6 1.1-4z"/>
			<path id="&lt;Path&gt;" class="s3" d="m49 89.1l3.9-11.9 1.5-4 2.1 0.6 1.9 7.4 2.9 15.1-0.6 8.9-1.6 6.6-0.5 1.1 0.9-14.5-3.2-14-1.3-9.9-4.8 13.9-2.2 6z"/>
			<path id="&lt;Path&gt;" class="s3" d="m56.7 120.5l1.2-0.3 4 4 8.1 8.5 4.5 2.7 0.8 2.2-4.5-1.2-6.9-7.2-7.4-8.2z"/>
			<path id="&lt;Path&gt;" class="s3" d="m161.6 131l2 1.1 1.4 1.7 0.1 1.4-0.5 0.1-0.5 0.9v-1.9z"/>
			<path id="&lt;Path&gt;" class="s3" d="m80.6 133.6l1.8-0.2 2.8-0.2 0.6 0.1 1.2 1.5-1.8-0.7-3.3-0.1z"/>
			<path id="&lt;Path&gt;" class="s4" d="m53.2 70.5l7.8-10.8 6.2-5.2 10-5 4.1-0.4 12.2 1.3 12.7 0.3 22.1-1.1 3.3-1.7 2.9-3.4 0.4-0.3 1.4 2.1-2.3 5-11.5 1.5-14.8 1.3-14.6 0.5-7.6-2.4-5.6-0.6-4.9 1.8-13.9 8.4-6.2 7.3-2.7 5.6-0.4 0.2z"/>
			<path id="&lt;Path&gt;" class="s5" d="m29.2 114l1.2 2.8-3.2 4.5-3.7 1.3-5-0.7-4.5-0.2 2.5-3.5 8.5-4.9h3.3z"/>
			<path id="&lt;Path&gt;" class="s5" d="m98.3 92.7l-7.2-2.4-7.1 1.7-2.6 2.2 0.8-3.5 0.5-5.4 0.6-3.3 4.9 2 10.7 6 6.7 2 13.9 1.8 13.3-2.6 5.7-3.9 2.7-5.4-2.6-4.6-1.2-3-1.3-6.2 1.6-6.2 0.8-3.4-1.3-1.4-1.5-2.5-1.1-1.6-2.9-2.4h-2.5l-1-1h0.1l3.3-1.7 2.9-3.4 3.2-2.1 5.1-5.2 8.1-7.3 7.7-8.3 4.9-2.2 7.6 1 12.2 3.7 1.4 2.5 0.9 3.1-1.6 2.1 0.3 0.3-2-0.7-1.9 1.4-3.2 4.2 2 8.7 1.7 8.6 1 2.9 0.1 2.6-0.4 9.5 0.5 2.2-1.2 0.7-2-0.8-1.7 3.6-0.4 2.7-1.6 0.9-1.5 0.7 0.8 1.7 0.1 2.2-0.6-0.7h-1.1l-0.1 2.4-0.8 2.1-0.8-0.5-1.6 0.1-1 3.1-4.4 7.3-2.4 2.1-2.3 4.1v0.3l-1-0.8-4.2-4.4-1.9-6.6-5.1-1.3-4.2 2-0.6 3.9 0.6 4.7-10.8 0.1-7.1 1.2-3.9-0.5-1.7-2.5-4-0.5-8.4-2.3z"/>
			<path id="&lt;Path&gt;" class="s6" d="m159.1 48.9l-2.2-8.3 3.3-12.1 8.4-3.1 5.7 0.8 4.7 3.6 0.6 3.5 0.1 0.4-2.5 3.3 2 8.7 1.7 8.6 1 2.9 0.1 2.6-0.3 7.4-1.5-0.8-2.3-3.2-4.9-3.8-8.8-4.4z"/>
			<path id="&lt;Path&gt;" class="s6" d="m153.5 27.1l-3 5.1-7.3 7.2-5.8 6.6-5.4 3.4-0.8 1.2h-2l-1-1h0.1l3.3-1.7 2.9-3.4 3.2-2.1 5.1-5.2 8.1-7.3z"/>
			<path id="&lt;Path&gt;" class="s6" d="m166.8 21.5l-4-1.8 0.7-0.3 7.6 1 12.2 3.7 1.4 2.5 0.9 3.1-1.6 2.1 0.3 0.3-1.1-0.4-0.8-3.5-7.3-4.4z"/>
			<path id="&lt;Path&gt;" class="s5" d="m170.8 34.1l-2.3 0.3-2.7 3.2-0.6 4.2 0.8 4.6 2.1 4.1 1.3 3 0.5 2.2 0.3-2.3-1.2-3.7-1.8-4.9 0.2-4.2 1.6-2 0.6 1.9 1 3.1 1.2 1.3 0.1 2-0.2 1.8 0.5 0.3 0.4-3.8-1-3.2-1.2-3.9 1.3-1.3z"/>
			<path id="&lt;Path&gt;" class="s5" d="m172.8 52.1l0.4 3.5 2.5 1.7 2.6 2.8 1.2 2.4-0.8-0.1-2.9-3.6-2.2-1.6-1.6-1.1-0.4-2.4 0.1-2.2z"/>
			<path id="&lt;Path&gt;" class="s5" d="m174 53.5l0.7 1.5 1.4 0.4 1.5 0.6-1.5-1.2-1.6-1.6v-2.5l-0.5-0.3z"/>
			<path id="&lt;Path&gt;" class="s6" d="m183.6 52.4l2.5 1.5-1.5-0.7-2.7 3.4 0.1 1.4h-0.3c0 0-2.4-3.8-2.5-4.1-0.1-0.3 0.7-2.6 0.7-2.6z"/>
			<path id="&lt;Path&gt;" class="s4" d="m184.7 39.3l0.2 1.1 1.3 0.4h1.6l0.9 0.1v-0.7l-1.8-0.9z"/>
			<path id="&lt;Path&gt;" class="s7" d="m186.6 38.5l-2.5 0.2 0.3 0.9 1.6 0.5 1.1-0.5 1.6 0.6z"/>
			<path id="&lt;Path&gt;" class="s3" d="m186.6 38.7l-0.1-1.2-0.8-0.5-1.2 0.9v0.8z"/>
			<path id="&lt;Path&gt;" class="s8" d="m186.6 52.4l0.9-2.1 1.5-2c0 0 2.2-0.5 2.3-0.5 0.2 0 2.8-0.2 3-0.2 0.1 0 1.1-1.1 1.1-1.1l1.6 0.4c0 0 0.3 0.4 0.6 0.8l-0.7 1-1.3 2.2-1.8 1.2-0.3 0.9-1.5 2.9-1.6-0.1-3.7-1.6z"/>
			<path id="&lt;Path&gt;" class="s5" d="m198.3 46.4l0.1 0.3-1.5 2-0.7 1.1-0.1-2-1.3-1.1v-1.1l2.7 0.9z"/>
			<path id="&lt;Path&gt;" class="s4" d="m190.2 52.3h-1.2l-1.4 0.2-0.5-0.3-0.5-1.3 0.1-2.6 1.1-2 1.5 0.6 0.8 1.1-0.3 2 0.1 1.5z"/>
			<path id="&lt;Path&gt;" class="s7" d="m194.6 51.6c0 0-2.9 0.5-3.1 0.5-0.2 0-2.9 0.1-2.9 0.1l-1.5-0.4-0.1 0.8 0.8 0.3 1-0.4h1.4l1.9-0.2 2.1-0.1z"/>
			<path id="&lt;Path&gt;" class="s2" d="m177.1 32.4l-2.5 2.4-1.5 4.5-2.2-2.3-0.6-4 1.7-2.5 3.2 0.6z"/>
			<path id="&lt;Path&gt;" class="s3" d="m176 33.5l-1.4 1.3-0.8 2.4-1.9-2.5 0.1-1.6 1.3-0.5z"/>
			<path id="&lt;Path&gt;" class="s6" d="m158.5 37l-4.2 2.6-2 4.2-2.8 4.5-1.6 3.9-0.3 2.3c0 0 11-5.9 11.1-6.4 0.1-0.5 2.8-6.8 2.8-6.8z"/>
			<path id="&lt;Path&gt;" class="s6" d="m145.4 52.6l5.7-5.1 3.8-1.5 3-4.1 1.3 5 2.4 4 4.8 4.3 1.1 3.3c0 0 1.5 5.4 1.5 6.2 0 0.8 2 6.3 2 6.3l2.7 4.9 3.2 1.4-0.1 0.4-1.6 0.9-1.5 0.7 0.8 1.7 0.1 2.2-0.6-0.7h-1.1l-0.1 2.4-0.8 2.1-0.8-0.5-1.6 0.1-1 3.1-2.5 4.2-1.3-2-1.3-3.7c0 0-2-3.1-2-3.8 0-0.6-1.8-5.3-1.8-5.3l-1.4 4.1 1.3 4.6-1.2 0.5-2.9-4.5 0.6-5.7-0.4-8.2-2.3-5.9-6.6-0.4-4.7-2.2z"/>
			<path id="&lt;Path&gt;" class="s6" d="m158 33.3l-0.3 2-1 1.7-1.4 1.2v-0.8l1-2.5 0.8-1.8z"/>
			<path id="&lt;Path&gt;" class="s5" d="m159.4 41.1l-0.6 1 1 3.9 2 3.6 2.2 2 1.8 1.7 0.7 1 0.3-0.1-0.8-2.4-2.8-2.7-2.2-3.8-0.8-3.1-0.2-2.4z"/>
			<path id="&lt;Path&gt;" class="s5" d="m157.6 48.4l1.5 3.8-0.2 3.2 0.2 3.2 0.7 1.7-0.4 0.6c0 0-1.1-1.6-1.1-1.9 0-0.3-1-5.4-1-5.4l-1.3-3.9-0.8-2.7 1.4-0.6z"/>
			<path id="&lt;Path&gt;" class="s6" d="m152.4 39.6l-1.2 2.7-1.3 3.4-1.9 2.5-1.9 2.2-1.6 1.9-0.6 1.2-0.6-0.7 2-3.4c0 0 3.1-4.5 3.2-4.8 0.1-0.3 2.1-4.5 2.1-4.5l1.5-2 2-2.1 0.2 2.4z"/>
			<path id="&lt;Path&gt;" class="s6" d="m171.3 60.4l2.7 2 0.5 3.6 1.2 2.7 1 1.4-0.2 0.6-1.6-1.7-1.7-3.9-1.6-2.5-1.6-1.5-0.9-2.1z"/>
			<path id="&lt;Path&gt;" class="s6" d="m165.1 25.2l-1.7-2.4-2.3-0.4-2.2 0.9 0.3 0.5 2.5 0.1 1.8 1.5z"/>
			<path id="&lt;Path&gt;" class="s6" d="m169.5 24.3l-2-1.3-1.8-0.8-0.6 0.5 1.5 1 0.8 0.8z"/>
			<path id="&lt;Path&gt;" class="s6" d="m142.9 54.3l-2 1.7-1.2 1.8-0.5-0.4 1.6-3z"/>
			<path id="&lt;Path&gt;" class="s6" d="m142.7 56.6l-0.2 1.3-1.6 0.4 0.1-0.9z"/>
			<path id="&lt;Path&gt;" class="s6" d="m142.4 64.3l-1.9 2.6-1 3.2-0.7 1.4-0.7 0.5 0.7-2.4 0.2-2.8 0.9-2.1 2.2-1.7 1.5 0.4z"/>
			<path id="&lt;Path&gt;" class="s6" d="m143.5 47.4l-3.5 1.1-1.6 2.1-0.6 1.6-1.1 0.3-0.6-0.3 1-0.9 0.5-1.6 1.4-1.7 1.2-1.1 2.4-0.5 1.4-1.7 1.1 1.4z"/>
			<path id="&lt;Path&gt;" class="s6" d="m152.1 65.9l-1.4 3-2.2 1.6-2.4 1.4-0.7-0.3 2.8-2.4 0.2-2v-1.7z"/>
			<path id="&lt;Path&gt;" class="s2" d="m194.2 48.6l0.2 0.2-0.2 0.1-0.2-0.1z"/>
			<path id="&lt;Path&gt;" class="s2" d="m193.4 48.7l0.2 0.3-0.3 0.2-0.3-0.1 0.2-0.4z"/>
			<path id="&lt;Path&gt;" class="s2" d="m192.3 48.9l0.1 0.3-0.2 0.2-0.4-0.1 0.1-0.4z"/>
			<path id="&lt;Path&gt;" class="s2" d="m190.9 49l0.1 0.3-0.2 0.2h-0.3l-0.1-0.5z"/>
			<path id="&lt;Path&gt;" class="s2" d="m189.4 48.9l0.1 0.3h-0.4l-0.1-0.3 0.1-0.2z"/>
			<path id="&lt;Path&gt;" class="s2" d="m193.8 49.7v0.2l-0.2 0.1-0.2-0.3 0.2-0.3z"/>
			<path id="&lt;Path&gt;" class="s2" d="m192.4 49.8l0.2 0.3-0.3 0.1-0.2-0.1v-0.3z"/>
			<path id="&lt;Path&gt;" class="s2" d="m190.9 50.1l0.1 0.3h-0.3l-0.2-0.3 0.2-0.1z"/>
			<path id="&lt;Path&gt;" class="s2" d="m189.4 50l0.2 0.3-0.4 0.3-0.2-0.3 0.1-0.3z"/>
			<path id="&lt;Path&gt;" class="s2" d="m193.4 50.7v0.2l-0.1 0.1-0.2-0.2 0.1-0.2z"/>
			<path id="&lt;Path&gt;" class="s2" d="m191.9 50.9l0.1 0.2-0.1 0.1h-0.4l0.1-0.3 0.1-0.2z"/>
			<path id="&lt;Path&gt;" class="s2" d="m190.1 51.1l-0.1 0.3-0.3-0.1v-0.3l0.2-0.1z"/>
		</g>
		<g id="&lt;Group&gt;">
			<g id="&lt;Group&gt;">
			</g>
			<g id="&lt;Group&gt;">
			</g>
		</g>
		<g id="&lt;Group&gt;">
		</g>
		<g id="&lt;Group&gt;">
		</g>
		<g id="&lt;Group&gt;">
		</g>
	</g>
</svg>