<svg version="1.2" xmlns="http://www.w3.org/2000/svg" viewBox="0 0 219 225" width="500" height="500">
	<title>panda</title>
	<style>
		.s0 { fill: #333333 } 
		.s1 { fill: #e6e6e6 } 
		.s2 { opacity: .4;mix-blend-mode: multiply;fill: #333333 } 
		.s3 { opacity: .3;mix-blend-mode: multiply;fill: #333333 } 
		.s4 { fill: #1cbf00 } 
		.s5 { mix-blend-mode: multiply;fill: #1cbf00 } 
	</style>
	<g id="&lt;Group&gt;">
		<path id="&lt;Path&gt;" class="s0" d="m29.1 154.6c0.9 4.1 2.3 8.1 4.9 11.3 2.1 2.5 4.9 4.5 8 5.3q1.3 0.3 2.7 0.3c3.9-0.1 7.4-2.1 10.8-4.1q5.7-3.4 11.3-6.8c1.6-1 3.3-2 5.1-2.1 1.8-0.2 3.6 0.5 5.3 1.2 3.3 1.3 6.5 3.2 9.8 4.4q0.1-0.1 0.1-0.2c1.1-2.2 0.4-6.1-0.1-8.3q-0.3-1.2-0.7-2.4c-0.7-2-1.6-4-2.8-5.8q-1.4-2-3.1-3.7c-2.3-2.2-4.9-4-7.7-5.4q-1.7-0.8-3.4-1.5c-2.9-1-5.9-1.7-9-2.1q-0.9-0.1-1.8-0.1c-2.2-0.2-4.3 0-6.4 0.7-1.3 0.5-2.5 1.3-3.6 2.1-2.1 1.7-3.9 4-5.6 6.2q0 0-0.1 0c-1.8-1.3-3.9-2.2-6.2-2.3-2.2 0-4.6 0.8-6.1 2.5-2.5 2.8-2.2 7.1-1.4 10.8z"/>
		<path id="&lt;Path&gt;" class="s1" d="m69 135.3q0.1 0.8 0.3 1.5c0.7 3.3 1.8 6.5 3.2 9.6 3.3 7 8.4 13 14.6 17.5 5.3 3.9 11.4 6.8 17.8 8.3q2.9 0.7 5.9 1 3.7 0.4 7.4 0.2c9.4-0.5 21-5.2 30.3-12.1 7.5-5.5 13.5-12.4 15.7-19.7q0.9-2.9 0.9-5.9c0-6.1 0.7-9.3 0.7-17.3 0-9.6-1.1-20.5-4.3-30.3-4.5-13.7-13.1-25.4-28.2-29.1-12.4-2.9-25.8 0.5-36.3 7.8-10.4 7.3-18 18.2-23 29.9-5.1 12.1-7.5 25.8-5 38.6z"/>
		<path id="&lt;Path&gt;" class="s2" d="m42 171.2q1.3 0.3 2.7 0.3c3.9-0.1 7.4-2.1 10.8-4.1q5.7-3.4 11.3-6.8c1.6-1 3.3-2 5.1-2.1 1.8-0.2 3.6 0.5 5.3 1.2 3.3 1.3 6.5 3.2 9.8 4.4q0.1-0.1 0.1-0.2c6.9 5.1 15.2 8.4 23.7 9.3 2.2-1 4-2.4 5.3-4.2 3.1-4.5-3.7-4.6-6.7-5.1-8.5-1.2-16.7-5-23.1-10.7q-1-0.9-2-1.9c-4-4-7.2-8.8-11.2-12.7q-0.2-0.2-0.4-0.3c-1.2-1.1-2.4-2.1-3.7-3q0.1 0.8 0.3 1.5c-2.9-1-5.9-1.7-9-2.1q-0.9-0.1-1.8-0.1c0.8 4.7 1.1 9.6 0.1 14.4-1.1 5.6-4 11.1-8.7 14.3-1.9 1.3-3.9 2.2-5.6 3.7-1.2 1.1-2.2 2.6-2.3 4.2z"/>
		<path id="&lt;Path&gt;" class="s0" d="m89.5 191.5c-0.1 4.9 1.4 9.8 4.4 13.6 2.3 2.8 6.1 4.8 9.8 5.3q2 0.3 3.8 0.1c4.7-0.6 9.6-1.6 13.8-4 6.8-3.8 13.6-9.1 15.5-16.7 0.5-2 0.7-4.2 2.2-5.7 1.3-1.3 3.2-1.7 4.9-2.3 3.9-1.4 7.2-4.4 9.7-7.8 2.4-3.5 4-7.5 5.4-11.5 2.4-6.8 4.1-13.8 5.2-20.9q0.4-2.4 0.7-4.8c0.2-1.9 0.7-2.9-0.9-3.9-1.3-0.8-4.1-0.3-5.6-0.1-1.9 0.4-3.7 1.1-5.4 2-1.6 0.8-3 1.8-4.4 2.9-4.7 3.9-8.4 8.9-13.4 12.3-4.3 2.9-9.3 4.5-14.1 6.4-4.8 2-9.6 4.5-12.7 8.6-1.6 2.2-2.7 4.6-3.5 7.2q-0.4 1.4-0.7 2.8c-0.5 2.1-0.8 4.4-1.1 6.6q0 0 0 0.1c-2.1-2.6-7.9-1.9-10.3 0.4-2.4 2.2-3.3 6.1-3.3 9.4z"/>
		<path id="&lt;Path&gt;" class="s2" d="m103.7 210.4q2 0.3 3.8 0.1c4.7-0.6 9.6-1.6 13.8-4 6.8-3.8 13.6-9.1 15.5-16.7 0.5-2 0.7-4.2 2.2-5.7 1.3-1.3 3.2-1.7 4.9-2.3 3.9-1.4 7.2-4.4 9.7-7.8 2.4-3.5 4-7.5 5.4-11.5 2.4-6.8 4.1-13.8 5.2-20.9q0.9-2.9 0.9-5.9c0-6.1 0.7-9.3 0.7-17.3 0-9.6-1.1-20.5-4.3-30.3-0.3 0.8-0.5 1.6-0.7 2.3q-2.4 6.7-4 13.7-1.8 7.7-2.7 15.6c-0.5 5-0.8 10.1-1.1 15.1-0.3 4.5-0.6 9-1.3 13.4-0.6 4.5-1.6 8.9-3.2 13.1-1.7 4.8-4.1 9.3-7.4 13.1-1.7 2-3.6 3.8-5 5.9-1.3 1.9-2.1 3.9-2.9 6-1.8 4.7-12.2 21.2-29.5 24.1z"/>
		<path id="&lt;Path&gt;" class="s0" d="m75.1 104.9c-1 2.6-1.7 5.4-0.9 8 0.8 2.7 2.9 4.7 4.6 6.8 4 4.8 6.7 10.6 7.6 16.8 0.4 2.3 0.5 4.9-0.4 7.1-1 2.6-3.2 4.6-5.8 5.6-2.6 1-5.5 1.1-8.2 0.6-1.9 1.4-4.8 1-6.3-0.8-1.4-1.8-1.2-4.8 0.5-6.3-2.4-2.1-1.8-5.9-3.2-8.8-1.7-3.2-5.6-4.6-7.9-7.4-1.8-2.3-2.5-5.3-2.4-8.1 0.2-2.9 1-5.7 1.9-8.4 2.5-7.6 5.5-15.1 9.8-21.9 4.2-6.8 9.9-12.8 16.9-16.7 0.8-0.4 4.5 7.9 4.7 8.7 1 2.9 2.4 6 0 8.2-4.9 4.6-8.7 10.3-10.9 16.6z"/>
		<path id="&lt;Path&gt;" class="s3" d="m120.5 38.1c0 0 20.5-9.3 26 22.5 0 0 8.3 6.3-1.7 10.7 0 0 6.6 33.1-25.2 31.6-17.6 13-31.9 14.4-34.9-13.2v-5.2c0 0-8.3-5.5-7.3-22.5 0 0-0.6-5.6 11.3-13.2 3.8-2.4 3.1-7.6 16.7-13.4 5.4-1.6 8.2 2.1 15.1 2.7z"/>
		<path id="&lt;Path&gt;" class="s3" d="m74.6 71.6c2.1 7.1 6 9.7 6 9.7v0.5c0.2-0.5 0.2-1.3 0.3-1.6q0.5-2.6 1.2-5.3c-2.2 0.8-4.9-0.1-6.4-1.9-0.3-0.5-0.6-1-1.1-1.4z"/>
		<path id="&lt;Path&gt;" class="s2" d="m103.1 181.6c1.2 0.9 4.7 3.3 6 13.2 1.2-0.1 0.5-0.6 0.6-1.8 0.9-6.4-1.2-13.2-5.5-18-0.5 2.1-0.8 4.4-1.1 6.6z"/>
		<path id="&lt;Path&gt;" class="s2" d="m42.8 143.6c0.4 0.7 0.9 1.4 1.2 1.9 1.2 2.7 1.8 5.5 1.8 8.4 0 0.4 0 0.9 0.4 1.1 0.5 0.2 1-0.4 1.2-1 0.7-2.2 0.8-4.7 0.8-7q0.2-4.8 0.3-9.6c-2.1 1.7-3.9 4-5.6 6.2q0 0-0.1 0z"/>
		<path id="&lt;Path&gt;" class="s4" d="m92.3 97.5q1.2 0.9 2.4 2.1c13.4 12.8 17.2 39.3 17.4 40.9 0 0.1 1.7-0.5 1.7-0.5l1.2 1.9 1.9-0.3 1.5-0.3-0.4-3.9h2.5c-0.1-23.3-16.8-40.6-16.8-40.6 0 0-27.2-11.4-11.4 0.7z"/>
		<path id="&lt;Path&gt;" class="s5" d="m92.3 97.5q1.2 0.9 2.4 2.1c13.4 12.8 17.2 39.3 17.4 40.9 0 0.1 1.7-0.5 1.7-0.5l1.2 1.9 1.9-0.3c-0.5-22.9-20.2-44.4-20.2-44.4 0 0-1.4 1.4-4.4 0.3z"/>
		<path id="&lt;Path&gt;" class="s0" d="m151.2 63c3.1 12.1 11.3 21.7 13.8 33.9 1.8 8.6 1.1 17.6-2 25.8-1.9 5.3-5 10.4-9.5 13.9-5.4 4.2-12.8 5.7-19.4 4.1-6.6-1.6-10.7-7.5-15.3-12.7 0 0-4.2 2.7-8.8 0.1 0 1.6 0.3 3.3 0.7 5.2-2.5 0.9-5.5-1.4-5.3-4.1-1.3 0.4-2.6-0.5-3.2-1.7-0.6-1.2-0.7-2.6-0.7-3.9q0-2.9-0.1-5.8c0-1.6 0-3.3 0.7-4.8 1.3-2.9 4.6-4.2 7.7-4.9 8.5-1.7 17.6-0.3 25.3 3.7-0.3-3.2 1.1-6.3 2.9-9 1.7-2.7 3.8-5.1 5.2-8 2.9-6.1 2.2-13.2 0-19.5z"/>
		<g id="&lt;Group&gt;">
			<g id="&lt;Group&gt;">
				<path id="&lt;Path&gt;" class="s0" d="m101 27.6c-0.3-1.6-0.2-3.3-0.4-4.9-0.2-1.6-0.7-3.3-2-4.3-2.2-1.7-5.4-0.7-7.8 0.7-2.1 1.2-4.2 2.5-5.7 4.4-1.4 1.9-2.3 4.3-1.9 6.7 0.5 2.5 2.3 4.4 3.9 6.3 1.7 2 3.2 4.2 3 6.7 0.1-0.8 7.3-3.9 8.3-4.4 2.6-1.4 5.8-2.7 8.1-4.5-0.8-0.9-2.2-1.3-3.1-2.3-1.2-1.2-2-2.8-2.4-4.4z"/>
				<path id="&lt;Path&gt;" class="s1" d="m74.6 71.6c2.1 7.1 6 9.7 6 9.7v5.3c1.1 9.7 10.6 10.3 10.6 10.3 2.3 1.4 5.2 2 8.2 2 6.6 0.2 13.3-2.1 13.3-2.1q0.6 0 1.1 0c5.4 0.2 9.9-0.2 13.5-1 16.7-3.8 15.8-16 15.8-16 10-4.4 9.3-14.8 9.3-14.8-1.3-7.1-3.6-12.7-6.5-17.3-10-15.5-26.4-17.2-26.4-17.2-6.9-0.6-12.8 0.2-18.2 1.8-13.6 5.8-12.8 11-16.6 13.4-11.9 7.6-11.3 13.2-11.3 13.2-0.3 5.3 0.2 9.5 1.2 12.7z"/>
				<path id="&lt;Path&gt;" class="s0" d="m144.6 51.3c1.9-1 4.1-1.3 5.8-2.4 2.8-1.7 4.2-5.2 3.9-8.5-0.4-3.2-2.4-6.1-4.9-8.1-2.7-2.1-6.5-3.2-9.5-1.7-4.5 2.4-5.1 9.3-9.7 11.2-1.1 0.4-2.5 0.8-2.7 1.9-0.2 1.4 1.6 2 2.6 3 1.2 1 1.5 2.7 2.1 4.2 1.2 2.9 3.9 5 6.8 5.8 1.9 0.5 2.3 0.5 2.9-1.1 0.7-1.8 0.8-3.2 2.7-4.3z"/>
				<path id="&lt;Path&gt;" class="s0" d="m120.4 77c-0.2 2.1-1 4.3-2.9 5.3-2.4 1.3-5.3-0.1-7.7-1.5-1.6-1-3.4-2-4.3-3.6-1-1.7-1.1-3.8-0.7-5.7 0.4-1.8 1.3-3.6 2.1-5.3 0.9-1.7 2.1-4.2 4.1-4.9 2.1-0.8 4 1.5 5.3 3 3 3.5 4.6 8.1 4.1 12.7z"/>
				<path id="&lt;Path&gt;" class="s0" d="m94.4 55.4c0.1 0.8-0.2 1.6-0.5 2.4q-1.1 2.6-2.2 5.2c-0.7 1.6-1.4 3.4-3 4.2-1.9 1.1-4.3 0.3-6.1-0.9-1.1-0.8-2.1-1.8-2.2-3.2 0-1.2 0.9-2.2 1.7-3.1 2-2 4.2-3.8 6.5-5.4 1.6-1 5.5-2.3 5.8 0.8z"/>
				<path id="&lt;Path&gt;" class="s0" d="m85.4 83.8q4.7 2.3 9.3 4.5c0.3 0.2 0.7 0.4 0.8 0.7 0.1 0.6-0.5 1-1 1.3q-3 1.3-6 2.7c-0.8 0.3-1.7 0.6-2.4 0.2-0.5-0.3-0.8-0.9-1-1.4q-0.9-2.8-1.5-5.7c-0.2-1.6-0.4-3.4 1.8-2.3z"/>
				<path id="&lt;Path&gt;" class="s3" d="m127.3 95.8c16.7-3.8 15.8-16 15.8-16 10-4.4 9.3-14.8 9.3-14.8-1.3-7.1-3.6-12.7-6.5-17.3q-0.6-0.5-1.3-1.1c-2.4-1.9-7.3-4.1-7.2 0.7 0.1 4.6 1.9 9.1 1.9 13.9 0.1 5.1-1 10.4-3.9 14.6-2.2 3.1-5.2 5.5-7 8.8-1.9 3.4-2.3 7.5-1.1 11.2z"/>
			</g>
			<path id="&lt;Path&gt;" class="s3" d="m99.4 98.9c6.6 0.2 13.3-2.1 13.3-2.1q0.6 0 1.1 0c-1.3-1.5-2.2-3.1-2.1-5.3 0-0.4 0.1-0.8-0.1-1.2-0.1-0.3-0.5-0.7-0.9-0.5-0.3 0-0.4 0.3-0.6 0.6-1.9 3.6-5.2 6.4-9.1 7.6-0.6 0.2-1.3 0.4-1.6 0.9z"/>
		</g>
	</g>
</svg>