<svg version="1.2" xmlns="http://www.w3.org/2000/svg" viewBox="0 0 122 126" width="500" height="500">
	<title>penguin</title>
	<style>
		.s0 { fill: #2b2728 } 
		.s1 { fill: #f2e5a5 } 
		.s2 { fill: #f9ab10 } 
		.s3 { fill: #ea5f00 } 
		.s4 { fill: #020001 } 
		.s5 { fill: #4c4547 } 
		.s6 { fill: #e0c58d } 
		.s7 { fill: #fff4c5 } 
	</style>
	<g id="&lt;Group&gt;">
		<path id="&lt;Path&gt;" class="s0" d="m65.2 108.2v2.1l0.1 1.3-3.9 0.8-5.7-0.5-5-0.4-5.7 0.8-0.7-1.4 1.9-1.6 6.1-0.3 6.8-0.5z"/>
		<path id="&lt;Path&gt;" class="s1" d="m36.6 23.6l1.3-2.3 4.1-0.7 8.5-0.8 6.1-3.7 3.8-0.4 6.1 2.3 5.8 9.3 1.4 3.2 0.1 2.3 4.3 4.3 2.5 9.3 2 15.4v3.7l0.4 22.4-1.3 7.9-0.2 3.9 3.6 5.5 4.1 2.8v1.6l-1.3 1.7-7.3-0.3-6.6-2.1h-7.3l-3.9 1.5-6.2-0.6-1.1-3.5v-5.3l-2.8-2.6-0.4-5-4.6-13.9-4.4-9.1-2.6-4.2-0.3-5.4c0 0-0.4-6.3-0.6-7.3-0.2-0.9-0.6-6.3-0.6-7.1 0-0.7 2.7-6.2 2.8-6.9 0.2-0.8 6.6-7.9 6.6-7.9l1.9-3.1-0.2-2.8-2.8-1.7-6.8-1z"/>
		<path id="&lt;Path&gt;" class="s2" d="m67.8 33.1c0-0.4 1-5.4 1-5.4l-2.9-5.5c0 0-4.5-2.1-5.1-2.1-0.6 0-7 2.9-7.3 3-0.2 0-1.6 1.1-3.3 2.5l0.1 0.1 0.2 2.8-1.9 3.1c0 0-3.8 4.3-5.6 6.5l2.7-1.3 4.5-1.9 3.7-0.3 3.2 0.5c0 0 6.8 0.5 7.2 0.2 0.4-0.2 3.5-1.9 3.5-2.2z"/>
		<path id="&lt;Path&gt;" class="s3" d="m55.2 29.1l1.4 1.4 2.3-0.4 2-1.4 0.5-3.5 0.4-3.4-3.1-0.6-2.5 2.1z"/>
		<path id="&lt;Path&gt;" class="s0" d="m87.9 111.3l1.3-1.7v-1.6l-4.1-2.8-3.6-5.5 0.2-3.9 1.3-7.9-0.4-22.4v-3.7l-2-15.4-2.5-9.3-4.3-4.3-0.1-2.3-1.4-3.2-5.8-9.3-6.1-2.3-3.8 0.4-6.1 3.7-8.5 0.8-4.1 0.7-1.3 2.3 4.1-0.6 6.8 1 2.8 1.7 0.2 2.8-0.8 1.2 1.5-0.4 2.4 0.3 4.2-0.1 1-1.2-0.5-3v-2.2l1.8-0.4 4.1 1.5 2.8 4.1 0.7 2.5-1.5 1.5-2.4 0.4h-3.2l0.3-1 1.4-0.5-2.4-0.4-4.2 1 0.4 2.5c0 0 1.1 5 1.1 5.4 0 0.4 0.4 4.7 0.4 4.7l0.2 4.3 2 9.2 2.5 13.5 1.8 1.8 1.7 2 1 3.4 1.1 3.5 0.3 2.6 2.1 1.4 1.6 0.6-0.2 3.1-0.3 4.1-1.7 2-2.2 3.1-0.7 3.5-0.8 3.3-0.5 3.6 1.2-0.5h7.3l6.6 2.1z"/>
		<path id="&lt;Path&gt;" class="s4" d="m59.8 36.1l0.4-3 0.7-0.4h-0.3l0.3-1 1.4-0.5-2.4-0.4-4.2 1 0.4 2.5c0 0 1.1 5 1.1 5.4 0 0.4 0.4 4.7 0.4 4.7l0.2 4.3 2 9.2 0.1 0.2 0.3-1.1-0.3-4.6c0 0-0.7-3-0.7-3.4 0-0.3-0.3-3.6-0.3-4 0-0.3 0.4-4.7 0.4-4.7z"/>
		<path id="&lt;Path&gt;" class="s5" d="m60.4 48.5l-0.8-3.1 0.1-2.1 1.1-2.1 2.3-0.1 3.3 1.7 1.9 3 0.5 2.2c0 0 0.2 2.3 0.2 2.8 0 0.5-0.7 2.6-0.7 2.6l-1.9-0.7z"/>
		<path id="&lt;Path&gt;" class="s4" d="m60.1 44.8l-0.3 2.5-0.7 3.5-1.5 4.3-1.9 7.9 0.9 6.4 1.6 8.1 4.4 7.7 2.9 4.6 0.7 0.9 0.8-0.9 0.3-1.7-0.9-7-1.6-4.3 0.4-2.2c0 0 1-1.4 1-1.7 0-0.4 0.2-2.9 0.2-2.9 0 0-0.2-2-0.2-2.5 0-0.5 0.5-2.1 0.5-2.6 0-0.5 1-2.6 1-2.6l1-2.7 0.3-2.2c0 0-0.1-3-0.2-3.4-0.1-0.4-1.4-3.3-1.4-3.3l-1.6-2.4-0.1-2.5-1-1.3-1.5-0.3-1.9-0.2z"/>
		<path id="&lt;Path&gt;" class="s0" d="m66.9 51.5v-1.7l-1.1-1.5-0.1-2.5-1-1.3-1.5-0.3-1.9-0.2-0.4 0.3 0.2 3.1-0.5 3-2 6.4-1.3 4.1-0.2 4.1 0.6 5.2 1.6 7.1 2.8 5.7 3.1 5.2 0.7-0.5-1-5-0.7-4.2-0.3-2.9 0.8-2.4 0.7-2-0.1-2.3-0.2-2.7 0.9-2.2c0 0 1.5-3.5 1.5-3.9 0-0.3 0.4-4.6 0.4-4.6z"/>
		<path id="&lt;Path&gt;" class="s2" d="m39.2 22.7l3.3-0.6h2.6l3.9 0.6 1.3 0.5-0.2 0.8-1.5-0.5-3.9-0.8h-2.2z"/>
		<path id="&lt;Path&gt;" class="s4" d="m81.6 97l0.1-1.2 1.3-7.9-0.4-22.4v-3.7l-2-15.4-2.5-9.3-4.3-4.3-0.1-2.3-1.4-3.2-0.9-1.4 0.5 2.7v4l-2.2 3.7-0.8 1.8 1.6 0.6 2.2 4 1.8 11.6 0.7 13.9-0.3 11.3-0.4 9.4-1 6.7-1 2.5 0.7 0.8 4.6-0.5z"/>
		<path id="&lt;Path&gt;" class="s5" d="m85.1 105.2l-3.6-5.5 0.1-0.9-2.5 1.9-4.6 1.1-4.2 1v1.1l5.5 1.6 5.5 0.4h3.5l0.5-0.6z"/>
		<path id="&lt;Path&gt;" class="s6" d="m61.1 94.3l-2.2-4.5-1.6-5.8-3.2-8-1.5-4.1-4.6-2.9-4.4-2.4-2.5-2.7c0 0-0.3-1-0.7-2.3l0.3 4.6 2.6 4.2 4.4 9.1 4.6 13.9 0.4 5 2.8 2.6v5.3l1.1 3.5 4.6 0.4-0.6-7 0.1-4.3z"/>
		<path id="&lt;Path&gt;" class="s7" d="m52.6 36.6l-4.9 0.7-3 1.6c0 0-1.6 2.4-1.7 2.8-0.1 0.3-1.5 8.2-1.5 8.2l0.5 6.7 0.9 1.8 2.3-0.6 2.8-5.5 3-5.3 2.5-2 1.3-3 0.4-3.4z"/>
		<path id="&lt;Path&gt;" class="s4" d="m87.6 109.3l-3.7 0.3-3.6-0.1-3.5-1.3-4.6-0.7-3.3 0.3-0.8 1.1h5.9l6.6 2.1 7.3 0.3 1.3-1.7v-0.5z"/>
	</g>
</svg>