<svg version="1.2" xmlns="http://www.w3.org/2000/svg" viewBox="0 0 153 113" width="500" height="500">
	<title>racoon</title>
	<style>
		.s0 { fill: #5e4f41 } 
		.s1 { fill: #9a8a73 } 
		.s2 { fill: #81715f } 
		.s3 { fill: #c0b198 } 
		.s4 { fill: #332921 } 
		.s5 { mix-blend-mode: multiply;fill: #d0cac2 } 
		.s6 { fill: #a79782 } 
	</style>
	<g id="&lt;Group&gt;">
		<path id="&lt;Path&gt;" class="s0" d="m126.8 30.5l2.3-2.8 1.5 1.4-0.1 1.7-1.7 1z"/>
		<path id="&lt;Path&gt;" class="s0" d="m73.8 64.2l4.6 3.2 3.1 2.4 1.7 0.6 0.5 1.5 6.1 0.7 0.5-1.2-1.9-2.3-4.6-1.7-3.1-4.3 3.1-2 3-2.3 0.9-3-6.8-0.2z"/>
		<path id="&lt;Path&gt;" class="s1" d="m90.3 71.4l-1.9-2.3-4.6-1.7-0.8-1.1q0 0.1 0 0c0 0-2.2 0.5-2.3 0.9-0.1 0.2-0.3 0.9-0.5 1.6l1.3 1 1.7 0.6 0.5 1.5 6.1 0.7z"/>
		<path id="&lt;Path&gt;" class="s0" d="m115 55.7l2.1 3.4 4.3 3.8 2.1 1.7-0.3 2.3-2.8 2.9-2 0.2-0.5-1 1.8-2.5-0.6-1.4-6.9-3.3z"/>
		<path id="&lt;Path&gt;" class="s1" d="m123.5 64.6l-2.1-1.7-0.3-0.3-0.3 0.2-2.1 0.3-0.1 1.8 0.5 0.2 0.7 1.4-1.9 2.5 0.5 1 2-0.2 2.8-2.9z"/>
		<path id="&lt;Path&gt;" class="s2" d="m132.1 36.3l1.1 1.5 5 3.1-0.4 2.7-2.2 1.3-7.9 0.3-3.4 0.7-4 3.2-3.1 5.5-2.7 4.1-1.1 2-0.6 6.1 0.1 3.1 1 1.5 2.6 1.2 1.9 1.5v1l-6.4-0.3-0.7-1.2-1.5-0.7-0.6-2.7-2-5.4-4.4-4.2-1.3-1.2-3.4 0.5-9.1-1.8-3.8-1.5-3 1.2-5.8 6.5-3.7 2.5-0.9 0.6 4.6 2.6 5.4 1.5 2.9 1.3 0.3 1.6-5-0.1h-3.2l-0.8-1.1-2.1-0.6-6.8-2.7-2.8-1.7 0.8-2.8 2.5-2.3-3.8-2.2c0 0-6.6-7.5-6.5-7.8 0.2-0.4-1.5-9.6-1.5-9.6l2.1-6.3 5.5-5.6 15.4-7.9 10.2-1.7 5.1 0.7 7.5 3.8 8.4 2.8 5.9 0.4 6.6-1.4 4 1.4 3.4 2.1z"/>
		<path id="&lt;Path&gt;" class="s2" d="m58.7 37.7l-5.9 5.4-7.1 5.2-11.1 5.1-7.4 3.1-5.2 3.6-2.7 3.5 0.4 5.8 1.8 1.3 7.1 0.3 12.9-5.6 8.7-6.1 4.6-4.2 3.6-5.2z"/>
		<path id="&lt;Path&gt;" class="s3" d="m133.3 38.6l-1.9-1.7-0.6-1.8-1.6-3.2-2.3 0.1-3.7 1.4-3.5 2.8-2.8 3.3-1 4.5 1.1 3.3 2.5 3.3 0.8-1.5 4-3.2 3.4-0.7 7.9-0.3 1.3-0.8 0.5-2-1.4-1.8z"/>
		<path id="&lt;Path&gt;" class="s0" d="m126.5 45.4l-0.4-1.7 2.4-1.9 2.8-0.9 0.6-2.2 0.9-1.3-0.7-1.1-1.3-2.7-3.2 0.9-3.6 2.5-2.6 4.3 0.1 3.4 1.5 2.2 1.3-1z"/>
		<path id="&lt;Path&gt;" class="s4" d="m136.7 41.8l0.7 0.3 0.6 0.4 0.2-1.6-0.4-0.3-1.2 0.3z"/>
		<path id="&lt;Path&gt;" class="s5" d="m136.9 44.1l-3.3 0.1-4.6-0.2-3.2 0.5-5.1 2.4-2.5 4-1.8 3.8-1.9 2.1 0.2 1.8 2.5-4 3.1-5.5 4-3.2 3.4-0.7 7.9-0.3z"/>
		<path id="&lt;Path&gt;" class="s3" d="m85 74.4l-0.3-1.6-2.9-1.3-5.4-1.5-2.4-1.3c-0.6 0.4-1.5 1.1-1.7 1.3-0.4 0.5 0 1.3 0.2 1.7 0 0.1 0.2 0.3 0.5 0.5l0.9 0.4 2.1 0.6 0.8 1.1h3.2z"/>
		<path id="&lt;Path&gt;" class="s3" d="m113.9 71.4l-1-1.5v-1.6l-0.5-0.2-2.1-0.6c0 0-0.8 1-1.4 1.9l0.3 0.8 0.6 2.7 1.5 0.7 0.7 1.2 6.4 0.3v-1l-1.9-1.5z"/>
		<path id="&lt;Path&gt;" class="s5" d="m82.4 73.7l-1.1-1.3h-1.7l-1.5 1.1-4-2-6.4-3-0.9-1.9 1.8-1.8 1.8-1.5 0.1-2.8-2.1-3.7-6.7-4.4-3-6.7-2-4.9-0.9 2.7c0 0 1.7 9.2 1.5 9.6-0.1 0.3 6.5 7.8 6.5 7.8l3.8 2.2-2.5 2.3-0.8 2.8 2.8 1.7 6.8 2.7 2.1 0.6 0.8 1.1h3.2l2.5 0.1z"/>
		<path id="&lt;Path&gt;" class="s5" d="m116.7 73.5l-2-0.3-1.9 0.3-1.5-1.3-1.1-3-1.5-4-2.9-3.1-1.8-2.7 1.4-3.2 1.2-4.1-3.4-0.9-8-0.5-8.4-2-3.5-3.4-2.1 1.6 1.2 5.2-1.8 2.7c0 0-1.2 3.2-1.2 3.7 0 0.5-2.8 3.7-2.9 4.2 0 0.2-0.7 1.5-1.3 2.4l1.2-0.8 5.8-6.5 3-1.2 3.8 1.5 9.1 1.8 3.4-0.5 1.3 1.2 4.4 4.2 2 5.4 0.6 2.7 1.5 0.7 0.7 1.2 5.2 0.3z"/>
		<path id="&lt;Path&gt;" class="s2" d="m129.3 37.3l3.1 2c0.3-0.2-2.3-2.8-2.3-2.8z"/>
		<path id="&lt;Path&gt;" class="s4" d="m130.6 35.2l-0.1 0.7 0.1 1.2-1.3 0.2-1.5-0.9 1.5-0.4z"/>
		<path id="&lt;Path&gt;" class="s6" d="m124.1 28.9l-1.6-0.6-6.6 1.4-5.9-0.4-8.4-2.8-7.5-3.8-5.1-0.7-10.2 1.7-15.4 7.9-4.6 4.7 5.2-3.2 9.6-4.5 11.6-4.4 7.2 0.8 4.8 2.8c0 0 11.2 3.9 11.8 3.9 0.6 0 6 0.1 6.4-0.1 0.3-0.3 3.9-0.6 4.2-1 0.4-0.3 3-1.1 3.4-1.3 0.1-0.1 0.5-0.3 1.1-0.4z"/>
		<path id="&lt;Path&gt;" class="s0" d="m120.1 32.9l3.8-1.6 0.7-1.8-0.3-3.1-1.8-1.3-2.1 1.5-0.6 2.7z"/>
		<path id="&lt;Path&gt;" class="s3" d="m122.5 25.1l-2.1 1.5-0.6 2.7 0.3 3.6 1.9-0.7-0.6-3.6 0.8-2.1 1 0.3 0.5 1.5-0.4 2.5v0.8l0.6-0.3 0.7-1.8-0.3-3.1z"/>
		<path id="&lt;Path&gt;" class="s0" d="m33.9 67.5l-2.4-2.9-2.5-4.6 0.9-4.6-2.7 1.1-0.2 0.2-1 8.1 3.6 3.9 1.8 1.1 3.4-1.5z"/>
		<path id="&lt;Path&gt;" class="s0" d="m28.3 71l-1.8-2c0 0-2.1-2.5-2.2-2.9-0.1-0.3-1.2-3.1-1.2-3.1l0.3-3.9-1.4 1-2.7 3.5 0.4 5.8 1.8 1.3z"/>
		<path id="&lt;Path&gt;" class="s0" d="m37.7 63.7c-0.3-0.4-1.6-3.1-2-3.5-0.3-0.3-0.7-2.4-0.7-2.4l1.2-5.2-1.6 0.8-0.5 0.2-1.4 3.4c0 0 0.3 4.7 0.4 5.1 0.1 0.3 2.2 4.6 2.2 4.6l1.1 0.9 3.2-1.3c-0.7-1-1.7-2.4-1.9-2.6z"/>
		<path id="&lt;Path&gt;" class="s0" d="m44.8 63.1l-0.6-0.7-2.1-4-1.4-4 0.4-4-2.6 1.2c-0.1 1.3-0.3 3.2-0.2 3.7 0.1 0.6 1.7 5.5 1.9 6.1 0.2 0.3 1.2 2.3 1.9 3.6z"/>
		<path id="&lt;Path&gt;" class="s0" d="m50.5 59h-0.2l-2-1.6c0 0-1.6-1.7-2-2.3-0.5-0.5-1.8-3-1.8-3l-0.3-3.1-1.6 0.7c0 1.4-0.1 3.7 0 4.1 0.1 0.4 1.5 3.4 1.5 3.4l2.8 2.7 1.4 0.7 1.9-1.3z"/>
		<path id="&lt;Path&gt;" class="s0" d="m53.1 54.2l-1.8-1.5-1.9-3.1-0.9-3.3-1.7 1.2c0 0.6 0.1 1.2 0.3 1.4 0.3 0.6 1.3 3.6 1.6 4 0.2 0.5 2.1 2.9 2.2 3.3 0 0.2 1 0.5 1.9 0.7l1.9-1.7z"/>
		<path id="&lt;Path&gt;" class="s0" d="m56.7 52.4l-2.5-2.7-2.3-2.8-0.7-2.6-1.2 0.8 0.3 2.2 2.7 2.9c0 0 2 2 3.4 2.7z"/>
		<path id="&lt;Path&gt;" class="s5" d="m50.2 59.3l4.6-4.2 3.6-5.2 0.1-5-1.5 0.9-4.3 7.6-7.3 4.6-13.4 7.3-7.8 1.7-3.6-1.3-1.2-0.4 0.3 4.1 1.8 1.3 7.1 0.3 12.9-5.6z"/>
	</g>
</svg>