<svg version="1.2" xmlns="http://www.w3.org/2000/svg" viewBox="0 0 246 175" width="500" height="500">
	<title>seal</title>
	<style>
		.s0 { fill: #f2e0c1 } 
		.s1 { fill: #ffecd4 } 
		.s2 { fill: #d1b284 } 
		.s3 { fill: #e0c59d } 
		.s4 { fill: #bf9a6d } 
		.s5 { fill: #665f5c } 
		.s6 { fill: #47403d } 
		.s7 { fill: #110d0e } 
		.s8 { fill: #a09793 } 
		.s9 { fill: #2d2826 } 
	</style>
	<g id="&lt;Group&gt;">
		<path id="&lt;Path&gt;" class="s0" d="m105.9 65.3l-6.6-2-4.6-6.6-3.6-10.2-2.8-8.4-10.2-6.4-6.1-1.3-6.9 1-7.1 5.6-5.3 10-2.1 11.7 0.5 7.9 3.1 19.1 1.7 16.5 3.1 11 4.6 7.7 13 4 13.2 1.1h25.7l21.7-0.3 30.6 0.5 24.4-0.7 3.1-3.6 1-6.3-5.1-10.7-10.4-16.9-11-6.9-15.5-5.8-24-5.6-11.4-1.8z"/>
		<path id="&lt;Path&gt;" class="s1" d="m61.5 112.7l-5.3 7.4-5.9 0.2-1.8 2.1 8.4 1.8 10.5 0.2 3.3-4.6z"/>
		<path id="&lt;Path&gt;" class="s2" d="m70.7 119.8l-4.2-3.2-3.4 2.7-5.9 2.3-5.2-1.3h-1.7l-1.8 2.1 8.4 1.8 10.5 0.2z"/>
		<path id="&lt;Path&gt;" class="s1" d="m76.7 34.2l-6.8 0.3-3.2-0.4-3.6 1-4.1 4.6-3 7.8c0 0 0 8.1 0 8.5 0 0.4 2 6.1 2 6.1l9.5 8.8 3.4 2.4 3.1-0.7 5.3-3.6c0 0 5.4-6.7 5.4-7.1 0-0.4 2.5-7 2.5-7l0.5-6.4-0.9-5.2-2.6-5-2.9-2.4-3-1.3z"/>
		<path id="&lt;Path&gt;" class="s3" d="m65.8 57.9l1.2 3.6 2.9 3c0 0 2.5 0.4 3 0.2 0.6-0.2 3.6-2.4 3.6-2.4 0 0 1.5-1.7 1.7-2.2 0.2-0.5 0.5-3 0.5-3l-3.2-1.9-4.8 0.3z"/>
		<path id="&lt;Path&gt;" class="s1" d="m189.9 108.4l15.3-0.2 14.3 1.8 4.6 2.8-0.5 3.8-2.6 2.3-5.3 2.8-24.7-6.7z"/>
		<path id="&lt;Path&gt;" class="s3" d="m185.9 117.3l-39.5-3.3h-11.7l-2.6-0.2c-5.3-1.5-12-3.4-12-3.4l-12.4-3.3-8.5-2.5-9.4 2.8-4 0.3-2.1-3.2-3.8-0.5-1.3-1.7-6.1-3.6-4.6-2.8v-3.8l-1.5-0.3-2.3-1.8-1.3-4.1-4.8-5.1-4.6-8.6-2.7-14-0.1 0.5 0.5 7.9 3.1 19.1 1.7 16.5 3.1 11 4.6 7.7 13 4 13.2 1.1h25.7l21.7-0.3 30.6 0.5 24.4-0.7 3.1-3.6 0.2-1.6z"/>
		<path id="&lt;Path&gt;" class="s1" d="m169.8 81.1l-15.5-5.8-24-5.6-11.4-1.8-13-2.6-6.6-2-2.1-3 1 5 4.6 7.4 4.9 1.5 8.4 0.8 33.4 6.1 28.2 10 10.7 11.7 2.1 1-9.7-15.8z"/>
		<path id="&lt;Path&gt;" class="s0" d="m71.7 113.5c0-1.1-0.7-8.2-0.7-9 0-0.7 2-8.9 2-8.9l6.1-3.8 7.7 0.3 6.1 3.8 2.8 5.9-1 11.2-3.6 9.1-3.1 1.6-2.8 5.3-1.5 2-11.5 0.6h-8.9l-6.9-0.6-0.7-1.7 4.1-3.4 4.8 0.3h6.6l0.8-3.6z"/>
		<path id="&lt;Path&gt;" class="s2" d="m72.2 131.6l11.5-0.6 1.5-2 2.8-5.3 3.1-1.6 3.6-9.1 1-11.1-4.3 3.7-1.8 7.4-3.6 8.1-5.6 6.9-7.4-0.8-2-1h-6.4l-4.8-0.3-4.1 3.4 0.7 1.7 6.9 0.6z"/>
		<path id="&lt;Path&gt;" class="s1" d="m63.8 129.3l11-0.3-5.9-1.5-1.4-1.3h-2.9l-4.8-0.3-3.8 3z"/>
		<path id="&lt;Path&gt;" class="s1" d="m82.4 98.4l3.6 1.3-0.5 8.7-4.1 12.5-3.6 3.5-1.5-1.5 4.9-14.3z"/>
		<path id="&lt;Path&gt;" class="s2" d="m192.5 112.2l-2.6-3.8-4.3-1.5-5.3 1.8-4.1 4.3-0.3 5.9 2.1 3.5 5.8 1.8 6.9-2.5z"/>
		<path id="&lt;Path&gt;" class="s0" d="m188.7 110.7l-3.1-0.8-3.8 1.8-2.6 5.4 1.8 3.5 3.3 2.1 3.6 0.7 13 5.7 12.5 2.5 3.8-0.8 0.5-1.7 3.1-0.8 1.5-3.8-11.7-8.7-6.1-3z"/>
		<path id="&lt;Path&gt;" class="s4" d="m207 126.5c-0.8 0-15-4.6-15-4.6l-8.4-3.3-0.8-4.3 4.4-4-1.6-0.4-3.8 1.8-2.6 5.4 1.8 3.5 3.3 2.1 3.6 0.7 13 5.7 12.5 2.5 3.8-0.8 0.4-1.3c-3.8-1.2-10.1-3-10.6-3z"/>
		<path id="&lt;Path&gt;" class="s3" d="m202.2 115l-2.8-0.2 1.8 2.3 6.1 2.3 6.1 2 8.6 3.8 0.3-0.7-1.4-1-10.6-4.1z"/>
		<path id="&lt;Path&gt;" class="s3" d="m214.9 123.7l-18.8-6.4-8.5-2.3-0.5 1.3 10 4.6 17.3 5.6 4.3 2.3 2.1-0.5 0.6-1.5z"/>
		<path id="&lt;Path&gt;" class="s5" d="m68.6 38.9l-0.7 0.3-0.6 0.7 1.4 0.4z"/>
		<path id="&lt;Path&gt;" class="s5" d="m76 39.2l-0.5 1.1h1.4l-0.2-0.9z"/>
		<path id="&lt;Path&gt;" class="s6" d="m67.3 44.8l-3.1 2.6-1.4 0.1-1.9-2 0.8-2.1 2.2-1.5 2.8 0.2z"/>
		<path id="&lt;Path&gt;" class="s6" d="m79.1 41.7l-1.7 1.6 0.1 1.7 4 3 0.9-0.5 1.5-2.6-1.2-2-1.7-1.1z"/>
		<path id="&lt;Path&gt;" class="s5" d="m67.8 58c0.1 0.3 0.9 1.4 0.9 1.4l2.5 0.2 3.5-0.1 1.6-2-2.3-1.8-2.2-0.2-2.1 0.6z"/>
		<path id="&lt;Path&gt;" class="s7" d="m74 55.7l-2.2-0.2-2.1 0.6-0.4 0.4 1.3 0.8 2 0.1 1.6-0.2 0.9-0.7z"/>
		<path id="&lt;Path&gt;" class="s8" d="m70 58.7l-1.6-1.3-0.6 0.6c0.1 0.3 0.9 1.4 0.9 1.4l2.5 0.2 3.5-0.1 1.6-2-0.4-0.3-1.4 1.3-2.1 0.4z"/>
		<path id="&lt;Path&gt;" class="s5" d="m72.4 56.1l-1.2 0.5-2.4 1.9-2.6 0.8-2.5-1-0.9-2.2 1.1-3.2 2.5-1.9 3.6-0.5c0 0 3.5-0.1 3.8 0.1 0.2 0.2 5.2 1 5.2 1l1.5 1.8 0.7 3-0.4 1.5-1 0.9-1.9 0.3-2-0.6-2-1.8z"/>
		<path id="&lt;Path&gt;" class="s8" d="m81 57l-1.8 0.8-1.8 0.3-1.9-1-3-1.8-1.8 0.2-2.2 1.7-2.2 0.7-1.7-0.3-1.6-1.8-0.2 0.3 0.9 2.2 2.5 1 2.6-0.8 2.4-1.9 1.2-0.5 1.5 0.6 2 1.8 2 0.6 1.9-0.3 1-0.9 0.2-0.9z"/>
		<path id="&lt;Path&gt;" class="s6" d="m68.6 51.4l-2.7 1.4-0.9 1.4 0.5 1.2 0.7 0.7 2.1-0.4 2.8-1.1h2.3l3.1 1.8 2 0.3 0.9-1.2v-1.4l-0.5-1.3-1.7-0.9-2.7-0.5h-3.2z"/>
		<path id="&lt;Path&gt;" class="s7" d="m83.3 45l0.3-0.6-0.9-1.5-1.7-1.1-1.9-0.1-1.1 1c0 0.3 0 0.4 0 0.4 0 0 0.4 1.4 0.5 1.7 0.1 0.2 0.7 0.8 0.7 0.8l1.1 0.7 1.1 0.2 0.9-0.2z"/>
		<path id="&lt;Path&gt;" class="s7" d="m66.3 44.4l-0.1-1.3-0.5-1.1-1.8-0.1-2.2 1.5-0.2 0.4c0.1 0.3 0.1 0.7 0.2 0.8 0 0.2 0.3 1.1 0.3 1.1l0.8 0.8 1.1 0.2 1.4-0.8z"/>
		<path id="&lt;Path&gt;" class="s0" d="m63.7 43.5l-0.6 0.3 0.2 0.7 0.4-0.1 0.3-0.6z"/>
		<path id="&lt;Path&gt;" class="s0" d="m81.6 43.4l-0.4-0.1-0.2 0.6 0.1 0.4h0.3z"/>
		<path id="&lt;Path&gt;" class="s9" d="m69.3 48.8l1.4-0.5h2l2.3 0.4 1 1.2-0.2 1.4-1.8 0.7-1.1 1.1-0.4 1.1-0.6-0.1-0.6-1.3-1.2-0.5-2-1-0.3-1.3 0.4-0.7z"/>
		<path id="&lt;Path&gt;" class="s7" d="m70.6 51.7l-1.8-0.8v-1h1l0.9 0.8z"/>
		<path id="&lt;Path&gt;" class="s7" d="m73.1 51.8l0.4-1.5 0.8-0.4 0.8 0.1 0.3 0.9z"/>
		<path id="&lt;Path&gt;" class="s5" d="m70 49.2l1.4-0.4 2.7 0.4-1 0.7-2.1 0.1z"/>
	</g>
</svg>