<svg version="1.2" xmlns="http://www.w3.org/2000/svg" viewBox="0 0 215 176" width="500" height="500">
	<title>tiger</title>
	<style>
		.s0 { fill: #ba570d } 
		.s1 { fill: #6d5652 } 
		.s2 { fill: #cead97 } 
		.s3 { fill: #f4852a } 
		.s4 { fill: #dd7517 } 
		.s5 { fill: #564642 } 
		.s6 { fill: #f4d7c3 } 
		.s7 { fill: #352725 } 
	</style>
	<g id="&lt;Group&gt;">
		<path id="&lt;Path&gt;" class="s0" d="m72.1 67.7l-9.1 5.1-8.2 15.2-4.3 16-3.7 13.3-5.8 5.5-6.1 0.9-6.3-2.3-3.1-6-2.9-0.7-0.9 2.6 3.9 9.3 8.1 2.7 7.1 0.4 6.1-3.2 9.6-11.4 3.8-16.4 1.7-14.7 4.6-9.7z"/>
		<path id="&lt;Path&gt;" class="s1" d="m56.5 84.9l0.9-1.7 3 1.8-1.3 1z"/>
		<path id="&lt;Path&gt;" class="s1" d="m53.8 91.9l0.4-1.7 2.6 0.7 2.7 0.3 0.2 1.4-3.9-0.1z"/>
		<path id="&lt;Path&gt;" class="s1" d="m52.4 97l0.8-2.9 2.1 1.7 3.3 1 0.5 1.5-3.2 0.4z"/>
		<path id="&lt;Path&gt;" class="s1" d="m51.4 101.3q0 0-0.2-0.1l0.5-1.9 2.2 1.9h4.5l0.4 1-3.3 0.6c0 0-3.7-1.3-4.1-1.5z"/>
		<path id="&lt;Path&gt;" class="s1" d="m50 105.7l4.2 2.7 3.7 0.4v0.4l-1.8 2c0 0-3.8-0.1-4.1-0.5-0.2-0.2-1.6-1.3-2.8-2.2z"/>
		<path id="&lt;Path&gt;" class="s1" d="m46.8 117.3l0.3-1 1.3 2.5 4 1.1-1.4 1.7-2.5-0.4c0 0-1.9-1.9-2.8-2.9z"/>
		<path id="&lt;Path&gt;" class="s2" d="m93.5 106.4l-2.3 8.4-5.9 9.9-5.5 5-2.6 2.1v1.7l5.4 6.7 3.9 3.5 5.1 1 2.4 0.5 2 3.5 0.3 2-1.7 0.4h-1.4l-0.6 1.4h-5.3l-4.5-0.3-1.4-0.7-0.1-1.3-2.3-3-1.4-0.5-3.5-5.2-5.3-6.4-3.8-3.5-0.2-2.7 2.6-2.9 1.5-8.9 10.7-17.7z"/>
		<path id="&lt;Path&gt;" class="s1" d="m79.6 119.7c0.4-0.1 4.5 0.6 4.5 0.6l2.9 1.5-1.7 2.9h-0.1c-0.8-0.5-2.2-1.3-2.7-1.6-1-0.5-2.6-1.7-2.6-1.7l-4.8 0.4 0.1-1.1c0 0 4.1-0.9 4.4-1z"/>
		<path id="&lt;Path&gt;" class="s1" d="m84.6 114c0.3 0.2 3.2 1.2 3.5 1.3 0.1 0.1 1.5 0.1 2.7 0.1l-1.8 3c-0.9-0.1-1.9-0.3-2.3-0.5-0.8-0.4-2.5-1.8-3.1-2.3-0.6-0.5-2.7-1.3-2.7-1.3l-5.2 0.3-0.2-1.3c0 0 4.8-0.2 6.2-0.2 1.5 0 2.6 0.6 2.9 0.9z"/>
		<path id="&lt;Path&gt;" class="s2" d="m162 106.9l-3.3 12.4-1.8 17.8-0.3 3.2 0.4 2.1 2.6 1.9 3.1 3.4v1.5l-1.7 1-0.9 0.5-6.7 0.7-6.3-3.8 6-39.5z"/>
		<path id="&lt;Path&gt;" class="s1" d="m150.4 128.1l2.8-0.2 4.8-1.6-0.2 2-6.5 1.8z"/>
		<path id="&lt;Path&gt;" class="s1" d="m150.8 123.3l2.8-0.5c0 0 2.8-0.8 3.9-1.5 0.3-0.2 0.7-0.4 1.1-0.7l-0.2 1.5-0.2 0.3c0 0-4.4 2-4.7 2-0.2 0-2.2 0.6-3 0.8z"/>
		<path id="&lt;Path&gt;" class="s3" d="m184.4 51.7l-0.4-3.5-2.1-2.5-2.5 0.9-2 2.8z"/>
		<path id="&lt;Path&gt;" class="s4" d="m198 68.1l1.6-2.1-0.3-1.6-7.8-5.8-1.5-3.6-0.3-1.5-6-2.7-6.2-1.8-4.7 0.7-6.1 2.3-4.6 5.3-5.3 2.4-9.8 3.1-3.9 1.4-2.5 1.9-16.6 0.1-14.6 0.4-12.6 0.7-15.1-2.4-10 2-7.1 6.5-6.8 14.9-0.3 14.8-2.4 9.7-5 9.3-5.5 3.8-0.5 2.6 2.2 2.6 4.5 17.6 1.9 1.7 2.1 3.1 5.3 0.5 4.8-0.3 0.3-0.8 3.1-0.7-0.5-3.1-2.4-1.6-5.1-1.4-1.3-5.3-1.7-9.9 2.5-2.3 10.5-8.7c0 0 8.4-8.2 8.6-8.5 0.2-0.4 5-4.9 5-4.9l6.1 0.9 10 4.9 10 1.8 12.1-2.5 8.4-1.7 7.5 1.7 2.6 2.2 0.9 9.3-0.5 15.9-1.5 3.5 1.4 2.6-0.6 4.2 1.1 1.7 3.2 2 0.8 2.2 5.9 0.9 5.5-0.7 0.6-1 1.6-0.1 0.4-2.8-4.1-3.8-3.3-1.4-0.7-2.9 2.5-19 1.7-11.5 5.5-2.6 3.3-4.3 2-8.7 3.5-5 4.9-6 2.2-7.6 3-3.3 5.9-0.9 4.7 2.3 2.4 0.1 0.7-1.2 0.6-2.3 1.9-1.7 1.3-1.9z"/>
		<path id="&lt;Path&gt;" class="s0" d="m60 144.9l-3.5 0.4-2.7-4.8-1.7-6.8 2.7-9.4 8.3-8.1 3.8-8.7 1-11 2.1-7.7 3.7-2.5 3.6 5 8.5 3.7 12.2-0.4 16-0.4 18.9 5.4 7.3 1.3 8.5-7.7 5.2-11.5 6.9-6 5.6-6.8-2.9-5.4-5.8-4.2 4.4-2 0.4-0.4 2.9 1 5.2-0.3-0.7 3.2-0.2 5.6 0.4 5.6 7.7 3.3 1.1 1.3-2 2.1-2.2 7.6-4.9 6-3.5 5-2 8.7-3.3 4.3-5.5 2.6-0.1 0.5-5.2-0.1-4 1.9-3.5 11.6-1.4 3.9 0.2-7.6-0.9-9.3-2.6-2.2-7.5-1.7-8.4 1.7-12.1 2.5-10-1.8-10-4.9-6.1-0.9c0 0-4.8 4.5-5 4.9-0.2 0.3-8.6 8.5-8.6 8.5l-10.5 8.7-2.5 2.3 1.7 9.9z"/>
		<path id="&lt;Path&gt;" class="s3" d="m184.3 58.6l0.3 1.1 1.2 0.4h1.6l0.9 0.1v-0.7l-1.8-0.9z"/>
		<path id="&lt;Path&gt;" class="s5" d="m186.3 57.8l-2.5 0.2 0.3 0.9 1.5 0.5 1.1-0.5 1.6 0.6z"/>
		<path id="&lt;Path&gt;" class="s0" d="m186.2 58l-0.1-1.2-0.7-0.5-1.2 0.9-0.1 0.8z"/>
		<path id="&lt;Path&gt;" class="s6" d="m164.3 106l-3.3 4.3-5.1 2.4-2.3-3.6 1.2-2.9 2.4-3.3 2-10.3 5.3-4.4 3.6-5.1 3.5-4.3 2.6-4.3-3.2-1.7-1.9-0.6-0.7-1.8 0.6-1.5 0.2-5.5v-3.2l3.4-0.8 6.5-0.2 3.5 2.6 2.3 0.9 0.7 3.4 3.3 0.6 3.6 0.4 4.1-1.5 2.3 1.3-0.9 1.2-0.6 1.7-1.3 1.9-1.9 1.7-0.6 2.3-0.7 1.2-2.4-0.1-4.7-2.3-5.9 0.9-3 3.3-2.2 7.6-4.9 6-3.5 5z"/>
		<path id="&lt;Path&gt;" class="s5" d="m196 66.1l0.2-1.2 2.3 0.6 1-0.1 0.1 0.6-1.6 2.1-0.1 0.2-0.9-1.2z"/>
		<path id="&lt;Path&gt;" class="s6" d="m79.4 109.4c0.1-0.4 3.6-5.4 3.7-6 0.2-0.7 4.5-1.3 4.5-1.3l3.8 1.9 5.6 1.5 13.1 1.6 24.6-1.9 5 0.3 2.6 3.9 1.5 10.5-0.7 15.1-1.7 6.5-0.8 3-1.1-2 1.5-3.5 0.5-15.9-0.9-9.3-2.6-2.2-7.5-1.7-8.4 1.7-12.1 2.5-10-1.8-10-4.9-6.1-0.9c0 0-4.8 4.5-5 4.9 0 0-0.2 0.2-0.5 0.5 0.5-1.2 0.9-2.3 1-2.5z"/>
		<path id="&lt;Path&gt;" class="s2" d="m59.8 128.6l-2.5 2.3 1.6 9.4c-0.8-0.7-1.5-1.3-1.6-1.4-0.5-0.5-0.8-3.1-1.1-3.6-0.3-0.5-0.5-4.2-0.5-4.2l2.3-4.1c0 0 4.7-2.9 5.2-3.4 0.3-0.3 3.8-1.8 6.6-3.3z"/>
		<path id="&lt;Path&gt;" class="s0" d="m64.1 153.8l-0.4-2.6-1.8-1.6-0.7-0.6c0 0 0.9 0.1 1.1 0.1 0.3 0 1.5 0.9 1.5 0.9l1 2.1 0.3 1.1-0.2 0.5z"/>
		<path id="&lt;Path&gt;" class="s0" d="m155.7 155.6l0.4-1.2v-1.8l-2-1.8 0.2-0.5 1.8 1.1 1.1 2.2-0.2 1.4-0.2 0.4z"/>
		<path id="&lt;Path&gt;" class="s5" d="m187 56.7l-0.4-1.5-2-0.7-1.5 0.4-0.4 1.4 0.7-0.1 1.3-0.7 1.2 0.2z"/>
		<path id="&lt;Path&gt;" class="s5" d="m184 52.9l-1.6 0.8-0.7 1.3-0.1 1.1h-1.2l0.4-1.9 1.4-1.4 1.3-0.5z"/>
		<path id="&lt;Path&gt;" class="s2" d="m193.4 67.6l0.2 2.2-1.4 1-3.9 0.9-2.2 0.5-1-0.3 0.3-3.7 2.3-0.8z"/>
		<path id="&lt;Path&gt;" class="s5" d="m181.9 58.4l1.6 0.9-0.1 1.1 0.4 1.5 1.8 0.6 1.4-0.2 0.8 0.9-0.5 0.4-1-0.6h-2.3l-1.2-0.8-1-2-0.8-0.9z"/>
		<path id="&lt;Path&gt;" class="s1" d="m189.1 64.3l-2.7 0.6-2.7 0.4-2 0.2-2.3-1.5-1.1-2.4 0.3-2.2 0.3-1.9-1.6-0.5-0.6-0.5v0.5l0.7 0.9 0.3 1.1-0.4 2.4 0.4 2.2 1.8 2.1 2 0.7 1.8-0.1 2.1-0.4 3.9-1.3z"/>
		<path id="&lt;Path&gt;" class="s1" d="m183 73.4l-1-2.7-0.3-1.5-3.1-0.7-3.4-1-1.1-2.7-0.2-2 0.1-2.7c0 0-0.3-1.4-0.6-1.5-0.4-0.1-1.9-0.9-1.9-0.9l-0.2 0.9 1.3 0.8 0.4 1.8 0.2 2.4 0.3 2.5 1.1 2c0 0 1.4 1.3 1.7 1.3 0.3 0 3.4 0.7 3.4 0.7l1.5 1.2 0.8 2.2z"/>
		<path id="&lt;Path&gt;" class="s1" d="m176 72l-3-1.2-1-1.8-0.4-2-0.8-0.2 0.6 2.3c0 0 0.8 1.6 1 1.9 0.2 0.4 1.6 1.1 1.6 1.1l1.8 0.7z"/>
		<path id="&lt;Path&gt;" class="s5" d="m171.9 56.2l2.2-1.5 0.8-2.1 1.3-2.2 1 0.1-0.4 1.5c0 0-1.2 1.9-1.4 2.3-0.2 0.4-1.4 2-1.7 2-0.3 0-1.5 0.4-1.5 0.4z"/>
		<path id="&lt;Path&gt;" class="s5" d="m178 53l1.5-1.6 2.1-0.7-0.3 1-2.1 1.4-1.9 2.1h-0.7z"/>
		<path id="&lt;Path&gt;" class="s5" d="m186.6 53.2l1-0.7 2.1 1 0.1 0.7h-0.3l-2.5-0.1-2.1-0.7z"/>
		<path id="&lt;Path&gt;" class="s5" d="m162.8 97.3c0 0 0.5-1.5 0.5-1.8 0-0.3 0.6-4.3 0.6-4.3l-0.9-3.4-1.8-3.2c0 0-1.2-4.1-1.3-4.4-0.2-0.3-0.6-4.9-0.6-5.6 0-0.7 0.6-4.1 0.6-4.1l-0.7-2.7-1-3.1-0.5 0.1 1.2 4.1c0 0-0.2 3.8-0.3 4.1-0.1 0.3-0.6 5.6-0.6 5.6l0.9 4.4 2.7 5.4 0.4 3c0 0-0.2 3.6-0.2 4.1 0 0.4-0.2 2.7-0.2 2.7l1.6 1.5 1.1 0.5v-0.6z"/>
		<path id="&lt;Path&gt;" class="s5" d="m155.3 110.8l-1.1 1.4-2.7-1.6-2.9-4.1-1.7-5-0.8-4.7c0 0 0-0.8 0-1.8 0-1.1 0-2.3 0-2.6 0-0.4-0.2-3.3-0.2-3.3l-0.2-2.1h0.4l0.3 3.3 0.9 8.6 1.5 4.4 2.4 4.2 1.2 2.6z"/>
		<path id="&lt;Path&gt;" class="s5" d="m142.2 102.5c0 0.3 0.4 3.2 0.4 3.2 0 0 0.4 1.7 0.7 1.9 0.3 0.2 1.1 1.7 1.1 1.7l-0.2 1.2-1.7-2.9c0 0-1.5-2.1-1.5-2.5 0-0.4 0.4-2.9 0.4-2.9z"/>
		<path id="&lt;Path&gt;" class="s5" d="m128.8 85.1l1.2 0.8c0 0 0.5 5.9 0.5 6.2 0 0.3-0.3 3.9-0.3 4.3 0 0.4-0.2 2.5 0.1 3 0.4 0.5 1.2 2.7 1.3 3.2 0.1 0.5 0.8 3.4 0.8 3.4l-0.6 0.3-1-3.4-1.9-3.3c0 0-0.3-3.7-0.5-4.6-0.2-0.8-1.3-6.6-1.2-7.3 0.1-0.8 1.6-2.6 1.6-2.6z"/>
		<path id="&lt;Path&gt;" class="s5" d="m66.5 80c0 0-0.7 2.6-0.8 3.1-0.1 0.5-1.2 3.6-1.2 3.6 0 0-0.9 1.2-1.3 1.5-0.4 0.3-1.5 0.5-1.5 0.5 0 0 0.7-1.3 0.9-1.7 0.2-0.3 1.8-2.2 1.8-2.7 0-0.4 0.5-2.8 0.5-2.8l0.2-1.6z"/>
		<path id="&lt;Path&gt;" class="s5" d="m143.1 64.2h0.1l-1.6 8.1v5.5l1.1 4.9 0.6 3.6 0.7 2 0.5 1.8v2.8 2l-0.7 0.5-0.3-2.8-0.9-4.6-1.9-5.4-0.8-5.7-0.1-7.7 0.1-3.1h0.7z"/>
		<path id="&lt;Path&gt;" class="s5" d="m135.1 71.1l0.9 4.6c0 0 0.5 6.4 0.5 6.7 0 0.3 0.1 4.2 0.1 4.2l0.8 3.9c0 0 1.1 2.2 1.2 2.5 0.1 0.3 1 2.3 1 2.6 0 0.3-0.1 2-0.1 2l-0.7 0.2-0.5-2.5-1.6-5.6c0 0-1.2-4.4-1.3-5-0.1-0.7-1.5-6.3-1.5-7.1 0-0.8-0.1-7.4-0.1-7.7 0-0.2 0.5-2.4 0.9-3.8h1.6z"/>
		<path id="&lt;Path&gt;" class="s5" d="m127.4 79.2c0 0.3-0.8 3.2-0.8 3.2l-0.8-0.1c0 0 0.1-4.1 0-4.9-0.1-0.8-1.2-5.3-1.3-6-0.1-0.7 0.4-4.2 0.6-5.2l3.2-0.1-0.8 4.3c0 0 0 3.2 0 3.7 0 0.4-0.1 4.7-0.1 5.1z"/>
		<path id="&lt;Path&gt;" class="s5" d="m120.5 69.3c0 0-1.7 6.8-1.7 7.1 0 0.4 0.1 3.5 0.1 3.8 0 0.3 0.3 2.5 0.3 3.1 0 0.6-0.2 4.6-0.2 4.6l-1.4 3.8-0.8 2.3-0.5-0.4 0.4-3.5c0 0-0.5-4.5-0.8-5.2-0.3-0.8-0.2-9.1-0.2-9.1l0.7-8.1 0.4-1.3 4.2-0.2z"/>
		<path id="&lt;Path&gt;" class="s5" d="m109.4 70.2l0.6-3.6 3.1-0.1-1 2.4c0 0-0.8 4-0.8 4.5 0 0.6 0.1 4 0.1 4.5 0 0.5 0 2.9 0 2.9l-0.9 2.5-0.8-0.7c0 0 0.4-2.7 0.4-3.1 0-0.5 0.1-3.5 0-4.1-0.1-0.6-0.7-5.2-0.7-5.2z"/>
		<path id="&lt;Path&gt;" class="s5" d="m95.8 67.1l-0.5 3.5c0 0-1.1 2.9-1.3 3.4-0.2 0.4-0.6 2.4-0.6 2.9 0 0.4 0.3 2.4 0.3 2.4h-0.9c0 0-0.3-3.6-0.3-4.3 0-0.7 2-5.2 2-6 0-0.4-0.1-1.2-0.2-2.1z"/>
		<path id="&lt;Path&gt;" class="s5" d="m96.6 82.9c0.3-1.1 1.6-4.9 2.1-6 0.4-1.2 2.3-6.7 2.5-7.3 0-0.3 0.1-1.4 0.1-2.6l3.2-0.1-1.4 5.2c0 0-1 3.3-1.2 4-0.2 0.8-2 4.3-2.4 5.1-0.4 0.9-1.8 3.7-2.2 4.1-0.4 0.4-2.1 2.5-2.1 3.1 0 0.6-0.3 2.5-0.3 2.5l-0.7-0.1c0 0 0.7-3.8 0.8-4.1 0.1-0.3 1.3-2.8 1.6-3.8z"/>
		<path id="&lt;Path&gt;" class="s5" d="m147 62.8l0.9-0.3-0.2 1.1-0.5 4.7 1.2 6.3 0.5 1.5 0.4 4.5h-0.6c0 0-0.1-2.1-0.1-2.6 0-0.5-0.2-1.7-0.3-2-0.1-0.3-1.3-3.6-1.3-3.6l-0.3-2.2 0.3-4.6-0.1-2.7z"/>
		<path id="&lt;Path&gt;" class="s5" d="m159.3 105.4l-0.4-1.8c0 0-3.1-2.9-3.5-3.3-0.4-0.3-1.8-3.4-1.8-3.4 0 0-0.6-4.8-0.7-5.4-0.1-0.6-0.9-5.1-0.9-5.4 0-0.3-0.3-3.8-0.3-3.8l-1.1-2.7-1-2.7c0 0 0.7-7.2 0.7-7.5 0-0.3 0.6-4.1 0.6-4.4 0-0.3 0.5-2.9 0.5-2.9v-0.7l1.1-0.3 0.1 0.5-1 3.6c0 0-0.9 6.3-0.9 6.6 0 0.3-0.1 4-0.1 4l2 4.5 0.1 4.5 0.7 6.5 1.4 6 2.7 2.5 2.2 1.4 0.6 3.5v2.3l-0.6-0.4z"/>
		<path id="&lt;Path&gt;" class="s5" d="m154.6 63.3l-0.7 4.4 0.4 3-0.5 1.1-0.5-2.6-0.3-4.6 0.9-4 1.3-0.3z"/>
		<path id="&lt;Path&gt;" class="s1" d="m173 79.6l2.5 0.9 0.7 0.7-0.5 1.6-0.5-0.8-2.3-1.8-1.1-1.7-0.6-1.7 0.6 0.4z"/>
		<path id="&lt;Path&gt;" class="s5" d="m164.5 61.7l0.9 0.8 0.3 4.7 0.6 4.4c0 0 1.1 3.4 1.4 3.8 0.4 0.4 3.2 3.9 3.2 3.9l1.8 3.1 0.6 3.2 0.3 2.1-1.3 1.6-1.5-2.2c0 0-1.2-4.2-1.3-4.8-0.1-0.7-1.7-4.6-1.7-4.6 0 0-2.2-2.8-2.3-3.1-0.1-0.3-0.1-4.3-0.2-4.8-0.1-0.5-0.6-5.9-0.6-5.9l-0.5-2.2z"/>
		<path id="&lt;Path&gt;" class="s5" d="m142.6 118.9l2.6 1.1 0.9 2.3-0.4 0.9-0.6-1-1.3-1.6-2-0.4-0.6-0.1-0.3-2.9z"/>
		<path id="&lt;Path&gt;" class="s5" d="m141.3 127.6l0.1-2.9 2.5 0.7 1.8 2 1.2 1.1v0.7l-2.1-1.1z"/>
		<path id="&lt;Path&gt;" class="s5" d="m83 94.9c0 0 0.3-1.5 0.4-2.1 0.1-0.7 0.2-3 0.2-3.5 0-0.5 0.3-3.6 0.2-4.1-0.1-0.5-0.3-5.2-0.3-5.7 0-0.6 0.8-3.4 0.9-3.9 0.1-0.5 1.2-3 1.3-3.4 0.1-0.4 1.4-5.7 1.4-5.7l0.2-0.7 2.8 0.4c-0.6 1.9-1.7 5.7-1.8 6-0.2 0.4-2.7 3.1-2.8 3.8-0.1 0.8-1.2 5.1-1.1 6.5 0.1 1.3-0.1 4.9 0.2 5.7 0.3 0.8 0.2 2.8 0 3.6-0.2 0.9-1 3-1 3z"/>
		<path id="&lt;Path&gt;" class="s5" d="m76.5 70.5c-0.1 0.3-2 6.8-2 7.6 0 0.8 0.2 7.5 0.2 8.1 0 0.6-0.2 4.3-0.2 4.9 0 0.6-0.5 4.7-0.5 4.7l-0.7 1.9-0.7-1 0.6-5c0 0-0.5-5.5-0.5-5.8 0-0.3-0.3-7.6-0.3-8.2 0-0.6 1-5.7 1.1-6.3 0.1-0.6 1.6-4.3 1.9-5.2l3-0.6c-0.7 1.8-1.8 4.7-1.9 4.9z"/>
		<path id="&lt;Path&gt;" class="s5" d="m91.4 88l0.3-3.3 0.8 0.4c0 0-0.6 4.6-0.7 5-0.1 0.3-1.6 4.1-1.7 4.5-0.1 0.4 0 4 0.1 4.3 0.1 0.3 0.4 2.8 0.5 3.6 0.1 0.9 2.6 4.3 2.4 5.3q-0.1 0.5-0.2 1l-2.5-1.2c-0.4-0.8-0.8-1.8-0.8-2.2 0-0.7-1.4-7.4-1.4-8 0-0.5-0.1-5.8 0.1-6.2 0.2-0.4 3.1-3.2 3.1-3.2z"/>
		<path id="&lt;Path&gt;" class="s5" d="m80.2 103.1c0.3 1.3 1.7 3.8 2 4.6q0.1 0.1 0.1 0.3c-0.7 0.7-1.5 1.5-2.2 2.1l-0.8-2.4-1.1-5.5c0 0-0.7-4.8-0.7-5.2 0-0.4 0.3-3.9 0.4-5 0.1-1 1.7-6.1 1.7-6.1l0.2-2.4 0.9 0.3c0 0-0.9 4-0.9 4.4 0 0.4-0.6 3.2-0.6 4.4 0 1.1-0.4 3.5 0 5.1 0.4 1.7 0.7 4.2 1 5.4z"/>
		<path id="&lt;Path&gt;" class="s5" d="m68.7 102.5c0-0.5-0.3-3.7-0.3-4.3 0-0.7-0.4-3.6-0.4-3.6l0.4-0.7 0.8 1.6c0 0 0.8 3.8 0.8 4.2 0 0.4 0.3 5 0.6 6 0.3 1.1 2.5 5.8 2.8 6.8 0.2 0.7 0.7 2.2 1 3.3q-0.7 0.8-1.5 1.5c0-0.8-0.1-1.7-0.2-1.9-0.2-0.4-2.2-6.1-2.5-6.6-0.3-0.6-1.5-5.8-1.5-6.3z"/>
		<path id="&lt;Path&gt;" class="s5" d="m64.3 123.3c0 0 0.8-5.6 0.8-6 0-0.4 0.1-5.6 0.1-6.2 0-0.5-0.2-4-0.3-4.4-0.1-0.4 0.2-1.9 0.2-1.9l0.6 1.6 0.6 3.5c0 0 0.2 2.8 0.3 4.1 0.1 1.2 0.2 4.4 0.2 5.9 0 0.9-0.2 2.1-0.3 3.2l-2.5 2c0.2-1 0.3-1.8 0.3-1.8z"/>
		<path id="&lt;Path&gt;" class="s5" d="m54.7 122.4l0.8 0.3c0 0 3.2 2.3 3.5 2.7 0.2 0.3 1.1 1.8 1.6 2.6l-0.8 0.6-0.4 0.3-0.6-1.2-3-3.6-1.4-0.9z"/>
		<path id="&lt;Path&gt;" class="s5" d="m50.7 132l3-0.9 0.8 1.3c0 0-3.8 1.7-4.7 1.8-0.4 0.1-1.5 0.2-2.6 0.3l-0.9-3.3z"/>
		<path id="&lt;Path&gt;" class="s3" d="m59.3 146.7l1.2-0.6 3.7 1.1-0.4 0.1-4.8 1.6-4.1-0.4 1.6-1z"/>
		<path id="&lt;Path&gt;" class="s5" d="m54.9 113.3l1.7-0.3 3.2-1.1 1.8-1.2 0.3 0.8c0 0-0.9 1.5-2.4 2.3-1.1 0.6-4.4 2.1-6.5 2.9z"/>
		<path id="&lt;Path&gt;" class="s5" d="m63.4 100.6c-0.3 0.9-1.2 2.5-2.6 3.6-1.3 1-3.2 2.2-3.5 2.4-0.1 0-0.3 0.1-0.7 0.2l0.8-3.3 1.5-0.7c0 0 3.4-2.9 3.5-3.4 0.1-0.5 1-2.5 1.4-3.2 0.3-0.7 1.8-2.4 1.8-2.4h1c0 0-1.4 2.3-1.5 2.7-0.1 0.4-1.3 3.1-1.7 4.1z"/>
		<path id="&lt;Path&gt;" class="s3" d="m177.1 51.9l-1.4 2.6-1.4 2.8-3-0.3-1.3-2.9 1.3-2.8 2.1-0.8z"/>
		<path id="&lt;Path&gt;" class="s0" d="m174.7 52.5l1.6 0.8-0.6 1.2-1.1 2.1-2.6-1.3-0.2-1.3 1.5-1.4z"/>
		<path id="&lt;Path&gt;" class="s3" d="m146.7 149.6l0.2-1.4 3.1-1.1 1.9-1 0.1 0.2 3.3 1.4 1.3 1.2-5.2 0.9z"/>
		<path id="&lt;Path&gt;" class="s5" d="m122.2 99.6c0-0.3 0-4.6 0-5.3 0-0.7 0.8-5.1 0.8-5.1l0.6-3.6-0.2-2.8 0.7 0.5-0.1 2c0 0 0.3 3.1 0.3 3.6 0 0.5-0.4 4.6-0.3 5.2 0.1 0.6 1.2 5.4 1.2 6.5 0 1 0.8 3.8 0.8 4.2 0 0.4 2.5 2.5 2.9 2.8 0.4 0.3 3.2 2 3.2 2l0.4 0.7-2-0.4-4.6 0.9-2-2.8c0 0-1.6-2.2-1.7-2.5-0.1-0.3-0.5-2.6-0.5-3.1 0-0.5 0.5-2.5 0.5-2.8z"/>
		<path id="&lt;Path&gt;" class="s7" d="m123.9 108c0 0-1.6-2.2-1.7-2.5-0.1-0.3-0.5-2.6-0.5-3.1 0-0.5 0.5-2.5 0.5-2.8 0-0.2 0-1.7 0-3l2.4 0.6c0.3 1.4 0.6 2.8 0.6 3.4 0 1 0.8 3.8 0.8 4.2 0 0.4 2.5 2.5 2.9 2.8 0.4 0.3 3.2 2 3.2 2l0.4 0.7-2-0.4-4.6 0.9z"/>
		<path id="&lt;Path&gt;" class="s1" d="m123.9 108c0 0-0.8-1.1-1.3-1.9l4.2-0.3c0.8 0.8 1.8 1.6 2.1 1.8 0.4 0.3 3.2 2 3.2 2l0.4 0.7-2-0.4-4.6 0.9z"/>
		<path id="&lt;Path&gt;" class="s5" d="m110.5 90.6c0-0.3-0.4-4.2-0.4-4.2l0.7 0.2c0 0 0.5 3.1 0.5 3.5 0 0.3-0.1 3.9-0.1 4.5 0 0.7-0.6 5.3-0.7 5.8-0.1 0.6 1.8 4.8 2.2 5.6 0.4 0.7 2.8 3.6 3.1 4 0.2 0.3 1.4 1.4 2.2 2.4l-5.7 1.2q-0.1-0.2-0.2-0.4c-0.6-0.8-1.9-3.5-2.3-4.5-0.4-1.1-1.2-3.8-1.2-5.3 0-1.6 0.7-5.8 0.9-6.9 0.2-1.1 1-5.6 1-5.9z"/>
		<path id="&lt;Path&gt;" class="s7" d="m111.2 94.6c0 0.7-0.6 5.3-0.7 5.8-0.1 0.6 1.8 4.8 2.2 5.6 0.4 0.7 2.8 3.6 3.1 4 0.2 0.3 1.4 1.4 2.2 2.4l-5.7 1.2q-0.1-0.2-0.2-0.4c-0.6-0.8-1.9-3.5-2.3-4.5-0.4-1.1-1.2-3.8-1.2-5.3 0-1.6 0.7-5.8 0.9-6.9 0-0.4 0.2-1.3 0.4-2.2h1.3q0 0.2 0 0.3z"/>
		<path id="&lt;Path&gt;" class="s1" d="m109.2 107l0.9 0.1 3.2-0.2c0.9 1.1 2.3 2.8 2.5 3.1 0.2 0.3 1.4 1.4 2.2 2.4l-5.7 1.2q-0.1-0.2-0.2-0.4c-0.6-0.8-1.9-3.5-2.3-4.5-0.2-0.4-0.4-1-0.6-1.7z"/>
		<path id="&lt;Path&gt;" class="s7" d="m128.8 98.4l1.4 0.4q0 0.4 0.1 0.6c0.4 0.5 1.2 2.7 1.3 3.2 0.1 0.5 0.8 3.4 0.8 3.4l-0.6 0.3-1-3.4-1.9-3.3c0 0-0.1-0.5-0.1-1.2z"/>
		<path id="&lt;Path&gt;" class="s5" d="m103.5 93.3c0 0-1.6 3.6-1.7 4-0.1 0.4-1.2 3.4-1.3 4.3-0.1 0.9 0.8 3.6 1.2 4.6 0.4 0.9 2 3.3 2.3 3.7 0.2 0.4 0.2 1.5 0.2 1.5l-0.4 0.1c0 0-1.5-2-1.8-2.5-0.3-0.6-2.2-2.8-2.6-3.3-0.4-0.4-1.8-2.9-1.8-3.5 0-0.6 1.3-3.3 1.3-3.3 0 0 2.1-2.6 2.5-3 0.3-0.4 1.7-3.7 1.7-3.7z"/>
		<path id="&lt;Path&gt;" class="s7" d="m101.4 95.9c0.1-0.2 0.4-0.7 0.7-1.4h0.9c-0.5 1.1-1.2 2.6-1.2 2.8-0.1 0.4-1.2 3.4-1.3 4.3-0.1 0.9 0.8 3.6 1.2 4.6 0.4 0.9 2 3.3 2.3 3.7 0.2 0.4 0.2 1.5 0.2 1.5l-0.5 0.1c0 0-1.4-2-1.7-2.5-0.3-0.6-2.2-2.8-2.6-3.3-0.4-0.4-1.8-2.9-1.8-3.5 0-0.6 1.3-3.3 1.3-3.3 0 0 2.1-2.6 2.5-3z"/>
		<path id="&lt;Path&gt;" class="s1" d="m101.6 106.1q0.1 0 0.1 0.1c0.4 0.9 2.1 3.3 2.3 3.7 0.2 0.4 0.2 1.5 0.2 1.5l-0.4 0.1c0 0-1.5-2-1.8-2.5-0.3-0.5-2-2.6-2.5-3.2z"/>
		<path id="&lt;Path&gt;" class="s7" d="m146.1 95.5l0.8-0.7 0.4 4.1 1.5 4.4 2.4 4.2 1.2 2.6 2.9 0.7-1.1 1.4-2.7-1.6-2.9-4.1-1.7-5-0.8-4.7c0 0 0-0.6 0-1.3z"/>
		<path id="&lt;Path&gt;" class="s7" d="m152.7 84.5v0.3l0.7 6.5 1.4 6 2.7 2.5 2.3 1.4 0.5 3.5v2.3l-0.5-0.4-0.5-1.2-0.4-1.8c0 0-3.1-2.9-3.5-3.3-0.4-0.3-1.8-3.4-1.8-3.4 0 0-0.6-4.8-0.7-5.4-0.1-0.6-0.9-5.1-0.9-5.4q0 0 0 0z"/>
		<path id="&lt;Path&gt;" class="s1" d="m159.3 105.4l-0.4-1.8c0 0-0.8-0.8-1.6-1.5l0.4-2.1 2 1.2 0.6 3.5v2.3l-0.6-0.4z"/>
		<path id="&lt;Path&gt;" class="s7" d="m159.9 80.2c0.1 0.3 1.3 4.4 1.3 4.4l1.8 3.2 0.9 3.4c0 0-0.6 4-0.6 4.3 0 0.3-0.5 1.8-0.5 1.8l1.5 2.3v0.6l-1.1-0.5-1.6-1.5c0 0 0.2-2.3 0.2-2.7 0-0.5 0.2-4.1 0.2-4.1l-0.4-3-2.7-5.4-0.9-4.4c0 0 0-0.2 0-0.5l1.5-1.2c0.1 1.4 0.3 3.1 0.4 3.3z"/>
		<path id="&lt;Path&gt;" class="s1" d="m163.3 89.2l0.6 2c0 0-0.6 4-0.6 4.3 0 0.3-0.5 1.8-0.5 1.8l1.5 2.3v0.6l-1.1-0.5-1.6-1.5c0 0 0.2-2.3 0.2-2.7 0-0.5 0.2-4.1 0.2-4.1l-0.1-1z"/>
		<path id="&lt;Path&gt;" class="s7" d="m165.3 70.2l0.7-0.8 0.3 2.2c0 0 1.1 3.4 1.4 3.8 0.4 0.4 3.2 3.9 3.2 3.9l1.8 3.1 0.6 3.2 0.3 2.1-1.3 1.6-1.5-2.2c0 0-1.2-4.2-1.3-4.8-0.1-0.7-1.7-4.6-1.7-4.6 0 0-2.2-2.8-2.3-3.1-0.1-0.3-0.1-3.2-0.2-4.4z"/>
		<path id="&lt;Path&gt;" class="s7" d="m165.7 67.2v0.4l-0.8-1.5c-0.1-1.2-0.2-2.2-0.2-2.2l-0.5-2.2h0.3l0.9 0.8z"/>
		<path id="&lt;Path&gt;" class="s1" d="m169.3 81.6l1.7-2.1 1.7 2.9 0.6 3.2 0.3 2.1-1.3 1.6-1.5-2.2c0 0-1.2-4.2-1.3-4.8q0-0.2-0.2-0.7z"/>
		<path id="&lt;Path&gt;" class="s5" d="m185.2 72.6l0.2-0.6 1.5-0.1 2.4 0.3 3.4 0.5 2.1 0.2-0.4 0.4-0.6-0.1-2.1-0.2-2.1-0.4h-1.7l-2.1 0.4z"/>
	</g>
</svg>