<svg version="1.2" xmlns="http://www.w3.org/2000/svg" viewBox="0 0 277 302" width="500" height="500">
	<title>toucan</title>
	<style>
		.s0 { fill: #262626 } 
		.s1 { opacity: .3;fill: #000000 } 
		.s2 { fill: #000000 } 
		.s3 { fill: #fbc897 } 
		.s4 { fill: #ffe3c7 } 
		.s5 { fill: #cfa47c } 
		.s6 { fill: #ba9470 } 
		.s7 { fill: #9e7e5f } 
		.s8 { fill: #ffffff } 
		.s9 { fill: #ffe44a } 
		.s10 { fill: #3849ff } 
		.s11 { fill: #fbab43 } 
		.s12 { fill: #e39b3d } 
		.s13 { fill: #1a2929 } 
		.s14 { fill: #fbcb43 } 
		.s15 { opacity: .5;fill: #ffffff } 
		.s16 { fill: #fb3443 } 
		.s17 { fill: #1c1c1c } 
		.s18 { opacity: .2;fill: #ffffff } 
		.s19 { fill: #fb8a43 } 
		.s20 { fill: #121212 } 
	</style>
	<g id="Layer 2">
		<g id="&lt;Group&gt;">
			<path id="&lt;Path&gt;" class="s0" d="m153 43.4c0 0-4.8-7.4-16.2-6.4-48.8 4.4-50 65.8-51.1 73.4-1.6 41.5 36 75.4 50.5 90.8 3.2 6.6 5.5 20.4 5.5 20.4 2.7 5.8-2.1 29.5 7.2 47.1 2.5-5.1 7.4-18.7 7-32.9 2.7 23.7 17.8 39.9 17.8 39.9 0 0-3.2-34.9-7.9-41.5 6.1 16.6 22.3 27.1 22.3 27.1 0 0-2.7-21.7-13.4-37.6-8-21.2 2.8-41.5-0.4-60.2-1-8.2-27.1-67.1-27.1-67.1 0 0-3.3-6-1.5-13.6 0.8-3.4 3.7-6.1 3.7-6.1z"/>
			<path id="&lt;Path&gt;" class="s1" d="m123.7 181.6c5.3 5.7 11.8 16.6 15.3 20.3 1 11.3 5.1 19.8 5.1 19.8 2.7 5.8-4.5 23 4.8 40.5 2.5-5.1 6.5-18.9 6.1-33.1 4.7 28.1 16.7 42.1 16.7 42.1 0 0-12.3-24.6-6.8-40.9 6.1 16.5 21.3 28 21.3 28 0 0-9.6-13.7-13.8-33.3-4.6-12.3-13.6-31.1-12-42.7-1.3-5.7-16.9 12.2-36.7-0.7z"/>
			<path id="&lt;Path&gt;" class="s0" d="m114.2 171.2c0 0-2.1 9.2 3.5 12.3 5.7 3 8.3-6.8 8.3-6.8z"/>
			<path id="&lt;Path&gt;" class="s2" d="m147.2 133c12.1 32.1 30.3 49.2 27.1 30.5-1-8.2-27.1-67.1-27.1-67.1 0 0-6.9 14.6 0 36.6z"/>
			<g id="&lt;Group&gt;">
				<path id="&lt;Path&gt;" class="s3" d="m83 192c4.4-2.7 104.6 0.1 126.4-3.3 5.6-0.3-4.6 23-4.6 23 0 0-72.4-1.9-121.8 1.9-3.7 0.3-4.4-18.9 0-21.6z"/>
				<path id="&lt;Path&gt;" class="s4" d="m211.1 191.7c-0.1 1.8-0.7 4.2-1.4 6.7-1.9 3.5-79.2-1.4-129.4-0.1 0.3-1.8 0.7-3.5 1.3-4.7 0.4-0.7 95 3.5 129.5-1.9z"/>
				<path id="&lt;Path&gt;" class="s5" d="m208.6 201.9c-1.7 5.1-3.8 9.8-3.8 9.8 0 0-72.4-1.9-121.8 1.9-1.7 0.2-2.8-3.9-3-8.6-0.2-5.4 112.6 4.4 128.6-3.1z"/>
				<path id="&lt;Path&gt;" class="s6" d="m179.1 199.5c0 1.3-3 2.4-6.7 2.4-3.6 0-6.6-1.1-6.6-2.4 0-1.4 3-2.5 6.6-2.5 3.7 0 6.7 1.1 6.7 2.5z"/>
				<path id="&lt;Path&gt;" class="s7" d="m210 200.9c-1.4 6.3-3.6 11.2-4.9 11-1.3-0.3-1.3-5.7 0.1-12.1 1.4-6.3 3.6-11.2 4.9-10.9 1.3 0.2 1.3 5.6-0.1 12z"/>
			</g>
			<g id="&lt;Group&gt;">
				<path id="&lt;Path&gt;" class="s8" d="m146.5 48.2c-28.1-10.2-53.8 35.7-49.9 55.4 7.4 32 44.7 9.1 45-0.8 1.7-6.6 0.6-24.9 4.9-27.8 2.8-1.2 5.8-25.1 0-26.8z"/>
				<path id="&lt;Path&gt;" class="s9" d="m146.5 48.2c-6.6-2.4-12.6-1.4-18.5 1.5-1.8 0.8-2.5 3.2-1.4 4.8 4.3 6.5 17.7 10.3 23.2 6.6 0.3-6.1-0.5-12.1-3.3-12.9z"/>
				<path id="&lt;Path&gt;" class="s10" d="m144.1 53.7c0 2.5-1.9 4.5-4.4 4.5-2.5 0-4.5-2-4.5-4.5 0-2.5 2-4.5 4.5-4.5 2.5 0 4.4 2 4.4 4.5z"/>
				<path id="&lt;Path&gt;" class="s2" d="m152.5 42.7q-0.8-0.3-1.7-0.5c-0.4-0.1-6.5 17.5-5.9 26.9 0.5 4.6 4.5 7.6 4.5 7.6 0.4-1.2 1-2 1.7-2.5 3-1.3 3.7-30.5 1.4-31.5z"/>
				<g id="&lt;Group&gt;">
					<path id="&lt;Path&gt;" class="s2" d="m142.5 53.7c0 1.5-1.3 2.8-2.8 2.8-1.6 0-2.8-1.3-2.8-2.8 0-1.6 1.2-2.8 2.8-2.8 1.5 0 2.8 1.2 2.8 2.8z"/>
					<path id="&lt;Path&gt;" class="s8" d="m141.2 52.6c0 0.5-0.3 0.9-0.7 0.9-0.5 0-0.8-0.4-0.8-0.9 0-0.5 0.3-0.9 0.8-0.9 0.4 0 0.7 0.4 0.7 0.9z"/>
				</g>
				<path id="&lt;Path&gt;" class="s1" d="m132.3 54.8c-2.3 7.2 5.2 6.8 5.2 6.8 0 0-4.5-2.9-5.2-6.8z"/>
			</g>
			<g id="&lt;Group&gt;">
				<path id="&lt;Path&gt;" class="s11" d="m145.9 67.3c-2.8 15 46 12.1 70.2 27.9-0.8-19.4-63.9-36.7-63.9-36.7 0 0-3-0.7-5 3.2-0.4 1.4-0.7 2.7-1.3 5.6z"/>
				<path id="&lt;Path&gt;" class="s12" d="m145.9 67.3c2.3 1 3.5-2.6 6.4-1.6 0.5 0.2 2.4 5 3 5.2 0.9 0.3 2.1-4.8 3-4.5 1.1 0.4 1.2 5.3 2.3 5.6 0.7 0.2 1.6-5.3 2.3-5.1 1.1 0.3 2.6 7.2 3.7 7.6 1 0.3 0.4-6.7 1.5-6.3 0.7 0.2 1.9 6.9 2.6 7.1 1 0.3 1.9-5.3 2.8-5 0.7 0.3 1.2 6.4 2.3 6.9 1.2 0.5 2.4-4.9 3.6-4.6 3 0.7 1 5.9 2.3 6.4 1.1 0.4 2.3-4.6 3.4-4.2 0.9 0.3 1.1 5.3 2 5.6 0.9 0.3 2-4 2.8-3.7 1.4 0.5 0.9 4.2 2.3 4.8 1 0.4 0.7-2.7 1.7-2.2 0.6 0.2 1 2.7 1.8 3.2 0.6 0.4 1.6-1.3 2.3-0.8 0.6 0.4 0.6 1.7 1.2 2.2 0.5 0.4 1.8-0.1 2.2 0.2 0.7 0.5 0.6 1.9 1.3 2.4 0.5 0.4 1.9 0 2.4 0.4 0.6 0.5 0.3 1.4 0.8 1.9 0.4 0.3 1.7 0 2.1 0.3 0.3 0.3 0.1 1 0.4 1.2 0.4 0.4 1.3 0.2 1.7 0.5 2.4 1.8 4.5 3.4 6 4.4-0.8-19.4-63.9-36.7-63.9-36.7 0 0-3-0.7-5 3.2-0.4 1.4-0.7 2.7-1.3 5.6z"/>
				<path id="&lt;Path&gt;" class="s13" d="m145.8 67.3c-0.9 4.7 3.2 7.6 10.1 9.9 0 0 0.9-12-8.9-15.5-0.3 1.4-0.6 2.7-1.2 5.6z"/>
				<path id="&lt;Path&gt;" class="s1" d="m216.1 95.2c-0.8-19.4-63.9-36.7-63.9-36.7 0 0-3-0.7-5 3.2-0.2 0.9-0.4 1.7-0.7 2.9 3.2 0.6 49 7.7 69.6 30.6z"/>
				<path id="&lt;Path&gt;" class="s14" d="m150.8 42.2c0 0 88.9-4.9 68 56.6-22.9-32.4-71.6-37.1-71.6-37.1z"/>
				<path id="&lt;Path&gt;" class="s11" d="m149 51.8c0 0 2.4 9.4 4.8 9.1 1.5-0.1 2.7-6.2 4.8-6.3 1.6-0.1-1.7 7.1 0.2 7.1 1.5-0.1 4.6-7.3 6.1-7.4 1.8 0-0.7 8.7 1.2 8.7 1.9 0 6.6-6.9 8.6-6.7 1.8 0.1-3.1 7.6-1.2 7.8 2.6 0.3 7.1-7.2 9.6-6.7 1 0.2-2.8 9.5-1.8 9.7 1 0.2 6.9-7.6 7.9-7.3 1.1 0.2-3.1 9.7-2.1 10 1 0.2 7.1-7.1 8-6.9 1.1 0.4-2.4 10.2-1.3 10.6 1 0.3 6.5-7.3 7.4-6.9 1 0.4 3.1 15.9 4.1 16.3 0 0 2.7 1.9 13.5 15.9-22.9-32.4-71.6-37.1-71.6-37.1z"/>
				<path id="&lt;Path&gt;" class="s13" d="m216.3 62.9c6 8.3 8 19.9 2.5 35.9-4.3-6.1-9.6-11.3-15.3-15.6 0 0-12.3-26.5 12.8-20.3z"/>
				<path id="&lt;Path&gt;" class="s15" d="m158.1 43.4c66.6 4.4 62.8 41.4 62.8 41.4 0 0-0.9-36.3-65.6-39.4-0.2-0.8 1.5-2.2 2.8-2z"/>
				<path id="&lt;Path&gt;" class="s8" d="m215 64.4c0.9 1.4 1.2 2.7 0.7 3.1-0.5 0.3-1.6-0.5-2.5-1.8-1-1.4-1.3-2.7-0.8-3.1 0.5-0.3 1.6 0.5 2.6 1.8z"/>
				<path id="&lt;Path&gt;" class="s8" d="m214.1 68.6c0.6 0.7 0.8 1.5 0.5 1.7-0.3 0.2-0.9-0.3-1.4-1-0.6-0.8-0.8-1.5-0.5-1.7 0.3-0.2 0.9 0.3 1.4 1z"/>
				<path id="&lt;Path&gt;" class="s16" d="m161.7 42.7c0 0 35.8 0.2 50.9 16.7-17.8-15.7-50.9-16.7-50.9-16.7z"/>
			</g>
			<path id="&lt;Path&gt;" class="s17" d="m147.2 95.2c-2.8 1.6-0.5 26.5 6.6 45.3 6.9 18.4 18.5 30.7 20.9 30.5 4.7-0.3 0-23.5 0-23.5 0 0 5.6 23.3 8.7 23.5 1.7 0.1-1.4-26.2-10.7-46.2-8.5-18.6-22.9-31.2-25.5-29.6z"/>
			<path id="&lt;Path&gt;" class="s0" d="m148.9 97.6c-2.7 1.7 0.1 22.9 7.2 41.7 6.9 18.4 15.9 28.3 18.2 28 3.4-0.4-2.4-26.1-1.3-26.2 2.3-0.6 6.6 27.8 9.7 28 1.7 0.1-1.5-24.1-10.7-44.2-8.6-18.5-20.5-28.8-23.1-27.3z"/>
			<path id="&lt;Path&gt;" class="s18" d="m148.9 96.4c29.4 21.7 33.8 69.8 33.8 69.8 0 0-9.6-48.1-33.8-69.8z"/>
			<path id="&lt;Path&gt;" class="s19" d="m155.1 178.8c1.7 8.8-0.6 8.9-0.6 8.9 0 0-14.4-2.3-18.6 10 7.7-5.5 10.3-6.7 11.4-6 0.5 0.4-5.3 1.7-6.8 14.1 6.3-11 10.7-14 11.9-13.6-2.7 3.8-2.2 8.6-1 13.9-1-3.9 4.8-14 6.9-15.6h3.2c0.5-3.4-3.2-2.3-1.1-8.2 1.2-0.8-4.2-5.2-5.3-3.5z"/>
			<path id="&lt;Path&gt;" class="s19" d="m115.6 178.8c1.7 8.8 0.6 8.6 0.6 8.6 0 0-15.1-1.6-18.5 10.7 4.8-6.1 8.1-7.7 10.4-7.4 0.5 0.4-3.6 1-5 11.7 6.6-10.7 8.4-11.5 9.5-11.1-2.6 3.8-3.1 7.8-2 13.1-0.9-3.9 5.2-14.1 9.8-13.8 0.8 0 1.4 0.3 2.5 0 0-4.2-3.9-3.8-2-8.3 1.2-0.8-4.2-5.2-5.3-3.5z"/>
			<path id="&lt;Path&gt;" class="s18" d="m171.1 138c3.7 7.6 4.6 25.4 4.6 25.4 0 0-3.5-13.1-4.4-17.1-1-3.9-1.2-9.5-0.2-8.3z"/>
			<path id="&lt;Path&gt;" class="s2" d="m120.9 149.6c-3.8 0-6.2-3.4-7.6-6.9-0.2 2.1-0.7 4.1-1.5 5-0.4 0.4-0.9 0.5-1.3 0.5-8.6 0.6-7.9-14.5-7.9-14.5 0 0.2 1.2 12.5 7.5 12.5q0.1 0 0.3-0.1c0.7-0.8 1.1-5.5 1-10.3l2.1-0.2c0.5 3.3 2.8 11.9 7.4 11.9 0.1 0 0.3 0 0.5-0.3 1.3-1.7 0.9-7.9 0.4-11.4l2-0.4c0.7 3.4 3.3 12.2 7.7 11.7q1.2-0.1 1.9-1.1c2.2-2.9 1.7-10.2 1.3-12.8 0 0 3.6 9.9 0.4 14.1q-1.3 1.7-3.4 1.9c-3.3 0.4-5.8-2.4-7.3-5.6-0.2 2-0.5 3.9-1.4 5-0.6 0.6-1.3 1-2.1 1z"/>
			<path id="&lt;Path&gt;" class="s2" d="m125.6 166.2c-2.6 0-4.5-2.3-5.8-4.7 0.1 1.5-0.1 2.8-0.5 3.4-0.3 0.3-0.7 0.4-0.9 0.4-5.8 0.4-6.5-9.8-6.5-9.8 0 0.1 1.8 8.4 6.1 8.4q0.1 0 0.1 0c0.4-0.6 0.4-3.8-0.1-7l1.4-0.1c0.6 2.2 2.9 8 6 8 0 0 0.2 0 0.3-0.2 0.8-1.1 0-5.4-0.7-7.7l1.4-0.3c0.7 2.3 3.2 8.3 6.2 8q0.7-0.1 1.2-0.8c1.2-2 0.3-6.9-0.2-8.7 0 0 3.2 6.7 1.4 9.6q-0.8 1.1-2.1 1.3c-2.3 0.2-4.2-1.7-5.5-3.9 0.1 1.4 0 2.7-0.5 3.4q-0.5 0.7-1.3 0.7z"/>
			<path id="&lt;Path&gt;" class="s20" d="m139 39.7c0 0-51 3.1-51 78 0 28.6 23.1 53 23.9 53.3-11.2-11.7-45.9-110.3 27.1-131.3z"/>
		</g>
	</g>
</svg>