<svg id="visual" viewBox="0 0 900 675" width="900" height="675" xmlns="http://www.w3.org/2000/svg" xmlns:xlink="http://www.w3.org/1999/xlink" version="1.1"><rect width="900" height="675" fill="#e4f7eb"></rect><g><g transform="translate(892 251)"><path d="M102.9 -54.6C125.6 -20.1 130.9 29.3 110.8 65C90.8 100.8 45.4 122.9 0 122.9C-45.4 122.9 -90.9 100.8 -112.7 64C-134.6 27.2 -132.8 -24.2 -110.1 -58.7C-87.4 -93.3 -43.7 -110.9 -1.8 -109.8C40.1 -108.8 80.2 -89.1 102.9 -54.6Z" stroke="#548465" fill="none" stroke-width="8"></path></g><g transform="translate(442 479)"><path d="M79.9 -46.8C94 -21.9 89.1 13.4 72.6 44C56.1 74.6 28 100.6 -0.9 101.1C-29.9 101.7 -59.8 76.8 -74.8 47C-89.8 17.3 -89.8 -17.3 -74.8 -42.7C-59.8 -68.2 -29.9 -84.6 1.5 -85.5C33 -86.4 65.9 -71.7 79.9 -46.8Z" stroke="#548465" fill="none" stroke-width="8"></path></g><g transform="translate(81 409)"><path d="M92.9 -56.4C109.2 -25.4 103.6 15.6 84.4 48C65.3 80.5 32.6 104.5 -4.8 107.2C-42.2 110 -84.3 91.5 -102.5 59.6C-120.6 27.7 -114.8 -17.6 -93.7 -51.3C-72.6 -85.1 -36.3 -107.3 1 -107.8C38.3 -108.4 76.6 -87.4 92.9 -56.4Z" stroke="#548465" fill="none" stroke-width="8"></path></g><g transform="translate(607 72)"><path d="M79.3 -47.1C93.9 -20.6 90.6 14.9 74.4 44C58.3 73.1 29.1 95.8 -0.2 95.9C-29.5 96 -58.9 73.5 -74.4 44.9C-89.8 16.2 -91.2 -18.6 -76.5 -45.3C-61.8 -71.9 -30.9 -90.3 0.7 -90.7C32.4 -91.1 64.7 -73.6 79.3 -47.1Z" stroke="#548465" fill="none" stroke-width="8"></path></g></g></svg>