<svg id="visual" viewBox="0 0 900 675" width="900" height="675" xmlns="http://www.w3.org/2000/svg" xmlns:xlink="http://www.w3.org/1999/xlink" version="1.1"><rect width="900" height="675" fill="#e4f7eb"></rect><g><g transform="translate(213 624)"><path d="M107.3 -63.1C126.3 -29.1 120 18.3 97.9 56C75.8 93.8 37.9 121.9 1.5 121C-35 120.2 -70 90.4 -92.4 52.5C-114.9 14.5 -124.8 -31.6 -107.2 -64.8C-89.7 -98 -44.9 -118.2 -0.3 -118C44.2 -117.8 88.4 -97.2 107.3 -63.1Z" stroke="#4e9987" fill="none" stroke-width="8"></path></g><g transform="translate(563 544)"><path d="M88.3 -53.4C103.3 -24.8 96.9 13.7 78.6 42.5C60.3 71.4 30.2 90.4 0.9 89.9C-28.4 89.4 -56.8 69.3 -72.5 42C-88.2 14.6 -91.2 -19.9 -77 -48C-62.8 -76.1 -31.4 -97.7 2.6 -99.2C36.6 -100.7 73.2 -82 88.3 -53.4Z" stroke="#4e9987" fill="none" stroke-width="8"></path></g><g transform="translate(34 169)"><path d="M90.4 -54.4C107 -23.4 103.4 17.1 84.9 52.1C66.5 87 33.3 116.5 -0.2 116.6C-33.7 116.7 -67.3 87.5 -87.5 51.5C-107.6 15.6 -114.3 -27.1 -97.4 -58.3C-80.6 -89.4 -40.3 -109.1 -1.7 -108.1C36.9 -107.1 73.7 -85.5 90.4 -54.4Z" stroke="#4e9987" fill="none" stroke-width="8"></path></g><g transform="translate(576 170)"><path d="M76.2 -46.4C90.7 -18.8 89.1 15.8 73.6 41.2C58.2 66.5 29.1 82.5 0.2 82.4C-28.8 82.3 -57.5 66.1 -75.5 39.3C-93.4 12.5 -100.6 -24.9 -86.2 -52.3C-71.8 -79.8 -35.9 -97.5 -2.5 -96C30.8 -94.5 61.6 -73.9 76.2 -46.4Z" stroke="#4e9987" fill="none" stroke-width="8"></path></g></g></svg>