<svg id="visual" viewBox="0 0 900 600" width="900" height="600" xmlns="http://www.w3.org/2000/svg" xmlns:xlink="http://www.w3.org/1999/xlink" version="1.1"><rect width="900" height="600" fill="#F3F9F5"></rect><g><g transform="translate(340 159)"><path d="M93.6 -49.4C114.3 -18.1 119.4 26.8 101.1 60C82.9 93.2 41.5 114.6 2.1 113.4C-37.3 112.2 -74.6 88.4 -96.2 53.3C-117.7 18.2 -123.5 -28.2 -104.8 -58.3C-86.2 -88.3 -43.1 -102 -3.3 -100.1C36.4 -98.2 72.9 -80.7 93.6 -49.4Z" stroke="#AEC6BF" fill="none" stroke-width="8"></path></g><g transform="translate(52 329)"><path d="M80.5 -44.7C96.7 -18.5 96.9 18.8 80.8 43C64.8 67.2 32.4 78.4 2.9 76.7C-26.6 75 -53.2 60.5 -67.3 37.5C-81.3 14.5 -82.9 -17.1 -69.6 -41.7C-56.3 -66.2 -28.1 -83.7 2 -84.9C32.2 -86 64.3 -70.9 80.5 -44.7Z" stroke="#AEC6BF" fill="none" stroke-width="8"></path></g><g transform="translate(670 142)"><path d="M72.1 -41.7C87.9 -14.4 91.1 20 77 46.8C62.9 73.6 31.4 92.8 0.8 92.3C-29.9 91.9 -59.7 71.8 -74.6 44.6C-89.4 17.3 -89.3 -17.1 -74.4 -43.9C-59.4 -70.7 -29.7 -89.9 -0.8 -89.4C28.2 -89 56.4 -68.9 72.1 -41.7Z" stroke="#AEC6BF" fill="none" stroke-width="8"></path></g><g transform="translate(461 526)"><path d="M68.2 -39.1C80.7 -17.6 78 12.9 64.1 38.1C50.2 63.3 25.1 83.1 -1.2 83.8C-27.5 84.5 -55.1 66.1 -67.6 41.7C-80.1 17.3 -77.7 -13.1 -63.9 -35.2C-50.1 -57.4 -25.1 -71.4 1.4 -72.2C27.8 -73 55.6 -60.6 68.2 -39.1Z" stroke="#AEC6BF" fill="none" stroke-width="8"></path></g></g></svg>