<svg version="1.2" xmlns="http://www.w3.org/2000/svg" viewBox="0 0 1000 1000" width="1000" height="1000">
	<title>242174-P3F2HS-744-ai</title>
	<style>
		tspan { white-space:pre } 
		.s0 { fill: #f0ffff } 
		.t1 { font-size: 44px;fill: #333333;font-weight: 700;font-family: "BebasNeueBold", "Bebas Neue" } 
		.t2 { font-size: 18px;text-transform: uppercase;fill: #7ecbcc;font-weight: 700;font-family: "BebasNeueBold", "Bebas Neue" } 
		.s3 { fill: #7ecbcc } 
		.s4 { fill: #333333 } 
		.s5 { fill: #ffc1c2 } 
		.s6 { fill: #ffffff } 
		.s7 { fill: #ffdbdb } 
		.s8 { fill: #ff7979 } 
		.s9 { fill: #4d4d4d } 
		.t10 { font-size: 59px;fill: #ffffff;font-weight: 400;font-family: "Barrio-Regular", "Barrio" } 
		.s11 { fill: #3f3f3f } 
	</style>
	<g id="BACKGROUND">
		<g id="&lt;Clip Group&gt;">
			<path id="&lt;Path&gt;" class="s0" d="m1088 1090h-1172v-1170h1172z"/>
			<path id="&lt;Path&gt;" class="s0" d="m1000 1000h-1000v-1000h1000z"/>
		</g>
	</g>
	<g id="OBJECTS">
		<g id="&lt;Group&gt;">
			<text id="PAGE NOT FOUND
" style="transform: matrix(2,0,0,2,503.825,809.447)" >
				<tspan x="-130.7" y="0" class="t1" dx="0 3 3 3 3 3 3 3 3 3 3 3 3 3 3" >PAGE NOT FOUND
</tspan>
			</text>
			<text id="Go back and try a different link
" style="transform: matrix(2,0,0,2,504.272,859.475)" >
				<tspan x="-119.7" y="0" class="t2" dx="0 1 1 1 1 1 1 1 1 1 1 1 1 1 1 1 1 1 1 1 1 1 1 1 1 1 1 1 1 1 1 1 1" >GO BACK AND TRY A DIFFERENT LINK
</tspan>
			</text>
			<g id="&lt;Group&gt;">
				<path id="&lt;Path&gt;" class="s3" d="m694.7 500c0 107.2-86.9 194.1-194.1 194.1-107.2 0-194.1-86.9-194.1-194.1 0-107.2 86.9-194.1 194.1-194.1 107.2 0 194.1 86.9 194.1 194.1z"/>
				<g id="&lt;Group&gt;">
					<g id="&lt;Group&gt;">
						<g id="&lt;Group&gt;">
							<path id="&lt;Compound Path&gt;" fill-rule="evenodd" class="s3" d="m153.8 510.6l98.1-133.3h55.5v133.3h18.6v31.8h-18.6v45.4h-55.5v-45.4h-98.1zm98.1 0v-65.7l-45.8 65.7z"/>
							<path id="&lt;Compound Path&gt;" fill-rule="evenodd" class="s3" d="m672.8 510.6l98.1-133.3h55.5v133.3h19.8v31.8h-19.8v45.4h-55.5v-45.4h-98.1zm98.1 0v-65.7l-45.8 65.7z"/>
						</g>
					</g>
				</g>
			</g>
			<g id="&lt;Group&gt;">
				<g id="&lt;Group&gt;">
					<g id="&lt;Group&gt;">
						<g id="&lt;Group&gt;">
							<path id="&lt;Compound Path&gt;" fill-rule="evenodd" class="s4" d="m648.8 433.9l-66.9-50.6c13.3-36.6 44.8-39.1 61.9-31.8 34.3 15.2 36 62.6 5 82.4zm-18.7-53.7c-5.9-2.5-17-1.7-21.6 11.1l23.4 17.7c10.9-6.9 10.2-23.5-1.8-28.8z"/>
						</g>
						<g id="&lt;Group&gt;">
							<path id="&lt;Path&gt;" class="s5" d="m630.1 380.2c-5.9-2.5-17-1.7-21.6 11.1l23.4 17.7c10.9-6.9 10.2-23.5-1.8-28.8z"/>
						</g>
						<g id="&lt;Group&gt;">
							<path id="&lt;Compound Path&gt;" fill-rule="evenodd" class="s4" d="m420.7 383.3l-66.9 50.6c-31.1-19.8-29.3-67.2 5-82.4 17.1-7.3 48.6-4.8 61.9 31.8zm-26.6 8c-4.6-12.8-15.7-13.6-21.7-11.1-12 5.3-12.6 21.9-1.7 28.8z"/>
						</g>
						<g id="&lt;Group&gt;">
							<path id="&lt;Path&gt;" class="s5" d="m372.4 380.2c-12 5.3-12.6 21.9-1.7 28.8l23.4-17.7c-4.6-12.8-15.7-13.6-21.7-11.1z"/>
						</g>
					</g>
					<g id="&lt;Group&gt;">
						<path id="&lt;Compound Path&gt;" fill-rule="evenodd" class="s6" d="m560.3 635.8c-19 3.4-39.1 5-59 5.1q0 0-0.1 0 0 0-0.1 0c-19.9-0.1-39.9-1.7-59-5.1 4.2-22.2 5.2-60.9-29.4-86.9-34.4-25.8-68.5-16.8-87-8.2-1.9-13.5-14.6-177.5 175.4-177.5q0.1 0 0.1 0 0.1 0 0.1 0c192.3 0 177.3 164 175.4 177.5-18.5-8.6-52.5-17.6-86.9 8.2-34.6 26-33.7 64.7-29.5 86.9zm-58.2-121.1c-4.6 0.3-12.8 0.7-11.9 7 0.8 5.4 7.3 11.2 11.3 11.2 6.5 0 20.3-18.2 0.6-18.2z"/>
						<path id="&lt;Path&gt;" class="s4" d="m502.1 514.7c-4.6 0.3-12.8 0.7-11.9 7 0.8 5.4 7.3 11.2 11.3 11.2 6.5 0 20.3-18.2 0.6-18.2z"/>
						<g id="&lt;Group&gt;">
							<path id="&lt;Path&gt;" class="s6" d="m412.7 548.9c-34.4-25.8-68.5-16.8-87-8.2 7.9 56.4 57.5 84.6 116.4 95.1 4.2-22.2 5.2-60.9-29.4-86.9z"/>
						</g>
						<g id="&lt;Group&gt;">
							<path id="&lt;Path&gt;" class="s6" d="m676.7 540.7c-18.5-8.6-52.5-17.6-86.9 8.2-34.6 26-33.7 64.7-29.5 86.9 58.9-10.5 108.5-38.7 116.4-95.1z"/>
						</g>
					</g>
					<path id="&lt;Path&gt;" class="s7" d="m412.7 548.9c-34.4-25.8-68.5-16.8-87-8.2 7.9 56.4 57.5 84.6 116.4 95.1 4.2-22.2 5.2-60.9-29.4-86.9z"/>
					<g id="&lt;Group&gt;">
						<path id="&lt;Path&gt;" class="s8" d="m471.3 599.2c3.1 10.9 15.3 19.1 29.9 19.1 9.8 0 18.6-3.7 24.2-9.5-14.4-11.9-38.6-16.4-54.1-9.6z"/>
						<path id="&lt;Path&gt;" class="s4" d="m531.9 593.7c0-13.5-13.8-24.6-30.7-24.6-16.9 0-30.6 11.1-30.6 24.6q0 2.8 0.7 5.5c15.5-6.8 39.7-2.3 54.1 9.6 4-4.1 6.5-9.4 6.5-15.1z"/>
					</g>
					<path id="&lt;Path&gt;" class="s7" d="m676.7 540.7c-18.5-8.6-52.5-17.6-86.9 8.2-34.6 26-33.7 64.7-29.5 86.9 58.9-10.5 108.5-38.7 116.4-95.1z"/>
					<g id="&lt;Group&gt;">
						<g id="&lt;Group&gt;">
							<path id="&lt;Path&gt;" class="s4" d="m475.2 466.4c11.8 16.5-0.4 45.4-27.2 64.6-26.8 19.1-58.1 21.3-69.9 4.7-11.8-16.5 0.4-45.4 27.2-64.5 26.8-19.2 58.1-21.3 69.9-4.8z"/>
							<path id="&lt;Path&gt;" class="s4" d="m527.2 466.4c-11.8 16.5 0.4 45.4 27.2 64.6 26.9 19.1 58.2 21.3 70 4.7 11.8-16.5-0.4-45.4-27.2-64.5-26.9-19.2-58.2-21.3-70-4.8z"/>
						</g>
						<g id="&lt;Group&gt;">
							<path id="&lt;Compound Path&gt;" fill-rule="evenodd" class="s6" d="m571.5 500c0 6.4-5.1 11.5-11.5 11.5-6.3 0-11.5-5.1-11.5-11.5 0-6.3 5.2-11.5 11.5-11.5 6.4 0 11.5 5.2 11.5 11.5zm-8.4 0c0-1.7-1.4-3-3.1-3-1.7 0-3 1.3-3 3 0 1.7 1.3 3.1 3 3.1 1.7 0 3.1-1.4 3.1-3.1z"/>
							<path id="&lt;Compound Path&gt;" fill-rule="evenodd" class="s6" d="m453.9 500c0 6.4-5.1 11.5-11.5 11.5-6.3 0-11.5-5.1-11.5-11.5 0-6.3 5.2-11.5 11.5-11.5 6.4 0 11.5 5.2 11.5 11.5zm-8.4 0c0-1.7-1.4-3-3.1-3-1.7 0-3 1.3-3 3 0 1.7 1.3 3.1 3 3.1 1.7 0 3.1-1.4 3.1-3.1z"/>
						</g>
					</g>
				</g>
				<g id="&lt;Group&gt;">
					<path id="&lt;Path&gt;" class="s9" d="m638.4 358c13.3 3.7 23.3 16.8 23.3 30.2 0 7.3-6.9 11-15.7-9.1-6.6-14.9-23.9-14.7-21.8-18.8 1.8-3.3 9.3-3.6 14.2-2.3z"/>
				</g>
				<g id="&lt;Group&gt;">
					<path id="&lt;Path&gt;" class="s9" d="m364.2 358c-13.3 3.7-23.4 16.8-23.4 30.2 0.1 7.3 7 11 15.8-9.1 6.5-14.9 23.9-14.7 21.8-18.8-1.8-3.3-9.3-3.6-14.2-2.3z"/>
				</g>
			</g>
			<g id="&lt;Group&gt;">
				<path id="&lt;Path&gt;" class="s4" d="m500.6 348.2c9.6-80.7 102.8-63.8 174-65.2 57.5-1.2 88.2-7.3 84.2-69.3-1.4-21.8 18.3-98.9-97.7-88.6-116.1 10.3-238.4-3.2-312.3-0.9-73.8 2.2-100.6 17.6-102 84.4-1.4 66.8 8.8 79.1 116.9 73.2 140.7-7.7 136.9 66.4 136.9 66.4z"/>
			</g>
			<text id="Ooops!
" style="transform: matrix(2,0,0,2,500.585,247.763)" >
				<tspan x="-103" y="0" class="t10" dx="0 4 4 4 4 4 4" >Ooops!
</tspan>
			</text>
		</g>
	</g>
	<g id="DESIGNED BY FREEPIK">
		<g id="&lt;Group&gt;">
			<g id="&lt;Group&gt;">
				<path id="&lt;Compound Path&gt;" fill-rule="evenodd" class="s11" d="m363.3 944.7q0.4 0.5 0.4 1.4v14.3q0 0.9-0.4 1.4-0.5 0.5-1.1 0.5-0.7 0-1.1-0.5-0.5-0.5-0.5-1.4v-0.3q-0.6 0.7-1.2 1.2-0.7 0.5-1.4 0.7-0.8 0.3-1.6 0.3-1.2 0-2.2-0.5-1-0.5-1.7-1.4-0.7-0.9-1.1-2.2-0.4-1.2-0.4-2.7 0-3 1.5-4.7 1.5-1.7 3.9-1.7 1.4 0 2.4 0.5 0.9 0.5 1.8 1.5v-4.8q0-1 0.4-1.5 0.4-0.5 1.2-0.5 0.7 0 1.1 0.4zm-2.8 11q0-1.3-0.5-2.3-0.4-0.9-1.1-1.4-0.7-0.5-1.6-0.5-0.9 0-1.6 0.5-0.7 0.5-1 1.5-0.4 0.9-0.4 2.2 0 1.3 0.4 2.2 0.4 0.9 1.1 1.4 0.7 0.5 1.6 0.5 0.8 0 1.5-0.5 0.7-0.4 1.1-1.4 0.5-0.9 0.5-2.2z"/>
				<path id="&lt;Compound Path&gt;" fill-rule="evenodd" class="s11" d="m374.9 956.5h-6.3q0 1.1 0.4 1.9 0.5 0.9 1.2 1.3 0.7 0.4 1.6 0.4 0.6 0 1-0.1 0.5-0.2 1-0.4 0.4-0.3 0.8-0.7 0.4-0.3 1-0.9 0.2-0.2 0.7-0.2 0.5 0 0.8 0.3 0.3 0.3 0.3 0.8 0 0.4-0.3 1-0.4 0.6-1.1 1.1-0.7 0.5-1.7 0.9-1.1 0.4-2.4 0.4-3.2 0-4.9-1.8-1.7-1.8-1.7-4.8 0-1.5 0.4-2.7 0.4-1.2 1.3-2.1 0.8-0.9 2-1.4 1.2-0.4 2.6-0.4 1.9 0 3.3 0.8 1.4 0.8 2 2 0.7 1.3 0.7 2.6 0 1.2-0.7 1.6-0.7 0.4-2 0.4zm-0.4-1.9q-0.1-1.6-0.9-2.5-0.8-0.8-2.1-0.8-1.2 0-2 0.9-0.7 0.8-0.9 2.4z"/>
				<path id="&lt;Path&gt;" class="s11" d="m387.8 955.2q-1-0.5-2.5-0.8-1.3-0.4-2-0.6-0.7-0.2-1.2-0.5-0.4-0.3-0.4-0.8 0-0.6 0.6-1 0.6-0.3 1.5-0.3 0.8 0 1.3 0.2 0.5 0.3 0.9 0.8 0.4 0.6 0.8 0.8 0.3 0.3 0.8 0.3 0.7 0 1.1-0.3 0.4-0.4 0.4-0.9 0-0.5-0.4-1.1-0.3-0.5-1-1-0.7-0.4-1.7-0.7-1-0.2-2.2-0.2-1.6 0-2.8 0.5-1.1 0.5-1.7 1.4-0.6 0.9-0.6 1.8 0 1.1 0.7 1.9 0.6 0.7 1.6 1.2 1.1 0.4 2.8 0.8 1.4 0.4 2.1 0.8 0.6 0.4 0.6 1.2 0 0.6-0.6 1-0.6 0.5-1.6 0.5-1.2 0-1.9-0.5-0.7-0.4-1.2-1.3-0.2-0.4-0.5-0.7-0.3-0.2-0.8-0.2-0.6 0-0.9 0.4-0.4 0.3-0.4 0.9 0 0.8 0.6 1.6 0.6 0.8 1.8 1.3 1.3 0.6 3 0.6 1.8 0 3.1-0.5 1.3-0.5 1.9-1.5 0.7-0.9 0.7-2.3 0-0.9-0.5-1.6-0.5-0.7-1.4-1.2z"/>
				<path id="&lt;Path&gt;" class="s11" d="m393 949.1q-0.7 0-1.2 0.5-0.4 0.5-0.4 1.4v9.3q0 0.9 0.4 1.5 0.5 0.5 1.2 0.5 0.7 0 1.1-0.5 0.5-0.5 0.5-1.5v-9.4q0-0.8-0.5-1.3-0.4-0.5-1.1-0.5z"/>
				<path id="&lt;Path&gt;" class="s11" d="m393 944.4q-0.6 0-1.1 0.5-0.5 0.4-0.5 1.1 0 0.7 0.5 1.2 0.4 0.4 1.1 0.4 0.7 0 1.1-0.4 0.5-0.5 0.5-1.2 0-0.8-0.5-1.2-0.5-0.4-1.1-0.4z"/>
				<path id="&lt;Compound Path&gt;" fill-rule="evenodd" class="s11" d="m408.5 949.7q0.3 0.6 0.3 1.8v9.4q0 1.6-0.3 2.8-0.4 1.1-1.1 1.9-0.8 0.7-2 1.1-1.3 0.4-3.1 0.4-1.7 0-3-0.5-1.3-0.5-2-1.2-0.7-0.8-0.7-1.5 0-0.6 0.4-1 0.4-0.4 1-0.4 0.7 0 1.2 0.7 0.3 0.3 0.5 0.6 0.3 0.3 0.7 0.6 0.3 0.2 0.8 0.3 0.4 0.1 1.1 0.1 1.2 0 1.9-0.3 0.7-0.4 1-1 0.3-0.6 0.3-1.4 0.1-0.7 0.1-2.3-0.8 1.1-1.7 1.6-1 0.6-2.4 0.6-1.6 0-2.8-0.9-1.2-0.8-1.9-2.3-0.6-1.5-0.6-3.4 0-1.5 0.4-2.7 0.4-1.2 1.1-2 0.7-0.8 1.7-1.2 1-0.4 2.1-0.4 1.4 0 2.4 0.5 1 0.6 1.9 1.7v-0.4q0-0.9 0.4-1.4 0.4-0.4 1.1-0.4 0.9 0 1.2 0.6zm-2.9 6q0-2-0.8-3.1-0.9-1.1-2.3-1.1-1.4 0-2.2 1.1-0.9 1-0.9 3 0 1.9 0.9 2.9 0.8 1.1 2.2 1.1 0.8 0 1.5-0.5 0.7-0.4 1.2-1.3 0.4-0.9 0.4-2.1z"/>
				<path id="&lt;Path&gt;" class="s11" d="m422 951.2q-0.5-1-1.5-1.6-1.1-0.5-2.3-0.5-1.4 0-2.4 0.5-1 0.5-1.8 1.7v-0.4q0-0.6-0.3-1-0.2-0.4-0.5-0.6-0.3-0.2-0.8-0.2-0.7 0-1.1 0.4-0.4 0.5-0.4 1.4v9.4q0 0.9 0.5 1.5 0.4 0.5 1.1 0.5 0.7 0 1.2-0.5 0.5-0.5 0.5-1.5v-4.1q0-1.9 0.2-2.7 0.3-0.9 1-1.4 0.8-0.5 1.6-0.5 1.3 0 1.8 0.8 0.4 0.9 0.4 2.5v5.4q0 0.9 0.5 1.5 0.4 0.5 1.2 0.5 0.7 0 1.1-0.5 0.5-0.5 0.5-1.5v-6q0-1.1-0.1-1.8-0.1-0.7-0.4-1.3z"/>
				<path id="&lt;Compound Path&gt;" fill-rule="evenodd" class="s11" d="m433.7 956.5h-6.4q0 1.1 0.5 1.9 0.4 0.9 1.1 1.3 0.7 0.4 1.6 0.4 0.6 0 1.1-0.1 0.5-0.2 0.9-0.4 0.5-0.3 0.8-0.7 0.4-0.3 1-0.9 0.3-0.2 0.7-0.2 0.5 0 0.8 0.3 0.4 0.3 0.4 0.8 0 0.4-0.4 1-0.3 0.6-1 1.1-0.7 0.5-1.8 0.9-1 0.4-2.4 0.4-3.1 0-4.8-1.8-1.8-1.8-1.8-4.8 0-1.5 0.4-2.7 0.5-1.2 1.3-2.1 0.8-0.9 2-1.4 1.2-0.4 2.7-0.4 1.9 0 3.2 0.8 1.4 0.8 2.1 2 0.6 1.3 0.6 2.6 0 1.2-0.7 1.6-0.7 0.4-1.9 0.4zm-0.5-1.9q-0.1-1.6-0.9-2.5-0.8-0.8-2-0.8-1.2 0-2 0.9-0.8 0.8-1 2.4z"/>
				<path id="&lt;Compound Path&gt;" fill-rule="evenodd" class="s11" d="m449.5 944.7q0.4 0.5 0.4 1.4v14.3q0 0.9-0.4 1.4-0.4 0.5-1.1 0.5-0.7 0-1.1-0.5-0.4-0.5-0.4-1.4v-0.3q-0.7 0.7-1.3 1.2-0.6 0.5-1.4 0.7-0.7 0.3-1.6 0.3-1.2 0-2.2-0.5-0.9-0.5-1.7-1.4-0.7-0.9-1.1-2.2-0.3-1.2-0.3-2.7 0-3 1.4-4.7 1.5-1.7 3.9-1.7 1.4 0 2.4 0.5 1 0.5 1.9 1.5v-4.8q0-1 0.4-1.5 0.4-0.5 1.1-0.5 0.7 0 1.1 0.4zm-2.8 11q0-1.3-0.4-2.3-0.4-0.9-1.2-1.4-0.7-0.5-1.5-0.5-0.9 0-1.6 0.5-0.7 0.5-1.1 1.5-0.4 0.9-0.4 2.2 0 1.3 0.4 2.2 0.4 0.9 1.1 1.4 0.8 0.5 1.6 0.5 0.8 0 1.6-0.5 0.7-0.4 1.1-1.4 0.4-0.9 0.4-2.2z"/>
				<path id="&lt;Compound Path&gt;" fill-rule="evenodd" class="s11" d="m469.1 952.1q0.6 1.4 0.6 3.4 0 1.5-0.3 2.7-0.4 1.3-1.1 2.2-0.7 0.9-1.8 1.4-1 0.5-2.2 0.5-0.7 0-1.4-0.2-0.7-0.2-1.1-0.5-0.5-0.3-0.8-0.6-0.3-0.3-0.9-0.9v0.3q0 0.9-0.4 1.4-0.5 0.5-1.1 0.5-0.7 0-1.1-0.5-0.4-0.5-0.4-1.4v-14.1q0-1 0.4-1.5 0.4-0.5 1.1-0.5 0.7 0 1.1 0.4 0.4 0.5 0.4 1.4v5q0.9-1 1.9-1.5 0.9-0.5 2.3-0.5 1.7 0 2.9 0.8 1.2 0.7 1.9 2.2zm-2.6 3.6q0-1.3-0.4-2.3-0.4-0.9-1-1.4-0.7-0.5-1.6-0.5-0.9 0-1.7 0.5-0.7 0.5-1.1 1.5-0.4 0.9-0.4 2.2 0 2 0.9 3 0.8 1.1 2.3 1.1 1.2 0 2.1-1.1 0.9-1.1 0.9-3z"/>
				<path id="&lt;Path&gt;" class="s11" d="m481.1 949.3q-0.4-0.2-0.7-0.2-0.6 0-0.8 0.2-0.3 0.1-0.6 0.7-0.2 0.5-0.5 1.4l-2.6 7.4-2.8-8q-0.2-0.8-0.6-1.3-0.4-0.4-1.1-0.4-0.4 0-0.7 0.2-0.4 0.2-0.6 0.6-0.2 0.3-0.2 0.7 0 0.4 0.3 1.3l4 10-0.3 0.8q-0.3 0.8-0.6 1.2-0.2 0.4-0.5 0.5-0.4 0.2-0.9 0.2-0.2 0-0.5-0.1-0.3 0-0.6 0-0.6 0-1 0.3-0.3 0.3-0.3 0.8 0 0.9 0.7 1.2 0.7 0.3 2.2 0.3 1.4 0 2.3-0.5 0.8-0.4 1.4-1.3 0.5-0.8 1-2.2l4.2-11.1q0.2-0.4 0.3-0.8 0.1-0.5 0.2-0.7 0-0.4-0.2-0.7-0.2-0.3-0.5-0.5z"/>
			</g>
			<g id="&lt;Group&gt;">
				<g id="&lt;Group&gt;">
					<path id="&lt;Path&gt;" class="s11" d="m525.9 944.3q-1.6 0-2.6 0.4-0.9 0.4-1.3 1.3-0.4 0.9-0.4 2.4v1h-0.7q-1.7 0-1.7 1.1 0 0.6 0.4 0.9 0.4 0.3 1.2 0.3h0.8v8.6q0 0.9 0.5 1.5 0.5 0.5 1.2 0.5 0.7 0 1.1-0.5 0.5-0.6 0.5-1.5v-8.6h0.8q0.9 0 1.3-0.2 0.5-0.2 0.5-1 0-1.1-1.8-1.1h-0.8v-0.8q0-1 0.2-1.5 0.3-0.5 1.2-0.5 0.3 0 0.7 0.1 0.5 0 0.7 0 0.4 0 0.7-0.3 0.3-0.3 0.3-0.7 0-1.4-2.8-1.4z"/>
					<path id="&lt;Path&gt;" class="s11" d="m536.2 949.6q-1-0.5-2-0.5-1 0-1.6 0.5-0.6 0.5-1.2 1.5-0.1-1-0.4-1.5-0.4-0.5-1.2-0.5-1.6 0-1.6 2.2v9q0 1 0.5 1.5 0.4 0.5 1.1 0.5 0.8 0 1.2-0.5 0.5-0.5 0.5-1.5v-2.7q0-1.5 0.1-2.5 0.1-1 0.3-1.8 0.3-0.7 0.7-1.1 0.5-0.3 1.2-0.3 0.5 0 1.2 0.2 0.7 0.2 0.9 0.2 0.4 0 0.8-0.4 0.4-0.4 0.4-1 0-0.8-0.9-1.3z"/>
					<path id="&lt;Compound Path&gt;" fill-rule="evenodd" class="s11" d="m546.4 956.5h-6.4q0.1 1.1 0.5 1.9 0.4 0.9 1.1 1.3 0.8 0.4 1.6 0.4 0.6 0 1.1-0.1 0.5-0.2 0.9-0.5 0.5-0.2 0.8-0.6 0.4-0.3 1-0.9 0.3-0.2 0.7-0.2 0.5 0 0.9 0.3 0.3 0.3 0.3 0.8 0 0.4-0.4 1-0.3 0.6-1 1.1-0.7 0.5-1.8 0.9-1 0.4-2.4 0.4-3.1 0-4.8-1.8-1.8-1.8-1.8-4.9 0-1.4 0.5-2.6 0.4-1.2 1.2-2.1 0.8-0.9 2-1.4 1.2-0.4 2.7-0.4 1.9 0 3.2 0.8 1.4 0.8 2.1 2 0.7 1.3 0.7 2.6 0 1.2-0.7 1.6-0.7 0.4-2 0.4zm-0.5-1.9q-0.1-1.6-0.9-2.5-0.8-0.8-2-0.8-1.2 0-2 0.9-0.8 0.8-1 2.4z"/>
					<path id="&lt;Compound Path&gt;" fill-rule="evenodd" class="s11" d="m559.9 956.5h-6.4q0 1.1 0.5 1.9 0.4 0.9 1.1 1.3 0.7 0.4 1.6 0.4 0.6 0 1.1-0.1 0.4-0.2 0.9-0.5 0.5-0.2 0.8-0.6 0.4-0.3 1-0.9 0.3-0.2 0.7-0.2 0.5 0 0.8 0.3 0.3 0.3 0.3 0.8 0 0.4-0.3 1-0.3 0.6-1 1.1-0.7 0.5-1.8 0.9-1 0.4-2.4 0.4-3.1 0-4.9-1.8-1.7-1.8-1.7-4.9 0-1.4 0.4-2.6 0.5-1.2 1.3-2.1 0.8-0.9 2-1.4 1.2-0.4 2.7-0.4 1.9 0 3.2 0.8 1.4 0.8 2.1 2 0.6 1.3 0.6 2.6 0 1.2-0.7 1.6-0.7 0.4-1.9 0.4zm-0.5-1.9q-0.1-1.6-0.9-2.5-0.8-0.8-2-0.8-1.3 0-2 0.9-0.8 0.8-1 2.4z"/>
					<path id="&lt;Compound Path&gt;" fill-rule="evenodd" class="s11" d="m575.8 952.1q0.8 1.5 0.8 3.5 0 1.5-0.4 2.8-0.5 1.3-1.2 2.1-0.7 0.8-1.7 1.3-1.1 0.5-2.2 0.5-1.4 0-2.3-0.6-1-0.6-1.8-1.6v4.8q0 2.2-1.6 2.2-0.9 0-1.2-0.6-0.3-0.5-0.3-1.6v-14q0-0.9 0.4-1.4 0.4-0.4 1.1-0.4 0.7 0 1.1 0.4 0.5 0.5 0.5 1.4v0.4q0.9-1.1 1.9-1.7 0.9-0.5 2.2-0.5 1.5 0 2.8 0.8 1.2 0.7 1.9 2.2zm-2.5 3.5q0-1.3-0.4-2.2-0.4-0.9-1.1-1.4-0.7-0.5-1.5-0.5-1.3 0-2.3 1.1-0.9 1-0.9 3.1 0 1.9 0.9 3 0.9 1.1 2.3 1.1 0.8 0 1.5-0.5 0.7-0.5 1.1-1.4 0.4-1 0.4-2.3z"/>
					<path id="&lt;Path&gt;" class="s11" d="m579.8 949.1q-0.7 0-1.2 0.5-0.4 0.5-0.4 1.4v9.3q0 0.9 0.4 1.5 0.5 0.5 1.2 0.5 0.7 0 1.2-0.5 0.4-0.5 0.4-1.5v-9.4q0-0.8-0.4-1.3-0.5-0.5-1.2-0.5z"/>
					<path id="&lt;Path&gt;" class="s11" d="m579.8 944.4q-0.6 0-1.1 0.4-0.5 0.5-0.5 1.2 0 0.7 0.5 1.2 0.5 0.4 1.1 0.4 0.7 0 1.2-0.4 0.4-0.5 0.4-1.2 0-0.8-0.4-1.2-0.5-0.4-1.2-0.4z"/>
					<path id="&lt;Path&gt;" class="s11" d="m594.5 959.1l-3.3-5.2 1.7-1.6q1.3-1.2 1.3-1.9 0-0.5-0.4-0.9-0.4-0.4-1-0.4-0.5 0-0.9 0.2-0.3 0.3-1 1l-3.6 3.8v-7.8q0-1-0.5-1.5-0.4-0.5-1.2-0.5-0.7 0-1.1 0.5-0.5 0.6-0.5 1.7v13.8q0 1 0.5 1.5 0.4 0.5 1.1 0.5 0.7 0 1.2-0.5 0.5-0.5 0.5-1.5v-2.6l1.7-1.6 2.9 4.7q0.5 0.8 0.9 1.1 0.3 0.4 0.9 0.4 0.7 0 1.1-0.5 0.4-0.4 0.4-1.2 0-0.3-0.2-0.6-0.1-0.3-0.5-0.9z"/>
					<path id="&lt;Path&gt;" class="s11" d="m598.9 958.7q-0.7 0-1.3 0.5-0.5 0.5-0.5 1.3 0 0.8 0.6 1.3 0.5 0.5 1.2 0.5 0.7 0 1.3-0.5 0.5-0.5 0.5-1.3 0-0.8-0.5-1.3-0.6-0.5-1.3-0.5z"/>
					<path id="&lt;Path&gt;" class="s11" d="m613.7 956.8q-0.5 0-0.9 0.3-0.3 0.4-0.6 0.9-0.5 0.9-1.2 1.4-0.7 0.4-1.7 0.4-0.7 0-1.3-0.3-0.6-0.2-1.1-0.8-0.4-0.5-0.6-1.3-0.3-0.7-0.3-1.7 0-1.9 0.9-3 0.9-1.2 2.3-1.2 1 0 1.7 0.5 0.6 0.5 1.2 1.3 0.4 0.5 0.6 0.7 0.3 0.2 0.7 0.2 0.6 0 1.1-0.4 0.4-0.4 0.4-1 0-0.5-0.4-1.2-0.4-0.6-1.1-1.2-0.7-0.6-1.8-1-1.1-0.3-2.3-0.3-2 0-3.5 0.8-1.5 0.8-2.2 2.4-0.8 1.5-0.8 3.5 0 2.9 1.7 4.7 1.7 1.7 4.7 1.7 1.4 0 2.5-0.3 1.1-0.4 1.9-1 0.7-0.7 1.1-1.4 0.4-0.6 0.4-1.3 0-0.5-0.4-0.9-0.4-0.5-1-0.5z"/>
					<path id="&lt;Compound Path&gt;" fill-rule="evenodd" class="s11" d="m628.6 953q0.4 1.2 0.4 2.7 0 1.4-0.4 2.6-0.5 1.3-1.3 2.1-0.9 0.9-2.1 1.4-1.2 0.5-2.6 0.5-1.5 0-2.7-0.5-1.2-0.5-2-1.4-0.9-0.9-1.3-2.1-0.5-1.2-0.5-2.6 0-1.5 0.5-2.7 0.4-1.3 1.3-2.1 0.8-0.9 2-1.4 1.2-0.4 2.7-0.4 1.4 0 2.6 0.5 1.2 0.4 2.1 1.3 0.8 0.9 1.3 2.1zm-2.8 2.7q0-2-0.9-3.1-0.9-1.1-2.3-1.1-1 0-1.7 0.5-0.7 0.5-1.1 1.4-0.4 1-0.4 2.3 0 1.2 0.4 2.2 0.4 0.9 1.1 1.4 0.7 0.5 1.7 0.6 1.4 0 2.3-1.2 0.9-1.1 0.9-3z"/>
					<path id="&lt;Path&gt;" class="s11" d="m647.1 949.6q-0.9-0.5-2.3-0.5-1.1 0-2 0.5-1 0.5-1.8 1.5-0.6-1-1.4-1.5-0.9-0.5-2.1-0.5-1.2 0-2.2 0.5-0.9 0.5-1.8 1.5v-0.3q0-0.8-0.4-1.3-0.5-0.4-1.1-0.4-0.7 0-1.2 0.5-0.4 0.4-0.4 1.3v9.3q0 1 0.5 1.5 0.5 0.6 1.2 0.6 0.7 0 1.2-0.6 0.5-0.5 0.5-1.5v-4.4q0-2 0.5-3.1 0.5-1.1 2.1-1.1 0.8 0 1.1 0.4 0.4 0.5 0.5 1.2 0.1 0.6 0.1 1.9v5.1q0 1 0.4 1.6 0.5 0.5 1.2 0.5 0.8 0 1.2-0.5 0.5-0.6 0.5-1.6v-4.3q0-2.1 0.4-2.9 0.3-0.6 0.9-1 0.5-0.4 1.2-0.4 0.8 0 1.2 0.4 0.3 0.5 0.4 1.1 0.1 0.6 0.1 1.7v5.4q0 1 0.5 1.5 0.5 0.6 1.2 0.6 0.8 0 1.2-0.5 0.5-0.6 0.5-1.6v-6.3q0-1.9-0.4-2.8-0.5-0.9-1.5-1.5z"/>
				</g>
				<g id="&lt;Group&gt;">
					<path id="&lt;Path&gt;" class="s11" d="m490.5 954.9q0 0 0 0 0 0 0 0z"/>
					<path id="&lt;Path&gt;" class="s11" d="m490.7 955.9q0 0 0 0-0.1-0.4-0.1-0.9 0 0.5 0.1 0.9z"/>
					<path id="&lt;Path&gt;" class="s11" d="m491.8 958.9q0 0 0 0 0 0 0 0z"/>
					<path id="&lt;Path&gt;" class="s11" d="m491.7 958.7q-0.1-0.1-0.1-0.1 0 0.1 0.1 0.1z"/>
					<path id="&lt;Path&gt;" class="s11" d="m491 957.1q0.3 0.7 0.6 1.4-0.4-0.7-0.6-1.4z"/>
					<path id="&lt;Path&gt;" class="s11" d="m501.5 941.4l-0.2-0.6c0.6-0.1 1.1-0.6 1.1-1.2 0-0.8-0.6-1.4-1.4-1.4-0.7 0-1.3 0.6-1.3 1.4 0 0.6 0.5 1.1 1.1 1.2l0.1 0.6c-2 0.3-3.6 1.1-3.6 1.1l0.3 0.9c1.2-0.4 2.3-0.7 3.2-0.8 1-0.1 1.7-0.1 2.3-0.1 0.6 0 1.1 0 1.6 0.1l0.2-0.9c0 0-1.5-0.5-3.4-0.3z"/>
					<path id="&lt;Path&gt;" class="s11" d="m490.9 946.4c0 0-1 0.9-1.7 2.5q-0.1 0-0.2-0.1-0.3-0.4-0.9-0.4 0 0 0 0c-0.3 0-0.4-0.1-0.6-0.2q0.2-0.2 0.2-0.5c0-0.4-0.4-0.8-0.8-0.8-0.5 0-0.9 0.4-0.9 0.8 0 0.5 0.4 0.9 0.9 0.9q0.1 0 0.2-0.1c0.2 0.3 0.5 0.5 1 0.4q0.4 0 0.5 0.2c0.2 0.2 0.2 0.4 0.2 0.6q0 0 0 0c-0.5 1.5-0.3 3.3-0.3 3.3l1.3 0.1c0-0.7 0.1-1.9 0.4-2.8 0.7-1.8 1.5-3 1.6-3q0-0.1 0.1-0.2l-0.4-0.3z"/>
					<path id="&lt;Path&gt;" class="s11" d="m514.6 943.6c-0.5 0-0.9 0.3-0.9 0.8q0.1 0.1 0.1 0.2c-0.2 0.2-0.4 0.6-0.4 1q0 0.4-0.2 0.6-0.2 0.1-0.4 0.1c-1-1.3-2.2-2.2-2.2-2.2l-0.9 1q1 1 2.1 2.5c0.5 0.7 1 1.6 1.4 2.6l1.3-0.7c0 0-0.6-1.4-1.4-2.7q0.2-0.1 0.4-0.2 0.4-0.4 0.4-1c0-0.2 0.1-0.4 0.2-0.5q0.2 0.1 0.5 0.1c0.5 0 0.8-0.3 0.8-0.8 0-0.5-0.3-0.8-0.8-0.8z"/>
					<path id="&lt;Path&gt;" class="s11" d="m511.3 955.1c-1.8 0.8-4.7 2-8.5 2.5-1.5 0.2-3 0.3-4.3 0.3-1.7 0-3.3-0.1-4.4-0.3-1.4-0.2-2.4-0.4-3.1-0.5q0.2 0.7 0.6 1.4 0 0 0 0.1 0 0 0.1 0.1 0 0.1 0.1 0.2 0 0 0 0 0.6 1.1 1.3 2c1.8 1.9 3.7 2.2 3.7 2.2v0.1c0.1 0 1.7 0.5 4.2 0.5 2.4 0 4.8-0.5 7-1.5 1.7-0.8 3.3-2.1 4.1-3.3q0.9-1.4 1.3-2.9c0.2-0.5 0.3-1.4 0.2-2.3-0.5 0.4-1.3 0.9-2.3 1.4z"/>
					<path id="&lt;Compound Path&gt;" fill-rule="evenodd" class="s11" d="m511.2 948c0.9 1.3 1.9 3.3 2.2 4.6-0.3 0.2-1.2 0.9-2.6 1.5-1.7 0.9-4.5 1.9-8.2 2.5-5.8 0.8-11-0.5-11.9-0.7q-0.1-0.4-0.1-0.9 0 0-0.1-0.1 0 0 0 0 0-0.7 0-1.3c0 0 0-1.8 0.4-3.1 0.6-1.6 1.4-2.7 1.4-2.8 0.5-0.5 0.8-0.9 1-1v-0.1c1.2-1.1 2.8-2 4.4-2.5q1.8-0.6 3.2-0.8c0.9-0.1 1.6-0.1 2.2-0.1 0.6 0 1 0 1.5 0.1 1.4 0.2 4.1 1.2 6.6 4.7zm-10.3 2.3c0-1.9-1.6-3.5-3.5-3.5-2 0-3.6 1.6-3.6 3.5 0 2 1.6 3.5 3.6 3.5 1.9 0 3.5-1.5 3.5-3.5zm8.9-1.2c0-1.3-0.9-2.2-2.1-2.2-1.2 0-2.2 0.9-2.2 2.2 0 1.2 1 2.1 2.2 2.1 1.2 0 2.1-0.9 2.1-2.1z"/>
				</g>
			</g>
		</g>
	</g>
</svg>