<svg version="1.2" xmlns="http://www.w3.org/2000/svg" viewBox="0 0 1000 1000" width="1000" height="1000">
	<title>242174-P3F2HS-744-ai</title>
	<style>
		tspan { white-space:pre } 
		.s0 { fill: #f0ffff } 
		.t1 { font-size: 44px;fill: #333333;font-weight: 700;font-family: "BebasNeueBold", "Bebas Neue" } 
		.t2 { font-size: 18px;text-transform: uppercase;fill: #7ecbcc;font-weight: 700;font-family: "BebasNeueBold", "Bebas Neue" } 
		.s3 { fill: #7ecbcc } 
		.s4 { fill: #333333 } 
		.s5 { fill: #ffc1c2 } 
		.s6 { fill: #ffffff } 
		.s7 { fill: #ffdbdb } 
		.s8 { fill: #ff7979 } 
		.s9 { fill: #4d4d4d } 
		.t10 { font-size: 59px;fill: #ffffff;font-weight: 400;font-family: "Barrio-Regular", "Barrio" } 
	</style>
	<g id="BACKGROUND">
		<g id="&lt;Clip Group&gt;">
			<path id="&lt;Path&gt;" class="s0" d="m1088 1090h-1172v-1170h1172z"/>
			<path id="&lt;Path&gt;" class="s0" d="m1000 1000h-1000v-1000h1000z"/>
		</g>
	</g>
	<g id="OBJECTS">
		<g id="&lt;Group&gt;">
			<text id="PAGE NOT FOUND
" style="transform: matrix(2,0,0,2,503.825,809.447)" >
				<tspan x="-130.7" y="0" class="t1" dx="0 3 3 3 3 3 3 3 3 3 3 3 3 3 3" >PAGE NOT FOUND
</tspan>
			</text>
			<text id="Go back and try a different link
" style="transform: matrix(2,0,0,2,504.272,859.475)" >
				<tspan x="-119.7" y="0" class="t2" dx="0 1 1 1 1 1 1 1 1 1 1 1 1 1 1 1 1 1 1 1 1 1 1 1 1 1 1 1 1 1 1 1 1" >GO BACK AND TRY A DIFFERENT LINK
</tspan>
			</text>
			<g id="&lt;Group&gt;">
				<path id="&lt;Path&gt;" class="s3" d="m694.7 500c0 107.2-86.9 194.1-194.1 194.1-107.2 0-194.1-86.9-194.1-194.1 0-107.2 86.9-194.1 194.1-194.1 107.2 0 194.1 86.9 194.1 194.1z"/>
				<g id="&lt;Group&gt;">
					<g id="&lt;Group&gt;">
						<g id="&lt;Group&gt;">
							<path id="&lt;Compound Path&gt;" fill-rule="evenodd" class="s3" d="m153.8 510.6l98.1-133.3h55.5v133.3h18.6v31.8h-18.6v45.4h-55.5v-45.4h-98.1zm98.1 0v-65.7l-45.8 65.7z"/>
							<path id="&lt;Compound Path&gt;" fill-rule="evenodd" class="s3" d="m672.8 510.6l98.1-133.3h55.5v133.3h19.8v31.8h-19.8v45.4h-55.5v-45.4h-98.1zm98.1 0v-65.7l-45.8 65.7z"/>
						</g>
					</g>
				</g>
			</g>
			<g id="&lt;Group&gt;">
				<g id="&lt;Group&gt;">
					<g id="&lt;Group&gt;">
						<g id="&lt;Group&gt;">
							<path id="&lt;Compound Path&gt;" fill-rule="evenodd" class="s4" d="m648.8 433.9l-66.9-50.6c13.3-36.6 44.8-39.1 61.9-31.8 34.3 15.2 36 62.6 5 82.4zm-18.7-53.7c-5.9-2.5-17-1.7-21.6 11.1l23.4 17.7c10.9-6.9 10.2-23.5-1.8-28.8z"/>
						</g>
						<g id="&lt;Group&gt;">
							<path id="&lt;Path&gt;" class="s5" d="m630.1 380.2c-5.9-2.5-17-1.7-21.6 11.1l23.4 17.7c10.9-6.9 10.2-23.5-1.8-28.8z"/>
						</g>
						<g id="&lt;Group&gt;">
							<path id="&lt;Compound Path&gt;" fill-rule="evenodd" class="s4" d="m420.7 383.3l-66.9 50.6c-31.1-19.8-29.3-67.2 5-82.4 17.1-7.3 48.6-4.8 61.9 31.8zm-26.6 8c-4.6-12.8-15.7-13.6-21.7-11.1-12 5.3-12.6 21.9-1.7 28.8z"/>
						</g>
						<g id="&lt;Group&gt;">
							<path id="&lt;Path&gt;" class="s5" d="m372.4 380.2c-12 5.3-12.6 21.9-1.7 28.8l23.4-17.7c-4.6-12.8-15.7-13.6-21.7-11.1z"/>
						</g>
					</g>
					<g id="&lt;Group&gt;">
						<path id="&lt;Compound Path&gt;" fill-rule="evenodd" class="s6" d="m560.3 635.8c-19 3.4-39.1 5-59 5.1q0 0-0.1 0 0 0-0.1 0c-19.9-0.1-39.9-1.7-59-5.1 4.2-22.2 5.2-60.9-29.4-86.9-34.4-25.8-68.5-16.8-87-8.2-1.9-13.5-14.6-177.5 175.4-177.5q0.1 0 0.1 0 0.1 0 0.1 0c192.3 0 177.3 164 175.4 177.5-18.5-8.6-52.5-17.6-86.9 8.2-34.6 26-33.7 64.7-29.5 86.9zm-58.2-121.1c-4.6 0.3-12.8 0.7-11.9 7 0.8 5.4 7.3 11.2 11.3 11.2 6.5 0 20.3-18.2 0.6-18.2z"/>
						<path id="&lt;Path&gt;" class="s4" d="m502.1 514.7c-4.6 0.3-12.8 0.7-11.9 7 0.8 5.4 7.3 11.2 11.3 11.2 6.5 0 20.3-18.2 0.6-18.2z"/>
						<g id="&lt;Group&gt;">
							<path id="&lt;Path&gt;" class="s6" d="m412.7 548.9c-34.4-25.8-68.5-16.8-87-8.2 7.9 56.4 57.5 84.6 116.4 95.1 4.2-22.2 5.2-60.9-29.4-86.9z"/>
						</g>
						<g id="&lt;Group&gt;">
							<path id="&lt;Path&gt;" class="s6" d="m676.7 540.7c-18.5-8.6-52.5-17.6-86.9 8.2-34.6 26-33.7 64.7-29.5 86.9 58.9-10.5 108.5-38.7 116.4-95.1z"/>
						</g>
					</g>
					<path id="&lt;Path&gt;" class="s7" d="m412.7 548.9c-34.4-25.8-68.5-16.8-87-8.2 7.9 56.4 57.5 84.6 116.4 95.1 4.2-22.2 5.2-60.9-29.4-86.9z"/>
					<g id="&lt;Group&gt;">
						<path id="&lt;Path&gt;" class="s8" d="m471.3 599.2c3.1 10.9 15.3 19.1 29.9 19.1 9.8 0 18.6-3.7 24.2-9.5-14.4-11.9-38.6-16.4-54.1-9.6z"/>
						<path id="&lt;Path&gt;" class="s4" d="m531.9 593.7c0-13.5-13.8-24.6-30.7-24.6-16.9 0-30.6 11.1-30.6 24.6q0 2.8 0.7 5.5c15.5-6.8 39.7-2.3 54.1 9.6 4-4.1 6.5-9.4 6.5-15.1z"/>
					</g>
					<path id="&lt;Path&gt;" class="s7" d="m676.7 540.7c-18.5-8.6-52.5-17.6-86.9 8.2-34.6 26-33.7 64.7-29.5 86.9 58.9-10.5 108.5-38.7 116.4-95.1z"/>
					<g id="&lt;Group&gt;">
						<g id="&lt;Group&gt;">
							<path id="&lt;Path&gt;" class="s4" d="m475.2 466.4c11.8 16.5-0.4 45.4-27.2 64.6-26.8 19.1-58.1 21.3-69.9 4.7-11.8-16.5 0.4-45.4 27.2-64.5 26.8-19.2 58.1-21.3 69.9-4.8z"/>
							<path id="&lt;Path&gt;" class="s4" d="m527.2 466.4c-11.8 16.5 0.4 45.4 27.2 64.6 26.9 19.1 58.2 21.3 70 4.7 11.8-16.5-0.4-45.4-27.2-64.5-26.9-19.2-58.2-21.3-70-4.8z"/>
						</g>
						<g id="&lt;Group&gt;">
							<path id="&lt;Compound Path&gt;" fill-rule="evenodd" class="s6" d="m571.5 500c0 6.4-5.1 11.5-11.5 11.5-6.3 0-11.5-5.1-11.5-11.5 0-6.3 5.2-11.5 11.5-11.5 6.4 0 11.5 5.2 11.5 11.5zm-8.4 0c0-1.7-1.4-3-3.1-3-1.7 0-3 1.3-3 3 0 1.7 1.3 3.1 3 3.1 1.7 0 3.1-1.4 3.1-3.1z"/>
							<path id="&lt;Compound Path&gt;" fill-rule="evenodd" class="s6" d="m453.9 500c0 6.4-5.1 11.5-11.5 11.5-6.3 0-11.5-5.1-11.5-11.5 0-6.3 5.2-11.5 11.5-11.5 6.4 0 11.5 5.2 11.5 11.5zm-8.4 0c0-1.7-1.4-3-3.1-3-1.7 0-3 1.3-3 3 0 1.7 1.3 3.1 3 3.1 1.7 0 3.1-1.4 3.1-3.1z"/>
						</g>
					</g>
				</g>
				<g id="&lt;Group&gt;">
					<path id="&lt;Path&gt;" class="s9" d="m638.4 358c13.3 3.7 23.3 16.8 23.3 30.2 0 7.3-6.9 11-15.7-9.1-6.6-14.9-23.9-14.7-21.8-18.8 1.8-3.3 9.3-3.6 14.2-2.3z"/>
				</g>
				<g id="&lt;Group&gt;">
					<path id="&lt;Path&gt;" class="s9" d="m364.2 358c-13.3 3.7-23.4 16.8-23.4 30.2 0.1 7.3 7 11 15.8-9.1 6.5-14.9 23.9-14.7 21.8-18.8-1.8-3.3-9.3-3.6-14.2-2.3z"/>
				</g>
			</g>
			<g id="&lt;Group&gt;">
				<path id="&lt;Path&gt;" class="s4" d="m500.6 348.2c9.6-80.7 102.8-63.8 174-65.2 57.5-1.2 88.2-7.3 84.2-69.3-1.4-21.8 18.3-98.9-97.7-88.6-116.1 10.3-238.4-3.2-312.3-0.9-73.8 2.2-100.6 17.6-102 84.4-1.4 66.8 8.8 79.1 116.9 73.2 140.7-7.7 136.9 66.4 136.9 66.4z"/>
			</g>
			<text id="Ooops!
" style="transform: matrix(2,0,0,2,500.585,247.763)" >
				<tspan x="-103" y="0" class="t10" dx="0 4 4 4 4 4 4" >Ooops!
</tspan>
			</text>
		</g>
	</g>
	<g id="DESIGNED BY FREEPIK">
	</g>
</svg>