<svg version="1.2" xmlns="http://www.w3.org/2000/svg" viewBox="0 0 369 343" width="369" height="343">
	<title>AlligatorAvatar</title>
	<style>
		.s0 { fill: #4ab6b8 } 
		.s1 { fill: #4b703c } 
		.s2 { fill: #61aa54 } 
		.s3 { fill: #5c9a4d } 
		.s4 { fill: #edb348 } 
		.s5 { fill: #eba737 } 
		.s6 { fill: #2b0020 } 
		.s7 { fill: #ffffff } 
	</style>
	<g id="&lt;Group&gt;">
		<g id="&lt;Group&gt;">
			<path id="&lt;Path&gt;" class="s0" d="m280.5 176.5c0 58.7-47.6 106.3-106.3 106.3-58.7 0-106.3-47.6-106.3-106.3 0-58.7 47.6-106.3 106.3-106.3 58.7 0 106.3 47.6 106.3 106.3z"/>
		</g>
		<g id="&lt;Group&gt;">
			<g id="&lt;Group&gt;">
				<path id="&lt;Path&gt;" class="s1" d="m138.8 114.8c-2.5-1.9-5.3-3.2-8.3-3.2-10.1 0-9.8 13.8-9.8 13.8 0 0-9.2-14.5-17.8-13.8-8.6 0.8-11.5 10.5-11.5 10.5 0 0-1.2-3.9-3.9-7.2q-4.4 6.1-7.9 12.9c14.8 0.9 33.1 4 53.8 11.5 0 0-0.3-15 5.4-24.5z"/>
			</g>
			<g id="&lt;Group&gt;">
				<path id="&lt;Path&gt;" class="s1" d="m177.6 130.3c0 0 4.2-4.4 9.8-9.3 0.8-6.6 0.7-13.2-2.6-13.7-6.9-1.1-11.6 12.3-11.6 12.3 0 0-1.4-14.1-8.7-14.5-2.2-0.1-4.5 1.9-6.6 4.7 10.3 5.9 19.7 20.5 19.7 20.5z"/>
			</g>
			<g id="&lt;Group&gt;">
				<path id="&lt;Path&gt;" class="s2" d="m225.2 228.4q-0.7 0.2-1.3 0.4 0.6-0.2 1.3-0.4z"/>
			</g>
			<g id="&lt;Group&gt;">
				<path id="&lt;Path&gt;" class="s2" d="m228.6 227.2q-1.5 0.6-3.1 1.1 1.6-0.5 3.1-1.1z"/>
			</g>
			<g id="&lt;Group&gt;">
				<path id="&lt;Path&gt;" class="s2" d="m230.1 226.7q-0.7 0.2-1.4 0.5 0.7-0.3 1.4-0.5z"/>
			</g>
			<g id="&lt;Group&gt;">
				<path id="&lt;Path&gt;" class="s2" d="m221.7 229.5q-0.6 0.2-1.2 0.4 0.6-0.2 1.2-0.4z"/>
			</g>
			<g id="&lt;Group&gt;">
				<path id="&lt;Path&gt;" class="s2" d="m232.9 225.7q-0.5 0.2-1 0.3 0.5-0.1 1-0.3z"/>
			</g>
			<g id="&lt;Group&gt;">
				<path id="&lt;Path&gt;" class="s2" d="m220 230q-0.6 0.2-1.3 0.4 0.7-0.2 1.3-0.4z"/>
			</g>
			<g id="&lt;Group&gt;">
				<path id="&lt;Path&gt;" class="s2" d="m218.2 230.5q-0.7 0.2-1.3 0.4 0.6-0.2 1.3-0.4z"/>
			</g>
			<g id="&lt;Group&gt;">
				<path id="&lt;Path&gt;" class="s2" d="m223.4 229q-0.6 0.1-1.2 0.3 0.6-0.2 1.2-0.3z"/>
			</g>
			<g id="&lt;Group&gt;">
				<path id="&lt;Path&gt;" class="s2" d="m231.5 226.2q-0.5 0.2-1.1 0.4 0.6-0.2 1.1-0.4z"/>
			</g>
			<g id="&lt;Group&gt;">
				<path id="&lt;Path&gt;" class="s2" d="m243 221.5q-0.2 0.1-0.6 0.2 0.4-0.1 0.6-0.2z"/>
			</g>
			<g id="&lt;Group&gt;">
				<path id="&lt;Path&gt;" class="s2" d="m234.2 225.2q-0.4 0.1-0.9 0.3 0.5-0.2 0.9-0.3z"/>
			</g>
			<g id="&lt;Group&gt;">
				<path id="&lt;Path&gt;" class="s2" d="m241.3 222.2q-0.4 0.2-0.8 0.4 0.4-0.2 0.8-0.4z"/>
			</g>
			<g id="&lt;Group&gt;">
				<path id="&lt;Path&gt;" class="s2" d="m243.8 221.1q-0.2 0.1-0.5 0.3 0.3-0.2 0.5-0.3z"/>
			</g>
			<g id="&lt;Group&gt;">
				<path id="&lt;Path&gt;" class="s2" d="m244.6 220.7q-0.3 0.2-0.6 0.3 0.3-0.1 0.6-0.3z"/>
			</g>
			<g id="&lt;Group&gt;">
				<path id="&lt;Path&gt;" class="s2" d="m242.2 221.8q-0.3 0.2-0.7 0.3 0.4-0.1 0.7-0.3z"/>
			</g>
			<g id="&lt;Group&gt;">
				<path id="&lt;Path&gt;" class="s2" d="m236.9 224.1q-0.5 0.2-1.1 0.4 0.6-0.2 1.1-0.4z"/>
			</g>
			<g id="&lt;Group&gt;">
				<path id="&lt;Path&gt;" class="s2" d="m235.5 224.6q-0.4 0.2-0.9 0.4 0.5-0.2 0.9-0.4z"/>
			</g>
			<g id="&lt;Group&gt;">
				<path id="&lt;Path&gt;" class="s2" d="m240.3 222.7q-0.4 0.2-0.9 0.4 0.5-0.2 0.9-0.4z"/>
			</g>
			<g id="&lt;Group&gt;">
				<path id="&lt;Path&gt;" class="s2" d="m239.3 223.1q-1.1 0.5-2.3 0.9 1.2-0.4 2.3-0.9z"/>
			</g>
			<g id="&lt;Group&gt;">
				<path id="&lt;Path&gt;" class="s2" d="m216.4 231q-0.8 0.3-1.7 0.5 0.9-0.2 1.7-0.5z"/>
			</g>
			<g id="&lt;Group&gt;">
				<path id="&lt;Path&gt;" class="s2" d="m154 235.9q1.8 0.3 3.6 0.5-1.7-0.2-3.4-0.4-0.1-0.1-0.2-0.1z"/>
			</g>
			<g id="&lt;Group&gt;">
				<path id="&lt;Path&gt;" class="s2" d="m161.5 236.8c18.8 1.5 36.6-1.1 51.1-4.8-8.9 2.3-19.2 4.2-30.2 4.9-6.7 0.5-13.8 0.5-20.9-0.1z"/>
			</g>
			<g id="&lt;Group&gt;">
				<path id="&lt;Path&gt;" class="s2" d="m244.7 220.7q0.3-0.2 0.6-0.3-0.3 0.1-0.6 0.3z"/>
			</g>
			<g id="&lt;Group&gt;">
				<g id="&lt;Group&gt;">
					<path id="&lt;Compound Path&gt;" fill-rule="evenodd" class="s3" d="m311.1 213.4c-12.5 4.4-16.5 3-16.5 3 0 0-2.2 13.6-19.5 14.1-13 0.4-21.7-6.1-25.3-9.5 1-0.9 1.1-2.5 0.2-3.6-0.9-1.1-10-10.7-47.1-11.3-20.2-0.4-27.5-7.9-35.9-16.6-2.8-3-5.7-6-9.3-8.9-12.4-10.2-28-1.6-34.5 4.3-1.1 1-1.1 2.7-0.1 3.8 1 1.1 2.7 1.2 3.8 0.2 0.3-0.2 3.4-3.1 7.9-5.2q-0.8 0.8-1.4 1.8c-1.9 4-4.1 7.6-6.6 10.6-6.6 7.9-15.2 12.7-24.9 15.7-8.2 2.5-17.2 3.7-26.3 4.5-5-12.3-7.7-25.7-7.7-39.8 0-17.6 4.2-34.1 11.7-48.7 14.8 0.9 33.1 4 53.8 11.5 0 0-0.3-15 5.4-24.5 1.8-3.2 4.3-5.7 7.7-7 3.6-1.3 7.6-0.2 11.4 2 10.3 5.9 19.7 20.5 19.7 20.5 0 0 4.2-4.4 9.8-9.3 6.6-5.8 15.2-12.1 20.9-12.6 5.4-0.5 8.4 5.5 9.9 12.9-2-1.3-4.8-2.5-8.3-2.5-4.6 0-8.6 1.8-11.9 5.3-1 1.1-1 2.8 0.1 3.8 0.5 0.5 1.2 0.8 1.9 0.8 0.7 0 1.4-0.3 1.9-0.9 2.3-2.4 4.9-3.6 8-3.6 4.4 0 7.3 3.1 7.4 3.2 0.5 0.6 1.3 0.9 2 0.9 0.3 2.5 0.4 5 0.5 7.2 0.3 6.7 4 14.2 10.6 15.2 38.7 5.8 49.9 23 63.7 26.6 0 0 15.7-2.5 23.8 8.3 8.2 10.9 5.6 23.5-6.8 27.8zm-166.7-85.2c-1.1 1.1-1 2.8 0.1 3.8 0.5 0.5 1.2 0.7 1.9 0.7 0.7 0 1.4-0.2 1.9-0.8 2.3-2.4 4.9-3.6 8-3.6 4.4 0 7.3 3.1 7.4 3.2 1 1.1 2.7 1.2 3.8 0.2 1.1-1 1.2-2.7 0.2-3.8-0.2-0.2-4.5-5-11.4-5-4.6 0-8.6 1.8-11.9 5.3zm21.8 25c0-6.3-1.6-11.9-4-15.5q-1.2-1.8-2.6-2.9-0.2-0.1-0.3-0.2-0.3-0.1-0.5-0.3-0.3-0.1-0.5-0.2-0.2-0.1-0.4-0.2-0.3-0.1-0.6-0.1-0.2-0.1-0.3-0.1-0.5-0.1-1-0.1-0.5 0-1 0.1-0.2 0-0.3 0.1-0.4 0.1-0.7 0.2-0.2 0-0.4 0.1-0.2 0.2-0.5 0.3-0.2 0.1-0.4 0.3-0.3 0.2-0.5 0.3-0.2 0.2-0.4 0.4-0.3 0.2-0.5 0.4-0.2 0.2-0.4 0.4-0.2 0.3-0.4 0.6-0.2 0.2-0.4 0.4-0.2 0.3-0.4 0.6-0.2 0.3-0.3 0.6-0.2 0.3-0.4 0.6-0.2 0.3-0.3 0.6-0.2 0.4-0.4 0.7-0.1 0.4-0.2 0.7-0.2 0.4-0.3 0.8-0.2 0.3-0.3 0.7-0.1 0.4-0.3 0.8-0.1 0.4-0.2 0.8-0.1 0.4-0.2 0.8-0.1 0.4-0.2 0.8-0.1 0.5-0.2 1 0 0.4-0.1 0.8-0.1 0.5-0.2 1 0 0.4-0.1 0.8 0 0.9-0.1 1.8-0.1 1.1-0.1 2.1c0 10.8 4.6 14.1 10.2 14.1 5.6 0 10.2-3.3 10.2-14.1zm53.6-4.1c0-6.3-1.6-11.9-4-15.5q0 0 0 0-1.2-1.8-2.6-2.8-0.2-0.2-0.3-0.3-0.3-0.1-0.5-0.2-0.2-0.2-0.5-0.3-0.2-0.1-0.4-0.1-0.3-0.1-0.6-0.2-0.1-0.1-0.3-0.1-0.5-0.1-1-0.1-0.5 0-1 0.1-0.1 0-0.3 0.1-0.3 0.1-0.7 0.2-0.1 0.1-0.3 0.2-0.3 0.1-0.6 0.2-0.2 0.2-0.4 0.3-0.3 0.2-0.5 0.4-0.2 0.1-0.4 0.3-0.2 0.2-0.5 0.4-0.2 0.2-0.4 0.5-0.2 0.2-0.4 0.5-0.2 0.2-0.4 0.5-0.2 0.2-0.4 0.5-0.1 0.3-0.3 0.6-0.2 0.3-0.4 0.6-0.1 0.3-0.3 0.6-0.2 0.4-0.3 0.8-0.2 0.3-0.3 0.6-0.2 0.4-0.3 0.8-0.2 0.3-0.3 0.7-0.1 0.4-0.2 0.8-0.2 0.4-0.3 0.8-0.1 0.4-0.2 0.9-0.1 0.4-0.2 0.8-0.1 0.4-0.1 0.9-0.1 0.4-0.2 0.8-0.1 0.5-0.1 1-0.1 0.4-0.1 0.8-0.1 0.9-0.2 1.9 0 1 0 2c0 10.9 4.5 14.1 10.1 14.1 5.7 0 10.2-3.2 10.2-14.1zm52.8 54c-9.5 1-9.3 16 6.3 10.2 6.7-2.6 3.1-11.3-6.3-10.2zm36.3-14.1c-7.1-1.4-18.8 17.9 0 11.5 7.2-2.4 7.2-10.2 0-11.5z"/>
				</g>
			</g>
			<g id="&lt;Group&gt;">
				<path id="&lt;Path&gt;" class="s2" d="m214.6 231.5q-1 0.3-2 0.5 1-0.2 2-0.5z"/>
			</g>
			<g id="&lt;Group&gt;">
				<path id="&lt;Path&gt;" class="s2" d="m108.6 260.1l45.4-24.2-25.1 13.4z"/>
			</g>
			<g id="&lt;Group&gt;">
				<path id="&lt;Path&gt;" class="s2" d="m169.6 199.7q0.2 0.2 0.5 0.4c-2.3-2-4.4-4.2-6.5-6.3q2.8 3.5 6 5.9z"/>
			</g>
			<g id="&lt;Group&gt;">
				<path id="&lt;Path&gt;" class="s2" d="m161.4 236.8q-1.7-0.2-3.4-0.4 1.7 0.2 3.4 0.4z"/>
			</g>
			<path id="&lt;Path&gt;" class="s4" d="m126.8 196.1c-6.6 7.9-15.2 12.7-24.9 15.7 4.2 15.5 14.2 28 27 37.5l25.1-13.4q0.1 0 0.2 0.1c-13.4-8.7-24-24.1-27.4-39.9z"/>
			<path id="&lt;Path&gt;" class="s5" d="m101.9 211.8c-8.2 2.5-17.2 3.7-26.3 4.5 7 17.4 18.5 32.5 33 43.8l20.3-10.8c-12.8-9.5-22.8-22-27-37.5z"/>
			<path id="&lt;Path&gt;" class="s5" d="m182.4 236.9c-6.4-11.6-11.4-24.5-12.8-37.2q-3.2-2.4-6-5.9-0.2-0.3-0.5-0.6c-2.7-2.8-5.5-5.7-8.8-8.4-6.6-5.4-14.1-3.8-19.5-1.1q-0.8 0.8-1.4 1.8c-1.9 4-4.1 7.6-6.6 10.6 3.4 15.8 14 31.2 27.4 39.9q1.7 0.2 3.4 0.4 0.2 0 0.4 0 1.7 0.2 3.4 0.4 0 0 0.1 0c7.1 0.6 14.2 0.6 20.9 0.1z"/>
			<path id="&lt;Path&gt;" class="s4" d="m203.5 211.5q-0.4 0-0.7 0c-16.7-0.3-25.6-5.2-32.7-11.4q-0.3-0.2-0.5-0.4c1.4 12.7 6.4 25.6 12.8 37.2 11-0.7 21.3-2.6 30.2-4.9q0 0 0 0c-4.2-6.1-7.3-13.2-9.1-20.5z"/>
			<path id="&lt;Path&gt;" class="s5" d="m203.5 211.5c1.8 7.3 4.9 14.4 9.1 20.5q1-0.2 2-0.5 0 0 0.1 0 0.9-0.2 1.7-0.5 0.2 0 0.5-0.1 0.6-0.2 1.3-0.4 0.3 0 0.5-0.1 0.7-0.2 1.3-0.4 0.2-0.1 0.5-0.1 0.6-0.2 1.2-0.4 0.3-0.1 0.5-0.2 0.6-0.2 1.2-0.3 0.3-0.1 0.5-0.2 0.6-0.2 1.3-0.4 0.1-0.1 0.3-0.1 1.6-0.5 3.1-1.1 0.1 0 0.1 0 0.7-0.3 1.4-0.5 0.2-0.1 0.3-0.1 0.6-0.2 1.1-0.4 0.2-0.1 0.4-0.2 0.5-0.1 1-0.3 0.2-0.1 0.4-0.2 0.5-0.2 0.9-0.3 0.2-0.1 0.4-0.2 0.5-0.2 0.9-0.4 0.2 0 0.3-0.1 0.6-0.2 1.1-0.4 0 0 0.1-0.1 1.2-0.4 2.3-0.9 0 0 0.1 0 0.5-0.2 0.9-0.4 0.1-0.1 0.2-0.1 0.4-0.2 0.8-0.4 0.1 0 0.2-0.1 0.4-0.1 0.7-0.3 0.1 0 0.2-0.1 0.4-0.1 0.6-0.2 0.2-0.1 0.3-0.1 0.3-0.2 0.5-0.3 0.1-0.1 0.2-0.1 0.3-0.1 0.6-0.3 0.1 0 0.1 0 0.3-0.2 0.6-0.3c-2.2-1.8-12.4-8.3-41.8-8.9z"/>
			<g id="&lt;Group&gt;">
				<path id="&lt;Path&gt;" class="s6" d="m157.9 133.9q0.2 0.1 0.4 0.2-0.2-0.1-0.4-0.2z"/>
			</g>
			<g id="&lt;Group&gt;">
				<path id="&lt;Path&gt;" class="s6" d="m148.1 141q0.1-0.3 0.2-0.7-0.1 0.4-0.2 0.7z"/>
			</g>
			<g id="&lt;Group&gt;">
				<path id="&lt;Path&gt;" class="s6" d="m148.7 139.6q0.1-0.3 0.3-0.6-0.2 0.3-0.3 0.6z"/>
			</g>
			<g id="&lt;Group&gt;">
				<path id="&lt;Path&gt;" class="s6" d="m147.5 142.5q0.1-0.4 0.3-0.7-0.2 0.3-0.3 0.7z"/>
			</g>
			<g id="&lt;Group&gt;">
				<path id="&lt;Path&gt;" class="s6" d="m150.1 137.2q0.2-0.2 0.4-0.4-0.2 0.2-0.4 0.4z"/>
			</g>
			<g id="&lt;Group&gt;">
				<path id="&lt;Path&gt;" class="s6" d="m146.3 147.5q0.1-0.4 0.1-0.8 0 0.4-0.1 0.8z"/>
			</g>
			<g id="&lt;Group&gt;">
				<path id="&lt;Path&gt;" class="s6" d="m150.9 136.2q0.2-0.2 0.4-0.4-0.2 0.2-0.4 0.4z"/>
			</g>
			<g id="&lt;Group&gt;">
				<path id="&lt;Path&gt;" class="s6" d="m146.6 145.7q0.1-0.4 0.2-0.8-0.1 0.4-0.2 0.8z"/>
			</g>
			<g id="&lt;Group&gt;">
				<path id="&lt;Path&gt;" class="s6" d="m147 144.1q0.1-0.4 0.2-0.8-0.1 0.4-0.2 0.8z"/>
			</g>
			<g id="&lt;Group&gt;">
				<path id="&lt;Path&gt;" class="s6" d="m146 149.3q0.1-0.4 0.1-0.8 0 0.4-0.1 0.8z"/>
			</g>
			<g id="&lt;Group&gt;">
				<path id="&lt;Path&gt;" class="s6" d="m158.8 134.3q0.2 0.2 0.5 0.3-0.3-0.1-0.5-0.3z"/>
			</g>
			<g id="&lt;Group&gt;">
				<path id="&lt;Path&gt;" class="s6" d="m162.2 137.7q-1.2-1.8-2.6-2.9 1.4 1.1 2.6 2.9z"/>
			</g>
			<g id="&lt;Group&gt;">
				<path id="&lt;Path&gt;" class="s6" d="m166.2 153.2c0-6.3-1.6-11.9-4-15.5-0.8 4.5-3.8 8.6-6.8 10.9-2.8 1.6-6.1 2.5-9.5 2.6q0 0 0-0.1-0.1 1.1-0.1 2.1c0 10.8 4.6 14.1 10.2 14.1 5.6 0 10.2-3.3 10.2-14.1z"/>
			</g>
			<g id="&lt;Group&gt;">
				<path id="&lt;Path&gt;" class="s6" d="m151.8 135.4q0.2-0.2 0.4-0.4-0.2 0.2-0.4 0.4z"/>
			</g>
			<g id="&lt;Group&gt;">
				<path id="&lt;Path&gt;" class="s6" d="m157 133.7q0.1 0 0.3 0.1-0.2-0.1-0.3-0.1z"/>
			</g>
			<g id="&lt;Group&gt;">
				<path id="&lt;Path&gt;" class="s6" d="m152.7 134.7q0.2-0.2 0.4-0.3-0.2 0.1-0.4 0.3z"/>
			</g>
			<g id="&lt;Group&gt;">
				<path id="&lt;Path&gt;" class="s6" d="m153.6 134.1q0.2-0.1 0.4-0.1-0.2 0-0.4 0.1z"/>
			</g>
			<g id="&lt;Group&gt;">
				<path id="&lt;Path&gt;" class="s6" d="m154.7 133.8q0.1-0.1 0.3-0.1-0.2 0-0.3 0.1z"/>
			</g>
			<g id="&lt;Group&gt;">
				<path id="&lt;Path&gt;" class="s6" d="m149.4 138.4q0.1-0.3 0.3-0.6-0.2 0.3-0.3 0.6z"/>
			</g>
			<g id="&lt;Group&gt;">
				<path id="&lt;Path&gt;" class="s7" d="m155.4 148.6c3-2.3 6-6.4 6.8-10.9q-1.2-1.8-2.6-2.9-0.2-0.1-0.3-0.2-0.3-0.1-0.5-0.3-0.3-0.1-0.5-0.2-0.2-0.1-0.4-0.2-0.3-0.1-0.6-0.1-0.2-0.1-0.3-0.1-0.5-0.1-1-0.1-0.5 0-1 0.1-0.2 0-0.3 0.1-0.4 0.1-0.7 0.2-0.2 0-0.4 0.1-0.2 0.2-0.5 0.3-0.2 0.1-0.4 0.3-0.3 0.2-0.5 0.3-0.2 0.2-0.4 0.4-0.3 0.2-0.5 0.4-0.2 0.2-0.4 0.4-0.2 0.3-0.4 0.6-0.2 0.2-0.4 0.4-0.2 0.3-0.4 0.6-0.2 0.3-0.3 0.6-0.2 0.3-0.4 0.6-0.2 0.3-0.3 0.6-0.2 0.4-0.4 0.7-0.1 0.4-0.2 0.7-0.2 0.4-0.3 0.8-0.2 0.3-0.3 0.7-0.1 0.4-0.3 0.8-0.1 0.4-0.2 0.8-0.1 0.4-0.2 0.8-0.1 0.4-0.2 0.8-0.1 0.5-0.2 1 0 0.4-0.1 0.8-0.1 0.5-0.2 1 0 0.4-0.1 0.8 0 0.9-0.1 1.8 0 0.1 0 0.1c3.4-0.1 6.7-1 9.5-2.6z"/>
			</g>
			<path id="&lt;Path&gt;" class="s1" d="m144.4 128.2c-1.1 1.1-1 2.8 0.1 3.8 0.5 0.5 1.2 0.7 1.9 0.7 0.7 0 1.4-0.2 1.9-0.8 2.3-2.4 4.9-3.6 8-3.6 4.4 0 7.3 3.1 7.4 3.2 1 1.1 2.7 1.2 3.8 0.2 1.1-1 1.2-2.7 0.2-3.8-0.2-0.2-4.5-5-11.4-5-4.6 0-8.6 1.8-11.9 5.3z"/>
			<g id="&lt;Group&gt;">
				<path id="&lt;Path&gt;" class="s6" d="m204.5 132.2q0.2-0.3 0.4-0.5-0.2 0.2-0.4 0.5z"/>
			</g>
			<g id="&lt;Group&gt;">
				<path id="&lt;Path&gt;" class="s6" d="m208.3 129.7q0.2-0.1 0.3-0.1-0.1 0-0.3 0.1z"/>
			</g>
			<g id="&lt;Group&gt;">
				<path id="&lt;Path&gt;" class="s6" d="m206.3 130.6q0.2-0.1 0.4-0.3-0.2 0.2-0.4 0.3z"/>
			</g>
			<g id="&lt;Group&gt;">
				<path id="&lt;Path&gt;" class="s6" d="m205.4 131.3q0.2-0.2 0.4-0.3-0.2 0.1-0.4 0.3z"/>
			</g>
			<g id="&lt;Group&gt;">
				<path id="&lt;Path&gt;" class="s6" d="m211.5 129.9q0.2 0 0.4 0.1-0.2-0.1-0.4-0.1z"/>
			</g>
			<g id="&lt;Group&gt;">
				<path id="&lt;Path&gt;" class="s6" d="m215.8 133.6q-1.2-1.8-2.6-2.8 1.4 1 2.6 2.8z"/>
			</g>
			<g id="&lt;Group&gt;">
				<path id="&lt;Path&gt;" class="s6" d="m209.1 144.5c-2.9 1.7-6.2 2.5-9.6 2.6q0 0 0 0 0 1 0 2c0 10.9 4.5 14.1 10.1 14.1 5.7 0 10.2-3.2 10.2-14.1 0-6.3-1.6-11.9-4-15.5-0.8 4.5-3.8 8.6-6.7 10.9z"/>
			</g>
			<g id="&lt;Group&gt;">
				<path id="&lt;Path&gt;" class="s6" d="m212.4 130.3q0.2 0.1 0.5 0.2-0.3-0.1-0.5-0.2z"/>
			</g>
			<g id="&lt;Group&gt;">
				<path id="&lt;Path&gt;" class="s6" d="m210.6 129.6q0.2 0 0.3 0.1-0.1-0.1-0.3-0.1z"/>
			</g>
			<g id="&lt;Group&gt;">
				<path id="&lt;Path&gt;" class="s6" d="m207.3 130.1q0.2-0.1 0.3-0.2-0.1 0.1-0.3 0.2z"/>
			</g>
			<g id="&lt;Group&gt;">
				<path id="&lt;Path&gt;" class="s6" d="m200.2 141.7q0.1-0.4 0.2-0.8-0.1 0.4-0.2 0.8z"/>
			</g>
			<g id="&lt;Group&gt;">
				<path id="&lt;Path&gt;" class="s6" d="m203.7 133.2q0.2-0.3 0.4-0.5-0.2 0.2-0.4 0.5z"/>
			</g>
			<g id="&lt;Group&gt;">
				<path id="&lt;Path&gt;" class="s6" d="m199.9 143.4q0.1-0.4 0.2-0.8-0.1 0.4-0.2 0.8z"/>
			</g>
			<g id="&lt;Group&gt;">
				<path id="&lt;Path&gt;" class="s6" d="m199.7 145.2q0-0.4 0.1-0.8-0.1 0.4-0.1 0.8z"/>
			</g>
			<g id="&lt;Group&gt;">
				<path id="&lt;Path&gt;" class="s6" d="m200.6 140q0.1-0.4 0.3-0.8-0.2 0.4-0.3 0.8z"/>
			</g>
			<g id="&lt;Group&gt;">
				<path id="&lt;Path&gt;" class="s6" d="m202.3 135.5q0.2-0.3 0.3-0.6-0.1 0.3-0.3 0.6z"/>
			</g>
			<g id="&lt;Group&gt;">
				<path id="&lt;Path&gt;" class="s6" d="m203 134.3q0.2-0.3 0.3-0.6-0.1 0.3-0.3 0.6z"/>
			</g>
			<g id="&lt;Group&gt;">
				<path id="&lt;Path&gt;" class="s6" d="m201.1 138.4q0.1-0.4 0.3-0.7-0.2 0.3-0.3 0.7z"/>
			</g>
			<g id="&lt;Group&gt;">
				<path id="&lt;Path&gt;" class="s6" d="m201.7 136.9q0.1-0.3 0.3-0.6-0.2 0.3-0.3 0.6z"/>
			</g>
			<g id="&lt;Group&gt;">
				<path id="&lt;Path&gt;" class="s7" d="m209.1 144.5c2.9-2.3 5.9-6.4 6.7-10.9q0 0 0 0-1.2-1.8-2.6-2.8-0.2-0.2-0.3-0.3-0.3-0.1-0.5-0.2-0.2-0.2-0.5-0.3-0.2-0.1-0.4-0.1-0.3-0.1-0.6-0.2-0.1-0.1-0.3-0.1-0.5-0.1-1-0.1-0.5 0-1 0.1-0.1 0-0.3 0.1-0.3 0.1-0.7 0.2-0.1 0.1-0.3 0.2-0.3 0.1-0.6 0.2-0.2 0.2-0.4 0.3-0.3 0.2-0.5 0.4-0.2 0.1-0.4 0.3-0.2 0.2-0.5 0.4-0.2 0.2-0.4 0.5-0.2 0.2-0.4 0.5-0.2 0.2-0.4 0.5-0.2 0.2-0.4 0.5-0.1 0.3-0.3 0.6-0.2 0.3-0.4 0.6-0.1 0.3-0.3 0.6-0.2 0.4-0.3 0.8-0.2 0.3-0.3 0.6-0.2 0.4-0.3 0.8-0.2 0.3-0.3 0.7-0.1 0.4-0.2 0.8-0.2 0.4-0.3 0.8-0.1 0.4-0.2 0.9-0.1 0.4-0.2 0.8-0.1 0.4-0.1 0.9-0.1 0.4-0.2 0.8-0.1 0.5-0.1 1-0.1 0.4-0.1 0.8-0.1 0.9-0.2 1.9 0 0 0 0c3.4-0.1 6.7-0.9 9.6-2.6z"/>
			</g>
			<path id="&lt;Path&gt;" class="s1" d="m198 124.1c-1 1.1-1 2.8 0.1 3.8 0.5 0.5 1.2 0.8 1.9 0.8 0.7 0 1.4-0.3 1.9-0.9 2.3-2.4 4.9-3.6 8-3.6 4.4 0 7.3 3.1 7.4 3.2 0.5 0.6 1.3 0.9 2 0.9 0.6 0 1.3-0.2 1.8-0.7 1.1-1 1.2-2.7 0.2-3.8-0.1-0.1-1.2-1.3-3.1-2.5-2-1.3-4.8-2.5-8.3-2.5-4.6 0-8.6 1.8-11.9 5.3z"/>
			<g id="&lt;Group&gt;">
				<path id="&lt;Path&gt;" class="s6" d="m272.6 203.1c-9.5 1-9.3 16 6.3 10.2 6.7-2.6 3.1-11.3-6.3-10.2z"/>
			</g>
			<path id="&lt;Path&gt;" class="s6" d="m308.9 189c-7.1-1.4-18.8 17.9 0 11.5 7.2-2.4 7.2-10.2 0-11.5z"/>
			<path id="&lt;Path&gt;" class="s1" d="m250 217.4c-0.9-1.1-10-10.7-47.1-11.3-20.2-0.4-27.5-7.9-35.9-16.6-2.8-3-5.7-6-9.3-8.9-12.4-10.2-28-1.6-34.5 4.3-1.1 1-1.1 2.7-0.1 3.8 1 1.1 2.7 1.2 3.8 0.2 0.3-0.2 3.4-3.1 7.9-5.2 5.4-2.7 12.9-4.3 19.5 1.1 3.3 2.7 6.1 5.6 8.8 8.4q0.3 0.3 0.5 0.6c2.1 2.1 4.2 4.3 6.5 6.3 7.1 6.2 16 11.1 32.7 11.4q0.3 0 0.7 0c29.4 0.6 39.6 7.1 41.8 8.9q0.5 0.4 0.5 0.5c0.5 0.6 1.3 0.9 2.1 0.9 0.6 0 1.2-0.2 1.7-0.6q0.1-0.1 0.2-0.2c1-0.9 1.1-2.5 0.2-3.6z"/>
		</g>
	</g>
</svg>