<svg version="1.2" xmlns="http://www.w3.org/2000/svg" viewBox="0 0 316 352" width="316" height="352">
	<title>HorseAvatar</title>
	<style>
		.s0 { fill: #8ebb6a } 
		.s1 { fill: #2b0020 } 
		.s2 { fill: #b95a3b } 
		.s3 { fill: #dbdbc9 } 
		.s4 { fill: #e49b3f } 
		.s5 { fill: #9f3423 } 
		.s6 { fill: #aa4529 } 
		.s7 { fill: #ffffff } 
	</style>
	<g id="&lt;Group&gt;">
		<g id="&lt;Group&gt;">
			<g id="&lt;Group&gt;">
				<path id="&lt;Path&gt;" class="s0" d="m67.7 198.2c0 58.7 47.6 106.3 106.3 106.3 58.7 0 106.3-47.6 106.3-106.3 0-58.7-47.6-106.3-106.3-106.3-58.7 0-106.3 47.6-106.3 106.3z"/>
			</g>
			<g id="&lt;Group&gt;">
				<g id="&lt;Group&gt;">
					<path id="&lt;Path&gt;" class="s1" d="m95.1 161.8c-0.3-1.4-0.4-2.9-0.4-4.7 0-11.7 5-21.2 11-21.2q0.6 0 1.1 0.1c-1.8 10.4-4.7 19.4-11.7 25.8z"/>
				</g>
				<path id="&lt;Path&gt;" class="s1" d="m105.4 129.9c-4.8 0-8 3.5-8.1 3.5-1 1.2-2.7 1.2-3.8 0.3-1.1-1-1.2-2.8-0.2-3.9 0.1-0.2 4.8-5.3 12.1-5.3q1.5 0 2.9 0.2-0.3 2.8-0.6 5.4-1.1-0.2-2.3-0.2z"/>
				<g id="&lt;Group&gt;">
					<path id="&lt;Path&gt;" class="s2" d="m145.1 70.9c-9 1.6-4.5 12.4-4.5 12.4 0 0-2.2-2-5.4-2.9-2.7-12.3-2.4-26.2 1.7-27.5 5.9-1.9 12.1 8.4 16.5 19.2-2.1-1.1-4.8-1.8-8.3-1.2z"/>
				</g>
				<g id="&lt;Group&gt;">
					<path id="&lt;Path&gt;" class="s3" d="m39.7 198.1q0 0.4-0.1 0.9 0.1-0.5 0.1-0.9z"/>
				</g>
				<g id="&lt;Group&gt;">
					<path id="&lt;Path&gt;" class="s3" d="m39.4 199.9q0 0.5-0.1 0.9 0.1-0.4 0.1-0.9z"/>
				</g>
				<g id="&lt;Group&gt;">
					<path id="&lt;Path&gt;" class="s3" d="m39.2 202q0 0.6 0 1.2 0-0.6 0-1.2z"/>
				</g>
				<g id="&lt;Group&gt;">
					<path id="&lt;Path&gt;" class="s3" d="m40.1 196.2q-0.1 0.5-0.2 1 0.1-0.5 0.2-1z"/>
				</g>
				<g id="&lt;Group&gt;">
					<path id="&lt;Path&gt;" class="s3" d="m39.1 206.2q0 0.4 0 0.8 0-0.4 0-0.8z"/>
				</g>
				<g id="&lt;Group&gt;">
					<path id="&lt;Path&gt;" class="s3" d="m39.1 204.4q0 0.4 0 0.8 0-0.4 0-0.8z"/>
				</g>
				<g id="&lt;Group&gt;">
					<path id="&lt;Path&gt;" class="s3" d="m41.4 191.8q-0.3 0.9-0.6 1.7 0.3-0.8 0.6-1.7z"/>
				</g>
				<g id="&lt;Group&gt;">
					<path id="&lt;Path&gt;" class="s3" d="m42.2 190q-0.3 0.5-0.5 0.9 0.2-0.4 0.5-0.9z"/>
				</g>
				<g id="&lt;Group&gt;">
					<path id="&lt;Path&gt;" class="s3" d="m40.6 194.4q-0.2 0.5-0.3 0.9 0.1-0.4 0.3-0.9z"/>
				</g>
				<g id="&lt;Group&gt;">
					<path id="&lt;Path&gt;" class="s3" d="m44.4 223.8q-1.1-0.8-1.8-1.6 0.7 0.8 1.8 1.6z"/>
				</g>
				<g id="&lt;Group&gt;">
					<path id="&lt;Path&gt;" class="s4" d="m117.4 99.2q2.7-3.1 6-5.8c1.6 4.4 4.8 8.1 4.8 8.1 0 0-5.1-1.7-10.8-2.3z"/>
				</g>
				<g id="&lt;Group&gt;">
					<path id="&lt;Path&gt;" class="s3" d="m39.2 208q0 0.4 0 0.7 0-0.3 0-0.7z"/>
				</g>
				<g id="&lt;Group&gt;">
					<path id="&lt;Path&gt;" class="s3" d="m40.2 215.3q0 0.3 0.1 0.5-0.1-0.2-0.1-0.5z"/>
				</g>
				<g id="&lt;Group&gt;">
					<path id="&lt;Path&gt;" class="s3" d="m41 218.2q0.1 0.3 0.1 0.5 0-0.2-0.1-0.5z"/>
				</g>
				<g id="&lt;Group&gt;">
					<path id="&lt;Path&gt;" class="s3" d="m41.6 220.1q-0.1-0.3-0.1-0.5 0 0.2 0.1 0.5z"/>
				</g>
				<g id="&lt;Group&gt;">
					<path id="&lt;Path&gt;" class="s3" d="m40.6 216.8q0 0.3 0.1 0.5-0.1-0.2-0.1-0.5z"/>
				</g>
				<g id="&lt;Group&gt;">
					<path id="&lt;Path&gt;" class="s3" d="m39.5 211.6q0 0.3 0.1 0.5-0.1-0.2-0.1-0.5z"/>
				</g>
				<g id="&lt;Group&gt;">
					<path id="&lt;Path&gt;" class="s3" d="m39.3 209.7q0 0.4 0.1 0.8-0.1-0.4-0.1-0.8z"/>
				</g>
				<g id="&lt;Group&gt;">
					<path id="&lt;Path&gt;" class="s3" d="m39.9 213.7q0 0.2 0 0.5 0-0.3 0-0.5z"/>
				</g>
				<g id="&lt;Group&gt;">
					<path id="&lt;Path&gt;" class="s3" d="m74.8 228.9q-3 0-5.8 0 2.8 0 5.8 0z"/>
				</g>
				<g id="&lt;Group&gt;">
					<path id="&lt;Path&gt;" class="s3" d="m56.2 227.8c3.8 0.6 8.1 0.9 12.8 1.1-4.7-0.2-9-0.5-12.8-1.1z"/>
				</g>
				<g id="&lt;Group&gt;">
					<path id="&lt;Path&gt;" class="s3" d="m52 226.9q2 0.5 4.2 0.9-2.2-0.4-4.2-0.9z"/>
				</g>
				<g id="&lt;Group&gt;">
					<path id="&lt;Path&gt;" class="s3" d="m77.8 228.8q4.6-0.2 9.3-0.6-4.7 0.4-9.3 0.6z"/>
				</g>
				<g id="&lt;Group&gt;">
					<path id="&lt;Path&gt;" class="s3" d="m54.9 176q-0.6 0.3-1.1 0.6 0.5-0.3 1.1-0.6z"/>
				</g>
				<g id="&lt;Group&gt;">
					<path id="&lt;Path&gt;" class="s3" d="m48.4 225.8q1.7 0.6 3.6 1.1-1.9-0.5-3.6-1.1z"/>
				</g>
				<g id="&lt;Group&gt;">
					<path id="&lt;Path&gt;" class="s3" d="m231.9 132.9q-0.1-0.1-0.1-0.2 0 0.1 0.1 0.2z"/>
				</g>
				<g id="&lt;Group&gt;">
					<path id="&lt;Path&gt;" class="s3" d="m53 177.1q-0.5 0.4-1 0.7 0.5-0.3 1-0.7z"/>
				</g>
				<g id="&lt;Group&gt;">
					<path id="&lt;Path&gt;" class="s3" d="m51.2 178.4q-0.5 0.3-0.9 0.7 0.4-0.4 0.9-0.7z"/>
				</g>
				<g id="&lt;Group&gt;">
					<path id="&lt;Path&gt;" class="s3" d="m48.1 181.1q-0.7 0.8-1.4 1.6 0.7-0.8 1.4-1.6z"/>
				</g>
				<g id="&lt;Group&gt;">
					<path id="&lt;Path&gt;" class="s3" d="m230 129.9q0-0.1-0.1-0.2 0.1 0.1 0.1 0.2z"/>
				</g>
				<g id="&lt;Group&gt;">
					<path id="&lt;Path&gt;" class="s3" d="m228.1 126.7q0-0.1-0.1-0.2 0.1 0.1 0.1 0.2z"/>
				</g>
				<g id="&lt;Group&gt;">
					<path id="&lt;Path&gt;" class="s3" d="m226.2 123.4q0 0-0.1-0.1 0.1 0.1 0.1 0.1z"/>
				</g>
				<g id="&lt;Group&gt;">
					<path id="&lt;Path&gt;" class="s3" d="m43.9 186.6q-0.3 0.4-0.5 0.9 0.2-0.5 0.5-0.9z"/>
				</g>
				<g id="&lt;Group&gt;">
					<path id="&lt;Path&gt;" class="s3" d="m49.6 179.7q-0.5 0.4-0.9 0.8 0.4-0.4 0.9-0.8z"/>
				</g>
				<g id="&lt;Group&gt;">
					<path id="&lt;Path&gt;" class="s3" d="m43 188.3q-0.3 0.4-0.5 0.9 0.2-0.5 0.5-0.9z"/>
				</g>
				<g id="&lt;Group&gt;">
					<path id="&lt;Path&gt;" class="s3" d="m45 184.9q-0.3 0.5-0.6 0.9 0.3-0.4 0.6-0.9z"/>
				</g>
				<g id="&lt;Group&gt;">
					<path id="&lt;Path&gt;" class="s3" d="m46.1 183.3q-0.3 0.5-0.6 0.9 0.3-0.4 0.6-0.9z"/>
				</g>
				<g id="&lt;Group&gt;">
					<path id="&lt;Path&gt;" class="s5" d="m41.1 218.7q0-0.2-0.1-0.5-0.2-0.4-0.3-0.9-0.1-0.2-0.1-0.5-0.2-0.5-0.3-1-0.1-0.2-0.1-0.5-0.1-0.6-0.3-1.1 0-0.3 0-0.5-0.2-0.8-0.3-1.6-0.1-0.2-0.1-0.5-0.1-0.6-0.1-1.1-0.1-0.4-0.1-0.8-0.1-0.5-0.1-1 0-0.3 0-0.7-0.1-0.5-0.1-1 0-0.4 0-0.8 0-0.5 0-1 0-0.4 0-0.8 0-0.6 0.1-1.2 0-0.6 0-1.2 0.1-0.6 0.1-1.2 0.1-0.4 0.1-0.9 0.1-0.4 0.2-0.9 0.1-0.5 0.1-0.9 0.1-0.5 0.2-0.9 0.1-0.5 0.2-1 0.1-0.4 0.2-0.9 0.1-0.4 0.3-0.9 0.1-0.4 0.2-0.9 0.3-0.8 0.6-1.7 0.2-0.4 0.3-0.9 0.2-0.4 0.5-0.9 0.1-0.4 0.3-0.8 0.2-0.5 0.5-0.9 0.2-0.4 0.4-0.8 0.2-0.5 0.5-0.9 0.2-0.4 0.5-0.8 0.3-0.4 0.6-0.9 0.2-0.3 0.5-0.7 0.3-0.4 0.6-0.9 0.3-0.3 0.6-0.6 0.7-0.8 1.4-1.6 0.3-0.3 0.6-0.6 0.4-0.4 0.9-0.8 0.3-0.3 0.7-0.6 0.4-0.4 0.9-0.7 0.4-0.3 0.8-0.6 0.5-0.3 1-0.7 0.4-0.2 0.8-0.5 0.5-0.3 1.1-0.6 0.4-0.3 0.9-0.5 0.6-0.3 1.1-0.6c17.1 3.4 32.5 13.7 37.6 33.2 3.5 14.1 26.9 6.1 28.2 10.6 1.3 0.6-1.1 2.4-1.1 2.4-10.7 3.7-22.9 6-34.5 7.1q-4.7 0.4-9.3 0.6-1.5 0.1-3 0.1-3 0-5.8 0c-4.7-0.2-9-0.5-12.8-1.1q-2.2-0.4-4.2-0.9-1.9-0.5-3.6-1.1-2.4-0.9-4-2-1.1-0.8-1.8-1.6-0.3-0.5-0.5-0.9-0.2-0.6-0.5-1.2-0.1-0.3-0.1-0.5-0.2-0.4-0.4-0.9z"/>
				</g>
				<g id="&lt;Group&gt;">
					<path id="&lt;Path&gt;" class="s1" d="m216.6 100.8c0 0 10.8-4.4 15.2-1.5 4.4 2.9-3.8 6.4-3.8 6.4 0 0 15.4-4 18.6 0 3.3 4-5.8 9.9-5.8 9.9 0 0 14.6 0.7 17.8 5.8 3.1 5.1-6.4 5.3-6.4 5.3 0 0 13.6 1 16.8 4.8 3.3 3.7-6.1 8.5-6.1 8.5 0 0 13.5 3.9 14.9 8.6 1.5 4.6-7 5.6-7 5.6 0 0 7.6-0.9 9.5 5.4 1.8 6.3-5.3 5.1-5.3 5.1 0 0 8 4.3 9.8 11.4 1.8 7.1-1.3 10.6-15.1 8.5-13.7-2-49.1-54.7-49.1-54.7z"/>
					<g id="&lt;Group&gt;">
						<g id="&lt;Group&gt;">
							<path id="&lt;Compound Path&gt;" fill-rule="evenodd" class="s6" d="m70.6 171.3c11.4-1.3 19.1-4.6 24.5-9.5 7-6.4 9.9-15.4 11.7-25.8q0.5-2.9 0.9-5.9 0.3-2.6 0.6-5.4 0.3-2.4 0.6-5c1.6 0.8 3.4 1.3 5.6 1.4 9 0.4 2.8 12.5 10.2 14.9 7.4 2.3 9.8-7.5 24.3-30.6 9.7-15.6 20.7-21.6 26.9-23.8q1.9-0.7 3.9-0.8 0.1 0.3 0.1 0.6c0.1 4.7 2.5 10.4 6.1 15.9 4.6 7.1 11.2 13.6 17.6 16.9 6.3 3.3 12.4 3.4 16.2-2.4q0.3 0.5 0.6 1 1 1.9 2 3.7 0 0 0 0 1.8 3.5 3.7 6.8 0.1 0.1 0.1 0.1 0.9 1.6 1.8 3.1 0.1 0.1 0.1 0.2 0.9 1.5 1.8 3 0.1 0.1 0.1 0.2 0.9 1.4 1.8 2.8 0 0.1 0.1 0.2 2.8 4.4 5.6 8.5 0 0 0 0 3.5 5 6.9 9.4 1.4 1.9 2.8 3.6 0 0.1 0.1 0.1 4.2 5.3 8.3 9.6 4.6 5 9 8.9 0 0 0 0c5.4 5 10.4 8.8 14.8 11.6 0.6 4.9 0.9 9.4 0.9 13.6q-0.1 5.8-0.7 11.5c-1.4 13.3-5.3 25.9-11.2 37.2-17-9.3-30.5-24.7-46.3-39.1-6.5-6.4-20-2.7-30.6 3.3-2.7-0.6-5.7 0-7.9 2.2-3.7 3.6-11.4 9.3-23.2 11.9-17.2 3.6-38.8-4.1-38.8-4.1 0 0 2.4-1.8 1.1-2.4-1.3-4.5-24.7 3.5-28.2-10.6-5.1-19.5-20.5-29.8-37.6-33.2 3.8-1.8 8.3-3 13.7-3.6zm82.8 5.8c6.1 0 11-3.6 11-15.3q0-1.1-0.1-2.2 0-1-0.1-2-0.1-0.5-0.1-0.9-0.1-0.6-0.2-1.1 0-0.5-0.1-0.9-0.1-0.5-0.2-1-0.1-0.4-0.2-0.9-0.1-0.4-0.3-0.9-0.1-0.4-0.2-0.8-0.1-0.5-0.3-0.9-0.1-0.4-0.3-0.8-0.1-0.4-0.3-0.8-0.1-0.4-0.3-0.8-0.2-0.3-0.4-0.7-0.1-0.4-0.3-0.7-0.2-0.3-0.4-0.7-0.2-0.3-0.4-0.6-0.2-0.3-0.4-0.6-0.2-0.3-0.4-0.5-0.3-0.3-0.5-0.6-0.2-0.2-0.4-0.4-0.3-0.3-0.5-0.5-0.2-0.2-0.4-0.4-0.3-0.2-0.6-0.4-0.2-0.1-0.4-0.3-0.3-0.1-0.6-0.3-0.3-0.1-0.5-0.2-0.3-0.1-0.7-0.2-0.1 0-0.3-0.1-0.6-0.1-1.1-0.1-0.5 0-1.1 0.1-0.1 0.1-0.3 0.1-0.3 0.1-0.6 0.2-0.3 0.1-0.5 0.2-0.3 0.1-0.5 0.2-0.3 0.2-0.5 0.4-0.2 0.1-0.4 0.2c-4.1 3-7.1 10.8-7.1 19.9 0 11.7 4.9 15.3 11 15.3zm-12.3-38.8c1.1 1 2.8 0.9 3.8-0.2 0.1-0.1 3.3-3.5 8.1-3.5 3.5 0 6.4 1.3 8.9 3.9 0.5 0.6 1.2 0.9 2 0.9 0.6 0 1.3-0.2 1.8-0.7 1.1-1.1 1.2-2.8 0.1-3.9-3.5-3.7-7.8-5.6-12.8-5.6-7.3 0-11.9 5.1-12.1 5.3-1 1.1-0.9 2.8 0.2 3.8z"/>
						</g>
					</g>
					<g id="&lt;Group&gt;">
						<path id="&lt;Path&gt;" class="s5" d="m139.3 121.7c2.5-4.4 5.6-9.8 9.7-16.3 9.7-15.6 20.7-21.6 26.9-23.8q1.9-0.7 3.9-0.8 0.1 0.3 0.1 0.6c0.1 3.4 1.4 7.4 3.5 11.4-1.3 0.3-2.5 0.7-3.6 1.1-13.8 5.3-26.6 23.2-40.5 27.8z"/>
					</g>
					<g id="&lt;Group&gt;">
						<path id="&lt;Path&gt;" class="s5" d="m204.5 114.7c6 2.8 11.7 2.6 15.3-2.9q0.3 0.5 0.6 1 1 1.9 2 3.7 0 0 0 0 1.8 3.5 3.7 6.8 0.1 0.1 0.1 0.1 0.9 1.6 1.8 3.1 0.1 0.1 0.1 0.2 0.9 1.5 1.8 3 0.1 0.1 0.1 0.2 0.9 1.4 1.8 2.8 0 0.1 0.1 0.2 2.8 4.4 5.6 8.5 0 0 0 0 3.5 5 6.9 9.4 1.4 1.9 2.8 3.6 0 0.1 0.1 0.1 4.2 5.3 8.3 9.6 4.6 5 9 8.9 0 0 0 0c5.4 5 10.4 8.8 14.8 11.6q0.7 6.3 0.8 11.8c-35.4-13.9-60.9-45.4-75.7-81.7z"/>
					</g>
					<g id="&lt;Group&gt;">
						<path id="&lt;Path&gt;" class="s2" d="m222.1 207.8c15.8 14.4 29.3 29.8 46.3 39.1-4.2 8.2-9.5 15.8-15.6 22.6-6 6.6-12.8 12.5-20.2 17.4q0 0-0.1 0-0.3-0.5-0.7-1 0-0.1-0.1-0.1-0.7-1.1-1.5-2.2 0-0.1-0.1-0.2-0.7-1-1.3-2-0.1-0.1-0.3-0.3-0.7-1.1-1.4-2.3 0 0 0 0-2.5-4-4.9-8.2 0 0 0 0-0.1-0.2-0.2-0.4-1-1.8-2-3.6-0.2-0.4-0.4-0.7c-8.4-15.7-15.5-32.9-20.5-46.1q-0.6-1.7-1.1-3.2-0.2-0.5-0.5-1-0.1-0.2-0.2-0.3-0.1-0.3-0.3-0.6-0.1-0.2-0.3-0.4-0.1-0.2-0.3-0.4-0.2-0.2-0.4-0.4-0.1-0.1-0.2-0.2-1.2-1.2-2.7-1.8-0.8-0.3-1.6-0.4c10.6-6 24.1-9.7 30.6-3.3z"/>
					</g>
					<g id="&lt;Group&gt;">
						<path id="&lt;Path&gt;" class="s4" d="m56.9 174.9q0 0 0 0-0.5 0.3-1.1 0.6 0.6-0.3 1.1-0.6z"/>
					</g>
				</g>
				<g id="&lt;Group&gt;">
					<path id="&lt;Path&gt;" class="s1" d="m157 141.7q-0.2-0.1-0.4-0.3 0.2 0.2 0.4 0.3z"/>
				</g>
				<g id="&lt;Group&gt;">
					<path id="&lt;Path&gt;" class="s1" d="m154.8 140.7q-0.1 0-0.3-0.1 0.2 0.1 0.3 0.1z"/>
				</g>
				<g id="&lt;Group&gt;">
					<path id="&lt;Path&gt;" class="s1" d="m156 141.1q-0.3-0.1-0.5-0.2 0.2 0.1 0.5 0.2z"/>
				</g>
				<g id="&lt;Group&gt;">
					<path id="&lt;Path&gt;" class="s1" d="m158 142.5q-0.2-0.2-0.4-0.4 0.2 0.2 0.4 0.4z"/>
				</g>
				<g id="&lt;Group&gt;">
					<path id="&lt;Path&gt;" class="s1" d="m158.9 143.4q-0.2-0.2-0.4-0.4 0.2 0.2 0.4 0.4z"/>
				</g>
				<g id="&lt;Group&gt;">
					<path id="&lt;Path&gt;" class="s1" d="m152.3 140.6q-0.1 0.1-0.3 0.1 0.2 0 0.3-0.1z"/>
				</g>
				<g id="&lt;Group&gt;">
					<path id="&lt;Path&gt;" class="s1" d="m150.4 141.3q-0.3 0.2-0.5 0.4 0.2-0.2 0.5-0.4z"/>
				</g>
				<g id="&lt;Group&gt;">
					<path id="&lt;Path&gt;" class="s1" d="m149.5 141.9q-1.5 1.1-2.8 3.1c0.9 4.9 4.1 9.3 7.3 11.8 3.1 1.8 6.7 2.7 10.3 2.8q0 0 0 0 0.1 1.1 0.1 2.2c0 11.7-4.9 15.3-11 15.3-6.1 0-11-3.6-11-15.3 0-9.1 3-16.9 7.1-19.9z"/>
				</g>
				<g id="&lt;Group&gt;">
					<path id="&lt;Path&gt;" class="s1" d="m151.4 140.9q-0.3 0.1-0.5 0.2 0.2-0.1 0.5-0.2z"/>
				</g>
				<g id="&lt;Group&gt;">
					<path id="&lt;Path&gt;" class="s1" d="m164.2 157.6q-0.1-0.5-0.1-0.9 0 0.4 0.1 0.9z"/>
				</g>
				<g id="&lt;Group&gt;">
					<path id="&lt;Path&gt;" class="s1" d="m162.6 150.2q-0.1-0.4-0.3-0.8 0.2 0.4 0.3 0.8z"/>
				</g>
				<g id="&lt;Group&gt;">
					<path id="&lt;Path&gt;" class="s1" d="m163.6 153.7q-0.1-0.4-0.2-0.9 0.1 0.5 0.2 0.9z"/>
				</g>
				<g id="&lt;Group&gt;">
					<path id="&lt;Path&gt;" class="s1" d="m163.1 151.9q-0.1-0.4-0.2-0.8 0.1 0.4 0.2 0.8z"/>
				</g>
				<g id="&lt;Group&gt;">
					<path id="&lt;Path&gt;" class="s1" d="m159.8 144.5q-0.2-0.3-0.4-0.5 0.2 0.2 0.4 0.5z"/>
				</g>
				<g id="&lt;Group&gt;">
					<path id="&lt;Path&gt;" class="s1" d="m163.9 155.6q0-0.5-0.1-0.9 0.1 0.4 0.1 0.9z"/>
				</g>
				<g id="&lt;Group&gt;">
					<path id="&lt;Path&gt;" class="s1" d="m160.6 145.7q-0.2-0.3-0.4-0.6 0.2 0.3 0.4 0.6z"/>
				</g>
				<g id="&lt;Group&gt;">
					<path id="&lt;Path&gt;" class="s1" d="m162 148.6q-0.1-0.4-0.3-0.8 0.2 0.4 0.3 0.8z"/>
				</g>
				<g id="&lt;Group&gt;">
					<path id="&lt;Path&gt;" class="s1" d="m161.3 147.1q-0.1-0.4-0.3-0.7 0.2 0.3 0.3 0.7z"/>
				</g>
				<g id="&lt;Group&gt;">
					<path id="&lt;Path&gt;" class="s7" d="m154 156.8c-3.2-2.5-6.4-6.9-7.3-11.8q1.3-2 2.8-3.1 0.2-0.1 0.4-0.2 0.2-0.2 0.5-0.4 0.2-0.1 0.5-0.2 0.2-0.1 0.5-0.2 0.3-0.1 0.6-0.2 0.2 0 0.3-0.1 0.6-0.1 1.1-0.1 0.5 0 1.1 0.1 0.2 0.1 0.3 0.1 0.4 0.1 0.7 0.2 0.2 0.1 0.5 0.2 0.3 0.2 0.6 0.3 0.2 0.2 0.4 0.3 0.3 0.2 0.6 0.4 0.2 0.2 0.4 0.4 0.2 0.2 0.5 0.5 0.2 0.2 0.4 0.4 0.2 0.3 0.5 0.6 0.2 0.2 0.4 0.5 0.2 0.3 0.4 0.6 0.2 0.3 0.4 0.6 0.2 0.4 0.4 0.7 0.2 0.3 0.3 0.7 0.2 0.4 0.4 0.7 0.2 0.4 0.3 0.8 0.2 0.4 0.3 0.8 0.2 0.4 0.3 0.8 0.2 0.4 0.3 0.9 0.1 0.4 0.2 0.8 0.2 0.5 0.3 0.9 0.1 0.5 0.2 0.9 0.1 0.5 0.2 1 0.1 0.4 0.1 0.9 0.1 0.5 0.2 1.1 0 0.4 0.1 0.9 0.1 1 0.1 2 0 0 0 0c-3.6-0.1-7.2-1-10.3-2.8z"/>
				</g>
				<path id="&lt;Path&gt;" class="s1" d="m153 129.2c5 0 9.3 1.9 12.8 5.6 1.1 1.1 1 2.8-0.1 3.9-0.5 0.5-1.2 0.7-1.8 0.7-0.8 0-1.5-0.3-2-0.9-2.5-2.6-5.4-3.9-8.9-3.9-4.8 0-8 3.4-8.1 3.5-1 1.1-2.7 1.2-3.8 0.2-1.1-1-1.2-2.7-0.2-3.8 0.2-0.2 4.8-5.3 12.1-5.3z"/>
				<g id="&lt;Group&gt;">
					<path id="&lt;Path&gt;" class="s2" d="m189.8 62.3c16.4-5.9 29.4 32.9 16.4 49.4q-1.2 1.4-2.6 2.5c-6.4-3.3-13-9.8-17.6-16.9-1.1-14.8-4.7-31.3 3.8-35z"/>
				</g>
				<g id="&lt;Group&gt;">
					<g id="&lt;Group&gt;">
						<path id="&lt;Compound Path&gt;" fill-rule="evenodd" class="s6" d="m203.6 114.2q1.4-1.1 2.6-2.5c13-16.5 0-55.3-16.4-49.4-8.5 3.7-4.9 20.2-3.8 35-3.6-5.5-6-11.2-6.1-15.9q0-0.3-0.1-0.6-2 0.1-3.9 0.8c-6.2 2.2-17.2 8.2-26.9 23.8-14.5 23.1-16.9 32.9-24.3 30.6-7.4-2.4-1.2-14.5-10.2-14.9-2.2-0.1-4-0.6-5.6-1.4-6.6-3.2-8.1-11.3-5.4-16.2 2.4-4.3 8.4-4.8 13.9-4.3 5.7 0.6 10.8 2.3 10.8 2.3 0 0-3.2-3.7-4.8-8.1-1.3-3.3-1.7-6.9 0.9-9.5 2.1-2.2 4.3-3.3 6.3-3.6q-0.7-2.6-0.8-4.8c-0.5-13.4-0.5-33.6 5.3-36.6 3.7-1.8 20.8 11.7 30.8 29.1q1.4 0.1 3.1 0.9c5.8 2.7 6.3 7.1 6.3 7.1 0 0 1.9-0.4 4.4-0.2-0.2-12.8 0.5-28.4 5.5-31 5.8-2.9 44.5 32 37.2 60.7-0.6 2.6-1.5 4.7-2.6 6.3-3.8 5.8-9.9 5.7-16.2 2.4zm-66.7-61.3c-4.1 1.3-4.4 15.2-1.7 27.5 3.2 0.9 5.4 2.9 5.4 2.9 0 0-4.5-10.8 4.5-12.4 3.5-0.6 6.2 0.1 8.3 1.2-4.4-10.8-10.6-21.1-16.5-19.2z"/>
					</g>
				</g>
			</g>
		</g>
		<g id="&lt;Group&gt;">
			<path id="&lt;Path&gt;" class="s1" d="m54.3 212.1c-1.7-8.9 6.1-19.3 13.4-13.9 7.2 5.5-12.2 19.6-13.4 13.9z"/>
		</g>
		<path id="&lt;Path&gt;" class="s1" d="m179.7 75.8c0 0-9.4-12.9-14.1-14.1-4.6-1.2 1 10.2 1 10.2 0 0-13.7-7.1-19.9-7.6-6.3-0.6 3.2 6.6 3.2 6.6 0 0-21.1-5.5-26.8-2.4-5.8 3.1 11.1 6.4 11.1 6.4 0 0-14.7-2.7-20.1 2.1-5.4 4.9 8.7 7.4 8.7 7.4 0 0-17.1-1.5-19.3 3.6-2.2 5.1 10.6 7 10.6 7 0 0-14.8-0.9-20.6 8.9-5.7 9.8 8.8 6.6 8.8 6.6 0 0-6.3 4.5-7.6 10.2-1.2 5.7 12.1 3.8 12.1 3.8 0 0-1.8 5.3 1.5 11.4 3.3 6 9.9-6.5 9.9-6.5 0 0-3.6 12 3.2 13.1 6.8 1 12.1-11.1 12.1-11.1l10.7-15.9c9.4-13.9 16.6-28.9 35.6-34.7z"/>
	</g>
</svg>