<svg version="1.2" xmlns="http://www.w3.org/2000/svg" viewBox="0 0 412 346" width="412" height="346">
	<title>&lt;Group&gt;</title>
	<style>
		.s0 { fill: #edb348 } 
		.s1 { fill: #7f867e } 
		.s2 { fill: #666f65 } 
		.s3 { fill: #000000 } 
		.s4 { fill: #f87671 } 
		.s5 { fill: #f98c87 } 
		.s6 { fill: #2b0020 } 
		.s7 { fill: #ffffff } 
		.s8 { fill: #360e2b } 
	</style>
	<g id="&lt;Group&gt;">
		<g id="&lt;Group&gt;">
			<path id="&lt;Path&gt;" class="s0" d="m309.7 153.9c0 58.7-47.5 106.3-106.2 106.3-58.8 0-106.3-47.6-106.3-106.3 0-58.7 47.5-106.3 106.3-106.3 58.7 0 106.2 47.6 106.2 106.3z"/>
			<g id="&lt;Group&gt;">
				<path id="&lt;Path&gt;" class="s1" d="m242.6 200c-11.9-10.8-63.2-14-73-3.1-11.3 12.4-18.8 25.4-17.8 50 15.3 8.5 32.9 13.3 51.7 13.3 21.9 0 42.4-6.7 59.3-18.1-3.3-16.9-7.3-30.6-20.2-42.1z"/>
			</g>
			<path id="&lt;Path&gt;" class="s2" d="m228.8 225.2c-12-8.7-31.9-7.6-42.7 0-8.2 5.4-11.7 21.1-16.5 29.5 10.6 3.6 22 5.5 33.9 5.5 14.5 0 28.4-2.9 41-8.2-4.6-6.1-8.9-22.3-15.7-26.8z"/>
			<g id="&lt;Group&gt;" style="opacity: .1;mix-blend-mode: overlay">
				<path id="&lt;Path&gt;" class="s3" d="m257.5 222.1c-3.1-8.2-7.5-15.5-14.9-22.1-11.9-10.8-63.2-14-73-3.1-7.8 8.5-13.7 17.2-16.4 29.8 34.8 9 72.2 11.7 104.3-4.6z"/>
			</g>
		</g>
		<g id="&lt;Group&gt;">
			<g id="&lt;Group&gt;">
				<g id="&lt;Group&gt;">
					<path id="&lt;Path&gt;" class="s2" d="m141.6 91.4c0 0-5.1-20.3-23.1-26.7-18-6.4-39.4 7.3-46.1 40.6-6.7 33.2-9.9 61.8 0 68.1 9.9 6.3 19.1-9.2 19.1-9.2 0 0-4.9 14.5 6.3 19.3 11.2 4.7 13.4-11 13.4-11 0 0-0.2 12.9 12.3 14.6 12.3 1.7 21.3-16.6 21.3-16.6z"/>
					<g id="&lt;Group&gt;">
						<path id="&lt;Path&gt;" class="s4" d="m107.9 111.3c8.3 1.1 16.6 5.8 22.1 12.5v-18.1c0 0 1.3-19.8-13.5-24.4-14.3-4.5-27.2 10.7-30.2 31 7-1.7 14.5-1.9 21.6-1z"/>
					</g>
					<g id="&lt;Group&gt;">
						<path id="&lt;Path&gt;" class="s5" d="m107.9 111.3c-7.1-0.9-14.6-0.7-21.6 1q-0.2 1.2-0.4 2.5c-2.3 21.5 5.7 39.5 18.4 43.5 12.7 4 25.7-7 25.7-7v-27.5c-5.5-6.7-13.8-11.4-22.1-12.5z"/>
					</g>
				</g>
				<g id="&lt;Group&gt;">
					<path id="&lt;Path&gt;" class="s2" d="m265.3 91.4c0 0 5.1-20.3 23.1-26.7 18-6.4 39.4 7.3 46.1 40.6 6.7 33.2 9.9 61.8 0 68.1-9.9 6.3-19.1-9.2-19.1-9.2 0 0 4.9 14.5-6.3 19.3-11.2 4.7-13.4-11-13.4-11 0 0 0.2 12.9-12.3 14.6-12.3 1.7-21.2-16.6-21.2-16.6z"/>
					<g id="&lt;Group&gt;">
						<path id="&lt;Path&gt;" class="s4" d="m299 111.3c-8.3 1.1-16.6 5.8-22.1 12.5v-18.1c0 0-1.3-19.8 13.5-24.4 14.3-4.5 27.2 10.7 30.2 31-7-1.7-14.5-1.9-21.6-1z"/>
					</g>
					<g id="&lt;Group&gt;">
						<path id="&lt;Path&gt;" class="s5" d="m299 111.3c7.1-0.9 14.6-0.7 21.6 1q0.2 1.2 0.4 2.5c2.3 21.5-5.7 39.5-18.4 43.5-12.7 4-25.7-7-25.7-7v-27.5c5.5-6.7 13.8-11.4 22.1-12.5z"/>
					</g>
				</g>
			</g>
			<g id="&lt;Group&gt;">
				<path id="&lt;Path&gt;" class="s1" d="m303.9 143.9c0 54.1-47.7 70.2-103.2 70.2-55.4 0-97.7-16.1-97.7-70.2 0-54.1 45-98 100.5-98 55.4 0 100.4 43.9 100.4 98z"/>
			</g>
			<path id="&lt;Path&gt;" class="s6" d="m218.8 198.4c-5.3 0-10.5-2.2-15.4-6.5-3.1 2.5-9.6 6.8-16.8 6.1-5.3-0.5-9.8-3.6-13.4-9.2-0.9-1.2-0.5-2.9 0.7-3.7 1.3-0.9 3-0.5 3.8 0.7 2.7 4.2 5.9 6.4 9.5 6.8 7.2 0.7 14.3-6.2 14.3-6.2 1.1-1.1 2.8-1.1 3.9-0.1 4.7 4.7 9.5 6.9 14.2 6.6 7.3-0.4 12.4-6.7 12.4-6.8 1-1.1 2.7-1.3 3.8-0.4 1.2 0.9 1.4 2.6 0.5 3.8-0.3 0.3-6.5 8.2-16.3 8.8q-0.6 0.1-1.2 0.1z"/>
			<g id="&lt;Group&gt;">
				<g id="&lt;Group&gt;">
					<g id="&lt;Group&gt;">
						<g id="&lt;Group&gt;">
							<path id="&lt;Path&gt;" class="s6" d="m164.7 146.6c0 14.9-6.2 19.3-13.9 19.3-7.7 0-14-4.4-14-19.3 0-14.8 6.3-26.9 14-26.9 7.7 0 13.9 12.1 13.9 26.9z"/>
						</g>
						<g id="&lt;Group&gt;">
							<path id="&lt;Path&gt;" class="s7" d="m159.3 125.3c-2.4-3.5-5.3-5.6-8.5-5.6-7.2 0-13.2 10.6-13.9 24.1 4.6-0.1 9.2-1.2 13.1-3.6 4-3 8.1-8.7 9.3-14.9z"/>
						</g>
					</g>
					<g id="&lt;Group&gt;">
						<g id="&lt;Group&gt;">
							<path id="&lt;Path&gt;" class="s6" d="m270.5 146.6c0 14.9-6.2 19.3-14 19.3-7.7 0-13.9-4.4-13.9-19.3 0-14.8 6.2-26.9 13.9-26.9 7.8 0 14 12.1 14 26.9z"/>
						</g>
						<g id="&lt;Group&gt;">
							<path id="&lt;Path&gt;" class="s7" d="m265.1 125.3c-2.4-3.5-5.3-5.6-8.6-5.6-7.2 0-13.1 10.6-13.8 24.1 4.6-0.1 9.2-1.2 13.1-3.6 4-3 8.1-8.7 9.3-14.9z"/>
						</g>
					</g>
				</g>
				<path id="&lt;Path&gt;" class="s2" d="m136.4 114.6c-0.7 0-1.3-0.2-1.9-0.7-1-1-1.1-2.7-0.1-3.8 4.4-4.6 9.6-7 15.7-7 8.9 0 14.6 6.3 14.8 6.5 1 1.1 0.9 2.9-0.2 3.9-1.1 1-2.8 0.9-3.8-0.2-0.1-0.1-4.4-4.7-10.8-4.7-4.5 0-8.4 1.7-11.7 5.2-0.6 0.6-1.3 0.8-2 0.8z"/>
				<path id="&lt;Path&gt;" class="s2" d="m240.7 114.6c-0.7 0-1.4-0.2-1.9-0.7-1.1-1-1.1-2.7-0.1-3.8 4.3-4.6 9.6-7 15.6-7 9 0 14.6 6.3 14.9 6.5 1 1.1 0.9 2.9-0.2 3.9-1.2 1-2.9 0.9-3.9-0.2 0-0.1-4.3-4.7-10.8-4.7-4.5 0-8.4 1.7-11.7 5.2-0.5 0.6-1.2 0.8-1.9 0.8z"/>
			</g>
			<g id="&lt;Group&gt;">
				<g id="&lt;Group&gt;">
					<path id="&lt;Path&gt;" class="s8" d="m191.5 127.1c12.6 8 24.3 2.2 32.6-8-4.7-10.2-11.8-17.2-20.6-18.4-8.6-1.1-15.4 7.8-19.7 19.1 2 3 4.4 5.7 7.7 7.3z"/>
				</g>
				<g id="&lt;Group&gt;">
					<path id="&lt;Path&gt;" class="s6" d="m224.1 119.1c-8.3 10.2-20 16-32.6 8-3.3-1.6-5.7-4.3-7.7-7.3-3.9 10.2-5.8 22.3-5.3 30.9 0.5 8.6 2.9 31.1 25 29.3 27-2.3 27.5-17.2 27.1-30.3-0.3-11.4-2.6-22.1-6.5-30.6z"/>
				</g>
			</g>
			<g id="&lt;Group&gt;">
				<path id="&lt;Path&gt;" class="s1" d="m180.7 50.4c0 0-1.1-17 6.1-19.2 7.2-2.1 3.3 12 3.3 12 0 0 13.4-17 24.9-16.7 11.6 0.4-5.9 15.2-5.9 15.2 0 0 20.3-8.3 25.1-0.3 4.7 7.9-25.3 9-25.3 9z"/>
			</g>
		</g>
	</g>
</svg>