<svg version="1.2" xmlns="http://www.w3.org/2000/svg" viewBox="0 0 356 395" width="356" height="395">
	<title>143665-OTKF1V-291-ai</title>
	<style>
		.s0 { fill: #2b0020 } 
		.s1 { fill: #e39635 } 
		.s2 { fill: #000000 } 
		.s3 { fill: #edb348 } 
		.s4 { fill: #f3c07b } 
		.s5 { fill: #df3140 } 
		.s6 { fill: #ffffff } 
		.s7 { fill: #f6db99 } 
		.s8 { fill: #de8316 } 
	</style>
	<g id="BACKGROUND">
	</g>
	<g id="OBJECTS">
		<g id="&lt;Group&gt;">
			<g id="&lt;Group&gt;">
				<g id="&lt;Group&gt;">
					<path id="&lt;Path&gt;" class="s0" d="m279.1 203.6c0 58.7-47.6 106.3-106.3 106.3-58.7 0-106.3-47.6-106.3-106.3 0-58.7 47.6-106.3 106.3-106.3 58.7 0 106.3 47.6 106.3 106.3z"/>
				</g>
				<g id="&lt;Group&gt;">
					<path id="&lt;Path&gt;" class="s1" d="m172.8 309.9c30.7 0 58.3-13 77.7-33.8-16.3-37.3-50.7-64-77.7-65-22.9-0.8-63.9 24.7-77.7 65 19.4 20.8 47 33.8 77.7 33.8z"/>
				</g>
				<g id="&lt;Group&gt;" style="opacity: .1;mix-blend-mode: overlay">
					<path id="&lt;Path&gt;" class="s2" d="m239.1 255.6c-18-26.2-44.6-43.7-66.3-44.5-19.5-0.7-52 17.6-69.8 47.9 41.3 26.4 93.5 19.7 136.1-3.4z"/>
				</g>
				<path id="&lt;Path&gt;" class="s3" d="m263.8 121.4c-13.3-30.8-51.6-40.4-75.5-42.9 5.4-3.5 6-9.8 0.4-9.9-7.1-0.1-12.3 8.9-12.3 8.9-3-5.8-13.2-7.4-14.6-3.7-0.7 1.7 1.4 3 3.7 4-21.4 0.8-70 8.1-85.4 43.6-17.6 40.7-9.5 98.2-3.4 103.8 3.8 3.5 5-1.1 5.3-5.1 0 6.5 0.7 17.7 5.2 19.8 3.4 1.6 5.2-2.5 6.1-6.7-0.2 4.9 0.3 10.7 4.1 12.1 6.7 2.4 8.1-12.2 8.1-12.2 0 0 0 18 6.8 19.7 6.7 1.7 8.8-15.7 8.8-15.7 0 0 1 14.9 5.7 15.8 4.7 0.9 7.2-10.9 7.2-10.9 0 0 2.3 13.1 17.9 13.8 7.4 0.3 10.3-3.2 11.4-6.9 0.4 3.7 1.8 7.3 5.1 6.9 1.7-0.1 2.8-9.8 3.6-24.5 0.7 14.7 1.8 24.4 3.5 24.5 3.4 0.4 4.7-3.2 5.1-6.9 1.1 3.7 4 7.2 11.4 6.9 15.6-0.7 17.9-13.8 17.9-13.8 0 0 2.5 11.8 7.2 10.9 4.8-0.9 5.7-15.8 5.7-15.8 0 0 2.1 17.4 8.9 15.7 6.7-1.7 6.7-19.7 6.7-19.7 0 0 1.4 14.6 8.2 12.2 3.7-1.4 4.2-7.2 4-12.1 0.9 4.2 2.7 8.3 6.1 6.7 4.5-2.1 5.2-13.3 5.2-19.8 0.4 4 1.5 8.6 5.3 5.1 6.1-5.6 14.2-63.1-3.4-103.8z"/>
				<g id="&lt;Group&gt;" style="opacity: .1;mix-blend-mode: overlay">
					<path id="&lt;Path&gt;" class="s2" d="m101.2 125.9c7.2-6.4 3.6-18.6-1.4-28.4-8.3 6.1-15.3 13.9-19.7 23.9q-1.5 3.6-2.8 7.3c8.6 1 20.9-1 23.9-2.8z"/>
				</g>
				<g id="&lt;Group&gt;" style="opacity: .1;mix-blend-mode: overlay">
					<path id="&lt;Path&gt;" class="s2" d="m242.7 125.9c-7.2-6.4-3.6-18.6 1.4-28.4 8.3 6.1 15.3 13.9 19.7 23.9q1.5 3.6 2.8 7.3c-8.6 1-20.9-1-23.9-2.8z"/>
				</g>
				<g id="&lt;Group&gt;" style="opacity: .1;mix-blend-mode: overlay">
					<path id="&lt;Path&gt;" class="s2" d="m248.1 186.6c0 46.4-74.6 69.3-74.6 69.3 0 0-74.7-22.9-74.7-69.3 0-46.4 33.4-84 74.7-84 41.2 0 74.6 37.6 74.6 84z"/>
				</g>
				<g id="&lt;Group&gt;">
					<path id="&lt;Path&gt;" class="s1" d="m248.1 168c0 40.6-33.4 50.7-74.6 50.7-41.3 0-74.7-10.1-74.7-50.7 0-40.6 33.4-73.6 74.7-73.6 41.2 0 74.6 33 74.6 73.6z"/>
				</g>
				<path id="&lt;Path&gt;" class="s4" d="m199.6 267.2h-53.6c-4.4 0-8.3-3.3-8.8-7.6l-5.7-52.4c-0.7-5.6 3.3-10.4 8.7-10.4h65.3c5.4 0 9.3 4.8 8.7 10.4l-5.8 52.4c-0.4 4.3-4.3 7.6-8.8 7.6z"/>
				<g id="&lt;Group&gt;">
					<path id="&lt;Path&gt;" class="s0" d="m146.6 250l-4.4-40.5c-0.3-2.8 1.8-5.2 4.7-5.2h51.9c2.8 0 5 2.4 4.7 5.2l-4.5 40.5c-0.2 2.4-2.2 4.2-4.6 4.2h-43.1c-2.4 0-4.4-1.8-4.7-4.2z"/>
				</g>
				<g id="&lt;Group&gt;">
					<path id="&lt;Path&gt;" class="s5" d="m151.3 254.2h43.1c2.4 0 4.4-1.8 4.6-4.2l1.2-10.4c-7-6.1-16.7-9.8-27.4-9.8-10.7 0-20.4 3.7-27.3 9.8l1.1 10.4c0.3 2.4 2.3 4.2 4.7 4.2z"/>
				</g>
				<g id="&lt;Group&gt;">
					<path id="&lt;Path&gt;" class="s6" d="m194.6 254.2c0 0-1.2-5.8-4.5-6.9-3.2-1.2-6.3 6.9-6.3 6.9z"/>
					<path id="&lt;Path&gt;" class="s6" d="m151.1 254.2c0 0 1.1-5.8 4.4-6.9 3.3-1.2 6.3 6.9 6.3 6.9z"/>
				</g>
				<g id="&lt;Group&gt;">
					<path id="&lt;Path&gt;" class="s6" d="m145.5 220.9c0 0 1.4 9.7 5.6 11.7 4.1 2 7.9-11.7 7.9-11.7z"/>
					<path id="&lt;Path&gt;" class="s6" d="m200.2 220.9c0 0-1.5 9.7-5.6 11.7-4.1 2-7.9-11.7-7.9-11.7z"/>
				</g>
				<g id="&lt;Group&gt;">
					<path id="&lt;Path&gt;" class="s7" d="m173.5 180.3c-22.2 0-55.1 0.4-50.3 32.8 2.9 19.9 39.4 16.2 48.3 1.8 0.9-1.4 3-1.4 3.9 0 8.9 14.4 45.4 18.1 48.3-1.8 4.8-32.4-28.1-32.8-50.2-32.8z"/>
				</g>
				<g id="&lt;Group&gt;">
					<path id="&lt;Path&gt;" class="s0" d="m195.8 188.6c0 6.4-10 7.3-22.4 7.3-12.3 0-22.3-0.9-22.3-7.3 0-6.5 10-11.7 22.3-11.7 12.4 0 22.4 5.2 22.4 11.7z"/>
				</g>
				<g id="&lt;Group&gt;">
					<g id="&lt;Group&gt;">
						<g id="&lt;Group&gt;">
							<path id="&lt;Path&gt;" class="s0" d="m151.1 165.5c0 10.1-4.3 13.2-9.5 13.2-5.3 0-9.5-3.1-9.5-13.2 0-10.1 4.2-18.3 9.5-18.3 5.2 0 9.5 8.2 9.5 18.3z"/>
						</g>
						<g id="&lt;Group&gt;">
							<path id="&lt;Path&gt;" class="s6" d="m147.4 151c-1.6-2.4-3.6-3.8-5.8-3.8-4.9 0-9 7.2-9.5 16.4 3.2 0 6.3-0.8 8.9-2.4 2.8-2.1 5.6-6 6.4-10.2z"/>
						</g>
					</g>
					<g id="&lt;Group&gt;">
						<g id="&lt;Group&gt;">
							<path id="&lt;Path&gt;" class="s0" d="m214.8 165.5c0 10.1-4.2 13.2-9.5 13.2-5.2 0-9.5-3.1-9.5-13.2 0-10.1 4.3-18.3 9.5-18.3 5.3 0 9.5 8.2 9.5 18.3z"/>
						</g>
						<g id="&lt;Group&gt;">
							<path id="&lt;Path&gt;" class="s6" d="m211.1 151c-1.6-2.4-3.6-3.8-5.8-3.8-4.9 0-8.9 7.2-9.4 16.4 3.1 0 6.2-0.8 8.9-2.4 2.7-2.1 5.5-6 6.3-10.2z"/>
						</g>
					</g>
				</g>
				<path id="&lt;Path&gt;" class="s8" d="m131.8 144.6c-0.7 0-1.3-0.2-1.9-0.7-1-1.1-1.1-2.8-0.1-3.9 3.2-3.3 7-5 11.3-5 6.5 0 10.6 4.6 10.8 4.8 1 1.1 0.9 2.8-0.2 3.8-1.1 1-2.9 0.9-3.9-0.2 0-0.1-2.7-2.9-6.7-2.9-2.8 0-5.2 1.1-7.3 3.3-0.6 0.5-1.3 0.8-2 0.8z"/>
				<path id="&lt;Path&gt;" class="s8" d="m194.5 144.6c-0.7 0-1.4-0.2-1.9-0.7-1.1-1.1-1.1-2.8-0.1-3.9 3.1-3.3 6.9-5 11.3-5 6.5 0 10.6 4.6 10.8 4.8 1 1.1 0.9 2.8-0.3 3.8-1.1 1-2.8 0.9-3.8-0.2 0-0.1-2.7-2.9-6.7-2.9-2.8 0-5.2 1.1-7.3 3.3-0.6 0.5-1.3 0.8-2 0.8z"/>
				<g id="&lt;Group&gt;">
					<g id="&lt;Group&gt;">
						<path id="&lt;Path&gt;" class="s1" d="m221.8 105.7c-1.7-1-2.6-3.1-1.5-4.8 4.4-6.9 15.4-21.2 28.5-17.3 16.3 5 16.3 32.4-3.5 42.3-1.7 0.9-3.4-0.1-4.5-1.7-4-6.2-9.9-13.5-19-18.5z"/>
						<g id="&lt;Group&gt;">
							<path id="&lt;Path&gt;" class="s7" d="m248.9 98.8c-2.1-5.5-9.7-7.6-16.2-4.4-4.4 3.2-7.4 7.4-9.5 12.1 7.1 4.3 12.1 9.9 15.8 15 7.8-4.7 13.9-13.7 9.9-22.7z"/>
						</g>
					</g>
					<g id="&lt;Group&gt;">
						<path id="&lt;Path&gt;" class="s1" d="m122.1 105.7c1.8-1 2.6-3.1 1.5-4.8-4.4-6.9-15.4-21.2-28.5-17.3-16.2 5-16.3 32.4 3.5 42.3 1.8 0.9 3.5-0.1 4.5-1.7 4-6.2 9.9-13.5 19-18.5z"/>
						<g id="&lt;Group&gt;">
							<path id="&lt;Path&gt;" class="s7" d="m95 98.8c2.2-5.5 9.8-7.6 16.3-4.4 4.4 3.2 7.3 7.4 9.4 12.1-7 4.3-12.1 9.9-15.8 15-7.8-4.7-13.9-13.7-9.9-22.7z"/>
						</g>
					</g>
				</g>
			</g>
		</g>
	</g>
	<g id="DESIGNED BY FREEPIK">
		<g id="&lt;Group&gt;">
			<g id="&lt;Group&gt;">
				<g id="&lt;Group&gt;">
					<path id="&lt;Compound Path&gt;" fill-rule="evenodd" class="s0" d="m322.6 950.3v-0.3q-0.6 0.8-1.3 1.2-0.6 0.5-1.4 0.7-0.7 0.3-1.6 0.3-1.1 0-2.1-0.5-1-0.5-1.7-1.4-0.8-0.9-1.1-2.2-0.4-1.2-0.4-2.6 0-3.1 1.5-4.8 1.5-1.7 3.9-1.7 1.4 0 2.3 0.5 1 0.5 1.9 1.5v-4.8q0-1 0.4-1.5 0.4-0.5 1.1-0.5 0.8 0 1.2 0.5 0.4 0.4 0.4 1.3v14.3q0 1-0.4 1.4-0.5 0.5-1.2 0.5-0.6 0-1.1-0.5-0.4-0.5-0.4-1.4zm-6.4-4.7q0 1.3 0.4 2.2 0.5 0.9 1.2 1.4 0.7 0.5 1.5 0.5 0.9 0 1.6-0.5 0.7-0.4 1.1-1.3 0.4-0.9 0.4-2.3 0-1.3-0.4-2.3-0.4-0.9-1.1-1.4-0.7-0.5-1.6-0.5-0.9 0-1.6 0.5-0.7 0.5-1.1 1.5-0.4 0.9-0.4 2.2z"/>
					<path id="&lt;Compound Path&gt;" fill-rule="evenodd" class="s0" d="m336.9 946.4h-6.3q0 1.1 0.4 1.9 0.4 0.9 1.2 1.3 0.7 0.4 1.6 0.4 0.5 0 1-0.1 0.5-0.1 0.9-0.4 0.5-0.3 0.9-0.6 0.4-0.4 1-0.9 0.2-0.3 0.7-0.3 0.5 0 0.8 0.3 0.3 0.3 0.3 0.8 0 0.4-0.4 1-0.3 0.6-1 1.1-0.7 0.6-1.7 0.9-1.1 0.4-2.5 0.4-3.1 0-4.8-1.8-1.7-1.8-1.7-4.8 0-1.5 0.4-2.7 0.4-1.2 1.2-2.1 0.8-0.9 2-1.3 1.2-0.5 2.7-0.5 1.9 0 3.3 0.8 1.3 0.8 2 2.1 0.7 1.2 0.7 2.5 0 1.3-0.7 1.6-0.7 0.4-2 0.4zm-6.3-1.8h5.8q-0.1-1.7-0.9-2.5-0.7-0.9-2-0.9-1.2 0-2 0.9-0.8 0.8-0.9 2.5z"/>
					<path id="&lt;Compound Path&gt;" class="s0" d="m351.7 948q0 1.3-0.7 2.2-0.6 1-1.9 1.5-1.3 0.5-3.1 0.5-1.8 0-3-0.5-1.2-0.6-1.8-1.4-0.6-0.8-0.6-1.6 0-0.5 0.3-0.9 0.4-0.4 1-0.4 0.5 0 0.8 0.3 0.3 0.2 0.5 0.7 0.5 0.8 1.2 1.3 0.7 0.4 1.9 0.4 1 0 1.6-0.4 0.6-0.5 0.6-1 0-0.9-0.6-1.3-0.7-0.4-2.2-0.7-1.6-0.4-2.7-0.9-1-0.5-1.7-1.2-0.6-0.8-0.6-1.8 0-1 0.6-1.9 0.6-0.9 1.7-1.4 1.1-0.5 2.7-0.5 1.3 0 2.3 0.3 1 0.2 1.7 0.7 0.6 0.4 1 0.9 0.3 0.6 0.3 1.1 0 0.5-0.3 0.9-0.4 0.4-1.1 0.4-0.5 0-0.8-0.3-0.4-0.3-0.8-0.9-0.4-0.5-0.9-0.7-0.5-0.3-1.4-0.3-0.8 0-1.4 0.4-0.6 0.3-0.6 0.9 0 0.5 0.4 0.8 0.5 0.3 1.2 0.6 0.7 0.2 2 0.5 1.5 0.4 2.4 0.9 1 0.5 1.5 1.2 0.5 0.7 0.5 1.6z"/>
					<path id="&lt;Compound Path&gt;" class="s0" d="m355 937.5q-0.7 0-1.2-0.4-0.5-0.4-0.5-1.2 0-0.7 0.5-1.1 0.5-0.5 1.2-0.5 0.6 0 1.1 0.4 0.5 0.4 0.5 1.2 0 0.8-0.5 1.2-0.5 0.4-1.1 0.4zm1.6 3.4v9.3q0 1-0.5 1.5-0.4 0.5-1.1 0.5-0.8 0-1.2-0.5-0.5-0.5-0.5-1.5v-9.3q0-0.9 0.5-1.4 0.4-0.5 1.2-0.5 0.7 0 1.1 0.5 0.5 0.5 0.5 1.4z"/>
					<path id="&lt;Compound Path&gt;" fill-rule="evenodd" class="s0" d="m370.8 941.4v9.4q0 1.6-0.4 2.8-0.3 1.1-1.1 1.9-0.7 0.8-1.9 1.1-1.3 0.4-3.1 0.4-1.7 0-3-0.5-1.3-0.4-2-1.2-0.7-0.7-0.7-1.5 0-0.6 0.4-1 0.4-0.3 0.9-0.3 0.7 0 1.3 0.6 0.2 0.3 0.5 0.6 0.3 0.4 0.6 0.6 0.4 0.2 0.9 0.3 0.4 0.1 1 0.1 1.3 0 2-0.3 0.7-0.4 1-1 0.3-0.6 0.3-1.3 0-0.8 0.1-2.3-0.8 1-1.8 1.5-0.9 0.6-2.3 0.6-1.6 0-2.8-0.8-1.3-0.9-1.9-2.4-0.7-1.5-0.7-3.4 0-1.5 0.4-2.7 0.4-1.1 1.2-1.9 0.7-0.8 1.7-1.3 0.9-0.4 2.1-0.4 1.4 0 2.4 0.6 1 0.5 1.8 1.6v-0.4q0-0.9 0.5-1.3 0.4-0.5 1-0.5 1 0 1.3 0.6 0.3 0.6 0.3 1.8zm-9.4 4.1q0 2 0.9 3 0.8 1 2.2 1 0.8 0 1.5-0.4 0.7-0.5 1.2-1.4 0.4-0.8 0.4-2.1 0-2-0.8-3.1-0.9-1.1-2.3-1.1-1.4 0-2.3 1.1-0.8 1-0.8 3z"/>
					<path id="&lt;Compound Path&gt;" class="s0" d="m375.9 940.8v0.4q0.9-1.1 1.9-1.7 1-0.5 2.3-0.5 1.3 0 2.3 0.6 1 0.5 1.5 1.5 0.4 0.6 0.5 1.3 0.1 0.7 0.1 1.8v6q0 1-0.5 1.5-0.4 0.5-1.2 0.5-0.7 0-1.1-0.5-0.5-0.5-0.5-1.5v-5.4q0-1.6-0.4-2.4-0.5-0.9-1.8-0.9-0.9 0-1.6 0.5-0.7 0.6-1 1.5-0.3 0.7-0.3 2.7v4q0 1-0.4 1.5-0.5 0.5-1.2 0.5-0.7 0-1.1-0.5-0.5-0.5-0.5-1.5v-9.3q0-1 0.4-1.4 0.4-0.5 1.1-0.5 0.4 0 0.8 0.2 0.3 0.2 0.5 0.6 0.2 0.4 0.2 1z"/>
					<path id="&lt;Compound Path&gt;" fill-rule="evenodd" class="s0" d="m395.7 946.4h-6.4q0 1.1 0.5 1.9 0.4 0.9 1.1 1.3 0.7 0.4 1.6 0.4 0.6 0 1.1-0.1 0.4-0.1 0.9-0.4 0.4-0.3 0.8-0.6 0.4-0.4 1-0.9 0.3-0.3 0.7-0.3 0.5 0 0.8 0.3 0.3 0.3 0.3 0.8 0 0.4-0.3 1-0.3 0.6-1 1.1-0.7 0.6-1.8 0.9-1 0.4-2.4 0.4-3.1 0-4.9-1.8-1.7-1.8-1.7-4.8 0-1.5 0.4-2.7 0.5-1.2 1.3-2.1 0.8-0.9 2-1.3 1.2-0.5 2.7-0.5 1.9 0 3.2 0.8 1.4 0.8 2.1 2.1 0.6 1.2 0.6 2.5 0 1.3-0.7 1.6-0.7 0.4-1.9 0.4zm-6.4-1.8h5.9q-0.1-1.7-0.9-2.5-0.8-0.9-2-0.9-1.3 0-2 0.9-0.8 0.8-1 2.5z"/>
					<path id="&lt;Compound Path&gt;" fill-rule="evenodd" class="s0" d="m408.9 950.3v-0.3q-0.7 0.8-1.3 1.2-0.7 0.5-1.4 0.7-0.7 0.3-1.6 0.3-1.2 0-2.2-0.5-1-0.5-1.7-1.4-0.7-0.9-1.1-2.2-0.4-1.2-0.4-2.6 0-3.1 1.5-4.8 1.5-1.7 3.9-1.7 1.4 0 2.4 0.5 1 0.5 1.9 1.5v-4.8q0-1 0.4-1.5 0.4-0.5 1.1-0.5 0.7 0 1.1 0.5 0.4 0.4 0.4 1.3v14.3q0 1-0.4 1.4-0.4 0.5-1.1 0.5-0.7 0-1.1-0.5-0.4-0.5-0.4-1.4zm-6.4-4.7q0 1.3 0.4 2.2 0.4 0.9 1.1 1.4 0.7 0.5 1.6 0.5 0.8 0 1.5-0.5 0.8-0.4 1.2-1.3 0.4-0.9 0.4-2.3 0-1.3-0.4-2.3-0.4-0.9-1.2-1.4-0.7-0.5-1.5-0.5-0.9 0-1.6 0.5-0.7 0.5-1.1 1.5-0.4 0.9-0.4 2.2z"/>
					<path id="&lt;Compound Path&gt;" fill-rule="evenodd" class="s0" d="m422.1 936v5q0.9-1 1.9-1.5 0.9-0.5 2.3-0.5 1.6 0 2.9 0.8 1.2 0.8 1.9 2.2 0.6 1.5 0.6 3.5 0 1.4-0.4 2.7-0.3 1.2-1 2.1-0.8 0.9-1.8 1.4-1 0.5-2.2 0.5-0.8 0-1.4-0.2-0.7-0.2-1.1-0.5-0.5-0.2-0.8-0.6-0.3-0.3-0.9-0.9v0.3q0 1-0.4 1.4-0.5 0.5-1.1 0.5-0.7 0-1.1-0.5-0.4-0.4-0.4-1.4v-14.1q0-1 0.4-1.5 0.4-0.5 1.1-0.5 0.7 0 1.1 0.5 0.4 0.5 0.4 1.3zm0.2 9.7q0 1.9 0.9 2.9 0.8 1.1 2.3 1.1 1.2 0 2.1-1.1 0.9-1 0.9-3 0-1.3-0.4-2.2-0.4-1-1-1.5-0.7-0.5-1.6-0.5-0.9 0-1.7 0.5-0.7 0.5-1.1 1.5-0.4 1-0.4 2.3z"/>
					<path id="&lt;Compound Path&gt;" class="s0" d="m435.9 952.6l0.3-0.7-4-10.1q-0.3-0.8-0.3-1.2 0-0.4 0.2-0.8 0.2-0.4 0.6-0.6 0.3-0.2 0.7-0.2 0.7 0 1.1 0.5 0.4 0.4 0.6 1.2l2.8 8 2.6-7.4q0.3-0.9 0.5-1.4 0.3-0.5 0.6-0.7 0.2-0.2 0.7-0.2 0.4 0 0.8 0.2 0.3 0.2 0.5 0.5 0.2 0.4 0.2 0.7-0.1 0.3-0.2 0.7-0.1 0.4-0.3 0.8l-4.2 11.1q-0.5 1.4-1.1 2.3-0.5 0.8-1.3 1.3-0.9 0.4-2.4 0.4-1.4 0-2.1-0.3-0.7-0.3-0.7-1.1 0-0.6 0.3-0.9 0.4-0.3 1-0.3 0.3 0 0.5 0.1 0.4 0 0.6 0 0.5 0 0.9-0.1 0.3-0.2 0.5-0.6 0.3-0.4 0.6-1.2z"/>
				</g>
				<g id="&lt;Group&gt;">
					<path id="&lt;Path&gt;" class="s0" d="m482.9 939.3h0.8v-1q-0.1-1.5 0.3-2.4 0.4-0.9 1.3-1.3 1-0.4 2.6-0.4 2.8 0 2.8 1.4 0 0.4-0.3 0.7-0.3 0.4-0.7 0.4-0.2 0-0.7-0.1-0.4-0.1-0.7-0.1-0.9 0-1.2 0.5-0.2 0.6-0.2 1.5v0.8h0.8q1.8 0 1.8 1.1 0 0.8-0.5 1-0.4 0.2-1.3 0.2h-0.8v8.6q0 1-0.5 1.5-0.4 0.5-1.1 0.5-0.7 0-1.2-0.5-0.4-0.5-0.4-1.5v-8.6h-0.9q-0.8 0-1.2-0.3-0.4-0.3-0.4-0.8 0-1.2 1.7-1.2z"/>
					<path id="&lt;Path&gt;" class="s0" d="m493.5 947.5v2.7q0 1-0.5 1.5-0.4 0.5-1.1 0.5-0.8 0-1.2-0.5-0.5-0.5-0.5-1.5v-9q0-2.2 1.6-2.2 0.8 0 1.2 0.5 0.3 0.5 0.4 1.5 0.6-1 1.2-1.5 0.6-0.5 1.6-0.5 1 0 2 0.5 1 0.5 0.9 1.4 0 0.6-0.4 0.9-0.4 0.4-0.8 0.4-0.2 0-0.9-0.2-0.7-0.2-1.2-0.2-0.7 0-1.2 0.4-0.4 0.4-0.7 1.1-0.2 0.7-0.3 1.7-0.1 1.1-0.1 2.5z"/>
					<path id="&lt;Compound Path&gt;" fill-rule="evenodd" class="s0" d="m508.4 946.4h-6.4q0.1 1.1 0.5 1.9 0.4 0.9 1.1 1.3 0.8 0.4 1.6 0.4 0.6 0 1.1-0.1 0.5-0.1 0.9-0.4 0.5-0.3 0.9-0.7 0.3-0.3 0.9-0.9 0.3-0.2 0.8-0.2 0.5 0 0.8 0.3 0.3 0.3 0.3 0.8 0 0.4-0.4 1-0.3 0.6-1 1.1-0.7 0.6-1.8 0.9-1 0.4-2.4 0.4-3.1 0-4.8-1.8-1.8-1.8-1.8-4.8 0-1.5 0.5-2.7 0.4-1.2 1.2-2.1 0.8-0.9 2-1.3 1.2-0.5 2.7-0.5 1.9 0 3.2 0.8 1.4 0.8 2.1 2.1 0.7 1.2 0.7 2.6 0 1.2-0.7 1.5-0.7 0.4-2 0.4zm-6.4-1.8h5.9q-0.1-1.7-0.9-2.5-0.7-0.9-2-0.9-1.2 0-2 0.9-0.8 0.8-1 2.5z"/>
					<path id="&lt;Compound Path&gt;" fill-rule="evenodd" class="s0" d="m521.9 946.4h-6.4q0 1.1 0.5 1.9 0.4 0.9 1.1 1.3 0.7 0.4 1.6 0.4 0.6 0 1.1-0.1 0.5-0.1 0.9-0.4 0.5-0.3 0.8-0.7 0.4-0.3 1-0.9 0.3-0.2 0.7-0.2 0.5 0 0.8 0.3 0.4 0.3 0.3 0.8 0.1 0.4-0.3 1-0.3 0.6-1 1.1-0.7 0.6-1.8 0.9-1 0.4-2.4 0.4-3.1 0-4.9-1.8-1.7-1.8-1.7-4.8 0-1.5 0.4-2.7 0.5-1.2 1.3-2.1 0.8-0.9 2-1.3 1.2-0.5 2.7-0.5 1.9 0 3.2 0.8 1.4 0.8 2.1 2.1 0.6 1.2 0.6 2.6 0 1.2-0.7 1.5-0.7 0.4-1.9 0.4zm-6.4-1.8h5.9q-0.1-1.7-0.9-2.5-0.8-0.9-2-0.9-1.2 0-2 0.9-0.8 0.8-1 2.5z"/>
					<path id="&lt;Compound Path&gt;" fill-rule="evenodd" class="s0" d="m529 940.8v0.4q0.9-1.1 1.9-1.6 1-0.6 2.2-0.6 1.5 0 2.8 0.8 1.2 0.8 2 2.3 0.7 1.4 0.7 3.5 0 1.5-0.4 2.7-0.5 1.3-1.2 2.1-0.7 0.9-1.7 1.3-1 0.5-2.2 0.5-1.4 0-2.3-0.6-1-0.5-1.8-1.6v4.9q0 2.1-1.6 2.1-0.9 0-1.2-0.5-0.3-0.6-0.3-1.7v-14q0-0.9 0.4-1.3 0.4-0.5 1.1-0.5 0.7 0 1.1 0.5 0.5 0.4 0.5 1.3zm6.3 4.7q0-1.2-0.4-2.2-0.4-0.9-1-1.4-0.7-0.5-1.6-0.5-1.3 0-2.2 1.1-1 1-1 3.1 0 1.9 0.9 3 1 1.1 2.3 1.1 0.8 0 1.5-0.5 0.7-0.5 1.1-1.4 0.4-0.9 0.4-2.3z"/>
					<path id="&lt;Compound Path&gt;" class="s0" d="m541.8 937.5q-0.6 0-1.1-0.4-0.5-0.4-0.5-1.2 0-0.7 0.5-1.1 0.5-0.5 1.1-0.5 0.7 0 1.2 0.4 0.5 0.4 0.5 1.2 0 0.8-0.5 1.2-0.5 0.4-1.2 0.4zm1.7 3.3v9.4q0 1-0.5 1.5-0.5 0.5-1.2 0.5-0.7 0-1.1-0.5-0.5-0.5-0.5-1.5v-9.3q0-0.9 0.5-1.4 0.4-0.5 1.1-0.5 0.7 0 1.2 0.5 0.5 0.5 0.5 1.3z"/>
					<path id="&lt;Path&gt;" class="s0" d="m553.9 950.7l-2.9-4.7-1.7 1.7v2.5q0 1-0.5 1.5-0.5 0.5-1.1 0.5-0.8 0-1.2-0.5-0.4-0.5-0.4-1.5v-13.8q0-1.1 0.4-1.7 0.4-0.5 1.2-0.5 0.7 0 1.1 0.5 0.5 0.5 0.5 1.5v7.9l3.6-3.9q0.7-0.7 1.1-0.9 0.3-0.3 0.8-0.3 0.6 0 1 0.4 0.4 0.4 0.4 1 0 0.7-1.3 1.9l-1.7 1.5 3.3 5.3q0.4 0.5 0.6 0.8 0.1 0.4 0.1 0.6 0 0.8-0.4 1.2-0.4 0.5-1.1 0.5-0.6 0-0.9-0.3-0.3-0.4-0.9-1.2z"/>
					<path id="&lt;Path&gt;" class="s0" d="m560.9 952.2q-0.7 0-1.2-0.5-0.6-0.5-0.6-1.3 0-0.7 0.6-1.3 0.5-0.5 1.2-0.5 0.8 0 1.3 0.5 0.5 0.5 0.5 1.3 0 0.8-0.5 1.3-0.5 0.5-1.3 0.5z"/>
					<path id="&lt;Path&gt;" class="s0" d="m577.1 948.2q0 0.6-0.4 1.3-0.4 0.7-1.1 1.3-0.7 0.6-1.9 1-1.1 0.4-2.5 0.4-3 0-4.7-1.8-1.7-1.7-1.7-4.7 0-2 0.8-3.5 0.8-1.5 2.2-2.4 1.5-0.8 3.5-0.8 1.3 0 2.3 0.4 1.1 0.3 1.8 0.9 0.7 0.6 1.1 1.2 0.4 0.7 0.4 1.3 0 0.6-0.4 1-0.5 0.4-1.1 0.4-0.4 0-0.7-0.2-0.2-0.3-0.6-0.7-0.5-0.9-1.2-1.4-0.6-0.4-1.6-0.4-1.5 0-2.4 1.1-0.8 1.1-0.8 3.1 0 0.9 0.2 1.7 0.2 0.7 0.6 1.3 0.5 0.5 1.1 0.8 0.6 0.3 1.3 0.3 1 0 1.7-0.5 0.7-0.4 1.2-1.4 0.3-0.5 0.6-0.8 0.4-0.3 0.9-0.3 0.6 0 1 0.4 0.4 0.5 0.4 1z"/>
					<path id="&lt;Compound Path&gt;" fill-rule="evenodd" class="s0" d="m591.1 945.6q0 1.4-0.5 2.7-0.4 1.2-1.3 2.1-0.9 0.8-2 1.3-1.2 0.5-2.7 0.5-1.5 0-2.7-0.5-1.1-0.5-2-1.3-0.9-0.9-1.3-2.1-0.4-1.2-0.4-2.7 0-1.5 0.4-2.7 0.5-1.2 1.3-2.1 0.8-0.9 2-1.3 1.2-0.5 2.7-0.5 1.5 0 2.7 0.5 1.2 0.5 2 1.3 0.9 0.9 1.3 2.1 0.5 1.2 0.5 2.7zm-3.3 0q0-2-0.9-3.1-0.8-1.1-2.3-1.1-1 0-1.7 0.5-0.7 0.5-1.1 1.5-0.4 0.9-0.4 2.2 0 1.3 0.4 2.2 0.4 1 1.1 1.5 0.7 0.5 1.7 0.5 1.5 0 2.3-1.1 0.9-1.1 0.9-3.1z"/>
					<path id="&lt;Path&gt;" class="s0" d="m603.4 945.8v4.3q0 1.1-0.4 1.6-0.5 0.5-1.3 0.5-0.7 0-1.1-0.5-0.5-0.5-0.5-1.6v-5.1q0-1.2-0.1-1.9-0.1-0.7-0.4-1.1-0.4-0.5-1.2-0.5-1.6 0-2.1 1.1-0.5 1.1-0.5 3.2v4.3q0 1.1-0.5 1.6-0.4 0.5-1.2 0.5-0.7 0-1.2-0.5-0.4-0.5-0.4-1.6v-9.2q0-0.9 0.4-1.4 0.4-0.5 1.1-0.5 0.6 0 1.1 0.5 0.4 0.4 0.4 1.2v0.3q0.9-1 1.8-1.5 1-0.5 2.2-0.5 1.2 0 2.1 0.5 0.9 0.5 1.4 1.5 0.9-1 1.8-1.5 0.9-0.5 2.1-0.5 1.3 0 2.3 0.6 0.9 0.5 1.4 1.4 0.4 0.9 0.4 2.8v6.3q0 1.1-0.4 1.6-0.5 0.5-1.3 0.5-0.7 0-1.2-0.5-0.4-0.5-0.4-1.6v-5.4q0-1.1-0.1-1.7-0.1-0.6-0.5-1-0.4-0.5-1.2-0.5-0.6 0-1.2 0.4-0.6 0.4-0.9 1-0.4 0.9-0.4 2.9z"/>
				</g>
				<g id="&lt;Group&gt;">
					<path id="&lt;Path&gt;" class="s0" d="m452.5 944.8q0 0 0 0 0 0 0 0z"/>
					<path id="&lt;Path&gt;" class="s0" d="m452.7 945.9q0 0 0 0-0.1-0.5-0.1-0.9 0 0.4 0.1 0.9z"/>
					<path id="&lt;Path&gt;" class="s0" d="m453.8 948.9q0-0.1 0-0.1 0 0 0 0.1z"/>
					<path id="&lt;Path&gt;" class="s0" d="m453.7 948.7q-0.1-0.1-0.1-0.2 0 0.1 0.1 0.2z"/>
					<path id="&lt;Path&gt;" class="s0" d="m453 947q0.2 0.8 0.6 1.5-0.4-0.8-0.6-1.5 0 0 0 0z"/>
					<path id="&lt;Path&gt;" class="s0" d="m465.1 932.4c0.6 0 1.1 0 1.6 0.1l0.2-0.9c0 0-1.5-0.5-3.4-0.3l-0.2-0.5c0.6-0.2 1.1-0.7 1.1-1.3 0-0.8-0.6-1.3-1.4-1.3-0.7 0-1.3 0.5-1.3 1.3 0 0.6 0.5 1.1 1.1 1.3l0.1 0.5c-2 0.3-3.6 1.1-3.6 1.1l0.3 0.9c1.2-0.4 2.3-0.7 3.2-0.8 1-0.1 1.7-0.1 2.3-0.1z"/>
					<path id="&lt;Path&gt;" class="s0" d="m453.8 937.2q0-0.1 0.1-0.2l-0.4-0.3-0.6-0.4c0 0-1 0.9-1.7 2.6q-0.1-0.1-0.2-0.2-0.3-0.4-0.9-0.4 0 0 0 0c-0.3 0-0.4 0-0.6-0.1q0.2-0.3 0.2-0.6c0-0.4-0.4-0.8-0.8-0.8-0.5 0-0.9 0.4-0.9 0.8 0 0.5 0.4 0.9 0.9 0.9q0.1 0 0.2 0c0.2 0.2 0.5 0.4 1 0.4q0.4 0 0.5 0.2c0.2 0.1 0.2 0.3 0.2 0.5q0 0 0 0c-0.5 1.5-0.3 3.3-0.3 3.3l1.3 0.1c0-0.7 0.1-1.9 0.4-2.8 0.7-1.8 1.5-2.9 1.6-3z"/>
					<path id="&lt;Path&gt;" class="s0" d="m476.6 933.5c-0.5 0-0.8 0.4-0.8 0.8q0 0.1 0 0.2c-0.2 0.2-0.4 0.6-0.4 1.1q0 0.3-0.2 0.5-0.2 0.1-0.4 0.2c-1-1.4-2.2-2.2-2.2-2.2l-0.9 1q1 0.9 2.1 2.5c0.5 0.7 1 1.6 1.4 2.5l1.3-0.6c0 0-0.6-1.5-1.4-2.8q0.2 0 0.4-0.2 0.4-0.3 0.4-1c0-0.2 0.1-0.4 0.2-0.5q0.2 0.2 0.5 0.2c0.5 0 0.8-0.4 0.8-0.9 0-0.4-0.3-0.8-0.8-0.8z"/>
					<path id="&lt;Path&gt;" class="s0" d="m473.3 945c-1.8 0.9-4.7 2-8.5 2.5-1.5 0.2-3 0.3-4.3 0.3-1.7 0-3.3-0.1-4.4-0.3-1.4-0.1-2.4-0.3-3.1-0.5q0.2 0.7 0.6 1.5 0 0 0 0 0 0.1 0.1 0.2 0 0 0.1 0.1 0 0 0 0.1 0.6 1 1.3 1.9c1.8 2 3.7 2.3 3.7 2.3 0.1 0 1.7 0.5 4.2 0.5 2.4 0 4.8-0.5 7-1.4 1.7-0.9 3.3-2.2 4.1-3.4q0.9-1.3 1.3-2.8c0.2-0.6 0.3-1.4 0.2-2.3-0.5 0.3-1.3 0.8-2.3 1.3z"/>
					<path id="&lt;Compound Path&gt;" fill-rule="evenodd" class="s0" d="m455.3 936.6v-0.1c1.2-1.1 2.8-2 4.4-2.5q1.8-0.6 3.2-0.8c0.9-0.1 1.6-0.1 2.2-0.1 0.6 0 1 0 1.5 0.1 1.4 0.3 4.1 1.2 6.6 4.8 0.9 1.2 1.9 3.2 2.2 4.5-0.3 0.3-1.2 0.9-2.6 1.6-1.7 0.8-4.5 1.9-8.2 2.4-5.8 0.8-11-0.4-11.9-0.6q-0.1-0.5-0.1-0.9 0-0.1-0.1-0.2 0 0 0 0 0-0.6 0-1.3c0 0 0-1.8 0.4-3 0.6-1.7 1.4-2.8 1.4-2.9 0.4-0.5 0.8-0.9 1-1zm12.2 2.4c0 1.2 1 2.2 2.2 2.2 1.2 0 2.1-1 2.1-2.2 0-1.2-0.9-2.2-2.1-2.2-1.2 0-2.2 1-2.2 2.2zm-11.7 1.2c0 2 1.6 3.6 3.6 3.6 1.9 0 3.5-1.6 3.5-3.6 0-1.9-1.6-3.5-3.5-3.5-2 0-3.6 1.6-3.6 3.5z"/>
				</g>
			</g>
		</g>
	</g>
</svg>