<svg version="1.2" xmlns="http://www.w3.org/2000/svg" viewBox="0 0 376 366" width="376" height="366">
	<title>MooseAvatar</title>
	<style>
		.s0 { fill: #8ebb6a } 
		.s1 { fill: #8f2a18 } 
		.s2 { fill: #edb348 } 
		.s3 { fill: #aa4529 } 
		.s4 { fill: #e39635 } 
		.s5 { fill: #000000 } 
		.s6 { fill: #2b0020 } 
		.s7 { fill: #ffffff } 
		.s8 { fill: #a33418 } 
	</style>
	<g id="&lt;Group&gt;">
		<g id="&lt;Group&gt;">
			<path id="&lt;Path&gt;" class="s0" d="m296.9 193.2c0 58.7-47.6 106.3-106.3 106.3-58.7 0-106.3-47.6-106.3-106.3 0-58.7 47.6-106.3 106.3-106.3 58.7 0 106.3 47.6 106.3 106.3z"/>
		</g>
		<g id="&lt;Group&gt;">
			<path id="&lt;Path&gt;" class="s1" d="m228.1 111.1q1 1.8 2 3.6c3.3 1.1 5.3 3.3 5.4 3.4 0.9 1.1 0.8 2.7-0.2 3.7q-0.6 0.5-1.2 0.6 0.6 1.3 1.3 2.6c4.4 2.2 9.6 3.7 15.3 3.7 12.5 0.1 7.1-10.6-3.6-18.8-8.7-0.6-14.7 0-19 1.2z"/>
			<path id="&lt;Path&gt;" class="s2" d="m207 70.7c3.7 1.5 1.6 4.3-1.3 6.6q0.6 1.6 1.2 3.3c4.3-0.1 9.1 0.8 10.6 4.6 1.1 2.8-2.5 4.6-7.1 5.6q0.1 0.4 0.2 0.7c7.4 4.5 13 11.9 17.5 19.6 4.3-1.2 10.3-1.8 19-1.2q0.1 0 0.2 0c28.3 2 32.7 0.8 36.7-26.7 7.1-50.2-14.8-58.2-22.4-48.6-7.6 9.5 6.8 43.8 0 46.1-6.8 2.4-8.7-13.8-11.1-31.8-2.4-17.9-18.4-26.5-23.2-16.1-4.8 10.3 11.2 46.4 8.8 51.6-2.4 5.2-12.4 9.2-14-11.6-1.5-20.7-16.7-37.4-23.1-30.7-3.9 4.2-0.2 16.3 4.1 28.3 1.5-0.2 2.8-0.1 3.9 0.3z"/>
			<path id="&lt;Path&gt;" class="s3" d="m143.1 115.3c-8.9 1.4-25.4 6-33.1 21.1-8 15.6 19 9.3 32.2-4.6q2.1-7.1 4.7-13.2c-1.2-0.9-2.4-2.1-3.8-3.3z"/>
			<g id="&lt;Group&gt;">
				<path id="&lt;Path&gt;" class="s3" d="m327.5 153.3q0.7 0.9 1.4 1.9-0.7-1-1.4-1.9z"/>
			</g>
			<g id="&lt;Group&gt;">
				<path id="&lt;Path&gt;" class="s3" d="m292.6 234.6q-0.5 0-1 0 0.5 0 1 0z"/>
			</g>
			<g id="&lt;Group&gt;">
				<path id="&lt;Path&gt;" class="s3" d="m325.6 151.1q0.8 0.9 1.6 1.8-0.8-0.9-1.6-1.8z"/>
			</g>
			<g id="&lt;Group&gt;">
				<path id="&lt;Path&gt;" class="s3" d="m323.7 149.3q0.9 0.8 1.7 1.6-0.8-0.8-1.7-1.6z"/>
			</g>
			<g id="&lt;Group&gt;">
				<path id="&lt;Path&gt;" class="s3" d="m295.9 234.4q-0.6 0.1-1.3 0.1 0.7 0 1.3-0.1z"/>
			</g>
			<g id="&lt;Group&gt;">
				<path id="&lt;Path&gt;" class="s3" d="m298.8 138.1q1.5 0.3 3 0.7-1.5-0.4-3-0.7z"/>
			</g>
			<g id="&lt;Group&gt;">
				<path id="&lt;Path&gt;" class="s3" d="m294.1 234.5q-0.5 0-1 0.1 0.5-0.1 1-0.1z"/>
			</g>
			<g id="&lt;Group&gt;">
				<path id="&lt;Path&gt;" class="s3" d="m329.1 155.5q0.7 1.1 1.3 2.2-0.6-1.1-1.3-2.2z"/>
			</g>
			<g id="&lt;Group&gt;">
				<path id="&lt;Path&gt;" class="s3" d="m311.1 141.8q1.3 0.6 2.5 1.1-1.2-0.5-2.5-1.1z"/>
			</g>
			<g id="&lt;Group&gt;">
				<path id="&lt;Path&gt;" class="s3" d="m314 143.1q1.2 0.6 2.4 1.2-1.2-0.6-2.4-1.2z"/>
			</g>
			<g id="&lt;Group&gt;">
				<path id="&lt;Path&gt;" class="s3" d="m305.1 139.8q2.9 0.8 5.7 1.9-2.8-1.1-5.7-1.9z"/>
			</g>
			<g id="&lt;Group&gt;">
				<path id="&lt;Path&gt;" class="s3" d="m319.1 145.9q1 0.6 2 1.4-1-0.8-2-1.4z"/>
			</g>
			<g id="&lt;Group&gt;">
				<path id="&lt;Path&gt;" class="s3" d="m316.5 144.3q1.1 0.7 2.3 1.4-1.2-0.7-2.3-1.4z"/>
			</g>
			<g id="&lt;Group&gt;">
				<path id="&lt;Path&gt;" class="s3" d="m321.5 147.5q1 0.8 2 1.6-1-0.8-2-1.6z"/>
			</g>
			<g id="&lt;Group&gt;">
				<g id="&lt;Group&gt;">
					<path id="&lt;Compound Path&gt;" fill-rule="evenodd" class="s3" d="m264.2 231c-34.4-6.8-78.9-21.1-78.9-21.1 0 0-11-5.4-23.5-3.7q-0.4 0.1-0.9 0.2-0.1 0-0.2 0.1-0.5 0.1-1 0.3-0.1 0.1-0.2 0.1-1.1 0.5-2.4 1.2-0.1 0.1-0.2 0.1-0.6 0.4-1.3 0.8-0.1 0.1-0.2 0.2-1.4 0.9-2.9 2-0.1 0.1-0.2 0.2-0.8 0.6-1.5 1.2-0.1 0.1-0.2 0.1-1.6 1.3-3.4 2.9 0 0-0.1 0.1-0.8 0.7-1.7 1.5-0.1 0.1-0.1 0.1-1.8 1.7-3.7 3.5 0 0 0 0.1-0.9 0.9-1.9 1.8 0 0.1 0 0.1c-13.4 13.7-27 32.5-27.1 42.5-17.5-18.9-28.3-44.3-28.3-72.1q0.1-3.7 0.3-7.4c16.1-0.6 48.2-14.4 55.8-47q0.9-3.6 1.8-7 2.1-7.1 4.7-13.2c0.6 0.4 1.2 0.8 2 1 18.3 6.2 30.1-2.6 24.6-14.9-2.4-5.3-7.9-6-13-6.3q3.7-3.4 8.2-5.9h24.4c0 0 9.5 0 16.7-1.5q0.4 0.2 0.8 0.5c7.4 4.5 13 11.9 17.5 19.6q1 1.8 2 3.6c-1.1-0.4-2.4-0.6-3.8-0.6-3.6 0-6.9 1.5-9.5 4.2-1 1.1-1 2.7 0.1 3.7 0.5 0.5 1.1 0.7 1.8 0.7 0.7 0 1.4-0.3 1.9-0.8 1.6-1.7 3.5-2.6 5.7-2.6 3.1 0 5.2 2.2 5.3 2.3 0.6 0.7 1.6 1 2.5 0.8q0.6 1.3 1.3 2.6c2.2 4.5 4.2 8.5 6.2 11.3 0 0 24-3.1 47.5 0.1-17.8 3.3-33.6 11.9-40.7 30.2-8.9 22.2-2.5 51.3 15.8 64.4zm24.9-94.6q1.3 0.2 2.6 0.4-1.3-0.2-2.6-0.4 0 0 0 0zm2.6 0.4q0.3 0 0.6 0.1-0.3-0.1-0.6-0.1zm-25.7 94.6q0.3 0 0.6 0.1-0.3-0.1-0.6-0.1zm-1.8-0.4q0 0 0 0 0.9 0.2 1.8 0.4-0.9-0.2-1.8-0.4zm-83.3-108c0.7 0 1.4-0.3 1.9-0.8 1.9-1.9 4-2.9 6.4-2.9 3.5 0 5.8 2.5 5.9 2.6 1 1 2.6 1.1 3.7 0.2 1.1-1 1.1-2.7 0.2-3.7-0.2-0.2-3.9-4.3-9.8-4.3-3.8 0-7.4 1.6-10.2 4.5-1 1.1-0.9 2.7 0.1 3.7 0.5 0.5 1.2 0.7 1.8 0.7zm17.2 18.5c0-5.3-1.3-10-3.3-13q-1-1.5-2.2-2.3-0.1-0.1-0.3-0.2-0.2-0.1-0.4-0.2-0.1-0.1-0.3-0.2-0.2-0.1-0.4-0.2-0.2-0.1-0.5-0.1-0.1-0.1-0.2-0.1-0.4-0.1-0.8-0.1-0.5 0-0.9 0.1-0.1 0.1-0.3 0.1-0.2 0.1-0.5 0.2-0.2 0-0.3 0.1-0.3 0.1-0.5 0.2-0.2 0.1-0.3 0.3-0.2 0.1-0.5 0.3-0.1 0.1-0.3 0.2-0.2 0.2-0.4 0.4-0.1 0.2-0.3 0.3-0.2 0.3-0.4 0.5-0.1 0.2-0.3 0.4-0.1 0.2-0.3 0.5-0.1 0.2-0.3 0.4-0.1 0.3-0.3 0.6-0.1 0.2-0.3 0.5-0.1 0.3-0.2 0.6-0.2 0.2-0.3 0.5-0.1 0.3-0.2 0.7-0.1 0.2-0.2 0.6-0.2 0.3-0.3 0.6-0.1 0.3-0.1 0.7-0.1 0.3-0.2 0.7-0.1 0.3-0.2 0.7-0.1 0.3-0.1 0.7-0.1 0.4-0.2 0.7 0 0.4-0.1 0.9 0 0.3-0.1 0.6 0 0.8-0.1 1.6 0 0.8 0 1.7c0 9 3.8 11.7 8.5 11.7 4.6 0 8.4-2.7 8.4-11.7zm37.3-1.9c0-4.9-1.2-9.2-3-12q0 0 0 0-1-1.4-2.1-2.2-0.1 0-0.2-0.1-0.2-0.1-0.4-0.2-0.2-0.1-0.3-0.2-0.2-0.1-0.4-0.1-0.2-0.1-0.4-0.2-0.1 0-0.3 0-0.3-0.1-0.7-0.1-0.4 0-0.8 0.1-0.1 0-0.2 0-0.3 0.1-0.5 0.2-0.2 0-0.3 0.1-0.3 0.1-0.5 0.2-0.1 0.1-0.3 0.2-0.2 0.2-0.4 0.3-0.1 0.1-0.3 0.3-0.2 0.1-0.3 0.3-0.2 0.2-0.3 0.3-0.2 0.2-0.4 0.4-0.1 0.2-0.2 0.4-0.2 0.2-0.4 0.4-0.1 0.2-0.2 0.5-0.2 0.2-0.3 0.5-0.1 0.2-0.2 0.4-0.2 0.3-0.3 0.6-0.1 0.2-0.2 0.5-0.1 0.3-0.3 0.6-0.1 0.2-0.2 0.5-0.1 0.3-0.2 0.6 0 0.3-0.1 0.6-0.1 0.4-0.2 0.7-0.1 0.3-0.1 0.6-0.1 0.4-0.2 0.7 0 0.3-0.1 0.7-0.1 0.4-0.1 0.8 0 0.3-0.1 0.6 0 0.7-0.1 1.4 0 0.8 0 1.6c0 8.3 3.5 10.8 7.8 10.8 4.3 0 7.8-2.5 7.8-10.8z"/>
				</g>
			</g>
			<g id="&lt;Group&gt;">
				<path id="&lt;Path&gt;" class="s3" d="m269 231.9q-1.2-0.2-2.3-0.4 1.1 0.2 2.3 0.4z"/>
			</g>
			<g id="&lt;Group&gt;">
				<path id="&lt;Path&gt;" class="s3" d="m287.7 234.4q-0.6 0-1.2-0.1 0.6 0.1 1.2 0.1z"/>
			</g>
			<g id="&lt;Group&gt;">
				<path id="&lt;Path&gt;" class="s3" d="m285.9 234.3q-0.6-0.1-1.3-0.1 0.7 0 1.3 0.1z"/>
			</g>
			<g id="&lt;Group&gt;">
				<path id="&lt;Path&gt;" class="s3" d="m284.1 234.1q-0.8 0-1.5-0.1 0.7 0.1 1.5 0.1z"/>
			</g>
			<g id="&lt;Group&gt;">
				<path id="&lt;Path&gt;" class="s3" d="m289.4 234.5q-0.5 0-1.1 0 0.6 0 1.1 0z"/>
			</g>
			<g id="&lt;Group&gt;">
				<path id="&lt;Path&gt;" class="s3" d="m291 234.6q-0.5 0-1-0.1 0.5 0.1 1 0.1z"/>
			</g>
			<g id="&lt;Group&gt;">
				<path id="&lt;Path&gt;" class="s3" d="m302.1 138.9q1.5 0.4 2.9 0.8-1.4-0.4-2.9-0.8z"/>
			</g>
			<g id="&lt;Group&gt;">
				<path id="&lt;Path&gt;" class="s3" d="m292.4 136.9q3.2 0.5 6.4 1.2-3.2-0.7-6.4-1.2z"/>
			</g>
			<g id="&lt;Group&gt;">
				<path id="&lt;Path&gt;" class="s3" d="m163.9 281c-6.3-1-3.1-19.8-3.1-19.8 0 0-3.5 19.8-11.9 17.9-7-1.5-2.2-12.8-0.5-16.4-2.1 4.1-9.8 18.3-15.5 16.2-6.6-2.4 3.2-16.3 3.2-16.3 0 0-7.9 10.2-15.1 10.9 12.8 11.1 28.3 19.2 45.3 23.2q0.1-0.1 0.2-0.2c4.5-5.6 8-11.8 10.7-18.2-3.5-3.7-3.9-14.3-3.9-14.3 0 0-3.1 18.1-9.4 17z"/>
			</g>
			<g id="&lt;Group&gt;">
				<path id="&lt;Path&gt;" class="s3" d="m280.2 233.7q-4.2-0.6-8.9-1.4 4.7 0.8 8.9 1.4z"/>
			</g>
			<g id="&lt;Group&gt;">
				<path id="&lt;Path&gt;" class="s3" d="m271.3 232.3q-1.1-0.2-2.3-0.4 1.2 0.2 2.3 0.4z"/>
			</g>
			<g id="&lt;Group&gt;">
				<path id="&lt;Path&gt;" class="s3" d="m282.1 233.9q-0.9-0.1-1.9-0.2 1 0.1 1.9 0.2z"/>
			</g>
			<g id="&lt;Group&gt;">
				<g id="&lt;Group&gt;">
					<path id="&lt;Compound Path&gt;" fill-rule="evenodd" class="s4" d="m293.1 234.6q-0.2 0-0.5 0-0.5 0-1 0-0.3 0-0.6 0-0.5 0-1-0.1-0.3 0-0.6 0-0.5 0-1.1 0-0.3-0.1-0.6-0.1-0.6 0-1.2-0.1-0.3 0-0.6 0-0.6-0.1-1.3-0.1-0.3 0-0.5-0.1-0.8 0-1.5-0.1-0.2-0.1-0.5-0.1-0.9-0.1-1.9-0.2 0 0 0 0-4.2-0.6-8.9-1.4 0 0 0 0-1.1-0.2-2.3-0.4 0 0 0 0-1.2-0.2-2.3-0.4-0.1 0-0.1 0-1.2-0.3-2.4-0.5c-18.3-13.1-24.7-42.2-15.8-64.4 7.1-18.3 22.9-26.9 40.7-30.2q1.6 0.2 3.2 0.5 0.1 0 0.1 0 3.2 0.5 6.4 1.2 0 0 0 0 1.5 0.3 3 0.7 0.1 0.1 0.3 0.1 1.5 0.4 2.9 0.8 0.1 0 0.1 0.1 2.9 0.8 5.7 1.9 0.1 0.1 0.3 0.1 1.3 0.6 2.5 1.1 0.2 0.1 0.4 0.2 1.2 0.6 2.4 1.2 0 0 0.1 0 1.1 0.7 2.3 1.4 0.1 0.1 0.3 0.2 1 0.6 2 1.4 0.2 0.1 0.4 0.2 1 0.8 2 1.6 0.1 0.1 0.2 0.2 0.9 0.8 1.7 1.6 0.1 0.1 0.2 0.2 0.8 0.9 1.6 1.8 0.2 0.2 0.3 0.4 0.7 0.9 1.4 1.9 0.1 0.2 0.2 0.3 0.7 1.1 1.3 2.2c15.6 30.8-8.4 74.1-34.5 76.7q-0.6 0.1-1.3 0.1-0.2 0-0.5 0-0.5 0-1 0.1zm19.6-34c4.8-2.5 10.7-34.1 1.7-34.9-9-0.8-16 42.1-1.7 34.9zm-40.6-32.2c-8.4 3.3 4.4 44.8 14 31.9 3.2-4.3-5.6-35.2-14-31.9z"/>
				</g>
			</g>
			<g id="&lt;Group&gt;">
				<path id="&lt;Path&gt;" class="s4" d="m188.4 220.3q0.1 1 0.3 2.1-0.2-1.1-0.3-2.1z"/>
			</g>
			<g id="&lt;Group&gt;">
				<path id="&lt;Path&gt;" class="s4" d="m188.7 222.5q0.1 1.1 0.2 2.3-0.1-1.2-0.2-2.3z"/>
			</g>
			<g id="&lt;Group&gt;">
				<path id="&lt;Path&gt;" class="s4" d="m187.1 214.3q0.2 0.8 0.4 1.7-0.2-0.9-0.4-1.7z"/>
			</g>
			<g id="&lt;Group&gt;">
				<path id="&lt;Path&gt;" class="s4" d="m185.3 209.9q0.3 0.5 0.6 1.2-0.3-0.7-0.6-1.2z"/>
			</g>
			<g id="&lt;Group&gt;">
				<path id="&lt;Path&gt;" class="s4" d="m186 211.2q0.3 0.6 0.5 1.3-0.2-0.7-0.5-1.3z"/>
			</g>
			<g id="&lt;Group&gt;">
				<path id="&lt;Path&gt;" class="s4" d="m186.6 212.7q0.2 0.7 0.5 1.4-0.3-0.7-0.5-1.4z"/>
			</g>
			<g id="&lt;Group&gt;">
				<path id="&lt;Path&gt;" class="s4" d="m187.6 216.2q0.2 0.8 0.4 1.8-0.2-1-0.4-1.8z"/>
			</g>
			<g id="&lt;Group&gt;">
				<path id="&lt;Path&gt;" class="s4" d="m188 218.1q0.2 1 0.3 2-0.1-1-0.3-2z"/>
			</g>
			<g id="&lt;Group&gt;">
				<path id="&lt;Path&gt;" class="s4" d="m145.4 217.2q0.9-0.8 1.7-1.5-0.8 0.7-1.7 1.5z"/>
			</g>
			<g id="&lt;Group&gt;">
				<path id="&lt;Path&gt;" class="s4" d="m150.8 212.6q0.7-0.6 1.5-1.2-0.8 0.6-1.5 1.2z"/>
			</g>
			<g id="&lt;Group&gt;">
				<path id="&lt;Path&gt;" class="s4" d="m147.2 215.6q1.8-1.6 3.4-2.9-1.6 1.3-3.4 2.9z"/>
			</g>
			<g id="&lt;Group&gt;">
				<path id="&lt;Path&gt;" class="s4" d="m139.7 222.7q1-0.9 1.9-1.8-0.9 0.9-1.9 1.8z"/>
			</g>
			<g id="&lt;Group&gt;">
				<path id="&lt;Path&gt;" class="s4" d="m141.6 220.8q1.9-1.8 3.7-3.5-1.8 1.7-3.7 3.5z"/>
			</g>
			<g id="&lt;Group&gt;">
				<path id="&lt;Path&gt;" class="s4" d="m152.5 211.2q1.5-1.1 2.9-2-1.4 0.9-2.9 2z"/>
			</g>
			<g id="&lt;Group&gt;">
				<path id="&lt;Path&gt;" class="s4" d="m159.7 206.8q0.5-0.2 1-0.3-0.5 0.1-1 0.3z"/>
			</g>
			<g id="&lt;Group&gt;">
				<path id="&lt;Path&gt;" class="s4" d="m160.9 206.4q0.5-0.1 0.9-0.2-0.4 0.1-0.9 0.2z"/>
			</g>
			<g id="&lt;Group&gt;">
				<path id="&lt;Path&gt;" class="s4" d="m157.1 208.1q1.3-0.7 2.4-1.2-1.1 0.5-2.4 1.2z"/>
			</g>
			<g id="&lt;Group&gt;">
				<path id="&lt;Path&gt;" class="s4" d="m155.6 209q0.7-0.4 1.3-0.8-0.6 0.4-1.3 0.8z"/>
			</g>
			<g id="&lt;Group&gt;">
				<path id="&lt;Path&gt;" class="s4" d="m188.9 224.8q-0.1-1.2-0.2-2.3 0-0.1 0-0.1-0.2-1.1-0.3-2.1 0-0.1-0.1-0.2-0.1-1-0.3-2 0-0.1 0-0.1-0.2-1-0.4-1.8 0-0.1-0.1-0.2-0.2-0.9-0.4-1.7 0-0.1 0-0.2-0.3-0.7-0.5-1.4-0.1-0.1-0.1-0.2-0.2-0.7-0.5-1.3-0.1-0.1-0.1-0.1-0.3-0.7-0.6-1.2c0 0-11-5.4-23.5-3.7q-0.4 0.1-0.9 0.2-0.1 0-0.2 0.1-0.5 0.1-1 0.3-0.1 0.1-0.2 0.1-1.1 0.5-2.4 1.2-0.1 0.1-0.2 0.1-0.6 0.4-1.3 0.8-0.1 0.1-0.2 0.2-1.4 0.9-2.9 2-0.1 0.1-0.2 0.2-0.8 0.6-1.5 1.2-0.1 0.1-0.2 0.1-1.6 1.3-3.4 2.9 0 0-0.1 0.1-0.8 0.7-1.7 1.5-0.1 0.1-0.1 0.1-1.8 1.7-3.7 3.5 0 0 0 0.1-0.9 0.9-1.9 1.8 0 0.1 0 0.1-0.8 0.8-1.6 1.7-0.3 0.2-0.5 0.5-0.8 0.8-1.6 1.7 0 0 0 0.1c-12.1 13.1-23.3 29.4-23.4 38.5q4 4.4 8.4 8.2c7.2-0.7 15.1-10.9 15.1-10.9 0 0-9.8 13.9-3.2 16.3 5.7 2.1 13.4-12.1 15.5-16.2-1.7 3.6-6.5 14.9 0.5 16.4 8.4 1.9 11.9-17.9 11.9-17.9 0 0-3.2 18.8 3.1 19.8 6.3 1.1 9.4-17 9.4-17 0 0 0.4 10.6 3.9 14.3 1.1 1.1 2.4 1.6 4.1 1 5.6-2.2 9.5-33.8 7.6-54.5z"/>
			</g>
			<g id="&lt;Group&gt;" style="opacity: .1;mix-blend-mode: overlay">
				<path id="&lt;Path&gt;" class="s5" d="m161.8 206.2q-0.4 0.1-0.9 0.2-0.1 0-0.2 0.1-0.5 0.1-1 0.3-0.1 0.1-0.2 0.1-1.1 0.5-2.4 1.2-0.1 0.1-0.2 0.1-0.6 0.4-1.3 0.8-0.1 0.1-0.2 0.2-1.4 0.9-2.9 2-0.1 0.1-0.2 0.2-0.8 0.6-1.5 1.2-0.1 0.1-0.2 0.1-1.6 1.3-3.4 2.9 0 0-0.1 0.1-0.8 0.7-1.7 1.5-0.1 0.1-0.1 0.1-1.8 1.7-3.7 3.5 0 0 0 0.1-0.9 0.9-1.9 1.8 0 0.1 0 0.1-1.9 1.9-3.7 4c16.9-6.3 35.5-6.9 52.9-2q-0.1-1.2-0.2-2.3 0-0.1 0-0.1-0.2-1.1-0.3-2.1 0-0.1-0.1-0.2-0.1-1-0.3-2 0-0.1 0-0.1-0.2-1-0.4-1.8 0-0.1-0.1-0.2-0.2-0.9-0.4-1.7 0-0.1 0-0.2-0.3-0.7-0.5-1.4-0.1-0.1-0.1-0.2-0.2-0.7-0.5-1.3-0.1-0.1-0.1-0.1-0.3-0.7-0.6-1.2c0 0-11-5.4-23.5-3.7z"/>
			</g>
			<g id="&lt;Group&gt;">
				<path id="&lt;Path&gt;" class="s6" d="m272.1 168.4c-8.4 3.3 4.4 44.8 14 31.9 3.2-4.3-5.6-35.2-14-31.9z"/>
			</g>
			<g id="&lt;Group&gt;">
				<path id="&lt;Path&gt;" class="s6" d="m312.7 200.6c4.8-2.5 10.7-34.1 1.7-34.9-9-0.8-16 42.1-1.7 34.9z"/>
			</g>
			<path id="&lt;Path&gt;" class="s2" d="m148.9 119.6c18.3 6.2 30.1-2.6 24.6-14.9-2.4-5.3-7.9-6-13-6.3-6.7-0.3-12.8 0-11-8.2 3.2-14.6 15.6-43.6 8.9-50-6.7-6.4-21 11.1-21.4 31.9-0.5 20.8-10.7 17.3-13.4 12.3-2.6-5 11.4-41.9 6-52-5.3-10.1-20.8-0.7-22.2 17.3-1.4 18.1-2.5 34.4-9.4 32.4-6.9-1.9 5.6-37-2.5-46.1-8.1-9.1-29.6 0-19.7 49.8 5.4 27.2 9.9 28.2 38.1 24.7 18.4-2.3 25 1.4 29.2 4.8 1.4 1.2 2.6 2.4 3.8 3.3 0.6 0.4 1.2 0.8 2 1z"/>
			<path id="&lt;Path&gt;" class="s3" d="m193.1 92.5c0 0 9.5 0 16.7-1.5q0.3-0.1 0.6-0.2c4.6-1 8.2-2.8 7.1-5.6-1.5-3.8-6.3-4.7-10.6-4.6-4.2 0-7.9 0.8-7.9 0.8 0 0 3.8-1.9 6.7-4.1 2.9-2.3 5-5.1 1.3-6.6-1.1-0.4-2.4-0.5-3.9-0.3-8.4 1.2-21.5 11.3-21.5 11.3 0 0 10.1-12.5 2.8-10.8-7.3 1.7-15.7 21.6-15.7 21.6z"/>
			<g id="&lt;Group&gt;">
				<path id="&lt;Path&gt;" class="s6" d="m183.5 130.2q0.2-0.3 0.3-0.5-0.1 0.2-0.3 0.5z"/>
			</g>
			<g id="&lt;Group&gt;">
				<path id="&lt;Path&gt;" class="s6" d="m183 131.3q0.1-0.3 0.3-0.5-0.2 0.2-0.3 0.5z"/>
			</g>
			<g id="&lt;Group&gt;">
				<path id="&lt;Path&gt;" class="s6" d="m184.1 129.1q0.2-0.2 0.3-0.4-0.1 0.2-0.3 0.4z"/>
			</g>
			<g id="&lt;Group&gt;">
				<path id="&lt;Path&gt;" class="s6" d="m181.8 135.3q0.1-0.4 0.2-0.7-0.1 0.3-0.2 0.7z"/>
			</g>
			<g id="&lt;Group&gt;">
				<path id="&lt;Path&gt;" class="s6" d="m182.6 132.6q0.1-0.4 0.2-0.6-0.1 0.2-0.2 0.6z"/>
			</g>
			<g id="&lt;Group&gt;">
				<path id="&lt;Path&gt;" class="s6" d="m191.9 125.8q0.2 0.1 0.4 0.2-0.2-0.1-0.4-0.2z"/>
			</g>
			<g id="&lt;Group&gt;">
				<path id="&lt;Path&gt;" class="s6" d="m182.2 133.9q0-0.4 0.1-0.7-0.1 0.3-0.1 0.7z"/>
			</g>
			<g id="&lt;Group&gt;">
				<path id="&lt;Path&gt;" class="s6" d="m190.5 125.2q0.1 0 0.2 0.1-0.1-0.1-0.2-0.1z"/>
			</g>
			<g id="&lt;Group&gt;">
				<path id="&lt;Path&gt;" class="s6" d="m187.7 125.6q0.1-0.1 0.3-0.1-0.2 0-0.3 0.1z"/>
			</g>
			<g id="&lt;Group&gt;">
				<path id="&lt;Path&gt;" class="s6" d="m186.9 126.1q0.1-0.2 0.3-0.3-0.2 0.1-0.3 0.3z"/>
			</g>
			<g id="&lt;Group&gt;">
				<path id="&lt;Path&gt;" class="s6" d="m186.1 126.6q0.2-0.1 0.3-0.2-0.1 0.1-0.3 0.2z"/>
			</g>
			<g id="&lt;Group&gt;">
				<path id="&lt;Path&gt;" class="s6" d="m188.5 125.3q0.2 0 0.3-0.1-0.1 0.1-0.3 0.1z"/>
			</g>
			<g id="&lt;Group&gt;">
				<path id="&lt;Path&gt;" class="s6" d="m184.7 128.2q0.2-0.2 0.3-0.4-0.1 0.2-0.3 0.4z"/>
			</g>
			<g id="&lt;Group&gt;">
				<path id="&lt;Path&gt;" class="s6" d="m185.4 127.3q0.2-0.1 0.3-0.3-0.1 0.2-0.3 0.3z"/>
			</g>
			<g id="&lt;Group&gt;">
				<path id="&lt;Path&gt;" class="s6" d="m191.2 125.4q0.2 0.1 0.4 0.2-0.2-0.1-0.4-0.2z"/>
			</g>
			<g id="&lt;Group&gt;">
				<path id="&lt;Path&gt;" class="s6" d="m181.3 138.2q0.1-0.3 0.1-0.6 0 0.3-0.1 0.6z"/>
			</g>
			<g id="&lt;Group&gt;">
				<path id="&lt;Path&gt;" class="s6" d="m194.8 128.5q-1-1.5-2.2-2.3 1.2 0.9 2.2 2.3z"/>
			</g>
			<g id="&lt;Group&gt;">
				<path id="&lt;Path&gt;" class="s6" d="m189.2 137.6c-2.4 1.4-5.2 2.1-8 2.2q0 0 0 0 0 0.8 0 1.7c0 9 3.8 11.7 8.5 11.7 4.6 0 8.4-2.7 8.4-11.7 0-5.3-1.3-10-3.3-13-0.7 3.8-3.2 7.3-5.6 9.1z"/>
			</g>
			<g id="&lt;Group&gt;">
				<path id="&lt;Path&gt;" class="s6" d="m181.5 136.7q0.1-0.3 0.2-0.7-0.1 0.4-0.2 0.7z"/>
			</g>
			<g id="&lt;Group&gt;">
				<path id="&lt;Path&gt;" class="s7" d="m189.2 137.6c2.4-1.8 4.9-5.3 5.6-9.1q-1-1.4-2.2-2.3-0.1-0.1-0.3-0.2-0.2-0.1-0.4-0.2-0.1-0.1-0.3-0.2-0.2-0.1-0.4-0.2-0.2-0.1-0.5-0.1-0.1-0.1-0.2-0.1-0.4-0.1-0.8-0.1-0.5 0-0.9 0.1-0.1 0.1-0.3 0.1-0.2 0.1-0.5 0.2-0.2 0-0.3 0.1-0.3 0.1-0.5 0.2-0.2 0.1-0.3 0.3-0.2 0.1-0.5 0.3-0.1 0.1-0.3 0.2-0.2 0.2-0.4 0.4-0.1 0.2-0.3 0.3-0.2 0.3-0.4 0.5-0.1 0.2-0.3 0.4-0.1 0.2-0.3 0.5-0.1 0.2-0.3 0.4-0.1 0.3-0.3 0.6-0.1 0.2-0.3 0.5-0.1 0.3-0.2 0.6-0.2 0.2-0.3 0.5-0.1 0.3-0.2 0.7-0.1 0.2-0.2 0.6-0.2 0.3-0.3 0.6-0.1 0.3-0.1 0.7-0.1 0.3-0.2 0.7-0.1 0.3-0.2 0.7-0.1 0.3-0.1 0.7-0.1 0.4-0.2 0.7 0 0.4-0.1 0.9 0 0.3-0.1 0.6 0 0.8-0.1 1.6 0 0 0 0c2.8-0.1 5.6-0.8 8-2.2z"/>
			</g>
			<g id="&lt;Group&gt;">
				<path id="&lt;Path&gt;" class="s6" d="m227.1 136c-2.1 1.3-4.7 1.9-7.3 2q0 0 0 0 0 0.8 0 1.6c0 8.3 3.5 10.8 7.8 10.8 4.3 0 7.8-2.5 7.8-10.8 0-4.9-1.2-9.2-3-12-0.7 3.5-3 6.7-5.3 8.4z"/>
			</g>
			<g id="&lt;Group&gt;">
				<path id="&lt;Path&gt;" class="s6" d="m222.5 128.2q0.1-0.3 0.2-0.5-0.1 0.2-0.2 0.5z"/>
			</g>
			<g id="&lt;Group&gt;">
				<path id="&lt;Path&gt;" class="s6" d="m223.1 127.3q0.1-0.2 0.2-0.4-0.1 0.2-0.2 0.4z"/>
			</g>
			<g id="&lt;Group&gt;">
				<path id="&lt;Path&gt;" class="s6" d="m222 129.1q0.1-0.2 0.2-0.4-0.1 0.2-0.2 0.4z"/>
			</g>
			<g id="&lt;Group&gt;">
				<path id="&lt;Path&gt;" class="s6" d="m223.7 126.5q0.1-0.1 0.3-0.3-0.2 0.2-0.3 0.3z"/>
			</g>
			<g id="&lt;Group&gt;">
				<path id="&lt;Path&gt;" class="s6" d="m221 131.3q0.1-0.3 0.2-0.5-0.1 0.2-0.2 0.5z"/>
			</g>
			<g id="&lt;Group&gt;">
				<path id="&lt;Path&gt;" class="s6" d="m221.5 130.2q0.1-0.3 0.2-0.5-0.1 0.2-0.2 0.5z"/>
			</g>
			<g id="&lt;Group&gt;">
				<path id="&lt;Path&gt;" class="s6" d="m224.3 125.9q0.2-0.2 0.3-0.3-0.1 0.1-0.3 0.3z"/>
			</g>
			<g id="&lt;Group&gt;">
				<path id="&lt;Path&gt;" class="s6" d="m226.6 124.6q0.1 0 0.2 0-0.1 0-0.2 0z"/>
			</g>
			<g id="&lt;Group&gt;">
				<path id="&lt;Path&gt;" class="s6" d="m225.8 124.9q0.1-0.1 0.3-0.1-0.2 0-0.3 0.1z"/>
			</g>
			<g id="&lt;Group&gt;">
				<path id="&lt;Path&gt;" class="s6" d="m225 125.3q0.2-0.1 0.3-0.2-0.1 0.1-0.3 0.2z"/>
			</g>
			<g id="&lt;Group&gt;">
				<path id="&lt;Path&gt;" class="s6" d="m228.3 124.6q0.2 0 0.3 0-0.1 0-0.3 0z"/>
			</g>
			<g id="&lt;Group&gt;">
				<path id="&lt;Path&gt;" class="s6" d="m220.7 132.5q0.1-0.3 0.1-0.6 0 0.3-0.1 0.6z"/>
			</g>
			<g id="&lt;Group&gt;">
				<path id="&lt;Path&gt;" class="s6" d="m229.7 125.1q0.2 0.1 0.4 0.2-0.2-0.1-0.4-0.2z"/>
			</g>
			<g id="&lt;Group&gt;">
				<path id="&lt;Path&gt;" class="s6" d="m229 124.8q0.2 0 0.4 0.1-0.2-0.1-0.4-0.1z"/>
			</g>
			<g id="&lt;Group&gt;">
				<path id="&lt;Path&gt;" class="s6" d="m232.4 127.6q-1-1.4-2.1-2.2 1.1 0.8 2.1 2.2z"/>
			</g>
			<g id="&lt;Group&gt;">
				<path id="&lt;Path&gt;" class="s6" d="m220.1 135.2q0.1-0.4 0.1-0.7 0 0.3-0.1 0.7z"/>
			</g>
			<g id="&lt;Group&gt;">
				<path id="&lt;Path&gt;" class="s6" d="m220.4 133.8q0-0.3 0.1-0.6-0.1 0.3-0.1 0.6z"/>
			</g>
			<g id="&lt;Group&gt;">
				<path id="&lt;Path&gt;" class="s6" d="m219.9 136.6q0.1-0.3 0.1-0.6 0 0.3-0.1 0.6z"/>
			</g>
			<g id="&lt;Group&gt;">
				<path id="&lt;Path&gt;" class="s7" d="m227.1 136c2.3-1.7 4.6-4.9 5.3-8.4q0 0 0 0-1-1.4-2.1-2.2-0.1 0-0.2-0.1-0.2-0.1-0.4-0.2-0.2-0.1-0.3-0.2-0.2-0.1-0.4-0.1-0.2-0.1-0.4-0.2-0.1 0-0.3 0-0.3-0.1-0.7-0.1-0.4 0-0.8 0.1-0.1 0-0.2 0-0.3 0.1-0.5 0.2-0.2 0-0.3 0.1-0.3 0.1-0.5 0.2-0.1 0.1-0.3 0.2-0.2 0.2-0.4 0.3-0.1 0.1-0.3 0.3-0.2 0.1-0.3 0.3-0.2 0.2-0.3 0.3-0.2 0.2-0.4 0.4-0.1 0.2-0.2 0.4-0.2 0.2-0.4 0.4-0.1 0.2-0.2 0.5-0.2 0.2-0.3 0.5-0.1 0.2-0.2 0.4-0.2 0.3-0.3 0.6-0.1 0.2-0.2 0.5-0.1 0.3-0.3 0.6-0.1 0.2-0.2 0.5-0.1 0.3-0.2 0.6 0 0.3-0.1 0.6-0.1 0.4-0.2 0.7-0.1 0.3-0.1 0.6-0.1 0.4-0.2 0.7 0 0.3-0.1 0.7-0.1 0.4-0.1 0.8 0 0.3-0.1 0.6 0 0.7-0.1 1.4 0 0 0 0c2.6-0.1 5.2-0.7 7.3-2z"/>
			</g>
			<path id="&lt;Path&gt;" class="s8" d="m189.2 119.3c3.5 0 5.8 2.5 5.9 2.6 1 1 2.6 1.1 3.7 0.2 1.1-1 1.1-2.7 0.2-3.7-0.2-0.2-3.9-4.3-9.8-4.3-3.8 0-7.4 1.6-10.2 4.5-1 1.1-0.9 2.7 0.1 3.7 0.5 0.5 1.2 0.7 1.8 0.7 0.7 0 1.4-0.3 1.9-0.8 1.9-1.9 4-2.9 6.4-2.9z"/>
			<path id="&lt;Path&gt;" class="s8" d="m235.5 118.1c-0.1-0.1-2.1-2.3-5.4-3.4-1.1-0.4-2.4-0.6-3.8-0.6-3.6 0-6.9 1.5-9.5 4.2-1 1.1-1 2.7 0.1 3.7 0.5 0.5 1.1 0.7 1.8 0.7 0.7 0 1.4-0.3 1.9-0.8 1.6-1.7 3.5-2.6 5.7-2.6 3.1 0 5.2 2.2 5.3 2.3 0.6 0.7 1.6 1 2.5 0.8q0.6-0.1 1.2-0.6c1-1 1.1-2.6 0.2-3.7z"/>
		</g>
	</g>
</svg>