<svg version="1.2" xmlns="http://www.w3.org/2000/svg" viewBox="0 0 429 403" width="429" height="403">
	<title>PenguinAvatar</title>
	<style>
		.s0 { fill: #4ab6b8 } 
		.s1 { fill: #2b0020 } 
		.s2 { fill: #4b2640 } 
		.s3 { fill: #f6db99 } 
		.s4 { fill: #000000 } 
		.s5 { fill: #dd800b } 
		.s6 { fill: #e39635 } 
		.s7 { fill: #ffffff } 
	</style>
	<g id="&lt;Group&gt;">
		<g id="&lt;Group&gt;">
			<path id="&lt;Path&gt;" class="s0" d="m304.5 239.9c0 58.7-47.6 106.3-106.3 106.3-58.7 0-106.3-47.6-106.3-106.3 0-58.7 47.6-106.3 106.3-106.3 58.7 0 106.3 47.6 106.3 106.3z"/>
		</g>
		<g id="&lt;Group&gt;">
			<path id="&lt;Path&gt;" class="s1" d="m322.3 238.6c-2.8-7.6-30-22.6-48.4-32.1-8.5-4.3-14.4-12.3-16.2-21.7-6.6-35.2-16.8-73.9-48.4-86.6-44.6-17.9-86.9 18.8-83.6 79.7 0.2 5.1 0.3 10.4 0.3 15.8-0.1 8.2-3.5 16.1-9.4 21.8-16.7 16.2-45.2 45.2-45.7 55-0.5 9.1 23.9 7.5 47.6-5.4-2.4 13.9-5.1 26.3-7.3 36 19.3 27.3 51 45.1 87 45.1 39.5 0 73.9-21.5 92.2-53.4-5.4-11.6-14.9-23.1-19.7-49.1 26.8 8.7 54.8 3.5 51.6-5.1z"/>
		</g>
		<g id="&lt;Group&gt;">
			<path id="&lt;Path&gt;" class="s2" d="m150.6 148.1c28.3 8.7 56.5-1 80.4-14.1 5.2-2.7 7.4-5.8 7.5-9.1-7-11.9-16.3-21.5-29.2-26.7-31.6-12.7-62 2.1-75.9 33.4 3.1 7.8 8.7 14 17.2 16.5z"/>
		</g>
		<g id="&lt;Group&gt;">
			<path id="&lt;Path&gt;" class="s3" d="m184.3 182.9c-46.9 34.7-52.1 93.1-42.3 147.2 16.3 10.2 35.6 16.1 56.2 16.1 33 0 62.5-15 82-38.7-24.2-30.4-19.5-74-36.2-109.4-10.9-22.8-40.2-30.4-59.7-15.2z"/>
		</g>
		<g id="&lt;Group&gt;" style="opacity: .5;mix-blend-mode: overlay">
			<path id="&lt;Path&gt;" class="s4" d="m223.3 192.1c2.5-2.5 3.5-6.8 4.6-11.5-11.9-7-26.9-7.7-39.2-0.7 12 7.8 24.8 20.2 34.6 12.2z"/>
		</g>
		<g id="&lt;Group&gt;">
			<path id="&lt;Path&gt;" class="s5" d="m173.4 153.9c0 0 34 35.8 44.5 33.3 10.5-2.5 6.5-38.7 4.4-41.2-2.2-2.6-48.9 7.9-48.9 7.9z"/>
		</g>
		<g id="&lt;Group&gt;" style="opacity: .3;mix-blend-mode: overlay">
			<path id="&lt;Path&gt;" class="s4" d="m218.7 146.7c0 0 2.1 30-1.9 31.5-3.9 1.4-30-20.7-30-20.7 0 0 23-8.3 31.9-10.8z"/>
		</g>
		<g id="&lt;Group&gt;">
			<path id="&lt;Path&gt;" class="s6" d="m182.1 142.1c0 0 2.2-10.6 13.6-12.9 11.4-2.2 10.5 6.7 19.6 5.8 14.9-1.4 26-19 36.8-15.9 7.8 2.3-6.7 24.7-35 34.8-27.3 9.8-39.9 6.3-43.7 0-3.8-6.3 8.7-11.8 8.7-11.8z"/>
		</g>
		<g id="&lt;Group&gt;" style="opacity: .5;mix-blend-mode: overlay">
			<path id="&lt;Path&gt;" class="s4" d="m202 313.4c-5.3 0-10.9-0.6-16.7-2-1.4-0.3-2.3-1.8-2-3.3 0.4-1.4 1.8-2.3 3.3-2 32 7.8 56.5-11.7 56.8-11.9 1.1-1 2.8-0.8 3.8 0.4 0.9 1.2 0.7 2.9-0.4 3.8-0.9 0.7-18.9 15-44.8 15z"/>
		</g>
		<g id="&lt;Group&gt;" style="opacity: .5;mix-blend-mode: overlay">
			<path id="&lt;Path&gt;" class="s4" d="m209.1 324.2c-3.3 0-6.9-0.4-10.7-1.4-1.4-0.4-2.3-1.9-1.9-3.3 0.4-1.5 1.9-2.3 3.4-1.9 14.6 3.9 25.7-2.9 25.8-3 1.3-0.8 3-0.4 3.8 0.9 0.8 1.2 0.4 2.9-0.9 3.7-0.4 0.3-8.1 5-19.5 5z"/>
		</g>
		<g id="&lt;Group&gt;">
			<g id="&lt;Group&gt;">
				<path id="&lt;Path&gt;" class="s1" d="m180.1 129.4c-1-5-3.1-9.1-5.5-11.5 0 3.6-1.6 7.3-3.6 9.5-1.9 1.8-4.4 3-7 3.6q0 0 0 0 0.1 0.8 0.3 1.6c1.7 8.5 5.8 10.3 10.1 9.4 4.4-0.9 7.5-4.2 5.7-12.6z"/>
			</g>
			<g id="&lt;Group&gt;">
				<path id="&lt;Path&gt;" class="s7" d="m171 127.4c2-2.2 3.6-5.9 3.6-9.5q0 0 0 0-1.2-1.2-2.5-1.8-0.2-0.1-0.3-0.1-0.2-0.1-0.4-0.2-0.2 0-0.4-0.1-0.2 0-0.4 0-0.2-0.1-0.5-0.1-0.1 0-0.2 0-0.4 0-0.8 0.1-0.4 0.1-0.8 0.2-0.1 0.1-0.2 0.1-0.3 0.1-0.5 0.3-0.1 0.1-0.3 0.2-0.2 0.1-0.4 0.3-0.1 0.1-0.2 0.3-0.2 0.1-0.4 0.3-0.1 0.2-0.2 0.4-0.2 0.2-0.3 0.4-0.1 0.2-0.3 0.4-0.1 0.2-0.2 0.4-0.1 0.2-0.2 0.5-0.1 0.2-0.3 0.5 0 0.2-0.1 0.5-0.1 0.2-0.2 0.5-0.1 0.3-0.2 0.6 0 0.3-0.1 0.6-0.1 0.2-0.1 0.5-0.1 0.3-0.1 0.7-0.1 0.3-0.1 0.6-0.1 0.3-0.1 0.6 0 0.4-0.1 0.7 0 0.3 0 0.7 0 0.3 0 0.7 0 0.3 0 0.7 0 0.3 0 0.7 0 0.4 0.1 0.8 0 0.3 0 0.6 0.1 0.7 0.2 1.5 0 0 0 0c2.6-0.6 5.1-1.8 7-3.6z"/>
			</g>
			<g id="&lt;Group&gt;">
				<path id="&lt;Path&gt;" class="s1" d="m159.2 110c-0.7 1.1-0.4 2.4 0.6 3 0.5 0.3 1.1 0.4 1.6 0.3 0.6-0.1 1.1-0.4 1.4-1 1.4-2.2 3.3-3.5 5.7-4 3.4-0.7 6.2 1.2 6.2 1.3 1 0.7 2.3 0.5 3-0.5 0.8-0.9 0.6-2.3-0.4-3-0.2-0.1-4.3-3.2-9.7-2.1-3.6 0.8-6.4 2.8-8.4 6z"/>
			</g>
			<g id="&lt;Group&gt;">
				<path id="&lt;Path&gt;" class="s1" d="m212.2 115.8c-1.9 1.7-4.4 2.9-7 3.5q0 0 0 0 0.1 0.8 0.3 1.6c1.7 8.5 5.7 10.3 10.1 9.4 4.4-0.9 7.4-4.2 5.7-12.6-1-5-3.1-9.1-5.5-11.5 0 3.7-1.6 7.3-3.6 9.6z"/>
			</g>
			<g id="&lt;Group&gt;">
				<path id="&lt;Path&gt;" class="s7" d="m212.2 115.8c2-2.3 3.6-5.9 3.6-9.6q0 0 0 0-1.3-1.2-2.6-1.8-0.1-0.1-0.2-0.1-0.2-0.1-0.5-0.2-0.2 0-0.3-0.1-0.2 0-0.4 0-0.2-0.1-0.5-0.1-0.1 0-0.3 0-0.3 0-0.7 0.1-0.4 0.1-0.8 0.2-0.1 0.1-0.2 0.1-0.3 0.2-0.5 0.3-0.2 0.1-0.3 0.2-0.2 0.1-0.4 0.3-0.1 0.1-0.2 0.3-0.2 0.1-0.4 0.3-0.1 0.2-0.2 0.4-0.2 0.2-0.3 0.4-0.2 0.2-0.3 0.4-0.1 0.2-0.2 0.4-0.1 0.2-0.2 0.5-0.2 0.2-0.3 0.5-0.1 0.2-0.1 0.5-0.1 0.2-0.2 0.5-0.1 0.3-0.2 0.6-0.1 0.3-0.1 0.6-0.1 0.2-0.2 0.5 0 0.4-0.1 0.7 0 0.3-0.1 0.6 0 0.3 0 0.7-0.1 0.3-0.1 0.6 0 0.3 0 0.7 0 0.3 0 0.7 0 0.3 0 0.7 0 0.3 0 0.7 0 0.4 0 0.8 0.1 0.3 0.1 0.6 0.1 0.8 0.2 1.5 0 0 0 0c2.6-0.6 5.1-1.8 7-3.5z"/>
			</g>
			<g id="&lt;Group&gt;">
				<path id="&lt;Path&gt;" class="s1" d="m197.1 100.5c-0.6 1-0.3 2.4 0.7 3 0.5 0.3 1 0.4 1.5 0.3 0.6-0.1 1.1-0.5 1.4-1 1.4-2.2 3.3-3.6 5.7-4.1 3.4-0.6 6.2 1.3 6.3 1.4 0.5 0.3 1.1 0.4 1.7 0.3 0.5-0.1 0.9-0.3 1.3-0.8 0.7-0.9 0.5-2.3-0.5-3-0.1-0.1-1.1-0.8-2.8-1.5-1.7-0.6-4.1-1.1-6.8-0.6-3.6 0.7-6.5 2.8-8.5 6z"/>
			</g>
		</g>
		<g id="&lt;Group&gt;">
			<path id="&lt;Path&gt;" class="s5" d="m199.1 139c0 0-6.6-3.8-6.9-1.3-0.3 2.6 5.5 6.1 6.9 1.3z"/>
		</g>
	</g>
</svg>