<svg version="1.2" xmlns="http://www.w3.org/2000/svg" viewBox="0 0 340 439" width="340" height="439">
	<title>&lt;Group&gt;</title>
	<style>
		.s0 { fill: #4ab6b8 } 
		.s1 { fill: #f98c87 } 
		.s2 { fill: #f6caa6 } 
		.s3 { fill: #000000 } 
		.s4 { fill: #2b0020 } 
		.s5 { fill: #ffffff } 
	</style>
	<g id="&lt;Group&gt;">
		<g id="&lt;Group&gt;">
			<path id="&lt;Path&gt;" class="s0" d="m271.3 253.2c0 58.7-47.6 106.3-106.3 106.3-58.7 0-106.3-47.6-106.3-106.3 0-58.7 47.6-106.3 106.3-106.3 58.7 0 106.3 47.6 106.3 106.3z"/>
		</g>
		<g id="&lt;Group&gt;">
			<path id="&lt;Path&gt;" class="s1" d="m189.6 304.6c-11.9-10.9-37.9-10.9-47.7 0-11.4 12.4-20.8 26.4-28.5 41.6 15.3 8.5 32.9 13.3 51.6 13.3 22 0 42.4-6.7 59.4-18.1-9.9-13.4-21.9-25.3-34.8-36.8z"/>
		</g>
		<g id="&lt;Group&gt;">
			<path id="&lt;Path&gt;" class="s2" d="m185.1 328c-11.9-8.7-21.6-7.6-32.5 0-8.1 5.4-16.7 17.6-21.5 26 10.7 3.6 22.1 5.5 33.9 5.5 14.6 0 28.4-2.9 41.1-8.2-4.7-6.1-14.2-18.8-21-23.3z"/>
		</g>
		<g id="&lt;Group&gt;" style="opacity: .2;mix-blend-mode: overlay">
			<path id="&lt;Path&gt;" class="s3" d="m206.1 320.2c-5.3-5.4-10.8-10.6-16.5-15.6-11.9-10.9-37.9-10.9-47.7 0-7.1 7.8-13.5 16.2-19.2 25.2 46.2 18.9 85.9-7.1 83.4-9.6z"/>
		</g>
		<g id="&lt;Group&gt;">
			<g id="&lt;Group&gt;">
				<g id="&lt;Group&gt;">
					<path id="&lt;Path&gt;" class="s1" d="m152.6 179.8c0 0-11.4-56-60.1-61.1-48.7-5.2-114.6 46.4-86.5 81.6 26.6 33.4 83.7-48.4 83.7-48.4 0 0 27.8 1.5 47.4 33.1z"/>
				</g>
				<g id="&lt;Group&gt;">
					<path id="&lt;Path&gt;" class="s2" d="m98.5 144.6c-3.4 1.7-6.4 4.2-8.6 7.3 2.2 0.2 28.4 2.8 47.2 33.1l7.8-3.6c-4-15.3-9.8-29-22.9-36.1-7.3-3.9-16.1-4.4-23.5-0.7z"/>
				</g>
			</g>
			<g id="&lt;Group&gt;">
				<g id="&lt;Group&gt;">
					<path id="&lt;Path&gt;" class="s1" d="m177.3 179.8c0 0 11.4-56 60.2-61.1 48.7-5.2 114.6 46.4 86.5 81.6-26.6 33.4-83.7-48.4-83.7-48.4 0 0-27.8 1.5-47.4 33.1z"/>
				</g>
				<g id="&lt;Group&gt;">
					<path id="&lt;Path&gt;" class="s2" d="m231.5 144.6c3.3 1.7 6.4 4.2 8.6 7.3-2.2 0.2-28.4 2.8-47.2 33.1l-7.8-3.6c4-15.3 9.8-29 22.9-36.1 7.3-3.9 16.1-4.4 23.5-0.7z"/>
				</g>
			</g>
		</g>
		<g id="&lt;Group&gt;">
			<path id="&lt;Path&gt;" class="s2" d="m166.9 274.2c-23.9-15.2-55.4-22.8-81.5-13-2.3 0.8-4.4 1.9-6.5 3.2 0.5 37.7 33.5 58.5 101.9 48.9 28.9-4 66.6-11.8 70.2-48.7q0.3-3.4 0-6.9c-29-7.3-59.3-0.4-84.1 16.5z"/>
		</g>
		<g id="&lt;Group&gt;">
			<path id="&lt;Path&gt;" class="s1" d="m170.7 170.9c-29.9-3.6-86.2 41-91.3 84.3q-0.5 4.8-0.5 9.2c2.1-1.3 4.2-2.4 6.5-3.2 26.1-9.8 57.6-2.2 81.5 13 24.8-16.9 55.1-23.8 84.1-16.5-2.9-36.3-52.3-83.4-80.3-86.8z"/>
		</g>
		<g id="&lt;Group&gt;">
			<path id="&lt;Path&gt;" class="s4" d="m167.8 275.1c4-1 7.3-6.1 7.3-6.1 0 0 12.9 1.2 9.3-6.9-3.8-8.7-37.4-4.1-36.1 2.8 1.3 6.8 9.1 4 9.1 4 0 0 5.8 7.3 10.4 6.2z"/>
		</g>
		<g id="&lt;Group&gt;">
			<path id="&lt;Path&gt;" class="s1" d="m168.8 172.4c0 0 7.3-1.6 6.2-5.4-1.1-3.8-5.6-3.9-8.3 0 0 0 5.7-6.8 0-8.4-5.8-1.7-5.3 8.9-5.3 8.9 0 0-1.1-4.6-3.8-4.2-2.7 0.4-3.5 8.3 0 10.7 3.6 2.5 11.2-1.6 11.2-1.6z"/>
		</g>
		<path id="&lt;Path&gt;" class="s4" d="m151 291.4q-0.2 0-0.4-0.1c-5.3-0.1-10.1-2.8-14.1-8.1-0.9-1.2-0.7-2.9 0.5-3.8 1.2-0.9 2.9-0.7 3.8 0.5 3 3.9 6.3 5.9 9.9 6 7.3 0.3 13.8-7.2 13.9-7.3 1-1.1 2.7-1.2 3.8-0.3 5.1 4.3 10 6.2 14.7 5.6 7.3-1 11.9-7.6 11.9-7.7 0.8-1.3 2.5-1.6 3.8-0.7 1.2 0.8 1.5 2.5 0.7 3.7-0.2 0.4-5.9 8.7-15.6 10-5.6 0.8-11.4-0.9-17-5.1-2.9 2.6-8.9 7.3-15.9 7.3z"/>
		<g id="&lt;Group&gt;">
			<g id="&lt;Group&gt;">
				<g id="&lt;Group&gt;">
					<g id="&lt;Group&gt;">
						<path id="&lt;Path&gt;" class="s4" d="m149.1 240.6c0 11.6-4.9 15.1-10.9 15.1-6 0-10.9-3.5-10.9-15.1 0-11.6 4.9-21 10.9-21 6 0 10.9 9.4 10.9 21z"/>
					</g>
					<g id="&lt;Group&gt;">
						<path id="&lt;Path&gt;" class="s5" d="m144.8 224c-1.8-2.8-4.1-4.4-6.6-4.4-5.6 0-10.3 8.2-10.9 18.8 3.7 0 7.3-1 10.3-2.8 3.2-2.4 6.3-6.8 7.2-11.6z"/>
					</g>
				</g>
				<g id="&lt;Group&gt;">
					<g id="&lt;Group&gt;">
						<path id="&lt;Path&gt;" class="s4" d="m206.3 240.6c0 11.6-4.8 15.1-10.9 15.1-6 0-10.9-3.5-10.9-15.1 0-11.6 4.9-21 10.9-21 6.1 0 10.9 9.4 10.9 21z"/>
					</g>
					<g id="&lt;Group&gt;">
						<path id="&lt;Path&gt;" class="s5" d="m202.1 224c-1.9-2.8-4.2-4.4-6.7-4.4-5.6 0-10.2 8.2-10.8 18.8 3.6 0 7.2-1 10.2-2.8 3.2-2.4 6.4-6.8 7.3-11.6z"/>
					</g>
				</g>
			</g>
			<path id="&lt;Path&gt;" class="s4" d="m127 216.2c-0.7 0-1.4-0.2-1.9-0.7-1.1-1.1-1.1-2.8-0.1-3.9 3.5-3.7 7.8-5.6 12.7-5.6 7.2 0 11.8 5.1 12 5.3 1 1.1 0.9 2.8-0.2 3.8-1.1 1-2.8 0.9-3.8-0.2-0.1 0-3.3-3.4-8-3.4-3.4 0-6.3 1.2-8.8 3.9-0.5 0.5-1.2 0.8-1.9 0.8z"/>
			<path id="&lt;Path&gt;" class="s4" d="m183 216.2c-0.7 0-1.3-0.2-1.9-0.7-1-1.1-1.1-2.8-0.1-3.9 3.5-3.7 7.8-5.6 12.7-5.6 7.2 0 11.8 5.1 12 5.3 1 1.1 0.9 2.8-0.2 3.8-1.1 1-2.8 0.9-3.8-0.2-0.1 0-3.3-3.4-8-3.4-3.4 0-6.2 1.2-8.7 3.9-0.6 0.5-1.3 0.8-2 0.8z"/>
		</g>
	</g>
</svg>