<svg version="1.2" xmlns="http://www.w3.org/2000/svg" viewBox="0 0 338 292" width="338" height="292">
	<title>&lt;Group&gt;</title>
	<style>
		.s0 { fill: #4ab6b8 } 
		.s1 { fill: #e38027 } 
		.s2 { fill: #f6caa6 } 
		.s3 { fill: #000000 } 
		.s4 { fill: #2b0020 } 
		.s5 { fill: #e36127 } 
		.s6 { fill: #ffffff } 
	</style>
	<g id="&lt;Group&gt;">
		<g id="&lt;Group&gt;">
			<g id="&lt;Group&gt;">
				<path id="&lt;Path&gt;" class="s0" d="m270.9 172.2c-3.4 58.6-53.7 103.3-112.4 99.8-58.6-3.4-103.3-53.7-99.8-112.3 3.5-58.6 53.8-103.3 112.4-99.9 58.6 3.5 103.3 53.8 99.8 112.4z"/>
			</g>
			<g id="&lt;Group&gt;">
				<path id="&lt;Path&gt;" class="s1" d="m186.4 218.6c-11.3-11.5-37.3-13-47.7-2.8-12 11.8-22.3 25.2-30.9 39.9 14.8 9.4 32 15.2 50.7 16.3 22 1.3 42.8-4.1 60.4-14.6-9.1-13.9-20.3-26.5-32.5-38.8z"/>
			</g>
			<g id="&lt;Group&gt;">
				<path id="&lt;Path&gt;" class="s2" d="m180.5 241.7c-11.4-9.3-21.1-8.8-32.4-1.9-8.5 5-17.8 16.6-23 24.7 10.4 4.2 21.6 6.8 33.4 7.5 14.6 0.9 28.6-1.2 41.5-5.8-4.2-6.3-13-19.6-19.5-24.5z"/>
			</g>
			<g id="&lt;Group&gt;" style="opacity: .2;mix-blend-mode: overlay">
				<path id="&lt;Path&gt;" class="s3" d="m201.9 235.2c-4.9-5.7-10.1-11.2-15.5-16.6-11.3-11.5-37.3-13-47.7-2.8-7.6 7.4-14.4 15.5-20.6 24.1 45 21.6 86.1-2 83.8-4.7z"/>
			</g>
		</g>
		<g id="&lt;Group&gt;">
			<g id="&lt;Group&gt;">
				<g id="&lt;Group&gt;">
					<g id="&lt;Group&gt;">
						<path id="&lt;Path&gt;" class="s4" d="m214.5 75.9c0 0 36.4-12.3 32.7-26.2-3.7-13.8-28.5-24.6-38-17.7-9.4 6.9-7.6 35.3-7.6 35.3z"/>
					</g>
					<g id="&lt;Group&gt;">
						<path id="&lt;Path&gt;" class="s2" d="m214.4 70.7c0 0 19.3-10.1 19.6-16.4 0.3-6.4-9-13.9-14.1-13.9-5.2 0-12.4 23.9-12.4 23.9z"/>
					</g>
				</g>
				<g id="&lt;Group&gt;">
					<g id="&lt;Group&gt;">
						<path id="&lt;Path&gt;" class="s4" d="m117.5 75.9c0 0-36.4-12.3-32.7-26.2 3.7-13.8 28.5-24.6 37.9-17.7 9.5 6.9 7.6 35.3 7.6 35.3z"/>
					</g>
					<g id="&lt;Group&gt;">
						<path id="&lt;Path&gt;" class="s2" d="m117.6 70.7c0 0-19.3-10.1-19.6-16.4-0.3-6.4 9-13.9 14.1-13.9 5.1 0 12.4 23.9 12.4 23.9z"/>
					</g>
				</g>
			</g>
			<g id="&lt;Group&gt;">
				<path id="&lt;Path&gt;" class="s1" d="m265.3 149.2c0 56.8-45 66.1-100.5 66.1-55.5 0-100.5-9.3-100.5-66.1 0-56.8 61.1-102.8 100.5-102.8 38.2 0 100.5 46 100.5 102.8z"/>
			</g>
			<g id="&lt;Group&gt;">
				<path id="&lt;Path&gt;" class="s2" d="m253.6 159.2c0 52.1-39.8 60.6-88.8 60.6-49 0-88.7-8.5-88.7-60.6 0-52 54-94.2 88.7-94.2 33.8 0 88.8 42.2 88.8 94.2z"/>
			</g>
			<g id="&lt;Group&gt;" style="opacity: .3;mix-blend-mode: overlay">
				<path id="&lt;Path&gt;" class="s3" d="m99 144.5c-12.1 3.9-23.7 11.3-33.2 21.1 8.1 42.3 49.3 49.7 99 49.7 49.6 0 90.8-7.4 99-49.5-43.3-36.7-112-37.3-164.8-21.3z"/>
			</g>
			<g id="&lt;Group&gt;">
				<path id="&lt;Path&gt;" class="s2" d="m247.7 200c0 26.3-37.1 30.7-82.9 30.7-45.7 0-82.8-4.4-82.8-30.7 0-26.3 37.1-47.6 82.8-47.6 45.8 0 82.9 21.3 82.9 47.6z"/>
			</g>
			<g id="&lt;Group&gt;">
				<path id="&lt;Path&gt;" class="s5" d="m200.1 156.9c0 0-11.8-106.8-23.9-110.5-12.2-3.8-21.2-2.2-27.8 3.3-6.7 5.5-18.1 103.6-16.9 109.3 1.2 5.7 59.1 13 68.6-2.1z"/>
			</g>
			<g id="&lt;Group&gt;">
				<path id="&lt;Path&gt;" class="s4" d="m200.1 168c4.1-4.6 7.4-12.1-8.2-15.6-15.7-3.6-53.8-1.4-60.4 4-6.6 5.4-0.5 15 3.9 15.2 10.9 0.3 12.6-6.3 17.7 0 5.1 6.2 8.8 10.6 14.7 9.9 5.8-0.8 10.3-11.9 15.8-12.3 5.5-0.4 13.6 2 16.5-1.2z"/>
			</g>
			<g id="&lt;Group&gt;">
				<g id="&lt;Group&gt;">
					<path id="&lt;Path&gt;" class="s4" d="m261.4 174.9l-21.7-23c-1-1.1-0.1-2.9 1.4-2.7l24.2 3.2c0 0-0.7 15.1-3.9 22.5z"/>
				</g>
				<g id="&lt;Group&gt;">
					<path id="&lt;Path&gt;" class="s4" d="m260.1 120.6h-17.6c-1.2 0-2-1.4-1.3-2.4l9.7-16.1c0 0 6.9 11.3 9.2 18.5z"/>
				</g>
				<g id="&lt;Group&gt;">
					<path id="&lt;Path&gt;" class="s4" d="m236.6 83.6l-15.1 9.5c-1.3 0.7-2.8-0.4-2.4-1.8l4.8-19.6c0 0 7.1 5.5 12.7 11.9z"/>
				</g>
			</g>
			<g id="&lt;Group&gt;">
				<g id="&lt;Group&gt;">
					<path id="&lt;Path&gt;" class="s4" d="m68.2 174.9l21.7-23c1-1.1 0.1-2.9-1.4-2.7l-24.2 3.2c0 0 0.7 15.1 3.9 22.5z"/>
				</g>
				<g id="&lt;Group&gt;">
					<path id="&lt;Path&gt;" class="s4" d="m69.5 120.6h17.6c1.2 0 2-1.4 1.3-2.4l-9.7-16.1c0 0-6.9 11.3-9.2 18.5z"/>
				</g>
				<g id="&lt;Group&gt;">
					<path id="&lt;Path&gt;" class="s4" d="m93 83.6l15.1 9.5c1.3 0.7 2.8-0.4 2.4-1.8l-4.8-19.6c0 0-7.1 5.5-12.7 11.9z"/>
				</g>
			</g>
			<g id="&lt;Group&gt;">
				<g id="&lt;Group&gt;">
					<path id="&lt;Path&gt;" class="s4" d="m126.2 135.4c0-6.9-1.7-13-4.3-16.8-0.9 4.8-4.1 9.3-7.3 11.7-3.1 1.9-6.7 2.8-10.4 2.9q0-0.1 0-0.1 0 1.1 0 2.3c0 11.7 4.9 15.2 11 15.2 6.1 0 11-3.5 11-15.2z"/>
				</g>
				<g id="&lt;Group&gt;">
					<path id="&lt;Path&gt;" class="s6" d="m114.6 130.3c3.2-2.4 6.4-6.9 7.3-11.7q-1.3-2-2.9-3.1-0.1-0.2-0.3-0.3-0.3-0.1-0.5-0.3-0.3-0.1-0.5-0.2-0.2-0.1-0.5-0.2-0.3-0.1-0.6-0.2-0.2 0-0.4-0.1-0.5-0.1-1-0.1-0.6 0-1.1 0.1-0.2 0.1-0.4 0.1-0.3 0.1-0.7 0.2-0.2 0.1-0.4 0.2-0.3 0.2-0.6 0.3-0.2 0.2-0.4 0.3-0.3 0.2-0.6 0.4-0.2 0.2-0.4 0.4-0.3 0.2-0.5 0.4-0.2 0.3-0.4 0.5-0.3 0.3-0.5 0.6-0.2 0.2-0.4 0.5-0.2 0.3-0.4 0.6-0.2 0.3-0.4 0.6-0.2 0.3-0.4 0.7-0.2 0.3-0.3 0.7-0.2 0.3-0.4 0.7-0.2 0.4-0.3 0.8-0.2 0.4-0.3 0.8-0.2 0.4-0.3 0.8-0.2 0.4-0.3 0.8-0.1 0.5-0.3 0.9-0.1 0.4-0.2 0.9-0.1 0.4-0.2 0.9-0.1 0.5-0.2 1-0.1 0.4-0.1 0.9-0.1 0.5-0.2 1.1-0.1 0.4-0.1 0.9-0.1 0.9-0.2 1.9 0 0 0 0.1c3.7-0.1 7.3-1 10.4-2.9z"/>
				</g>
				<g id="&lt;Group&gt;">
					<path id="&lt;Path&gt;" class="s5" d="m102.6 108.3c-1.1 1.1-1.1 3 0.1 4.1 0.6 0.5 1.3 0.8 2 0.8 0.8 0 1.6-0.3 2.2-0.9 2.4-2.6 5.3-3.9 8.6-3.9 4.7 0 7.9 3.4 8 3.5 1.1 1.2 2.9 1.3 4.1 0.2 1.2-1.1 1.3-3 0.2-4.2-0.1-0.2-4.9-5.4-12.3-5.4-5 0-9.3 2-12.9 5.8z"/>
				</g>
				<g id="&lt;Group&gt;">
					<path id="&lt;Path&gt;" class="s4" d="m212.8 129.5c-3 1.9-6.6 2.8-10.3 2.9q0-0.1 0-0.1 0 1.1 0 2.3c0 11.7 4.9 15.2 11 15.2 6.1 0 11-3.5 11-15.2 0-6.9-1.7-13-4.3-16.8-0.9 4.8-4.1 9.3-7.4 11.7z"/>
				</g>
				<g id="&lt;Group&gt;">
					<path id="&lt;Path&gt;" class="s6" d="m212.8 129.5c3.3-2.4 6.5-6.9 7.4-11.7q0 0 0 0-1.3-2-2.9-3.1-0.2-0.1-0.3-0.3-0.3-0.1-0.5-0.3-0.3-0.1-0.5-0.2-0.3-0.1-0.5-0.2-0.3-0.1-0.6-0.2-0.2 0-0.4-0.1-0.5-0.1-1-0.1-0.6 0-1.1 0.1-0.2 0.1-0.4 0.1-0.3 0.1-0.7 0.2-0.2 0.1-0.4 0.2-0.3 0.2-0.6 0.3-0.2 0.2-0.4 0.3-0.3 0.2-0.6 0.4-0.2 0.2-0.4 0.4-0.3 0.2-0.5 0.5-0.2 0.2-0.4 0.4-0.3 0.3-0.5 0.6-0.2 0.2-0.4 0.5-0.2 0.3-0.5 0.6-0.1 0.3-0.3 0.6-0.2 0.3-0.4 0.7-0.2 0.3-0.4 0.7-0.2 0.3-0.3 0.7-0.2 0.4-0.3 0.8-0.2 0.4-0.4 0.8-0.1 0.4-0.2 0.8-0.2 0.4-0.3 0.8-0.2 0.5-0.3 0.9-0.1 0.4-0.2 0.9-0.1 0.4-0.2 0.9-0.1 0.5-0.2 1-0.1 0.4-0.2 0.9 0 0.5-0.1 1.1-0.1 0.4-0.1 0.9-0.1 0.9-0.2 1.9 0 0 0 0.1c3.7-0.1 7.3-1 10.3-2.9z"/>
				</g>
				<g id="&lt;Group&gt;">
					<path id="&lt;Path&gt;" class="s5" d="m200.9 107.5c-1.1 1.1-1.1 3 0.1 4.1 0.6 0.5 1.3 0.8 2 0.8 0.8 0 1.6-0.3 2.1-0.9 2.5-2.6 5.3-3.9 8.7-3.9 4.7 0 7.9 3.4 8 3.5 0.5 0.6 1.3 0.9 2.1 0.9 0.7 0 1.4-0.2 2-0.7 1.2-1.1 1.3-3 0.2-4.2-0.1-0.1-1.3-1.4-3.3-2.7-2.2-1.3-5.2-2.7-9-2.7-5 0-9.3 2-12.9 5.8z"/>
				</g>
			</g>
			<path id="&lt;Path&gt;" class="s4" d="m181.6 208.2c-5.3 0-10.5-2.2-15.4-6.5-3.2 2.5-9.6 6.8-16.8 6.1-5.3-0.5-9.8-3.6-13.5-9.2-0.8-1.2-0.4-2.9 0.8-3.7 1.3-0.9 2.9-0.5 3.8 0.7 2.7 4.2 5.9 6.4 9.4 6.8 7.2 0.7 14.3-6.2 14.4-6.2 1.1-1.1 2.8-1.1 3.8-0.1 4.8 4.7 9.6 6.9 14.3 6.6 7.3-0.4 12.4-6.7 12.4-6.8 0.9-1.1 2.6-1.3 3.8-0.4 1.2 0.9 1.4 2.6 0.5 3.8-0.3 0.3-6.6 8.2-16.3 8.8q-0.6 0.1-1.2 0.1z"/>
			<path id="&lt;Path&gt;" class="s4" d="m166.2 200.8c-1.5 0-2.7-1.2-2.7-2.7v-24.7c0-1.5 1.2-2.7 2.7-2.7 1.5 0 2.7 1.2 2.7 2.7v24.7c0 1.5-1.2 2.7-2.7 2.7z"/>
		</g>
	</g>
</svg>