<svg version="1.2" xmlns="http://www.w3.org/2000/svg" viewBox="0 0 324 336" width="324" height="336">
	<title>WarthogAvatar</title>
	<style>
		.s0 { fill: #2b0020 } 
		.s1 { fill: #9f3423 } 
		.s2 { fill: #e39635 } 
		.s3 { fill: #f6db99 } 
		.s4 { fill: #aa4529 } 
		.s5 { fill: #f98c87 } 
		.s6 { fill: #f87671 } 
		.s7 { fill: #ffffff } 
	</style>
	<g id="&lt;Group&gt;">
		<g id="&lt;Group&gt;">
			<path id="&lt;Path&gt;" class="s0" d="m98.1 87.9c0 0-13.2-5.4-17.9 0-4.7 5.4 7.7 10.3 7.7 10.3 0 0-23.3-0.2-26.5 6-3.3 6.1 11.5 6.3 11.5 6.3 0 0-19.1 3.8-22.4 11-3.3 7.3 8.7 5.8 8.7 5.8 0 0-22.8 9.1-22.5 19.9 0.4 10.9 12.4 1.8 12.4 1.8 0 0-13.4 10.7-12.4 17.9 1.1 7.1 6.7 4.9 6.7 4.9 0 0-9.5 14.5-3.4 23.6 6.2 9 31.5-2.7 31.5-2.7 0 0 89.8-93.2 26.6-104.8z"/>
		</g>
		<g id="&lt;Group&gt;">
			<path id="&lt;Path&gt;" class="s1" d="m145.2 90.7c-56.6 2.4-101.8 49-101.8 106.2 0 58.7 47.6 106.3 106.3 106.3 14.8 0 28.8-3 41.6-8.4-56.1-46.7-69.9-134.5-46.1-204.1z"/>
		</g>
		<g id="&lt;Group&gt;">
			<path id="&lt;Path&gt;" class="s2" d="m256 196.9c0-58.7-47.6-106.3-106.3-106.3q-2.2 0-4.5 0.1c-23.8 69.6-10 157.4 46.1 204.1 38-16.2 64.7-53.9 64.7-97.9z"/>
		</g>
		<g id="&lt;Group&gt;">
			<path id="&lt;Path&gt;" class="s3" d="m281.9 236c0 0 16.8-11.5 8.8-48-0.4-2.1-3.3-2.4-4.2-0.4-3 6.8-15.8 24.9-32 28.6-26.4 6-11.4 48.6 27.4 19.8z"/>
		</g>
		<g id="&lt;Group&gt;">
			<path id="&lt;Path&gt;" class="s4" d="m112.8 99.4c6.6-9.1 40.1-14.5 62.2-7.6 22 6.9 0 77.4 53.1 94.6 53.2 17.3 56.6 42.8 49.7 53.9-6.9 11-109.7 50-149.8-14.9-40-64.9-20.7-118.4-15.2-126z"/>
		</g>
		<g id="&lt;Group&gt;">
			<path id="&lt;Path&gt;" class="s4" d="m144.2 245.9c0 0-38.5 4.5-46.7-23.4-8.1-28 16.3-55.6 16.3-55.6 0 0 60.5 69.9 30.4 79z"/>
		</g>
		<g id="&lt;Group&gt;">
			<path id="&lt;Path&gt;" class="s5" d="m231.1 258.1c0 0 34.3-1.3 46.7-17.8 12.4-16.6-15.2-61.7-29.7-66.1-14.5-4.4-60.3 80.3-17 83.9z"/>
		</g>
		<g id="&lt;Group&gt;">
			<path id="&lt;Path&gt;" class="s3" d="m182.8 256.5c0 0 21.7-8.9 21.6-51.9 0-2.5-3.2-3.5-4.6-1.5-5.1 6.9-23.8 24.2-43 24.4-31.1 0.3-24.7 51.9 26 29z"/>
		</g>
		<g id="&lt;Group&gt;">
			<g id="&lt;Group&gt;">
				<path id="&lt;Path&gt;" class="s4" d="m171.5 95.3c1.3-5.4 7.9-24 33.6-24.5 0.8 0 1.5 0.8 1.4 1.7-1 6.7-6.4 31.4-34 24.5-0.8-0.2-1.2-1-1-1.7z"/>
			</g>
			<g id="&lt;Group&gt;">
				<path id="&lt;Path&gt;" class="s5" d="m178 90.8c0.9-3.3 4.3-10.3 16.4-12.8 1-0.2 2 0.7 1.9 1.7-0.4 4.6-2.9 14.9-16.9 13.1-1-0.1-1.6-1.1-1.4-2z"/>
			</g>
		</g>
		<g id="&lt;Group&gt;">
			<path id="&lt;Path&gt;" class="s0" d="m132.7 91.9c0 0 16.4-4.2 22.9 18.6 0 0 14.4-4.5 14.2-12.3-0.3-7.8-8 2.3-8 2.3 0 0 9.4-17 4.2-22.5-5.2-5.5-9 4.9-9 4.9 0 0-4.1-16.6-11-14.5-6.9 2-2.8 12-2.8 12 0 0-12.1-11.7-17.6-9.6-5.5 2.1 4.1 9.6 4.1 9.6 0 0-18-7.9-22.4 0-4.5 8 9 15 9 15 0 0 8.4-3.1 16.4-3.5z"/>
		</g>
		<g id="&lt;Group&gt;">
			<g id="&lt;Group&gt;">
				<path id="&lt;Path&gt;" class="s4" d="m123 97.7c-1.4-5.4-8-24-33.6-24.5-0.9 0-1.6 0.8-1.5 1.7 1 6.8 6.5 31.5 34 24.6 0.8-0.2 1.2-1 1.1-1.8z"/>
			</g>
			<g id="&lt;Group&gt;">
				<path id="&lt;Path&gt;" class="s5" d="m116.4 93.2c-0.9-3.2-4.3-10.2-16.4-12.7-1-0.3-2 0.6-1.9 1.7 0.4 4.5 2.9 14.8 16.9 13 1-0.1 1.6-1.1 1.4-2z"/>
			</g>
		</g>
		<g id="&lt;Group&gt;">
			<path id="&lt;Path&gt;" class="s6" d="m233.9 239.1c6.9 0.4 13.2-27.6 7.3-32.6-5.8-5-30.1 31.6-7.3 32.6z"/>
		</g>
		<g id="&lt;Group&gt;">
			<path id="&lt;Path&gt;" class="s6" d="m269.8 232.2c5.9-4.4-6.5-29.5-11.2-27.5-4.7 2-5.1 39.7 11.2 27.5z"/>
		</g>
		<g id="&lt;Group&gt;">
			<g id="&lt;Group&gt;">
				<path id="&lt;Path&gt;" class="s0" d="m141.4 162c0-6.3-1.5-11.9-3.9-15.5-0.9 4.5-3.8 8.6-6.8 10.9-2.8 1.6-6.2 2.5-9.5 2.6q0 0 0-0.1-0.1 1.1-0.1 2.1c0 10.8 4.6 14.1 10.2 14.1 5.6 0 10.1-3.3 10.1-14.1z"/>
			</g>
			<g id="&lt;Group&gt;">
				<path id="&lt;Path&gt;" class="s7" d="m130.7 157.4c3-2.3 5.9-6.4 6.8-10.9q0 0 0 0-1.2-1.8-2.7-2.9-0.1-0.1-0.3-0.2-0.2-0.1-0.5-0.3-0.2-0.1-0.4-0.2-0.2-0.1-0.5-0.2-0.2-0.1-0.5-0.1-0.2-0.1-0.4-0.1-0.4-0.1-0.9-0.1-0.5 0-1 0.1-0.2 0-0.4 0.1-0.3 0.1-0.6 0.2-0.2 0-0.4 0.1-0.3 0.2-0.6 0.3-0.2 0.1-0.4 0.3-0.2 0.2-0.5 0.3-0.2 0.2-0.4 0.4-0.2 0.2-0.4 0.4-0.2 0.2-0.4 0.4-0.2 0.3-0.5 0.6-0.1 0.2-0.3 0.4-0.2 0.3-0.4 0.6-0.2 0.3-0.4 0.6-0.2 0.3-0.3 0.6-0.2 0.3-0.4 0.6-0.1 0.4-0.3 0.7-0.1 0.4-0.3 0.7-0.1 0.4-0.3 0.8-0.1 0.3-0.2 0.7-0.2 0.4-0.3 0.8-0.1 0.4-0.2 0.8-0.1 0.4-0.2 0.8-0.1 0.4-0.2 0.8-0.1 0.5-0.2 1-0.1 0.4-0.2 0.8 0 0.5-0.1 1-0.1 0.4-0.1 0.8-0.1 0.9-0.1 1.8 0 0.1 0 0.1c3.3-0.1 6.7-1 9.5-2.6z"/>
			</g>
			<g id="&lt;Group&gt;">
				<path id="&lt;Path&gt;" class="s1" d="m119.6 137c-1 1.1-0.9 2.8 0.1 3.8 0.6 0.5 1.2 0.7 1.9 0.7 0.7 0 1.4-0.2 2-0.8 2.3-2.4 4.9-3.6 8-3.6 4.3 0 7.3 3.1 7.3 3.2 1 1.1 2.7 1.2 3.8 0.2 1.2-1 1.3-2.7 0.3-3.8-0.2-0.2-4.6-5-11.4-5-4.6 0-8.6 1.8-12 5.3z"/>
			</g>
			<g id="&lt;Group&gt;">
				<path id="&lt;Path&gt;" class="s0" d="m184.3 153.3c-2.8 1.7-6.2 2.5-9.5 2.6q0 0 0 0-0.1 1-0.1 2c0 10.9 4.6 14.1 10.2 14.1 5.6 0 10.2-3.2 10.2-14.1 0-6.3-1.6-11.9-4-15.5-0.9 4.5-3.8 8.6-6.8 10.9z"/>
			</g>
			<g id="&lt;Group&gt;">
				<path id="&lt;Path&gt;" class="s7" d="m184.3 153.3c3-2.3 5.9-6.4 6.8-10.9q-1.2-1.8-2.7-2.8-0.1-0.2-0.3-0.3-0.2-0.1-0.5-0.2-0.2-0.2-0.4-0.3-0.2-0.1-0.4-0.1-0.3-0.1-0.6-0.2-0.2-0.1-0.4-0.1-0.4-0.1-0.9-0.1-0.5 0-1 0.1-0.2 0-0.3 0.1-0.4 0.1-0.7 0.2-0.2 0.1-0.4 0.2-0.3 0.1-0.5 0.2-0.2 0.2-0.4 0.3-0.3 0.2-0.6 0.4-0.2 0.1-0.3 0.3-0.3 0.2-0.5 0.5-0.2 0.1-0.4 0.4-0.2 0.2-0.4 0.5-0.2 0.2-0.4 0.5-0.2 0.2-0.4 0.5-0.2 0.3-0.4 0.6-0.1 0.3-0.3 0.6-0.2 0.3-0.3 0.6-0.2 0.4-0.4 0.8-0.1 0.3-0.3 0.6-0.1 0.4-0.3 0.8-0.1 0.3-0.2 0.7-0.2 0.4-0.3 0.8-0.1 0.4-0.2 0.8-0.1 0.4-0.2 0.9-0.1 0.4-0.2 0.8-0.1 0.4-0.2 0.9-0.1 0.4-0.1 0.8-0.1 0.5-0.2 1 0 0.4-0.1 0.8-0.1 0.9-0.1 1.9 0 0 0 0c3.3-0.1 6.7-0.9 9.5-2.6z"/>
			</g>
			<g id="&lt;Group&gt;">
				<path id="&lt;Path&gt;" class="s1" d="m173.3 132.9c-1.1 1.1-1 2.8 0.1 3.8 0.5 0.5 1.2 0.8 1.8 0.8 0.7 0 1.5-0.3 2-0.9 2.3-2.4 4.9-3.6 8-3.6 4.3 0 7.3 3.1 7.3 3.2 0.6 0.6 1.3 0.9 2.1 0.9 0.6 0 1.2-0.2 1.8-0.7 1.1-1 1.2-2.7 0.2-3.8-0.1-0.1-1.2-1.3-3.1-2.5-2-1.3-4.8-2.5-8.3-2.5-4.6 0-8.6 1.8-11.9 5.3z"/>
			</g>
		</g>
	</g>
</svg>